<?xml version="1.0" encoding="UTF-8" standalone="no"?>
<!-- Created with Inkscape (http://www.inkscape.org/) -->

<svg
   xmlns:dc="http://purl.org/dc/elements/1.1/"
   xmlns:cc="http://creativecommons.org/ns#"
   xmlns:rdf="http://www.w3.org/1999/02/22-rdf-syntax-ns#"
   xmlns:svg="http://www.w3.org/2000/svg"
   xmlns="http://www.w3.org/2000/svg"
   xmlns:sodipodi="http://sodipodi.sourceforge.net/DTD/sodipodi-0.dtd"
   xmlns:inkscape="http://www.inkscape.org/namespaces/inkscape"
   width="20.61175mm"
   height="28.693886mm"
   viewBox="0 0 20.61175 28.693886"
   version="1.1"
   id="svg17344"
   inkscape:version="0.92.3 (2405546, 2018-03-11)"
   sodipodi:docname="4d.svg">
  <defs
     id="defs17338" />
  <sodipodi:namedview
     id="base"
     pagecolor="#ffffff"
     bordercolor="#666666"
     borderopacity="1.0"
     inkscape:pageopacity="0.0"
     inkscape:pageshadow="2"
     inkscape:zoom="5.6"
     inkscape:cx="15.600526"
     inkscape:cy="50.016046"
     inkscape:document-units="mm"
     inkscape:current-layer="layer1"
     showgrid="false"
     inkscape:window-width="1920"
     inkscape:window-height="1057"
     inkscape:window-x="-8"
     inkscape:window-y="-8"
     inkscape:window-maximized="1"
     fit-margin-top="0"
     fit-margin-left="0"
     fit-margin-right="0"
     fit-margin-bottom="0" />
  <metadata
     id="metadata17341">
    <rdf:RDF>
      <cc:Work
         rdf:about="">
        <dc:format>image/svg+xml</dc:format>
        <dc:type
           rdf:resource="http://purl.org/dc/dcmitype/StillImage" />
        <dc:title></dc:title>
      </cc:Work>
    </rdf:RDF>
  </metadata>
  <g
     inkscape:label="Layer 1"
     inkscape:groupmode="layer"
     id="layer1"
     transform="translate(-203.89298,44.880454)">
    <path
       d="m 224.3936,-18.202342 c 0,1.04775 -0.85725,1.904648 -1.90465,1.904648 h -16.5802 c -1.0474,0 -1.90465,-0.856898 -1.90465,-1.904648 v -24.66234 c 0,-1.047397 0.85725,-1.904647 1.90465,-1.904647 h 16.5802 c 1.0474,0 1.90465,0.85725 1.90465,1.904647 z"
       style="display:inline;fill:#fafafa;fill-opacity:1;fill-rule:evenodd;stroke:none;stroke-width:0.35277775"
       id="path3793"
       inkscape:connector-curvature="0" />
    <path
       d="m 224.3936,-18.202342 c 0,1.04775 -0.85725,1.904648 -1.90465,1.904648 h -16.5802 c -1.0474,0 -1.90465,-0.856898 -1.90465,-1.904648 v -24.66234 c 0,-1.047397 0.85725,-1.904647 1.90465,-1.904647 h 16.5802 c 1.0474,0 1.90465,0.85725 1.90465,1.904647 z"
       style="display:inline;fill:none;stroke:#cccccc;stroke-width:0.22225;stroke-linecap:butt;stroke-linejoin:miter;stroke-miterlimit:3.86400008;stroke-dasharray:none;stroke-opacity:1"
       id="path3797"
       inkscape:connector-curvature="0" />
    <path
       d="m 209.06914,-34.758942 c -0.5013,0 -0.91793,0.335844 -1.02835,0.786342 -0.11077,-0.450498 -0.52846,-0.786342 -1.02975,-0.786342 -0.58491,0 -1.05904,0.4572 -1.05904,1.020586 0.0441,1.015295 2.08879,2.937933 2.08879,2.937933 0,0 2.0447,-1.922638 2.08739,-2.937933 0,-0.563386 -0.47343,-1.020586 -1.05904,-1.020586"
       style="display:inline;fill:#b50f0d;fill-opacity:1;fill-rule:nonzero;stroke:none;stroke-width:0.35277775"
       id="path3801"
       inkscape:connector-curvature="0" />
    <path
       d="m 219.30037,-28.170745 c -1.21673,0 -2.22885,0.816327 -2.49626,1.909233 -0.26881,-1.092906 -1.28235,-1.909233 -2.49872,-1.909233 -1.41993,0 -2.57105,1.109839 -2.57105,2.476852 0.10619,2.464153 5.06977,7.131403 5.06977,7.131403 0,0 4.96288,-4.66725 5.06836,-7.131403 0,-1.367013 -1.15111,-2.476852 -2.5721,-2.476852"
       style="display:inline;fill:#b50f0d;fill-opacity:1;fill-rule:nonzero;stroke:none;stroke-width:0.35277775"
       id="path3805"
       inkscape:connector-curvature="0" />
    <path
       d="m 208.151,-38.135165 v -2.375606 l -0.99977,2.375606 z m -1.92616,0 1.83444,-4.338814 h 1.10067 v 4.338814 h 0.47695 v 0.917575 h -0.47695 v 1.164519 H 208.151 v -1.164519 h -1.92616 z"
       style="display:inline;fill:#b50f0d;fill-opacity:1;fill-rule:nonzero;stroke:none;stroke-width:0.35277775"
       id="path3809"
       inkscape:connector-curvature="0" />
  </g>
</svg>
