<?xml version="1.0" encoding="UTF-8" standalone="no"?>
<!-- Created with Inkscape (http://www.inkscape.org/) -->

<svg
   xmlns:dc="http://purl.org/dc/elements/1.1/"
   xmlns:cc="http://creativecommons.org/ns#"
   xmlns:rdf="http://www.w3.org/1999/02/22-rdf-syntax-ns#"
   xmlns:svg="http://www.w3.org/2000/svg"
   xmlns="http://www.w3.org/2000/svg"
   xmlns:sodipodi="http://sodipodi.sourceforge.net/DTD/sodipodi-0.dtd"
   xmlns:inkscape="http://www.inkscape.org/namespaces/inkscape"
   width="20.61175mm"
   height="28.693886mm"
   viewBox="0 0 20.61175 28.693886"
   version="1.1"
   id="svg17344"
   inkscape:version="0.92.3 (2405546, 2018-03-11)"
   sodipodi:docname="4d.svg">
  <defs
     id="defs17338" />
  <sodipodi:namedview
     id="base"
     pagecolor="#ffffff"
     bordercolor="#666666"
     borderopacity="1.0"
     inkscape:pageopacity="0.0"
     inkscape:pageshadow="2"
     inkscape:zoom="5.6"
     inkscape:cx="11.620088"
     inkscape:cy="24.149745"
     inkscape:document-units="mm"
     inkscape:current-layer="layer1"
     showgrid="false"
     inkscape:window-width="1920"
     inkscape:window-height="1057"
     inkscape:window-x="-8"
     inkscape:window-y="-8"
     inkscape:window-maximized="1"
     fit-margin-top="0"
     fit-margin-left="0"
     fit-margin-right="0"
     fit-margin-bottom="0" />
  <metadata
     id="metadata17341">
    <rdf:RDF>
      <cc:Work
         rdf:about="">
        <dc:format>image/svg+xml</dc:format>
        <dc:type
           rdf:resource="http://purl.org/dc/dcmitype/StillImage" />
        <dc:title></dc:title>
      </cc:Work>
    </rdf:RDF>
  </metadata>
  <g
     inkscape:label="Layer 1"
     inkscape:groupmode="layer"
     id="layer1"
     transform="translate(-183.39943,84.003408)">
    <path
       d="m 203.90005,-57.325296 c 0,1.04775 -0.85725,1.904648 -1.90465,1.904648 h -16.5802 c -1.0474,0 -1.90465,-0.856898 -1.90465,-1.904648 v -24.661987 c 0,-1.04775 0.85725,-1.905 1.90465,-1.905 h 16.5802 c 1.0474,0 1.90465,0.85725 1.90465,1.905 z"
       style="display:inline;fill:#fafafa;fill-opacity:1;fill-rule:evenodd;stroke:none;stroke-width:0.35277775"
       id="path5731"
       inkscape:connector-curvature="0" />
    <path
       d="m 203.90005,-57.325296 c 0,1.04775 -0.85725,1.904648 -1.90465,1.904648 h -16.5802 c -1.0474,0 -1.90465,-0.856898 -1.90465,-1.904648 v -24.661987 c 0,-1.04775 0.85725,-1.905 1.90465,-1.905 h 16.5802 c 1.0474,0 1.90465,0.85725 1.90465,1.905 z"
       style="display:inline;fill:none;stroke:#cccccc;stroke-width:0.22225;stroke-linecap:butt;stroke-linejoin:miter;stroke-miterlimit:3.86400008;stroke-dasharray:none;stroke-opacity:1"
       id="path5735"
       inkscape:connector-curvature="0" />
    <path
       d="m 187.06112,-77.248631 v 0.595841 c 0,0.458964 0.20179,0.623711 0.52282,0.623711 0.32138,0 0.52317,-0.164747 0.52317,-0.623711 v -1.412169 c 0,-0.458964 -0.20179,-0.633236 -0.52317,-0.633236 -0.32103,0 -0.52282,0.174272 -0.52282,0.633236 v 0.191911 h -0.95356 l 0.1831,-3.723922 h 2.65994 v 0.917575 h -1.75154 l -0.0829,1.531761 c 0.18344,-0.302331 0.47695,-0.467784 0.88053,-0.467784 0.7433,0 1.11901,0.522817 1.11901,1.467556 v 1.431219 c 0,1.027289 -0.51329,1.614312 -1.50389,1.614312 -0.99095,0 -1.50425,-0.587023 -1.50425,-1.614312 v -0.531988 z"
       style="display:inline;fill:#171717;fill-opacity:1;fill-rule:nonzero;stroke:none;stroke-width:0.35277775"
       id="path5739"
       inkscape:connector-curvature="0" />
    <path
       d="m 187.54686,-73.882073 c 0,0 -1.84714,1.736372 -1.88736,2.653947 0,0.508706 0.42863,0.922161 0.95779,0.922161 0.22754,0 0.43498,-0.07726 0.59831,-0.204611 -0.0441,0.340078 -0.11782,0.747536 -0.22613,0.843139 h 1.11478 c -0.0917,-0.08043 -0.17498,-0.542219 -0.22048,-0.838553 0.16263,0.124884 0.36794,0.200025 0.59196,0.200025 0.52846,0 0.95779,-0.413455 0.95779,-0.922161 -0.0402,-0.917575 -1.88666,-2.653947 -1.88666,-2.653947"
       style="display:inline;fill:#171717;fill-opacity:1;fill-rule:nonzero;stroke:none;stroke-width:0.35277775"
       id="path5743"
       inkscape:connector-curvature="0" />
    <path
       d="m 196.30912,-68.093625 c 0,0 -4.61715,4.341636 -4.71628,6.635397 0,1.271764 1.07068,2.303286 2.39359,2.303286 0.56762,0 1.08726,-0.191558 1.49578,-0.509763 -0.11077,0.850194 -0.29492,1.868311 -0.56621,2.107494 h 2.78624 c -0.22719,-0.201789 -0.43744,-1.356078 -0.54963,-2.096558 0.4057,0.312208 0.91899,0.498827 1.47991,0.498827 1.32221,0 2.39359,-1.031522 2.39359,-2.303286 -0.0991,-2.293761 -4.71699,-6.635397 -4.71699,-6.635397"
       style="display:inline;fill:#171717;fill-opacity:1;fill-rule:nonzero;stroke:none;stroke-width:0.35277775"
       id="path5747"
       inkscape:connector-curvature="0" />
  </g>
</svg>
