<?xml version="1.0" encoding="UTF-8" standalone="no"?>
<!-- Created with Inkscape (http://www.inkscape.org/) -->

<svg
   xmlns:dc="http://purl.org/dc/elements/1.1/"
   xmlns:cc="http://creativecommons.org/ns#"
   xmlns:rdf="http://www.w3.org/1999/02/22-rdf-syntax-ns#"
   xmlns:svg="http://www.w3.org/2000/svg"
   xmlns="http://www.w3.org/2000/svg"
   xmlns:sodipodi="http://sodipodi.sourceforge.net/DTD/sodipodi-0.dtd"
   xmlns:inkscape="http://www.inkscape.org/namespaces/inkscape"
   width="20.61175mm"
   height="28.693886mm"
   viewBox="0 0 20.61175 28.693886"
   version="1.1"
   id="svg17344"
   inkscape:version="0.92.3 (2405546, 2018-03-11)"
   sodipodi:docname="4d.svg">
  <defs
     id="defs17338" />
  <sodipodi:namedview
     id="base"
     pagecolor="#ffffff"
     bordercolor="#666666"
     borderopacity="1.0"
     inkscape:pageopacity="0.0"
     inkscape:pageshadow="2"
     inkscape:zoom="5.6"
     inkscape:cx="36.86497"
     inkscape:cy="49.268832"
     inkscape:document-units="mm"
     inkscape:current-layer="layer1"
     showgrid="false"
     inkscape:window-width="1920"
     inkscape:window-height="1057"
     inkscape:window-x="-8"
     inkscape:window-y="-8"
     inkscape:window-maximized="1"
     fit-margin-top="0"
     fit-margin-left="0"
     fit-margin-right="0"
     fit-margin-bottom="0" />
  <metadata
     id="metadata17341">
    <rdf:RDF>
      <cc:Work
         rdf:about="">
        <dc:format>image/svg+xml</dc:format>
        <dc:type
           rdf:resource="http://purl.org/dc/dcmitype/StillImage" />
        <dc:title></dc:title>
      </cc:Work>
    </rdf:RDF>
  </metadata>
  <g
     inkscape:label="Layer 1"
     inkscape:groupmode="layer"
     id="layer1"
     transform="translate(-176.72007,82.634453)">
    <path
       d="m 197.22069,-55.956341 c 0,1.04775 -0.85725,1.904648 -1.90465,1.904648 h -16.5802 c -1.0474,0 -1.90465,-0.856898 -1.90465,-1.904648 v -24.661987 c 0,-1.04775 0.85725,-1.905 1.90465,-1.905 h 16.5802 c 1.0474,0 1.90465,0.85725 1.90465,1.905 z"
       style="display:inline;fill:#fafafa;fill-opacity:1;fill-rule:evenodd;stroke:none;stroke-width:0.35277775"
       id="path3833"
       inkscape:connector-curvature="0" />
    <path
       d="m 197.22069,-55.956341 c 0,1.04775 -0.85725,1.904648 -1.90465,1.904648 h -16.5802 c -1.0474,0 -1.90465,-0.856898 -1.90465,-1.904648 v -24.661987 c 0,-1.04775 0.85725,-1.905 1.90465,-1.905 h 16.5802 c 1.0474,0 1.90465,0.85725 1.90465,1.905 z"
       style="display:inline;fill:none;stroke:#cccccc;stroke-width:0.22225;stroke-linecap:butt;stroke-linejoin:miter;stroke-miterlimit:3.86400008;stroke-dasharray:none;stroke-opacity:1"
       id="path3837"
       inkscape:connector-curvature="0" />
    <path
       d="m 181.89624,-72.513153 c -0.5013,0 -0.91793,0.336198 -1.02835,0.786695 -0.11077,-0.450497 -0.52846,-0.786695 -1.02976,-0.786695 -0.5849,0 -1.05904,0.457553 -1.05904,1.020586 0.0441,1.015295 2.0888,2.937934 2.0888,2.937934 0,0 2.0447,-1.922639 2.08739,-2.937934 0,-0.563033 -0.47343,-1.020586 -1.05904,-1.020586"
       style="display:inline;fill:#b50f0d;fill-opacity:1;fill-rule:nonzero;stroke:none;stroke-width:0.35277775"
       id="path3841"
       inkscape:connector-curvature="0" />
    <path
       d="m 192.12746,-65.924744 c -1.21673,0 -2.22885,0.816327 -2.49625,1.909233 -0.26882,-1.092906 -1.28235,-1.909233 -2.49873,-1.909233 -1.41993,0 -2.57104,1.109839 -2.57104,2.476852 0.10618,2.464153 5.06977,7.131403 5.06977,7.131403 0,0 4.96287,-4.66725 5.06836,-7.131403 0,-1.367013 -1.15112,-2.476852 -2.57211,-2.476852"
       style="display:inline;fill:#b50f0d;fill-opacity:1;fill-rule:nonzero;stroke:none;stroke-width:0.35277775"
       id="path3845"
       inkscape:connector-curvature="0" />
    <path
       d="m 180.23501,-76.43918 v 1.155347 c 0,0.458964 0.20178,0.623711 0.52281,0.623711 0.32138,0 0.52317,-0.164747 0.52317,-0.623711 v -1.155347 c 0,-0.458964 -0.20179,-0.633236 -0.52317,-0.633236 -0.32103,0 -0.52281,0.174272 -0.52281,0.633236 m -1.0086,-2.192514 c 0,-1.082322 0.4953,-1.669344 1.54058,-1.669344 0.9906,0 1.50425,0.587022 1.50425,1.614311 v 0.165452 h -0.95391 v -0.229658 c 0,-0.458964 -0.20179,-0.633236 -0.52282,-0.633236 -0.35772,0 -0.5595,0.174272 -0.5595,0.789164 v 1.174044 c 0.17427,-0.366536 0.48648,-0.568678 0.93556,-0.568678 0.7433,0 1.11901,0.52317 1.11901,1.467909 v 1.174044 c 0,1.027289 -0.54081,1.614311 -1.53176,1.614311 -0.9906,0 -1.53141,-0.587022 -1.53141,-1.614311 z"
       style="display:inline;fill:#b50f0d;fill-opacity:1;fill-rule:nonzero;stroke:none;stroke-width:0.35277775"
       id="path3849"
       inkscape:connector-curvature="0" />
  </g>
</svg>
