<?xml version="1.0" encoding="UTF-8" standalone="no"?>
<!-- Created with Inkscape (http://www.inkscape.org/) -->

<svg
   xmlns:dc="http://purl.org/dc/elements/1.1/"
   xmlns:cc="http://creativecommons.org/ns#"
   xmlns:rdf="http://www.w3.org/1999/02/22-rdf-syntax-ns#"
   xmlns:svg="http://www.w3.org/2000/svg"
   xmlns="http://www.w3.org/2000/svg"
   xmlns:sodipodi="http://sodipodi.sourceforge.net/DTD/sodipodi-0.dtd"
   xmlns:inkscape="http://www.inkscape.org/namespaces/inkscape"
   width="20.61105mm"
   height="28.694237mm"
   viewBox="0 0 20.61105 28.694237"
   version="1.1"
   id="svg17344"
   inkscape:version="0.92.3 (2405546, 2018-03-11)"
   sodipodi:docname="7h.svg">
  <defs
     id="defs17338" />
  <sodipodi:namedview
     id="base"
     pagecolor="#ffffff"
     bordercolor="#666666"
     borderopacity="1.0"
     inkscape:pageopacity="0.0"
     inkscape:pageshadow="2"
     inkscape:zoom="5.6"
     inkscape:cx="51.061178"
     inkscape:cy="59.787588"
     inkscape:document-units="mm"
     inkscape:current-layer="layer1"
     showgrid="false"
     inkscape:window-width="1920"
     inkscape:window-height="1057"
     inkscape:window-x="-8"
     inkscape:window-y="-8"
     inkscape:window-maximized="1"
     fit-margin-top="0"
     fit-margin-left="0"
     fit-margin-right="0"
     fit-margin-bottom="0" />
  <metadata
     id="metadata17341">
    <rdf:RDF>
      <cc:Work
         rdf:about="">
        <dc:format>image/svg+xml</dc:format>
        <dc:type
           rdf:resource="http://purl.org/dc/dcmitype/StillImage" />
        <dc:title></dc:title>
      </cc:Work>
    </rdf:RDF>
  </metadata>
  <g
     inkscape:label="Layer 1"
     inkscape:groupmode="layer"
     id="layer1"
     transform="translate(-172.96401,80.761934)">
    <path
       d="m 193.46393,-54.083467 c 0,1.047395 -0.85725,1.904645 -1.90465,1.904645 h -16.5795 c -1.0474,0 -1.90465,-0.85725 -1.90465,-1.904645 v -24.662695 c 0,-1.047397 0.85725,-1.904647 1.90465,-1.904647 h 16.5795 c 1.0474,0 1.90465,0.85725 1.90465,1.904647 z"
       style="display:inline;fill:#fafafa;fill-opacity:1;fill-rule:evenodd;stroke:none;stroke-width:0.35277775"
       id="path3853"
       inkscape:connector-curvature="0" />
    <path
       d="m 193.46393,-54.083467 c 0,1.047395 -0.85725,1.904645 -1.90465,1.904645 h -16.5795 c -1.0474,0 -1.90465,-0.85725 -1.90465,-1.904645 v -24.662695 c 0,-1.047397 0.85725,-1.904647 1.90465,-1.904647 h 16.5795 c 1.0474,0 1.90465,0.85725 1.90465,1.904647 z"
       style="display:inline;fill:none;stroke:#cccccc;stroke-width:0.22225;stroke-linecap:butt;stroke-linejoin:miter;stroke-miterlimit:3.86400008;stroke-dasharray:none;stroke-opacity:1"
       id="path3857"
       inkscape:connector-curvature="0" />
    <path
       d="m 178.13944,-70.640421 c -0.50095,0 -0.91758,0.335845 -1.028,0.786342 -0.11077,-0.450497 -0.52846,-0.786342 -1.0294,-0.786342 -0.58491,0 -1.05975,0.4572 -1.05975,1.020586 0.0444,1.015295 2.08915,2.937933 2.08915,2.937933 0,0 2.04506,-1.922638 2.08774,-2.937933 0,-0.563386 -0.47413,-1.020586 -1.05974,-1.020586"
       style="display:inline;fill:#b50f0d;fill-opacity:1;fill-rule:nonzero;stroke:none;stroke-width:0.35277775"
       id="path3861"
       inkscape:connector-curvature="0" />
    <path
       d="m 188.37105,-64.052016 c -1.21673,0 -2.2292,0.816328 -2.49661,1.908881 -0.26882,-1.092553 -1.28164,-1.908881 -2.49837,-1.908881 -1.41993,0 -2.5714,1.109839 -2.5714,2.476853 0.10654,2.464153 5.06977,7.131403 5.06977,7.131403 0,0 4.96358,-4.66725 5.06836,-7.131403 0,-1.367014 -1.15076,-2.476853 -2.57175,-2.476853"
       style="display:inline;fill:#b50f0d;fill-opacity:1;fill-rule:nonzero;stroke:none;stroke-width:0.35277775"
       id="path3865"
       inkscape:connector-curvature="0" />
    <path
       d="m 178.84947,-78.355354 v 0.880533 l -1.4859,5.540375 h -1.00894 l 1.47673,-5.503333 h -2.00907 v -0.917575 z"
       style="display:inline;fill:#b50f0d;fill-opacity:1;fill-rule:nonzero;stroke:none;stroke-width:0.35277775"
       id="path3869"
       inkscape:connector-curvature="0" />
  </g>
</svg>
