<?xml version="1.0" encoding="UTF-8" standalone="no"?>
<!-- Created with Inkscape (http://www.inkscape.org/) -->

<svg
   xmlns:dc="http://purl.org/dc/elements/1.1/"
   xmlns:cc="http://creativecommons.org/ns#"
   xmlns:rdf="http://www.w3.org/1999/02/22-rdf-syntax-ns#"
   xmlns:svg="http://www.w3.org/2000/svg"
   xmlns="http://www.w3.org/2000/svg"
   xmlns:sodipodi="http://sodipodi.sourceforge.net/DTD/sodipodi-0.dtd"
   xmlns:inkscape="http://www.inkscape.org/namespaces/inkscape"
   width="20.61105mm"
   height="28.694237mm"
   viewBox="0 0 20.61105 28.694237"
   version="1.1"
   id="svg17344"
   inkscape:version="0.92.3 (2405546, 2018-03-11)"
   sodipodi:docname="7h.svg">
  <defs
     id="defs17338" />
  <sodipodi:namedview
     id="base"
     pagecolor="#ffffff"
     bordercolor="#666666"
     borderopacity="1.0"
     inkscape:pageopacity="0.0"
     inkscape:pageshadow="2"
     inkscape:zoom="5.6"
     inkscape:cx="41.345921"
     inkscape:cy="41.50259"
     inkscape:document-units="mm"
     inkscape:current-layer="layer1"
     showgrid="false"
     inkscape:window-width="1920"
     inkscape:window-height="1057"
     inkscape:window-x="-8"
     inkscape:window-y="-8"
     inkscape:window-maximized="1"
     fit-margin-top="0"
     fit-margin-left="0"
     fit-margin-right="0"
     fit-margin-bottom="0" />
  <metadata
     id="metadata17341">
    <rdf:RDF>
      <cc:Work
         rdf:about="">
        <dc:format>image/svg+xml</dc:format>
        <dc:type
           rdf:resource="http://purl.org/dc/dcmitype/StillImage" />
        <dc:title></dc:title>
      </cc:Work>
    </rdf:RDF>
  </metadata>
  <g
     inkscape:label="Layer 1"
     inkscape:groupmode="layer"
     id="layer1"
     transform="translate(-175.53457,85.599843)">
    <path
       d="m 196.03449,-58.921376 c 0,1.04775 -0.85725,1.904645 -1.90465,1.904645 h -16.5795 c -1.0474,0 -1.90465,-0.856895 -1.90465,-1.904645 v -24.662695 c 0,-1.047397 0.85725,-1.904647 1.90465,-1.904647 h 16.5795 c 1.0474,0 1.90465,0.85725 1.90465,1.904647 z"
       style="display:inline;fill:#fafafa;fill-opacity:1;fill-rule:evenodd;stroke:none;stroke-width:0.35277775"
       id="path3913"
       inkscape:connector-curvature="0" />
    <path
       d="m 196.03449,-58.921376 c 0,1.04775 -0.85725,1.904645 -1.90465,1.904645 h -16.5795 c -1.0474,0 -1.90465,-0.856895 -1.90465,-1.904645 v -24.662695 c 0,-1.047397 0.85725,-1.904647 1.90465,-1.904647 h 16.5795 c 1.0474,0 1.90465,0.85725 1.90465,1.904647 z"
       style="display:inline;fill:none;stroke:#cccccc;stroke-width:0.22225;stroke-linecap:butt;stroke-linejoin:miter;stroke-miterlimit:3.86400008;stroke-dasharray:none;stroke-opacity:1"
       id="path3917"
       inkscape:connector-curvature="0" />
    <path
       d="m 180.71,-75.478333 c -0.50095,0 -0.91758,0.335845 -1.028,0.786342 -0.11077,-0.450497 -0.52846,-0.786342 -1.0294,-0.786342 -0.58491,0 -1.05975,0.4572 -1.05975,1.020587 0.0444,1.015294 2.08915,2.937933 2.08915,2.937933 0,0 2.04506,-1.922639 2.08774,-2.937933 0,-0.563387 -0.47413,-1.020587 -1.05974,-1.020587"
       style="display:inline;fill:#b50f0d;fill-opacity:1;fill-rule:nonzero;stroke:none;stroke-width:0.35277775"
       id="path3921"
       inkscape:connector-curvature="0" />
    <path
       d="m 190.94161,-68.889784 c -1.21673,0 -2.2292,0.816328 -2.49661,1.908528 -0.26882,-1.0922 -1.28164,-1.908528 -2.49837,-1.908528 -1.41993,0 -2.5714,1.109486 -2.5714,2.4765 0.10654,2.464505 5.06977,7.131755 5.06977,7.131755 0,0 4.96358,-4.66725 5.06836,-7.131755 0,-1.367014 -1.15076,-2.4765 -2.57175,-2.4765"
       style="display:inline;fill:#b50f0d;fill-opacity:1;fill-rule:nonzero;stroke:none;stroke-width:0.35277775"
       id="path3925"
       inkscape:connector-curvature="0" />
    <path
       d="m 177.0954,-82.385757 c 0.77999,0 0.95426,-0.376061 1.10984,-0.807508 h 0.67874 v 6.420908 h -1.00859 v -4.898319 h -0.77999 z"
       style="display:inline;fill:#b50f0d;fill-opacity:1;fill-rule:nonzero;stroke:none;stroke-width:0.35277775"
       id="path3929"
       inkscape:connector-curvature="0" />
    <path
       d="m 180.29658,-78.249224 c 0,0.458964 0.20179,0.632883 0.52281,0.632883 0.32138,0 0.52317,-0.173919 0.52317,-0.632883 v -3.4671 c 0,-0.458611 -0.20179,-0.632883 -0.52317,-0.632883 -0.32102,0 -0.52281,0.174272 -0.52281,0.632883 z m -1.00859,-3.402894 c 0,-1.027289 0.5408,-1.614311 1.5314,-1.614311 0.9906,0 1.53177,0.587022 1.53177,1.614311 v 3.338689 c 0,1.027288 -0.54117,1.614663 -1.53177,1.614663 -0.9906,0 -1.5314,-0.587375 -1.5314,-1.614663 z"
       style="display:inline;fill:#b50f0d;fill-opacity:1;fill-rule:nonzero;stroke:none;stroke-width:0.35277775"
       id="path3933"
       inkscape:connector-curvature="0" />
  </g>
</svg>
