<?xml version="1.0" encoding="UTF-8" standalone="no"?>
<!-- Created with Inkscape (http://www.inkscape.org/) -->

<svg
   xmlns:dc="http://purl.org/dc/elements/1.1/"
   xmlns:cc="http://creativecommons.org/ns#"
   xmlns:rdf="http://www.w3.org/1999/02/22-rdf-syntax-ns#"
   xmlns:svg="http://www.w3.org/2000/svg"
   xmlns="http://www.w3.org/2000/svg"
   xmlns:sodipodi="http://sodipodi.sourceforge.net/DTD/sodipodi-0.dtd"
   xmlns:inkscape="http://www.inkscape.org/namespaces/inkscape"
   width="187.47618mm"
   height="187.47618mm"
   viewBox="0 0 187.47618 187.47618"
   version="1.1"
   id="svg4604"
   inkscape:version="0.92.3 (2405546, 2018-03-11)">
  <defs
     id="defs4598" />
  <sodipodi:namedview
     id="base"
     pagecolor="#ffffff"
     bordercolor="#666666"
     borderopacity="1.0"
     inkscape:pageopacity="0.0"
     inkscape:pageshadow="2"
     inkscape:zoom="0.7"
     inkscape:cx="438.82492"
     inkscape:cy="132.45615"
     inkscape:document-units="mm"
     inkscape:current-layer="layer1"
     showgrid="false"
     fit-margin-top="0"
     fit-margin-left="0"
     fit-margin-right="0"
     fit-margin-bottom="0"
     inkscape:window-width="1920"
     inkscape:window-height="1057"
     inkscape:window-x="-8"
     inkscape:window-y="-8"
     inkscape:window-maximized="1" />
  <metadata
     id="metadata4601">
    <rdf:RDF>
      <cc:Work
         rdf:about="">
        <dc:format>image/svg+xml</dc:format>
        <dc:type
           rdf:resource="http://purl.org/dc/dcmitype/StillImage" />
        <dc:title></dc:title>
      </cc:Work>
    </rdf:RDF>
  </metadata>
  <g
     inkscape:label="Layer 1"
     inkscape:groupmode="layer"
     id="layer1"
     style="display:inline"
     transform="translate(-7.1815491,-35.062508)">
    <circle
       style="opacity:1;fill:#ffffff;fill-opacity:1;stroke-width:0.26458332"
       id="path4626"
       cx="100.91964"
       cy="128.8006"
       r="93.738091" />
    <g
       aria-label="D"
       transform="matrix(7.2115115,0,0,8.0163623,-1407.184,-1921.8428)"
       style="font-style:italic;font-variant:normal;font-weight:bold;font-stretch:normal;font-size:18.38258934px;line-height:125%;font-family:sans-serif;-inkscape-font-specification:'sans-serif, Bold Italic';font-variant-ligatures:normal;font-variant-caps:normal;font-variant-numeric:normal;font-feature-settings:normal;text-align:start;letter-spacing:0px;word-spacing:0px;writing-mode:lr-tb;text-anchor:start;fill:#000000;fill-opacity:1;stroke:none;stroke-width:1px;stroke-linecap:butt;stroke-linejoin:miter;stroke-opacity:1"
       id="flowRoot4628">
      <path
         d="m 216.35461,254.33574 q 0,2.2709 -1.19379,4.19174 -1.19379,1.92083 -3.06077,2.94408 -1.13096,0.61036 -2.36066,0.81681 -1.22969,0.19747 -2.94408,0.19747 h -4.838 l 3.0877,-13.36508 h 4.32637 q 1.91186,0 3.07873,0.29621 1.16686,0.2962 1.88493,0.79885 0.98735,0.68216 1.49897,1.70541 0.5206,1.01428 0.5206,2.41451 z m -3.6083,0.31416 q 0,-0.91554 -0.34108,-1.57078 -0.34109,-0.66421 -1.0412,-1.06813 -0.32313,-0.17951 -0.66422,-0.26927 -0.33211,-0.0987 -0.76295,-0.14362 -0.41289,-0.0359 -0.94246,-0.0359 -0.52958,0 -0.92452,0 h -0.11669 l -1.97469,8.47322 h 0.31416 q 0.5206,0 1.11301,0 0.5924,0 0.96041,-0.0449 0.47573,-0.0449 0.85271,-0.14361 0.38597,-0.0987 0.84373,-0.33211 1.29253,-0.66421 1.98367,-1.98366 0.70012,-1.31946 0.70012,-2.88126 z"
         id="path5179"
         inkscape:connector-curvature="0" />
    </g>
  </g>
</svg>
