<svg xmlns="http://www.w3.org/2000/svg" width="77.9" height="108.451" viewBox="0 0 20.611 28.694"><path d="M20.5 26.678a1.91 1.91 0 0 1-1.905 1.905H2.015a1.91 1.91 0 0 1-1.904-1.905V2.016A1.91 1.91 0 0 1 2.016.11h16.58A1.91 1.91 0 0 1 20.5 2.016z" fill="#fafafa" fill-rule="evenodd"/><path d="M20.5 26.678a1.91 1.91 0 0 1-1.905 1.905H2.015a1.91 1.91 0 0 1-1.904-1.905V2.016A1.91 1.91 0 0 1 2.016.11h16.58A1.91 1.91 0 0 1 20.5 2.016z" fill="none" stroke="#ccc" stroke-width=".2222514" stroke-miterlimit="3.864"/><path d="M4.047 3.25c-.321 0-.523.175-.523.633v.688H2.57v-.623c0-1.028.514-1.615 1.504-1.615.991 0 1.505.587 1.505 1.615 0 2.11-2.193 2.834-2 3.962h1.908v.918H2.57v-.79c0-1.889 2-2.2 2-4.054 0-.577-.202-.733-.523-.733M4.163 9.637l1.555 2.25-1.555 2.168-1.589-2.169zM12.95 15.273l3.89 5.623-3.89 5.422-3.97-5.422z" fill="#00f"/></svg>