<svg xmlns="http://www.w3.org/2000/svg" width="77.903" height="108.451" viewBox="0 0 20.612 28.694"><path d="M20.5 26.678a1.91 1.91 0 0 1-1.904 1.905H2.016A1.91 1.91 0 0 1 .11 26.678V2.016A1.91 1.91 0 0 1 2.016.11h16.58a1.91 1.91 0 0 1 1.905 1.905z" fill="#fafafa" fill-rule="evenodd"/><path d="M20.5 26.678a1.91 1.91 0 0 1-1.904 1.905H2.016A1.91 1.91 0 0 1 .11 26.678V2.016A1.91 1.91 0 0 1 2.016.11h16.58a1.91 1.91 0 0 1 1.905 1.905z" fill="none" stroke="#ccc" stroke-width=".2222514" stroke-miterlimit="3.864"/><path d="M4.047 3.25c-.32 0-.523.175-.523.633v.688H2.57v-.623c0-1.028.514-1.615 1.504-1.615.991 0 1.505.587 1.505 1.615 0 2.11-2.192 2.834-2 3.962h1.908v.918H2.57v-.79c0-1.889 2-2.2 2-4.054 0-.577-.202-.733-.523-.733M4.147 10.122S2.3 11.858 2.26 12.775c0 .509.429.922.958.922a.97.97 0 0 0 .598-.204c-.044.34-.118.748-.226.843h1.115c-.092-.08-.175-.542-.22-.839.162.125.367.2.591.2.529 0 .958-.413.958-.922-.04-.917-1.887-2.653-1.887-2.653M12.91 15.91s-4.617 4.342-4.717 6.635c0 1.272 1.071 2.304 2.394 2.304.568 0 1.087-.192 1.496-.51-.111.85-.295 1.868-.566 2.107h2.786c-.227-.202-.438-1.356-.55-2.096.406.312.92.499 1.48.499 1.322 0 2.394-1.032 2.394-2.304-.1-2.293-4.717-6.635-4.717-6.635" fill="#171717"/></svg>