<?xml version="1.0" encoding="UTF-8" standalone="no"?>
<!-- Created with Inkscape (http://www.inkscape.org/) -->

<svg
   xmlns:dc="http://purl.org/dc/elements/1.1/"
   xmlns:cc="http://creativecommons.org/ns#"
   xmlns:rdf="http://www.w3.org/1999/02/22-rdf-syntax-ns#"
   xmlns:svg="http://www.w3.org/2000/svg"
   xmlns="http://www.w3.org/2000/svg"
   xmlns:sodipodi="http://sodipodi.sourceforge.net/DTD/sodipodi-0.dtd"
   xmlns:inkscape="http://www.inkscape.org/namespaces/inkscape"
   width="20.611401mm"
   height="28.694237mm"
   viewBox="0 0 20.611401 28.694237"
   version="1.1"
   id="svg17344"
   inkscape:version="0.92.3 (2405546, 2018-03-11)"
   sodipodi:docname="3c.svg">
  <defs
     id="defs17338" />
  <sodipodi:namedview
     id="base"
     pagecolor="#ffffff"
     bordercolor="#666666"
     borderopacity="1.0"
     inkscape:pageopacity="0.0"
     inkscape:pageshadow="2"
     inkscape:zoom="5.6"
     inkscape:cx="-27.604431"
     inkscape:cy="62.455549"
     inkscape:document-units="mm"
     inkscape:current-layer="layer1"
     showgrid="false"
     inkscape:window-width="1920"
     inkscape:window-height="1057"
     inkscape:window-x="-8"
     inkscape:window-y="-8"
     inkscape:window-maximized="1"
     fit-margin-top="0"
     fit-margin-left="0"
     fit-margin-right="0"
     fit-margin-bottom="0" />
  <metadata
     id="metadata17341">
    <rdf:RDF>
      <cc:Work
         rdf:about="">
        <dc:format>image/svg+xml</dc:format>
        <dc:type
           rdf:resource="http://purl.org/dc/dcmitype/StillImage" />
        <dc:title />
      </cc:Work>
    </rdf:RDF>
  </metadata>
  <g
     inkscape:label="Layer 1"
     inkscape:groupmode="layer"
     id="layer1"
     transform="translate(-192.89612,28.170302)">
    <path
       d="m 213.39639,-1.4918353 c 0,1.04739544 -0.85725,1.90464544 -1.90465,1.90464544 h -16.57985 c -1.0474,0 -1.90465,-0.85725 -1.90465,-1.90464544 V -26.15453 c 0,-1.047397 0.85725,-1.904647 1.90465,-1.904647 h 16.57985 c 1.0474,0 1.90465,0.85725 1.90465,1.904647 z"
       style="display:inline;fill:#fafafa;fill-opacity:1;fill-rule:evenodd;stroke:none;stroke-width:0.35277775"
       id="path7609"
       inkscape:connector-curvature="0" />
    <path
       d="m 213.39639,-1.4918353 c 0,1.04739544 -0.85725,1.90464544 -1.90465,1.90464544 h -16.57985 c -1.0474,0 -1.90465,-0.85725 -1.90465,-1.90464544 V -26.15453 c 0,-1.047397 0.85725,-1.904647 1.90465,-1.904647 h 16.57985 c 1.0474,0 1.90465,0.85725 1.90465,1.904647 z"
       style="display:inline;fill:none;stroke:#cccccc;stroke-width:0.22225;stroke-linecap:butt;stroke-linejoin:miter;stroke-miterlimit:3.86400008;stroke-dasharray:none;stroke-opacity:1"
       id="path7613"
       inkscape:connector-curvature="0" />
    <path
       d="m 197.59441,-24.185889 c 0,-0.57785 -0.20178,-0.733778 -0.52246,-0.733778 -0.32138,0 -0.52317,0.174272 -0.52317,0.632883 v 0.41275 h -0.95391 v -0.348544 c 0,-1.027289 0.51364,-1.614311 1.50424,-1.614311 0.9906,0 1.50425,0.587022 1.50425,1.614311 v 0.1651 c 0,0.687916 -0.22013,1.119011 -0.70626,1.3208 0.50447,0.220133 0.70626,0.697089 0.70626,1.348669 v 0.50412 c 0,1.027289 -0.51365,1.614664 -1.50425,1.614664 -0.9906,0 -1.50424,-0.587375 -1.50424,-1.614664 v -0.531636 h 0.95391 v 0.595841 c 0,0.458964 0.20179,0.632884 0.52317,0.632884 0.32068,0 0.52246,-0.155575 0.52246,-0.724606 v -0.504119 c 0,-0.596548 -0.20178,-0.816681 -0.6604,-0.816681 h -0.33937 v -0.917222 h 0.39441 c 0.37641,0 0.60536,-0.1651 0.60536,-0.678745 z"
       style="display:inline;fill:#008000;fill-opacity:1;fill-rule:nonzero;stroke:none;stroke-width:0.35277775"
       id="path7617"
       inkscape:connector-curvature="0" />
    <path
       d="m 197.96374,-16.679377 c -0.0998,0 -0.19438,0.0194 -0.2854,0.04798 0.12347,-0.162984 0.20073,-0.362656 0.20073,-0.582436 0,-0.531284 -0.43145,-0.963084 -0.96414,-0.963084 -0.53164,0 -0.96238,0.4318 -0.96238,0.963084 0,0.21978 0.0759,0.419452 0.19897,0.581377 -0.0903,-0.02752 -0.1845,-0.04692 -0.28434,-0.04692 -0.53128,0 -0.96344,0.431447 -0.96344,0.96273 0,0.531989 0.43216,0.963789 0.96344,0.963789 0.27481,0 0.51929,-0.117122 0.69427,-0.300566 -0.0427,0.350308 -0.1397,0.970138 -0.29951,1.091141 h 1.30704 c -0.16051,-0.121003 -0.25718,-0.740833 -0.30057,-1.091141 0.17569,0.183444 0.42122,0.300566 0.69533,0.300566 0.53128,0 0.96308,-0.4318 0.96308,-0.963789 0,-0.531283 -0.4318,-0.96273 -0.96308,-0.96273"
       style="display:inline;fill:#008000;fill-opacity:1;fill-rule:nonzero;stroke:none;stroke-width:0.35277775"
       id="path7621"
       inkscape:connector-curvature="0" />
    <path
       d="m 208.42649,-8.6457461 c -0.25012,0 -0.48578,0.049389 -0.71296,0.1199446 0.30868,-0.4060473 0.49953,-0.906286 0.49953,-1.4548555 0,-1.328914 -1.07703,-2.408061 -2.40771,-2.408061 -1.32962,0 -2.40735,1.079147 -2.40735,2.408061 0,0.5485695 0.19014,1.0488082 0.49882,1.4537972 -0.22648,-0.069497 -0.46143,-0.1188863 -0.71155,-0.1188863 -1.32927,0 -2.40771,1.0787946 -2.40771,2.4073556 0,1.3310304 1.07844,2.4091194 2.40771,2.4091194 0.68615,0 1.29928,-0.2913944 1.73673,-0.7500057 -0.10654,0.8759473 -0.34996,2.4249947 -0.75036,2.727325 h 3.26742 c -0.39969,-0.3023304 -0.64134,-1.8513777 -0.74965,-2.727325 0.43886,0.4586113 1.05234,0.7500057 1.73708,0.7500057 1.32856,0 2.40806,-1.078089 2.40806,-2.4091194 0,-1.328561 -1.0795,-2.4073556 -2.40806,-2.4073556"
       style="display:inline;fill:#008000;fill-opacity:1;fill-rule:nonzero;stroke:none;stroke-width:0.35277775"
       id="path7625"
       inkscape:connector-curvature="0" />
  </g>
</svg>
