<?xml version="1.0" encoding="UTF-8" standalone="no"?>
<!-- Created with Inkscape (http://www.inkscape.org/) -->

<svg
   xmlns:dc="http://purl.org/dc/elements/1.1/"
   xmlns:cc="http://creativecommons.org/ns#"
   xmlns:rdf="http://www.w3.org/1999/02/22-rdf-syntax-ns#"
   xmlns:svg="http://www.w3.org/2000/svg"
   xmlns="http://www.w3.org/2000/svg"
   xmlns:sodipodi="http://sodipodi.sourceforge.net/DTD/sodipodi-0.dtd"
   xmlns:inkscape="http://www.inkscape.org/namespaces/inkscape"
   width="20.611042mm"
   height="28.694239mm"
   viewBox="0 0 20.611042 28.694239"
   version="1.1"
   id="svg17344"
   inkscape:version="0.92.3 (2405546, 2018-03-11)"
   sodipodi:docname="3d.svg">
  <defs
     id="defs17338" />
  <sodipodi:namedview
     id="base"
     pagecolor="#ffffff"
     bordercolor="#666666"
     borderopacity="1.0"
     inkscape:pageopacity="0.0"
     inkscape:pageshadow="2"
     inkscape:zoom="2.8"
     inkscape:cx="-169.9423"
     inkscape:cy="5.4321747"
     inkscape:document-units="mm"
     inkscape:current-layer="layer1"
     showgrid="false"
     inkscape:window-width="1920"
     inkscape:window-height="1057"
     inkscape:window-x="-8"
     inkscape:window-y="-8"
     inkscape:window-maximized="1"
     fit-margin-top="0"
     fit-margin-left="0"
     fit-margin-right="0"
     fit-margin-bottom="0" />
  <metadata
     id="metadata17341">
    <rdf:RDF>
      <cc:Work
         rdf:about="">
        <dc:format>image/svg+xml</dc:format>
        <dc:type
           rdf:resource="http://purl.org/dc/dcmitype/StillImage" />
        <dc:title />
      </cc:Work>
    </rdf:RDF>
  </metadata>
  <g
     inkscape:label="Layer 1"
     inkscape:groupmode="layer"
     id="layer1"
     transform="translate(-192.48877,19.806898)">
    <g
       style="display:inline"
       transform="matrix(0.35277777,0,0,-0.35277777,212.98869,6.8715683)"
       id="g9525">
      <path
         inkscape:connector-curvature="0"
         id="path9527"
         style="fill:#fafafa;fill-opacity:1;fill-rule:evenodd;stroke:none"
         d="m 0,0 c 0,-2.969 -2.43,-5.399 -5.399,-5.399 h -46.997 c -2.969,0 -5.399,2.43 -5.399,5.399 v 69.91 c 0,2.969 2.43,5.399 5.399,5.399 H -5.399 C -2.43,75.309 0,72.879 0,69.91 Z" />
    </g>
    <g
       style="display:inline"
       transform="matrix(0.35277777,0,0,-0.35277777,212.98869,6.8715683)"
       id="g9529">
      <path
         inkscape:connector-curvature="0"
         id="path9531"
         style="fill:none;stroke:#cccccc;stroke-width:0.63;stroke-linecap:butt;stroke-linejoin:miter;stroke-miterlimit:3.86400008;stroke-dasharray:none;stroke-opacity:1"
         d="m 0,0 c 0,-2.969 -2.43,-5.399 -5.399,-5.399 h -46.997 c -2.969,0 -5.399,2.43 -5.399,5.399 v 69.91 c 0,2.969 2.43,5.399 5.399,5.399 H -5.399 C -2.43,75.309 0,72.879 0,69.91 Z" />
    </g>
    <g
       style="display:inline;fill:#0000ff"
       transform="matrix(0.35277777,0,0,-0.35277777,197.18675,-15.822486)"
       id="g9533">
      <path
         inkscape:connector-curvature="0"
         id="path9535"
         style="fill:#0000ff;fill-opacity:1;fill-rule:nonzero;stroke:none"
         d="m 0,0 c 0,1.638 -0.572,2.08 -1.482,2.08 -0.911,0 -1.482,-0.494 -1.482,-1.794 v -1.17 h -2.704 v 0.988 c 0,2.912 1.456,4.576 4.264,4.576 2.808,0 4.264,-1.664 4.264,-4.576 V -0.364 C 2.86,-2.314 2.236,-3.536 0.857,-4.108 2.288,-4.732 2.86,-6.084 2.86,-7.931 V -9.36 c 0,-2.912 -1.456,-4.577 -4.264,-4.577 -2.808,0 -4.264,1.665 -4.264,4.577 v 1.507 h 2.704 v -1.689 c 0,-1.301 0.571,-1.794 1.482,-1.794 0.91,0 1.482,0.441 1.482,2.054 v 1.429 c 0,1.691 -0.572,2.315 -1.872,2.315 h -0.962 v 2.6 h 1.118 C -0.65,-2.938 0,-2.47 0,-1.014 Z" />
    </g>
    <g
       style="display:inline;fill:#0000ff"
       transform="matrix(0.35277777,0,0,-0.35277777,196.65137,-10.156699)"
       id="g9537">
      <path
         inkscape:connector-curvature="0"
         id="path9539"
         style="fill:#0000ff;fill-opacity:1;fill-rule:nonzero;stroke:none"
         d="M 0,0 4.41,-6.376 0,-12.524 -4.502,-6.376 Z" />
    </g>
    <path
       inkscape:connector-curvature="0"
       id="path9543"
       style="display:inline;fill:#0000ff;fill-opacity:1;fill-rule:nonzero;stroke:none;stroke-width:0.35277775"
       d="m 205.43878,-4.5212137 3.88938,5.62363 -3.88938,5.422194 -3.97016,-5.422194 z" />
  </g>
</svg>
