<svg xmlns="http://www.w3.org/2000/svg" width="77.9" height="108.451" viewBox="0 0 20.611 28.694"><path d="M20.5 26.678a1.91 1.91 0 0 1-1.905 1.905H2.015a1.91 1.91 0 0 1-1.904-1.905V2.016A1.91 1.91 0 0 1 2.016.11h16.58A1.91 1.91 0 0 1 20.5 2.016z" fill="#fafafa" fill-rule="evenodd"/><path d="M20.5 26.678a1.91 1.91 0 0 1-1.905 1.905H2.015a1.91 1.91 0 0 1-1.904-1.905V2.016A1.91 1.91 0 0 1 2.016.11h16.58A1.91 1.91 0 0 1 20.5 2.016z" fill="none" stroke="#ccc" stroke-width=".2222514" stroke-miterlimit="3.864"/><path d="M4.698 3.984c0-.577-.202-.733-.523-.733s-.523.174-.523.633v.412h-.954v-.348c0-1.028.514-1.615 1.505-1.615.99 0 1.504.587 1.504 1.615v.165c0 .688-.22 1.119-.707 1.32.505.22.707.698.707 1.35v.503c0 1.028-.514 1.615-1.504 1.615s-1.505-.587-1.505-1.615v-.531h.954v.596c0 .459.202.633.523.633s.523-.156.523-.725v-.504c0-.597-.202-.817-.66-.817h-.34v-.917h.395c.376 0 .605-.165.605-.679zM4.163 9.65l1.555 2.25-1.555 2.168L2.574 11.9zM12.95 15.286l3.89 5.623-3.89 5.423-3.97-5.423z" fill="#00f"/></svg>