<?xml version="1.0" encoding="UTF-8" standalone="no"?>
<!-- Created with Inkscape (http://www.inkscape.org/) -->

<svg
   xmlns:dc="http://purl.org/dc/elements/1.1/"
   xmlns:cc="http://creativecommons.org/ns#"
   xmlns:rdf="http://www.w3.org/1999/02/22-rdf-syntax-ns#"
   xmlns:svg="http://www.w3.org/2000/svg"
   xmlns="http://www.w3.org/2000/svg"
   xmlns:sodipodi="http://sodipodi.sourceforge.net/DTD/sodipodi-0.dtd"
   xmlns:inkscape="http://www.inkscape.org/namespaces/inkscape"
   width="20.611746mm"
   height="28.694239mm"
   viewBox="0 0 20.611746 28.694239"
   version="1.1"
   id="svg17344"
   inkscape:version="0.92.3 (2405546, 2018-03-11)">
  <defs
     id="defs17338" />
  <sodipodi:namedview
     id="base"
     pagecolor="#ffffff"
     bordercolor="#666666"
     borderopacity="1.0"
     inkscape:pageopacity="0.0"
     inkscape:pageshadow="2"
     inkscape:zoom="5.6"
     inkscape:cx="52.618574"
     inkscape:cy="44.362032"
     inkscape:document-units="mm"
     inkscape:current-layer="layer1"
     showgrid="false"
     inkscape:window-width="1920"
     inkscape:window-height="1057"
     inkscape:window-x="-8"
     inkscape:window-y="-8"
     inkscape:window-maximized="1"
     fit-margin-top="0"
     fit-margin-left="0"
     fit-margin-right="0"
     fit-margin-bottom="0" />
  <metadata
     id="metadata17341">
    <rdf:RDF>
      <cc:Work
         rdf:about="">
        <dc:format>image/svg+xml</dc:format>
        <dc:type
           rdf:resource="http://purl.org/dc/dcmitype/StillImage" />
        <dc:title></dc:title>
      </cc:Work>
    </rdf:RDF>
  </metadata>
  <g
     inkscape:label="Layer 1"
     inkscape:groupmode="layer"
     id="layer1"
     transform="translate(-178.73387,32.957546)">
    <g
       style="display:inline"
       id="g3771"
       transform="matrix(0.35277777,0,0,-0.35277777,199.23449,-6.2790803)">
      <path
         d="m 0,0 c 0,-2.969 -2.43,-5.399 -5.399,-5.399 h -46.999 c -2.969,0 -5.399,2.43 -5.399,5.399 v 69.91 c 0,2.969 2.43,5.399 5.399,5.399 H -5.399 C -2.43,75.309 0,72.879 0,69.91 Z"
         style="fill:#fafafa;fill-opacity:1;fill-rule:evenodd;stroke:none"
         id="path3773"
         inkscape:connector-curvature="0" />
    </g>
    <g
       style="display:inline"
       id="g3775"
       transform="matrix(0.35277777,0,0,-0.35277777,199.23449,-6.2790803)">
      <path
         d="m 0,0 c 0,-2.969 -2.43,-5.399 -5.399,-5.399 h -46.999 c -2.969,0 -5.399,2.43 -5.399,5.399 v 69.91 c 0,2.969 2.43,5.399 5.399,5.399 H -5.399 C -2.43,75.309 0,72.879 0,69.91 Z"
         style="fill:none;stroke:#cccccc;stroke-width:0.63;stroke-linecap:butt;stroke-linejoin:miter;stroke-miterlimit:3.86400008;stroke-dasharray:none;stroke-opacity:1"
         id="path3777"
         inkscape:connector-curvature="0" />
    </g>
    <g
       style="display:inline"
       id="g3779"
       transform="matrix(0.35277777,0,0,-0.35277777,183.91004,-22.836034)">
      <path
         d="M 0,0 C -1.421,0 -2.602,-0.952 -2.915,-2.229 -3.229,-0.952 -4.413,0 -5.834,0 c -1.658,0 -3.002,-1.296 -3.002,-2.893 0.125,-2.878 5.921,-8.328 5.921,-8.328 0,0 5.796,5.45 5.917,8.328 C 3.002,-1.296 1.66,0 0,0"
         style="fill:#b50f0d;fill-opacity:1;fill-rule:nonzero;stroke:none"
         id="path3781"
         inkscape:connector-curvature="0" />
    </g>
    <path
       d="m 194.14126,-16.247663 c -1.21673,0 -2.22885,0.816328 -2.49625,1.908881 -0.26882,-1.092553 -1.28235,-1.908881 -2.49873,-1.908881 -1.41993,0 -2.57104,1.109839 -2.57104,2.476853 0.10618,2.464153 5.06977,7.1314024 5.06977,7.1314024 0,0 4.96287,-4.6672494 5.06836,-7.1314024 0,-1.367014 -1.15112,-2.476853 -2.57211,-2.476853"
       style="display:inline;fill:#b50f0d;fill-opacity:1;fill-rule:nonzero;stroke:none;stroke-width:0.35277775"
       id="path3785"
       inkscape:connector-curvature="0" />
    <g
       style="display:inline"
       id="g3787"
       transform="matrix(0.35277777,0,0,-0.35277777,183.4322,-28.973134)">
      <path
         d="m 0,0 c 0,1.638 -0.572,2.08 -1.481,2.08 -0.911,0 -1.483,-0.494 -1.483,-1.794 v -1.17 h -2.704 v 0.988 c 0,2.912 1.456,4.576 4.264,4.576 2.808,0 4.264,-1.664 4.264,-4.576 v -0.468 c 0,-1.95 -0.624,-3.172 -2.002,-3.744 1.43,-0.624 2.002,-1.976 2.002,-3.823 V -9.36 c 0,-2.912 -1.456,-4.577 -4.264,-4.577 -2.808,0 -4.264,1.665 -4.264,4.577 v 1.507 h 2.704 v -1.689 c 0,-1.301 0.572,-1.794 1.483,-1.794 0.909,0 1.481,0.441 1.481,2.054 v 1.429 c 0,1.691 -0.572,2.315 -1.872,2.315 h -0.962 v 2.6 h 1.118 C -0.649,-2.938 0,-2.47 0,-1.014 Z"
         style="fill:#b50f0d;fill-opacity:1;fill-rule:nonzero;stroke:none"
         id="path3789"
         inkscape:connector-curvature="0" />
    </g>
  </g>
</svg>
