<svg xmlns="http://www.w3.org/2000/svg" width="77.903" height="108.451" viewBox="0 0 20.612 28.694"><path d="M20.5 26.678a1.91 1.91 0 0 1-1.904 1.905H2.016A1.91 1.91 0 0 1 .11 26.678V2.016A1.91 1.91 0 0 1 2.016.11h16.58a1.91 1.91 0 0 1 1.905 1.905z" fill="#fafafa" fill-rule="evenodd"/><path d="M20.5 26.678a1.91 1.91 0 0 1-1.904 1.905H2.016A1.91 1.91 0 0 1 .11 26.678V2.016A1.91 1.91 0 0 1 2.016.11h16.58a1.91 1.91 0 0 1 1.905 1.905z" fill="none" stroke="#ccc" stroke-width=".2222514" stroke-miterlimit="3.864"/><path d="M5.176 10.122a1.05 1.05 0 0 0-1.028.786 1.052 1.052 0 0 0-1.03-.786c-.585 0-1.059.457-1.059 1.02.044 1.015 2.089 2.938 2.089 2.938s2.045-1.923 2.087-2.938c0-.563-.473-1.02-1.059-1.02M15.407 16.71c-1.216 0-2.228.816-2.496 1.909-.269-1.093-1.282-1.91-2.499-1.91-1.42 0-2.57 1.11-2.57 2.478.106 2.464 5.07 7.131 5.07 7.131s4.962-4.667 5.067-7.131c0-1.367-1.15-2.477-2.572-2.477M4.698 3.984c0-.577-.201-.733-.522-.733-.322 0-.523.174-.523.633v.412h-.954v-.348c0-1.028.513-1.615 1.504-1.615.99 0 1.504.587 1.504 1.615v.165c0 .688-.22 1.119-.706 1.32.504.22.706.698.706 1.35v.503c0 1.028-.513 1.615-1.504 1.615-.99 0-1.504-.587-1.504-1.615v-.531h.954v.596c0 .459.201.633.523.633.32 0 .522-.156.522-.725v-.504c0-.597-.201-.817-.66-.817h-.34v-.917h.395c.376 0 .605-.165.605-.679z" fill="#b50f0d"/></svg>