<svg xmlns="http://www.w3.org/2000/svg" width="77.903" height="108.451" viewBox="0 0 20.612 28.694"><path d="M20.5 26.678a1.91 1.91 0 0 1-1.904 1.905H2.016A1.91 1.91 0 0 1 .11 26.678V2.016A1.91 1.91 0 0 1 2.016.11h16.58a1.91 1.91 0 0 1 1.905 1.905z" fill="#fafafa" fill-rule="evenodd"/><path d="M20.5 26.678a1.91 1.91 0 0 1-1.904 1.905H2.016A1.91 1.91 0 0 1 .11 26.678V2.016A1.91 1.91 0 0 1 2.016.11h16.58a1.91 1.91 0 0 1 1.905 1.905z" fill="none" stroke="#ccc" stroke-width=".222" stroke-miterlimit="3.864"/><path d="M4.698 3.984c0-.577-.201-.733-.522-.733-.322 0-.523.174-.523.633v.412h-.954v-.348c0-1.028.513-1.615 1.504-1.615.99 0 1.504.587 1.504 1.615v.165c0 .688-.22 1.119-.706 1.32.504.22.706.698.706 1.35v.503c0 1.028-.513 1.615-1.504 1.615-.99 0-1.504-.587-1.504-1.615v-.531h.954v.596c0 .459.201.633.523.633.32 0 .522-.156.522-.725v-.504c0-.597-.201-.817-.66-.817h-.34v-.917h.395c.376 0 .605-.165.605-.679zM4.147 9.993S2.3 11.73 2.26 12.647c0 .509.429.922.958.922a.97.97 0 0 0 .598-.204c-.044.34-.118.747-.226.843h1.115c-.092-.08-.175-.543-.22-.839.162.125.367.2.591.2.529 0 .958-.413.958-.922-.04-.917-1.887-2.654-1.887-2.654M12.91 15.781s-4.617 4.342-4.717 6.636c0 1.272 1.071 2.303 2.394 2.303.568 0 1.087-.191 1.496-.51-.111.85-.295 1.869-.566 2.108h2.786c-.227-.202-.438-1.356-.55-2.096.406.312.92.498 1.48.498 1.322 0 2.394-1.031 2.394-2.303-.1-2.294-4.717-6.636-4.717-6.636" fill="#171717"/></svg>