<?xml version="1.0" encoding="UTF-8" standalone="no"?>
<!-- Created with Inkscape (http://www.inkscape.org/) -->

<svg
   xmlns:dc="http://purl.org/dc/elements/1.1/"
   xmlns:cc="http://creativecommons.org/ns#"
   xmlns:rdf="http://www.w3.org/1999/02/22-rdf-syntax-ns#"
   xmlns:svg="http://www.w3.org/2000/svg"
   xmlns="http://www.w3.org/2000/svg"
   xmlns:sodipodi="http://sodipodi.sourceforge.net/DTD/sodipodi-0.dtd"
   xmlns:inkscape="http://www.inkscape.org/namespaces/inkscape"
   width="20.61175mm"
   height="28.694237mm"
   viewBox="0 0 20.61175 28.694237"
   version="1.1"
   id="svg17344"
   inkscape:version="0.92.3 (2405546, 2018-03-11)">
  <defs
     id="defs17338" />
  <sodipodi:namedview
     id="base"
     pagecolor="#ffffff"
     bordercolor="#666666"
     borderopacity="1.0"
     inkscape:pageopacity="0.0"
     inkscape:pageshadow="2"
     inkscape:zoom="5.6"
     inkscape:cx="-0.39438348"
     inkscape:cy="61.801648"
     inkscape:document-units="mm"
     inkscape:current-layer="layer1"
     showgrid="false"
     inkscape:window-width="1920"
     inkscape:window-height="1057"
     inkscape:window-x="-8"
     inkscape:window-y="-8"
     inkscape:window-maximized="1"
     fit-margin-top="0"
     fit-margin-left="0"
     fit-margin-right="0"
     fit-margin-bottom="0" />
  <metadata
     id="metadata17341">
    <rdf:RDF>
      <cc:Work
         rdf:about="">
        <dc:format>image/svg+xml</dc:format>
        <dc:type
           rdf:resource="http://purl.org/dc/dcmitype/StillImage" />
        <dc:title></dc:title>
      </cc:Work>
    </rdf:RDF>
  </metadata>
  <g
     inkscape:label="Layer 1"
     inkscape:groupmode="layer"
     id="layer1"
     transform="translate(-192.76022,28.343313)">
    <path
       d="m 213.26084,-1.6648461 c 0,1.04739539 -0.85725,1.90464539 -1.90465,1.90464539 h -16.5802 c -1.0474,0 -1.90465,-0.85725 -1.90465,-1.90464539 V -26.327541 c 0,-1.047397 0.85725,-1.904647 1.90465,-1.904647 h 16.5802 c 1.0474,0 1.90465,0.85725 1.90465,1.904647 z"
       style="display:inline;fill:#fafafa;fill-opacity:1;fill-rule:evenodd;stroke:none;stroke-width:0.35277775"
       id="path5691"
       inkscape:connector-curvature="0" />
    <path
       d="m 213.26084,-1.6648461 c 0,1.04739539 -0.85725,1.90464539 -1.90465,1.90464539 h -16.5802 c -1.0474,0 -1.90465,-0.85725 -1.90465,-1.90464539 V -26.327541 c 0,-1.047397 0.85725,-1.904647 1.90465,-1.904647 h 16.5802 c 1.0474,0 1.90465,0.85725 1.90465,1.904647 z"
       style="display:inline;fill:none;stroke:#cccccc;stroke-width:0.22225;stroke-linecap:butt;stroke-linejoin:miter;stroke-miterlimit:3.86400008;stroke-dasharray:none;stroke-opacity:1"
       id="path5695"
       inkscape:connector-curvature="0" />
    <path
       d="m 197.45851,-24.3589 c 0,-0.57785 -0.20178,-0.733778 -0.52246,-0.733778 -0.32138,0 -0.52317,0.174272 -0.52317,0.632883 v 0.41275 h -0.95391 v -0.348544 c 0,-1.027289 0.51364,-1.614311 1.50424,-1.614311 0.9906,0 1.50425,0.587022 1.50425,1.614311 v 0.1651 c 0,0.687916 -0.22013,1.119011 -0.70626,1.3208 0.50447,0.220133 0.70626,0.697089 0.70626,1.348669 v 0.50412 c 0,1.027289 -0.51365,1.614664 -1.50425,1.614664 -0.9906,0 -1.50424,-0.587375 -1.50424,-1.614664 v -0.531636 h 0.95391 v 0.595841 c 0,0.458964 0.20179,0.632884 0.52317,0.632884 0.32068,0 0.52246,-0.155575 0.52246,-0.724606 v -0.504119 c 0,-0.596548 -0.20178,-0.816681 -0.6604,-0.816681 h -0.33937 v -0.917222 h 0.39441 c 0.37641,0 0.60536,-0.1651 0.60536,-0.678745 z"
       style="display:inline;fill:#171717;fill-opacity:1;fill-rule:nonzero;stroke:none;stroke-width:0.35277775"
       id="path5699"
       inkscape:connector-curvature="0" />
    <path
       d="m 196.90765,-18.349964 c 0,0 -1.84714,1.736372 -1.88736,2.653594 0,0.508706 0.42863,0.922161 0.95779,0.922161 0.22754,0 0.43498,-0.07691 0.59831,-0.204258 -0.0441,0.340078 -0.11782,0.747536 -0.22613,0.843139 h 1.11478 c -0.0917,-0.08043 -0.17498,-0.542572 -0.22048,-0.838906 0.16263,0.124884 0.36794,0.200025 0.59196,0.200025 0.52846,0 0.95779,-0.413455 0.95779,-0.922161 -0.0402,-0.917222 -1.88666,-2.653594 -1.88666,-2.653594"
       style="display:inline;fill:#171717;fill-opacity:1;fill-rule:nonzero;stroke:none;stroke-width:0.35277775"
       id="path5703"
       inkscape:connector-curvature="0" />
    <path
       d="m 205.66991,-12.56187 c 0,0 -4.61715,4.3419892 -4.71628,6.6353972 0,1.2717636 1.07068,2.3036386 2.39359,2.3036386 0.56762,0 1.08726,-0.1919111 1.49578,-0.509764 -0.11077,0.8498417 -0.29492,1.8683113 -0.56621,2.1074943 h 2.78624 c -0.22719,-0.2021416 -0.43744,-1.3560776 -0.54963,-2.096558 0.4057,0.3122083 0.91899,0.4988277 1.47991,0.4988277 1.32221,0 2.39359,-1.031875 2.39359,-2.3036386 -0.0991,-2.293408 -4.71699,-6.6353972 -4.71699,-6.6353972"
       style="display:inline;fill:#171717;fill-opacity:1;fill-rule:nonzero;stroke:none;stroke-width:0.35277775"
       id="path5707"
       inkscape:connector-curvature="0" />
  </g>
</svg>
