<svg xmlns="http://www.w3.org/2000/svg" width="77.901" height="108.449" viewBox="0 0 20.611 28.694"><path d="M20.5 26.678a1.91 1.91 0 0 1-1.904 1.905H2.016A1.91 1.91 0 0 1 .11 26.678V2.016A1.91 1.91 0 0 1 2.016.11h16.58A1.91 1.91 0 0 1 20.5 2.016z" fill="#fafafa" fill-rule="evenodd"/><path d="M20.5 26.678a1.91 1.91 0 0 1-1.904 1.905H2.016A1.91 1.91 0 0 1 .11 26.678V2.016A1.91 1.91 0 0 1 2.016.11h16.58A1.91 1.91 0 0 1 20.5 2.016z" fill="none" stroke="#ccc" stroke-width=".222" stroke-miterlimit="3.864"/><path d="M4.258 6.745V4.37l-1 2.375zm-1.926 0l1.834-4.339h1.101v4.34h.477v.917h-.477v1.164H4.258V7.663H2.332zM5.068 11.49c-.1 0-.195.02-.286.049a.96.96 0 0 0 .201-.583.964.964 0 0 0-1.927 0c0 .22.076.42.2.582a.97.97 0 0 0-.285-.047.964.964 0 0 0 0 1.926c.275 0 .52-.117.694-.3-.042.35-.14.97-.3 1.091h1.308c-.16-.121-.257-.74-.3-1.091a.96.96 0 0 0 1.658-.663.964.964 0 0 0-.963-.963M15.53 19.524c-.25 0-.485.05-.713.12.31-.406.5-.906.5-1.454a2.408 2.408 0 1 0-4.815 0c0 .548.19 1.048.499 1.454a2.408 2.408 0 0 0-.712-.12 2.409 2.409 0 0 0 0 4.817c.686 0 1.3-.291 1.737-.75-.107.876-.35 2.425-.75 2.727h3.267c-.4-.302-.641-1.851-.75-2.727.44.459 1.053.75 1.737.75a2.41 2.41 0 0 0 0-4.817" fill="green"/></svg>