<svg xmlns="http://www.w3.org/2000/svg" width="77.9" height="108.449" viewBox="0 0 20.611 28.694"><path d="M20.5 26.678a1.91 1.91 0 0 1-1.905 1.905H2.015a1.91 1.91 0 0 1-1.904-1.905V2.016A1.91 1.91 0 0 1 2.016.11h16.58A1.91 1.91 0 0 1 20.5 2.016z" fill="#fafafa" fill-rule="evenodd"/><path d="M20.5 26.678a1.91 1.91 0 0 1-1.905 1.905H2.015a1.91 1.91 0 0 1-1.904-1.905V2.016A1.91 1.91 0 0 1 2.016.11h16.58A1.91 1.91 0 0 1 20.5 2.016z" fill="none" stroke="#ccc" stroke-width=".222" stroke-miterlimit="3.864"/><path d="M4.258 6.745V4.37l-1 2.375zm-1.926 0l1.834-4.339h1.1v4.34h.478v.917h-.477v1.164h-1.01V7.663H2.333zM4.163 9.637l1.555 2.25-1.555 2.168-1.589-2.169zM12.95 15.273l3.89 5.623-3.89 5.422-3.97-5.422z" fill="#00f"/></svg>