<svg xmlns="http://www.w3.org/2000/svg" width="77.903" height="108.449" viewBox="0 0 20.612 28.694"><path d="M20.5 26.678a1.91 1.91 0 0 1-1.904 1.905H2.016A1.91 1.91 0 0 1 .11 26.678V2.016A1.91 1.91 0 0 1 2.016.11h16.58a1.91 1.91 0 0 1 1.905 1.905z" fill="#fafafa" fill-rule="evenodd"/><path d="M20.5 26.678a1.91 1.91 0 0 1-1.904 1.905H2.016A1.91 1.91 0 0 1 .11 26.678V2.016A1.91 1.91 0 0 1 2.016.11h16.58a1.91 1.91 0 0 1 1.905 1.905z" fill="none" stroke="#ccc" stroke-width=".222" stroke-miterlimit="3.864"/><path d="M4.258 6.745V4.37l-1 2.375zm-1.926 0l1.834-4.339h1.101v4.34h.477v.917h-.477v1.164H4.258V7.663H2.332zM4.147 9.993S2.3 11.73 2.26 12.647c0 .509.429.922.958.922a.97.97 0 0 0 .598-.204c-.044.34-.118.747-.226.843h1.115c-.092-.08-.175-.543-.22-.839.162.125.367.2.591.2.529 0 .958-.413.958-.922-.04-.917-1.887-2.654-1.887-2.654M12.91 15.782s-4.617 4.341-4.717 6.635c0 1.272 1.071 2.303 2.394 2.303.568 0 1.087-.191 1.496-.51-.111.85-.295 1.869-.566 2.108h2.786c-.227-.202-.438-1.356-.55-2.097.406.313.92.5 1.48.5 1.322 0 2.394-1.032 2.394-2.304-.1-2.294-4.717-6.635-4.717-6.635" fill="#171717"/></svg>