<svg xmlns="http://www.w3.org/2000/svg" width="77.901" height="108.449" viewBox="0 0 20.611 28.694"><path d="M20.5 26.678a1.91 1.91 0 0 1-1.904 1.905H2.016A1.91 1.91 0 0 1 .11 26.678V2.016A1.91 1.91 0 0 1 2.016.111h16.58A1.91 1.91 0 0 1 20.5 2.016z" fill="#fafafa" fill-rule="evenodd"/><path d="M20.5 26.678a1.91 1.91 0 0 1-1.904 1.905H2.016A1.91 1.91 0 0 1 .11 26.678V2.016A1.91 1.91 0 0 1 2.016.111h16.58A1.91 1.91 0 0 1 20.5 2.016z" fill="none" stroke="#ccc" stroke-width=".222" stroke-miterlimit="3.864"/><path d="M3.662 6.755v.596c0 .459.201.623.522.623.322 0 .524-.164.524-.623V5.938c0-.459-.202-.633-.524-.633-.32 0-.522.174-.522.633v.192h-.954l.183-3.724h2.66v.918H3.8l-.083 1.532c.183-.303.477-.468.88-.468.744 0 1.12.523 1.12 1.468v1.43c0 1.028-.514 1.615-1.505 1.615-.99 0-1.504-.587-1.504-1.614v-.532zM5.068 11.62c-.1 0-.195.019-.286.047a.96.96 0 0 0 .201-.583.964.964 0 0 0-1.927 0c0 .22.076.42.2.582a.97.97 0 0 0-.285-.047.964.964 0 0 0 0 1.927c.275 0 .52-.117.694-.3-.042.35-.14.97-.3 1.09h1.308c-.16-.12-.257-.74-.3-1.09a.96.96 0 0 0 1.658-.664.964.964 0 0 0-.963-.963M15.53 19.653c-.25 0-.485.05-.713.12.31-.407.5-.907.5-1.455a2.408 2.408 0 1 0-4.815 0c0 .548.19 1.048.499 1.454a2.408 2.408 0 0 0-.712-.12 2.409 2.409 0 0 0 0 4.817c.686 0 1.3-.291 1.737-.75-.107.876-.35 2.425-.75 2.727h3.267c-.4-.302-.641-1.851-.75-2.727.44.459 1.053.75 1.737.75a2.41 2.41 0 0 0 0-4.816" fill="green"/></svg>