<svg xmlns="http://www.w3.org/2000/svg" width="77.9" height="108.449" viewBox="0 0 20.611 28.694"><path d="M20.5 26.678a1.91 1.91 0 0 1-1.905 1.905H2.015a1.91 1.91 0 0 1-1.904-1.905V2.016A1.91 1.91 0 0 1 2.016.111h16.58A1.91 1.91 0 0 1 20.5 2.016z" fill="#fafafa" fill-rule="evenodd"/><path d="M20.5 26.678a1.91 1.91 0 0 1-1.905 1.905H2.015a1.91 1.91 0 0 1-1.904-1.905V2.016A1.91 1.91 0 0 1 2.016.111h16.58A1.91 1.91 0 0 1 20.5 2.016z" fill="none" stroke="#ccc" stroke-width=".222" stroke-miterlimit="3.864"/><path d="M3.662 6.755v.596c0 .459.201.623.522.623.322 0 .523-.164.523-.623V5.938c0-.459-.201-.633-.523-.633-.32 0-.522.174-.522.633v.192h-.955l.184-3.724h2.66v.918H3.799l-.083 1.532c.184-.303.478-.468.88-.468.744 0 1.12.523 1.12 1.468v1.43c0 1.028-.514 1.615-1.504 1.615s-1.505-.587-1.505-1.614v-.532zM4.163 9.637l1.555 2.25-1.555 2.168-1.589-2.168zM12.95 15.272l3.89 5.624-3.89 5.422-3.97-5.422z" fill="#00f"/></svg>