<svg xmlns="http://www.w3.org/2000/svg" width="77.903" height="108.449" viewBox="0 0 20.612 28.694"><path d="M20.5 26.678a1.91 1.91 0 0 1-1.904 1.905H2.016A1.91 1.91 0 0 1 .11 26.678V2.016A1.91 1.91 0 0 1 2.016.111h16.58a1.91 1.91 0 0 1 1.905 1.905z" fill="#fafafa" fill-rule="evenodd"/><path d="M20.5 26.678a1.91 1.91 0 0 1-1.904 1.905H2.016A1.91 1.91 0 0 1 .11 26.678V2.016A1.91 1.91 0 0 1 2.016.111h16.58a1.91 1.91 0 0 1 1.905 1.905z" fill="none" stroke="#ccc" stroke-width=".222" stroke-miterlimit="3.864"/><path d="M5.176 10.121a1.05 1.05 0 0 0-1.028.787 1.052 1.052 0 0 0-1.03-.787c-.585 0-1.059.458-1.059 1.02.044 1.016 2.089 2.939 2.089 2.939s2.045-1.923 2.087-2.938c0-.563-.473-1.02-1.059-1.02M15.407 16.71c-1.216 0-2.228.816-2.496 1.909-.269-1.093-1.282-1.91-2.499-1.91-1.42 0-2.57 1.11-2.57 2.478.106 2.464 5.07 7.131 5.07 7.131s4.962-4.667 5.067-7.131c0-1.367-1.15-2.477-2.572-2.477M3.662 6.755v.596c0 .459.201.623.523.623.32 0 .523-.164.523-.623V5.938c0-.459-.202-.633-.523-.633-.322 0-.523.174-.523.633v.192h-.954l.183-3.724h2.66v.918H3.8l-.083 1.532c.183-.303.477-.468.88-.468.744 0 1.12.523 1.12 1.468v1.43c0 1.028-.514 1.615-1.505 1.615-.99 0-1.504-.587-1.504-1.614v-.532z" fill="#b50f0d"/></svg>