<?xml version="1.0" encoding="UTF-8" standalone="no"?>
<!-- Created with Inkscape (http://www.inkscape.org/) -->

<svg
   xmlns:dc="http://purl.org/dc/elements/1.1/"
   xmlns:cc="http://creativecommons.org/ns#"
   xmlns:rdf="http://www.w3.org/1999/02/22-rdf-syntax-ns#"
   xmlns:svg="http://www.w3.org/2000/svg"
   xmlns="http://www.w3.org/2000/svg"
   xmlns:sodipodi="http://sodipodi.sourceforge.net/DTD/sodipodi-0.dtd"
   xmlns:inkscape="http://www.inkscape.org/namespaces/inkscape"
   width="20.611401mm"
   height="28.693886mm"
   viewBox="0 0 20.611401 28.693886"
   version="1.1"
   id="svg17344"
   inkscape:version="0.92.3 (2405546, 2018-03-11)"
   sodipodi:docname="6c.svg">
  <defs
     id="defs17338" />
  <sodipodi:namedview
     id="base"
     pagecolor="#ffffff"
     bordercolor="#666666"
     borderopacity="1.0"
     inkscape:pageopacity="0.0"
     inkscape:pageshadow="2"
     inkscape:zoom="5.6"
     inkscape:cx="19.856264"
     inkscape:cy="43.301215"
     inkscape:document-units="mm"
     inkscape:current-layer="layer1"
     showgrid="false"
     inkscape:window-width="1920"
     inkscape:window-height="1057"
     inkscape:window-x="-8"
     inkscape:window-y="-8"
     inkscape:window-maximized="1"
     fit-margin-top="0"
     fit-margin-left="0"
     fit-margin-right="0"
     fit-margin-bottom="0" />
  <metadata
     id="metadata17341">
    <rdf:RDF>
      <cc:Work
         rdf:about="">
        <dc:format>image/svg+xml</dc:format>
        <dc:type
           rdf:resource="http://purl.org/dc/dcmitype/StillImage" />
        <dc:title />
      </cc:Work>
    </rdf:RDF>
  </metadata>
  <g
     inkscape:label="Layer 1"
     inkscape:groupmode="layer"
     id="layer1"
     transform="translate(-174.15687,85.123602)">
    <path
       d="m 194.65714,-58.44549 c 0,1.04775 -0.85725,1.904648 -1.90465,1.904648 h -16.57985 c -1.0474,0 -1.90465,-0.856898 -1.90465,-1.904648 v -24.661987 c 0,-1.04775 0.85725,-1.905 1.90465,-1.905 h 16.57985 c 1.0474,0 1.90465,0.85725 1.90465,1.905 z"
       style="display:inline;fill:#fafafa;fill-opacity:1;fill-rule:evenodd;stroke:none;stroke-width:0.35277775"
       id="path7669"
       inkscape:connector-curvature="0" />
    <path
       d="m 194.65714,-58.44549 c 0,1.04775 -0.85725,1.904648 -1.90465,1.904648 h -16.57985 c -1.0474,0 -1.90465,-0.856898 -1.90465,-1.904648 v -24.661987 c 0,-1.04775 0.85725,-1.905 1.90465,-1.905 h 16.57985 c 1.0474,0 1.90465,0.85725 1.90465,1.905 z"
       style="display:inline;fill:none;stroke:#cccccc;stroke-width:0.22225;stroke-linecap:butt;stroke-linejoin:miter;stroke-miterlimit:3.86400008;stroke-dasharray:none;stroke-opacity:1"
       id="path7673"
       inkscape:connector-curvature="0" />
    <path
       d="m 177.67177,-78.928329 v 1.155347 c 0,0.458964 0.20179,0.623711 0.52282,0.623711 0.32138,0 0.52317,-0.164747 0.52317,-0.623711 v -1.155347 c 0,-0.458964 -0.20179,-0.633236 -0.52317,-0.633236 -0.32103,0 -0.52282,0.174272 -0.52282,0.633236 m -1.00859,-2.192514 c 0,-1.082322 0.4953,-1.669344 1.54058,-1.669344 0.9906,0 1.50424,0.587022 1.50424,1.614311 v 0.165452 h -0.95391 v -0.229658 c 0,-0.458964 -0.20179,-0.633236 -0.52281,-0.633236 -0.35772,0 -0.55951,0.174272 -0.55951,0.789164 v 1.174044 c 0.17427,-0.366536 0.48648,-0.568678 0.93557,-0.568678 0.7433,0 1.11901,0.52317 1.11901,1.467909 v 1.174044 c 0,1.027289 -0.54081,1.614311 -1.53176,1.614311 -0.9906,0 -1.53141,-0.587022 -1.53141,-1.614311 z"
       style="display:inline;fill:#008000;fill-opacity:1;fill-rule:nonzero;stroke:none;stroke-width:0.35277775"
       id="path7677"
       inkscape:connector-curvature="0" />
    <path
       d="m 179.22449,-73.504371 c -0.0998,0 -0.19438,0.0194 -0.2854,0.04763 0.12347,-0.162631 0.20073,-0.362655 0.20073,-0.582436 0,-0.530931 -0.43145,-0.963083 -0.96414,-0.963083 -0.53164,0 -0.96238,0.432152 -0.96238,0.963083 0,0.219781 0.0759,0.419805 0.19897,0.58173 -0.0903,-0.02752 -0.1845,-0.04692 -0.28434,-0.04692 -0.53128,0 -0.96344,0.431447 -0.96344,0.962731 0,0.531636 0.43216,0.963788 0.96344,0.963788 0.27481,0 0.51929,-0.117122 0.69427,-0.300566 -0.0427,0.350308 -0.1397,0.970139 -0.29951,1.090789 h 1.30704 c -0.16051,-0.12065 -0.25718,-0.740481 -0.30057,-1.090789 0.17569,0.183444 0.42122,0.300566 0.69533,0.300566 0.53128,0 0.96308,-0.432152 0.96308,-0.963788 0,-0.531284 -0.4318,-0.962731 -0.96308,-0.962731"
       style="display:inline;fill:#008000;fill-opacity:1;fill-rule:nonzero;stroke:none;stroke-width:0.35277775"
       id="path7681"
       inkscape:connector-curvature="0" />
    <path
       d="m 189.68724,-65.471092 c -0.25012,0 -0.48578,0.04974 -0.71296,0.119945 0.30868,-0.406047 0.49953,-0.906286 0.49953,-1.454503 0,-1.329267 -1.07703,-2.408061 -2.40771,-2.408061 -1.32962,0 -2.40735,1.078794 -2.40735,2.408061 0,0.548217 0.19014,1.048456 0.49882,1.453797 -0.22648,-0.0695 -0.46143,-0.119239 -0.71155,-0.119239 -1.32927,0 -2.40771,1.079148 -2.40771,2.407356 0,1.331383 1.07844,2.409472 2.40771,2.409472 0.68615,0 1.29928,-0.291394 1.73673,-0.750358 -0.10654,0.875947 -0.34996,2.425347 -0.75036,2.727325 h 3.26742 c -0.39969,-0.301978 -0.64134,-1.851378 -0.74965,-2.727325 0.43886,0.458964 1.05234,0.750358 1.73708,0.750358 1.32856,0 2.40806,-1.078089 2.40806,-2.409472 0,-1.328208 -1.0795,-2.407356 -2.40806,-2.407356"
       style="display:inline;fill:#008000;fill-opacity:1;fill-rule:nonzero;stroke:none;stroke-width:0.35277775"
       id="path7685"
       inkscape:connector-curvature="0" />
  </g>
</svg>
