<svg xmlns="http://www.w3.org/2000/svg" width="77.9" height="108.449" viewBox="0 0 20.611 28.694"><path d="M20.5 26.678a1.91 1.91 0 0 1-1.905 1.905H2.015a1.91 1.91 0 0 1-1.904-1.905V2.016A1.91 1.91 0 0 1 2.016.111h16.58A1.91 1.91 0 0 1 20.5 2.016z" fill="#fafafa" fill-rule="evenodd"/><path d="M20.5 26.678a1.91 1.91 0 0 1-1.905 1.905H2.015a1.91 1.91 0 0 1-1.904-1.905V2.016A1.91 1.91 0 0 1 2.016.111h16.58A1.91 1.91 0 0 1 20.5 2.016z" fill="none" stroke="#ccc" stroke-width=".222" stroke-miterlimit="3.864"/><path d="M3.515 6.195v1.156c0 .459.201.623.522.623.322 0 .523-.164.523-.623V6.195c0-.459-.201-.633-.523-.633-.32 0-.522.174-.522.633m-1.01-2.192c0-1.083.496-1.67 1.542-1.67.99 0 1.504.587 1.504 1.615v.165h-.954v-.23c0-.458-.202-.633-.523-.633-.358 0-.56.175-.56.79v1.173c.175-.366.487-.568.936-.568.743 0 1.12.523 1.12 1.468v1.174c0 1.027-.542 1.614-1.533 1.614-.99 0-1.531-.587-1.531-1.614zM4.163 10.121l1.555 2.25-1.555 2.169-1.589-2.169zM12.95 15.757l3.89 5.623-3.89 5.423-3.97-5.423z" fill="#00f"/></svg>