<svg xmlns="http://www.w3.org/2000/svg" width="77.903" height="108.449" viewBox="0 0 20.612 28.694"><path d="M20.5 26.678a1.91 1.91 0 0 1-1.904 1.905H2.016A1.91 1.91 0 0 1 .11 26.678V2.016A1.91 1.91 0 0 1 2.016.111h16.58a1.91 1.91 0 0 1 1.905 1.905z" fill="#fafafa" fill-rule="evenodd"/><path d="M20.5 26.678a1.91 1.91 0 0 1-1.904 1.905H2.016A1.91 1.91 0 0 1 .11 26.678V2.016A1.91 1.91 0 0 1 2.016.111h16.58a1.91 1.91 0 0 1 1.905 1.905z" fill="none" stroke="#ccc" stroke-width=".222" stroke-miterlimit="3.864"/><path d="M5.176 10.121a1.05 1.05 0 0 0-1.028.787 1.052 1.052 0 0 0-1.03-.787c-.585 0-1.059.458-1.059 1.02.044 1.016 2.089 2.939 2.089 2.939s2.045-1.923 2.087-2.938c0-.563-.473-1.02-1.059-1.02M15.407 16.71c-1.216 0-2.228.816-2.496 1.909-.269-1.093-1.282-1.91-2.499-1.91-1.42 0-2.57 1.11-2.57 2.478.106 2.464 5.07 7.131 5.07 7.131s4.962-4.667 5.068-7.131c0-1.367-1.152-2.477-2.573-2.477M3.515 6.195v1.156c0 .459.202.623.523.623s.523-.164.523-.623V6.195c0-.459-.202-.633-.523-.633s-.523.174-.523.633M2.506 4.003c0-1.083.496-1.67 1.54-1.67.992 0 1.505.587 1.505 1.615v.165h-.954v-.23c0-.458-.202-.633-.523-.633-.357 0-.56.175-.56.79v1.173c.175-.366.487-.568.936-.568.744 0 1.12.523 1.12 1.468v1.174c0 1.027-.541 1.614-1.532 1.614-.99 0-1.532-.587-1.532-1.614z" fill="#b50f0d"/></svg>