<svg xmlns="http://www.w3.org/2000/svg" width="77.903" height="108.449" viewBox="0 0 20.612 28.694"><path d="M20.5 26.678a1.91 1.91 0 0 1-1.904 1.905H2.016A1.91 1.91 0 0 1 .11 26.678V2.016A1.91 1.91 0 0 1 2.016.111h16.58a1.91 1.91 0 0 1 1.905 1.905z" fill="#fafafa" fill-rule="evenodd"/><path d="M20.5 26.678a1.91 1.91 0 0 1-1.904 1.905H2.016A1.91 1.91 0 0 1 .11 26.678V2.016A1.91 1.91 0 0 1 2.016.111h16.58a1.91 1.91 0 0 1 1.905 1.905z" fill="none" stroke="#ccc" stroke-width=".222" stroke-miterlimit="3.864"/><path d="M3.515 6.195v1.156c0 .459.202.623.523.623s.523-.164.523-.623V6.195c0-.459-.202-.633-.523-.633s-.523.174-.523.633M2.506 4.003c0-1.083.496-1.67 1.54-1.67.991 0 1.505.587 1.505 1.615v.165h-.954v-.23c0-.458-.202-.633-.523-.633-.357 0-.56.175-.56.79v1.173c.175-.366.487-.568.936-.568.744 0 1.12.523 1.12 1.468v1.174c0 1.027-.541 1.614-1.532 1.614-.99 0-1.532-.587-1.532-1.614zM4.147 10.121S2.3 11.858 2.26 12.775c0 .509.429.922.958.922a.97.97 0 0 0 .598-.204c-.044.34-.118.747-.226.843h1.115c-.092-.08-.175-.542-.22-.839.162.125.367.2.591.2.529 0 .958-.413.958-.922-.04-.917-1.887-2.654-1.887-2.654M12.91 15.91s-4.617 4.341-4.717 6.635c0 1.272 1.071 2.303 2.394 2.303.568 0 1.087-.191 1.496-.51-.111.85-.295 1.869-.566 2.108h2.786c-.227-.202-.438-1.356-.55-2.096.406.312.92.498 1.48.498 1.322 0 2.394-1.031 2.394-2.303-.1-2.294-4.717-6.635-4.717-6.635" fill="#171717"/></svg>