<svg xmlns="http://www.w3.org/2000/svg" width="77.901" height="108.451" viewBox="0 0 20.611 28.694"><path d="M20.5 26.678a1.91 1.91 0 0 1-1.904 1.905H2.016a1.91 1.91 0 0 1-1.905-1.905V2.016A1.91 1.91 0 0 1 2.016.11h16.58A1.91 1.91 0 0 1 20.5 2.016z" fill="#fafafa" fill-rule="evenodd"/><path d="M20.5 26.678a1.91 1.91 0 0 1-1.904 1.905H2.016a1.91 1.91 0 0 1-1.905-1.905V2.016A1.91 1.91 0 0 1 2.016.11h16.58A1.91 1.91 0 0 1 20.5 2.016z" fill="none" stroke="#ccc" stroke-width=".222" stroke-miterlimit="3.864"/><path d="M5.886 2.407v.88L4.4 8.827H3.39l1.477-5.503h-2.01v-.917zM5.068 11.62c-.1 0-.195.018-.286.047a.96.96 0 0 0 .2-.582.964.964 0 0 0-1.926 0c0 .22.076.42.2.581a.97.97 0 0 0-.285-.047.964.964 0 0 0 0 1.927c.275 0 .52-.118.694-.301-.042.35-.14.97-.3 1.091h1.308c-.16-.12-.257-.74-.3-1.091a.96.96 0 0 0 1.658-.663.964.964 0 0 0-.963-.963M15.53 19.653c-.25 0-.485.05-.713.12.31-.406.5-.907.5-1.455a2.408 2.408 0 1 0-4.815 0c0 .548.19 1.049.499 1.454a2.408 2.408 0 0 0-.712-.12 2.408 2.408 0 0 0 0 4.817c.686 0 1.3-.291 1.737-.75-.107.876-.35 2.425-.75 2.728h3.267c-.4-.303-.641-1.852-.75-2.728.44.459 1.053.75 1.737.75a2.41 2.41 0 0 0 0-4.816" fill="green"/></svg>