<svg xmlns="http://www.w3.org/2000/svg" width="77.901" height="108.451" viewBox="0 0 20.611 28.694"><path d="M20.5 26.678a1.91 1.91 0 0 1-1.904 1.905H2.016a1.91 1.91 0 0 1-1.905-1.905V2.016A1.91 1.91 0 0 1 2.016.11h16.58A1.91 1.91 0 0 1 20.5 2.016z" fill="#fafafa" fill-rule="evenodd"/><path d="M20.5 26.678a1.91 1.91 0 0 1-1.904 1.905H2.016a1.91 1.91 0 0 1-1.905-1.905V2.016A1.91 1.91 0 0 1 2.016.11h16.58A1.91 1.91 0 0 1 20.5 2.016z" fill="none" stroke="#ccc" stroke-width=".222" stroke-miterlimit="3.864"/><path d="M4.189 7.984c.32 0 .56-.156.568-.725v-.596c0-.505-.21-.725-.568-.725s-.569.22-.569.725v.596c0 .569.248.725.569.725M3.62 4.342c0 .514.239.68.569.68.32 0 .568-.166.568-.68v-.358c0-.577-.247-.733-.568-.733-.32 0-.569.156-.569.733zm.569 4.56c-1.018 0-1.578-.588-1.578-1.616v-.504c0-.614.184-1.092.624-1.34-.422-.229-.624-.66-.624-1.292v-.202c0-1.028.56-1.615 1.578-1.615s1.578.587 1.578 1.615v.202c0 .632-.212 1.063-.624 1.293.44.247.624.725.624 1.34v.503c0 1.028-.56 1.615-1.578 1.615M5.068 11.62c-.1 0-.195.018-.286.047a.96.96 0 0 0 .201-.582.964.964 0 0 0-1.927 0c0 .22.076.42.2.581a.97.97 0 0 0-.285-.047.964.964 0 0 0 0 1.927c.275 0 .52-.118.694-.301-.042.35-.14.97-.3 1.091h1.308c-.16-.12-.257-.74-.3-1.091a.96.96 0 0 0 1.658-.663.964.964 0 0 0-.963-.963M15.53 19.653c-.25 0-.485.05-.713.12.31-.406.5-.907.5-1.455a2.408 2.408 0 1 0-4.815 0c0 .548.19 1.049.499 1.454a2.408 2.408 0 0 0-.712-.12 2.408 2.408 0 0 0 0 4.817c.686 0 1.3-.291 1.737-.75-.107.876-.35 2.425-.75 2.728h3.267c-.4-.303-.641-1.852-.75-2.728.44.459 1.053.75 1.737.75a2.41 2.41 0 0 0 0-4.816" fill="green"/></svg>