<svg xmlns="http://www.w3.org/2000/svg" width="77.903" height="108.451" viewBox="0 0 20.612 28.694"><path d="M20.5 26.678a1.91 1.91 0 0 1-1.904 1.905H2.016a1.91 1.91 0 0 1-1.905-1.905V2.016A1.91 1.91 0 0 1 2.016.11h16.58a1.91 1.91 0 0 1 1.905 1.905z" fill="#fafafa" fill-rule="evenodd"/><path d="M20.5 26.678a1.91 1.91 0 0 1-1.904 1.905H2.016a1.91 1.91 0 0 1-1.905-1.905V2.016A1.91 1.91 0 0 1 2.016.11h16.58a1.91 1.91 0 0 1 1.905 1.905z" fill="none" stroke="#ccc" stroke-width=".222" stroke-miterlimit="3.864"/><path d="M4.189 7.984c.32 0 .56-.156.568-.725v-.596c0-.505-.21-.725-.568-.725s-.569.22-.569.725v.596c0 .569.248.725.569.725M3.62 4.342c0 .514.239.68.569.68.32 0 .568-.166.568-.68v-.358c0-.577-.247-.733-.568-.733-.321 0-.569.156-.569.733zm.569 4.56c-1.018 0-1.578-.588-1.578-1.616v-.504c0-.614.184-1.092.624-1.34-.422-.229-.624-.66-.624-1.292v-.202c0-1.028.56-1.615 1.578-1.615s1.578.587 1.578 1.615v.202c0 .632-.211 1.063-.624 1.293.44.247.624.725.624 1.34v.503c0 1.028-.56 1.615-1.578 1.615M4.163 10.122L5.72 12.37 4.163 14.54l-1.588-2.17zM12.95 15.757l3.89 5.624-3.89 5.422-3.97-5.422z" fill="#00f"/></svg>