<?xml version="1.0" encoding="UTF-8" standalone="no"?>
<!-- Created with Inkscape (http://www.inkscape.org/) -->

<svg
   xmlns:dc="http://purl.org/dc/elements/1.1/"
   xmlns:cc="http://creativecommons.org/ns#"
   xmlns:rdf="http://www.w3.org/1999/02/22-rdf-syntax-ns#"
   xmlns:svg="http://www.w3.org/2000/svg"
   xmlns="http://www.w3.org/2000/svg"
   xmlns:sodipodi="http://sodipodi.sourceforge.net/DTD/sodipodi-0.dtd"
   xmlns:inkscape="http://www.inkscape.org/namespaces/inkscape"
   width="20.61175mm"
   height="28.694237mm"
   viewBox="0 0 20.61175 28.694237"
   version="1.1"
   id="svg17344"
   inkscape:version="0.92.3 (2405546, 2018-03-11)"
   sodipodi:docname="8d.svg">
  <defs
     id="defs17338" />
  <sodipodi:namedview
     id="base"
     pagecolor="#ffffff"
     bordercolor="#666666"
     borderopacity="1.0"
     inkscape:pageopacity="0.0"
     inkscape:pageshadow="2"
     inkscape:zoom="5.6"
     inkscape:cx="5.5025064"
     inkscape:cy="50.14215"
     inkscape:document-units="mm"
     inkscape:current-layer="layer1"
     showgrid="false"
     inkscape:window-width="1920"
     inkscape:window-height="1057"
     inkscape:window-x="-8"
     inkscape:window-y="-8"
     inkscape:window-maximized="1"
     fit-margin-top="0"
     fit-margin-left="0"
     fit-margin-right="0"
     fit-margin-bottom="0" />
  <metadata
     id="metadata17341">
    <rdf:RDF>
      <cc:Work
         rdf:about="">
        <dc:format>image/svg+xml</dc:format>
        <dc:type
           rdf:resource="http://purl.org/dc/dcmitype/StillImage" />
        <dc:title />
      </cc:Work>
    </rdf:RDF>
  </metadata>
  <g
     inkscape:label="Layer 1"
     inkscape:groupmode="layer"
     id="layer1"
     transform="translate(-177.95466,83.313957)">
    <path
       inkscape:connector-curvature="0"
       id="path9627"
       style="display:inline;fill:#fafafa;fill-opacity:1;fill-rule:evenodd;stroke:none;stroke-width:0.35277775"
       d="m 198.45528,-56.63549 c 0,1.047395 -0.85725,1.904645 -1.90465,1.904645 h -16.57985 c -1.04775,0 -1.905,-0.85725 -1.905,-1.904645 v -24.662695 c 0,-1.047397 0.85725,-1.904647 1.905,-1.904647 h 16.57985 c 1.0474,0 1.90465,0.85725 1.90465,1.904647 z" />
    <path
       inkscape:connector-curvature="0"
       id="path9631"
       style="display:inline;fill:none;stroke:#cccccc;stroke-width:0.22225;stroke-linecap:butt;stroke-linejoin:miter;stroke-miterlimit:3.86400008;stroke-dasharray:none;stroke-opacity:1"
       d="m 198.45528,-56.63549 c 0,1.047395 -0.85725,1.904645 -1.90465,1.904645 h -16.57985 c -1.04775,0 -1.905,-0.85725 -1.905,-1.904645 v -24.662695 c 0,-1.047397 0.85725,-1.904647 1.905,-1.904647 h 16.57985 c 1.0474,0 1.90465,0.85725 1.90465,1.904647 z" />
    <path
       inkscape:connector-curvature="0"
       id="path9635"
       style="display:inline;fill:#0000ff;fill-opacity:1;fill-rule:nonzero;stroke:none;stroke-width:0.35277775"
       d="m 182.14344,-75.330455 c 0.32102,0 0.5595,-0.155575 0.56867,-0.724605 v -0.596194 c 0,-0.504473 -0.21096,-0.724606 -0.56867,-0.724606 -0.35772,0 -0.56833,0.220133 -0.56833,0.724606 v 0.596194 c 0,0.56903 0.2473,0.724605 0.56833,0.724605 m -0.56833,-3.641372 c 0,0.513645 0.23813,0.679098 0.56833,0.679098 0.32102,0 0.56867,-0.165453 0.56867,-0.679098 v -0.357716 c 0,-0.57785 -0.24765,-0.733778 -0.56867,-0.733778 -0.32103,0 -0.56833,0.155928 -0.56833,0.733778 z m 0.56833,4.558947 c -1.01812,0 -1.57763,-0.587022 -1.57763,-1.614663 v -0.50412 c 0,-0.614539 0.18345,-1.091847 0.62371,-1.339497 -0.42192,-0.229306 -0.62371,-0.6604 -0.62371,-1.293283 v -0.201436 c 0,-1.027642 0.55951,-1.614664 1.57763,-1.614664 1.01847,0 1.57797,0.587022 1.57797,1.614664 v 0.201436 c 0,0.632883 -0.21096,1.063977 -0.62406,1.293283 0.44026,0.24765 0.62406,0.724958 0.62406,1.339497 v 0.50412 c 0,1.027641 -0.5595,1.614663 -1.57797,1.614663" />
    <path
       inkscape:connector-curvature="0"
       id="path9639"
       style="display:inline;fill:#0000ff;fill-opacity:1;fill-rule:nonzero;stroke:none;stroke-width:0.35277775"
       d="m 182.11796,-73.192444 1.55575,2.249311 -1.55575,2.168878 -1.5882,-2.168878 z" />
    <path
       inkscape:connector-curvature="0"
       id="path9643"
       style="display:inline;fill:#0000ff;fill-opacity:1;fill-rule:nonzero;stroke:none;stroke-width:0.35277775"
       d="m 190.90503,-67.556962 3.88937,5.623631 -3.88937,5.422195 -3.97017,-5.422195 z" />
  </g>
</svg>
