<svg xmlns="http://www.w3.org/2000/svg" width="77.9" height="108.451" viewBox="0 0 20.611 28.694"><path d="M20.5 26.678a1.91 1.91 0 0 1-1.905 1.905H2.015a1.91 1.91 0 0 1-1.904-1.905V2.016A1.91 1.91 0 0 1 2.016.11h16.58A1.91 1.91 0 0 1 20.5 2.016z" fill="#fafafa" fill-rule="evenodd"/><path d="M20.5 26.678a1.91 1.91 0 0 1-1.905 1.905H2.015a1.91 1.91 0 0 1-1.904-1.905V2.016A1.91 1.91 0 0 1 2.016.11h16.58A1.91 1.91 0 0 1 20.5 2.016z" fill="none" stroke="#ccc" stroke-width=".222" stroke-miterlimit="3.864"/><path d="M5.175 10.122a1.05 1.05 0 0 0-1.028.786 1.051 1.051 0 0 0-1.029-.786c-.585 0-1.06.457-1.06 1.02.045 1.015 2.09 2.938 2.09 2.938s2.044-1.923 2.087-2.938c0-.563-.474-1.02-1.06-1.02M15.407 16.71c-1.217 0-2.23.816-2.497 1.909-.268-1.093-1.281-1.91-2.498-1.91-1.42 0-2.571 1.11-2.571 2.478.106 2.464 5.07 7.131 5.07 7.131s4.963-4.667 5.068-7.131c0-1.367-1.151-2.477-2.572-2.477M4.188 7.984c.321 0 .56-.156.57-.725v-.596c0-.505-.212-.725-.57-.725-.357 0-.568.22-.568.725v.596c0 .569.248.725.568.725M3.62 4.342c0 .514.238.68.568.68.321 0 .57-.166.57-.68v-.358c0-.577-.249-.733-.57-.733-.32 0-.568.156-.568.733zm.568 4.56c-1.018 0-1.577-.588-1.577-1.616v-.504c0-.614.183-1.092.624-1.34-.422-.229-.624-.66-.624-1.292v-.202c0-1.028.56-1.615 1.577-1.615 1.019 0 1.578.587 1.578 1.615v.202c0 .632-.21 1.063-.624 1.293.44.247.624.725.624 1.34v.503c0 1.028-.56 1.615-1.578 1.615" fill="#b50f0d"/></svg>