<?xml version="1.0" encoding="UTF-8" standalone="no"?>
<!-- Created with Inkscape (http://www.inkscape.org/) -->

<svg
   xmlns:dc="http://purl.org/dc/elements/1.1/"
   xmlns:cc="http://creativecommons.org/ns#"
   xmlns:rdf="http://www.w3.org/1999/02/22-rdf-syntax-ns#"
   xmlns:svg="http://www.w3.org/2000/svg"
   xmlns="http://www.w3.org/2000/svg"
   xmlns:sodipodi="http://sodipodi.sourceforge.net/DTD/sodipodi-0.dtd"
   xmlns:inkscape="http://www.inkscape.org/namespaces/inkscape"
   width="20.61105mm"
   height="28.694237mm"
   viewBox="0 0 20.61105 28.694237"
   version="1.1"
   id="svg17344"
   inkscape:version="0.92.3 (2405546, 2018-03-11)"
   sodipodi:docname="7h.svg">
  <defs
     id="defs17338" />
  <sodipodi:namedview
     id="base"
     pagecolor="#ffffff"
     bordercolor="#666666"
     borderopacity="1.0"
     inkscape:pageopacity="0.0"
     inkscape:pageshadow="2"
     inkscape:zoom="5.6"
     inkscape:cx="31.148963"
     inkscape:cy="48.296052"
     inkscape:document-units="mm"
     inkscape:current-layer="layer1"
     showgrid="false"
     inkscape:window-width="1920"
     inkscape:window-height="1057"
     inkscape:window-x="-8"
     inkscape:window-y="-8"
     inkscape:window-maximized="1"
     fit-margin-top="0"
     fit-margin-left="0"
     fit-margin-right="0"
     fit-margin-bottom="0" />
  <metadata
     id="metadata17341">
    <rdf:RDF>
      <cc:Work
         rdf:about="">
        <dc:format>image/svg+xml</dc:format>
        <dc:type
           rdf:resource="http://purl.org/dc/dcmitype/StillImage" />
        <dc:title></dc:title>
      </cc:Work>
    </rdf:RDF>
  </metadata>
  <g
     inkscape:label="Layer 1"
     inkscape:groupmode="layer"
     id="layer1"
     transform="translate(-178.23247,83.802404)">
    <path
       d="m 198.73239,-57.123937 c 0,1.047395 -0.85725,1.904645 -1.90465,1.904645 h -16.5795 c -1.0474,0 -1.90465,-0.85725 -1.90465,-1.904645 v -24.662695 c 0,-1.047397 0.85725,-1.904647 1.90465,-1.904647 h 16.5795 c 1.0474,0 1.90465,0.85725 1.90465,1.904647 z"
       style="display:inline;fill:#fafafa;fill-opacity:1;fill-rule:evenodd;stroke:none;stroke-width:0.35277775"
       id="path3873"
       inkscape:connector-curvature="0" />
    <path
       d="m 198.73239,-57.123937 c 0,1.047395 -0.85725,1.904645 -1.90465,1.904645 h -16.5795 c -1.0474,0 -1.90465,-0.85725 -1.90465,-1.904645 v -24.662695 c 0,-1.047397 0.85725,-1.904647 1.90465,-1.904647 h 16.5795 c 1.0474,0 1.90465,0.85725 1.90465,1.904647 z"
       style="display:inline;fill:none;stroke:#cccccc;stroke-width:0.22225;stroke-linecap:butt;stroke-linejoin:miter;stroke-miterlimit:3.86400008;stroke-dasharray:none;stroke-opacity:1"
       id="path3877"
       inkscape:connector-curvature="0" />
    <path
       d="m 183.4079,-73.680891 c -0.50095,0 -0.91758,0.335845 -1.028,0.786342 -0.11077,-0.450497 -0.52846,-0.786342 -1.0294,-0.786342 -0.58491,0 -1.05975,0.4572 -1.05975,1.020586 0.0445,1.015295 2.08915,2.937933 2.08915,2.937933 0,0 2.04506,-1.922638 2.08774,-2.937933 0,-0.563386 -0.47413,-1.020586 -1.05974,-1.020586"
       style="display:inline;fill:#b50f0d;fill-opacity:1;fill-rule:nonzero;stroke:none;stroke-width:0.35277775"
       id="path3881"
       inkscape:connector-curvature="0" />
    <path
       d="m 193.63951,-67.092486 c -1.21673,0 -2.2292,0.816328 -2.49661,1.908881 -0.26882,-1.092553 -1.28164,-1.908881 -2.49837,-1.908881 -1.41993,0 -2.5714,1.109839 -2.5714,2.476853 0.10654,2.464153 5.06977,7.131403 5.06977,7.131403 0,0 4.96358,-4.66725 5.06836,-7.131403 0,-1.367014 -1.15076,-2.476853 -2.57175,-2.476853"
       style="display:inline;fill:#b50f0d;fill-opacity:1;fill-rule:nonzero;stroke:none;stroke-width:0.35277775"
       id="path3885"
       inkscape:connector-curvature="0" />
    <path
       d="m 182.4209,-75.818902 c 0.32102,0 0.55985,-0.155575 0.56867,-0.724605 v -0.596194 c 0,-0.504473 -0.21061,-0.724606 -0.56867,-0.724606 -0.35772,0 -0.56868,0.220133 -0.56868,0.724606 v 0.596194 c 0,0.56903 0.248,0.724605 0.56868,0.724605 m -0.56868,-3.641372 c 0,0.513645 0.23848,0.679098 0.56868,0.679098 0.32102,0 0.56867,-0.165453 0.56867,-0.679098 v -0.357716 c 0,-0.57785 -0.24765,-0.733778 -0.56867,-0.733778 -0.32068,0 -0.56868,0.155928 -0.56868,0.733778 z m 0.56868,4.558947 c -1.01812,0 -1.57763,-0.587022 -1.57763,-1.614663 v -0.50412 c 0,-0.614539 0.18345,-1.091847 0.62371,-1.339497 -0.42157,-0.229306 -0.62371,-0.6604 -0.62371,-1.293283 v -0.201436 c 0,-1.027642 0.55951,-1.614664 1.57763,-1.614664 1.01811,0 1.57797,0.587022 1.57797,1.614664 v 0.201436 c 0,0.632883 -0.21131,1.063977 -0.62406,1.293283 0.44026,0.24765 0.62406,0.724958 0.62406,1.339497 v 0.50412 c 0,1.027641 -0.55986,1.614663 -1.57797,1.614663"
       style="display:inline;fill:#b50f0d;fill-opacity:1;fill-rule:nonzero;stroke:none;stroke-width:0.35277775"
       id="path3889"
       inkscape:connector-curvature="0" />
  </g>
</svg>
