<svg xmlns="http://www.w3.org/2000/svg" width="77.9" height="108.451" viewBox="0 0 20.611 28.694"><path d="M20.5 26.678a1.91 1.91 0 0 1-1.905 1.905H2.015a1.91 1.91 0 0 1-1.904-1.905V2.016A1.91 1.91 0 0 1 2.016.11h16.58A1.91 1.91 0 0 1 20.5 2.016z" fill="#fafafa" fill-rule="evenodd"/><path d="M20.5 26.678a1.91 1.91 0 0 1-1.905 1.905H2.015a1.91 1.91 0 0 1-1.904-1.905V2.016A1.91 1.91 0 0 1 2.016.11h16.58A1.91 1.91 0 0 1 20.5 2.016z" fill="none" stroke="#ccc" stroke-width=".222" stroke-miterlimit="3.864"/><path d="M4.188 7.984c.321 0 .56-.156.57-.725v-.596c0-.505-.212-.725-.57-.725-.357 0-.568.22-.568.725v.596c0 .569.248.725.568.725M3.62 4.342c0 .514.238.68.568.68.321 0 .57-.166.57-.68v-.358c0-.577-.249-.733-.57-.733-.32 0-.568.156-.568.733zm.568 4.56c-1.018 0-1.577-.588-1.577-1.616v-.504c0-.614.183-1.092.624-1.34-.422-.229-.624-.66-.624-1.292v-.202c0-1.028.56-1.615 1.577-1.615 1.019 0 1.578.587 1.578 1.615v.202c0 .632-.21 1.063-.624 1.293.44.247.624.725.624 1.34v.503c0 1.028-.56 1.615-1.578 1.615M4.147 10.122S2.3 11.858 2.26 12.775c0 .509.428.922.958.922a.97.97 0 0 0 .598-.204c-.044.34-.118.748-.226.843h1.114c-.091-.08-.175-.542-.22-.839.163.125.368.2.592.2.528 0 .958-.413.958-.922-.04-.917-1.887-2.653-1.887-2.653M12.91 15.91s-4.617 4.342-4.717 6.635c0 1.272 1.071 2.304 2.394 2.304.568 0 1.087-.192 1.496-.51-.111.85-.295 1.868-.566 2.107h2.786c-.227-.202-.438-1.356-.55-2.096.406.312.92.499 1.48.499 1.322 0 2.394-1.032 2.394-2.304-.1-2.293-4.717-6.635-4.717-6.635" fill="#171717"/></svg>