<svg xmlns="http://www.w3.org/2000/svg" width="77.903" height="108.451" viewBox="0 0 20.612 28.694"><path d="M20.5 26.678a1.91 1.91 0 0 1-1.904 1.905H2.016a1.91 1.91 0 0 1-1.905-1.905V2.016A1.91 1.91 0 0 1 2.016.11h16.58a1.91 1.91 0 0 1 1.905 1.905z" fill="#fafafa" fill-rule="evenodd"/><path d="M20.5 26.678a1.91 1.91 0 0 1-1.904 1.905H2.016a1.91 1.91 0 0 1-1.905-1.905V2.016A1.91 1.91 0 0 1 2.016.11h16.58a1.91 1.91 0 0 1 1.905 1.905z" fill="none" stroke="#ccc" stroke-width=".222" stroke-miterlimit="3.864"/><path d="M4.693 5.04V3.883c0-.459-.201-.624-.522-.624-.322 0-.523.165-.523.624v1.155c0 .459.201.633.523.633.32 0 .522-.174.522-.633m1.01 2.192c0 1.083-.496 1.67-1.542 1.67-.99 0-1.504-.587-1.504-1.615v-.165h.954v.23c0 .459.202.633.523.633.358 0 .56-.174.56-.79V6.022c-.175.367-.487.569-.936.569-.743 0-1.12-.523-1.12-1.468V3.948c0-1.027.542-1.615 1.533-1.615.99 0 1.531.588 1.531 1.615zM4.163 9.637l1.556 2.25-1.556 2.168-1.588-2.169zM12.95 15.273l3.89 5.623-3.89 5.422-3.97-5.422z" fill="#00f"/></svg>