<?xml version="1.0" encoding="UTF-8" standalone="no"?>
<!-- Created with Inkscape (http://www.inkscape.org/) -->

<svg
   xmlns:dc="http://purl.org/dc/elements/1.1/"
   xmlns:cc="http://creativecommons.org/ns#"
   xmlns:rdf="http://www.w3.org/1999/02/22-rdf-syntax-ns#"
   xmlns:svg="http://www.w3.org/2000/svg"
   xmlns="http://www.w3.org/2000/svg"
   xmlns:sodipodi="http://sodipodi.sourceforge.net/DTD/sodipodi-0.dtd"
   xmlns:inkscape="http://www.inkscape.org/namespaces/inkscape"
   width="20.61175mm"
   height="28.694237mm"
   viewBox="0 0 20.61175 28.694237"
   version="1.1"
   id="svg17344"
   inkscape:version="0.92.3 (2405546, 2018-03-11)"
   sodipodi:docname="9d.svg">
  <defs
     id="defs17338" />
  <sodipodi:namedview
     id="base"
     pagecolor="#ffffff"
     bordercolor="#666666"
     borderopacity="1.0"
     inkscape:pageopacity="0.0"
     inkscape:pageshadow="2"
     inkscape:zoom="5.6"
     inkscape:cx="8.8910044"
     inkscape:cy="56.80193"
     inkscape:document-units="mm"
     inkscape:current-layer="layer1"
     showgrid="false"
     inkscape:window-width="1920"
     inkscape:window-height="1057"
     inkscape:window-x="-8"
     inkscape:window-y="-8"
     inkscape:window-maximized="1"
     fit-margin-top="0"
     fit-margin-left="0"
     fit-margin-right="0"
     fit-margin-bottom="0" />
  <metadata
     id="metadata17341">
    <rdf:RDF>
      <cc:Work
         rdf:about="">
        <dc:format>image/svg+xml</dc:format>
        <dc:type
           rdf:resource="http://purl.org/dc/dcmitype/StillImage" />
        <dc:title />
      </cc:Work>
    </rdf:RDF>
  </metadata>
  <g
     inkscape:label="Layer 1"
     inkscape:groupmode="layer"
     id="layer1"
     transform="translate(-177.05816,81.551892)">
    <path
       inkscape:connector-curvature="0"
       id="path9647"
       style="display:inline;fill:#fafafa;fill-opacity:1;fill-rule:evenodd;stroke:none;stroke-width:0.35277775"
       d="m 197.55878,-54.873425 c 0,1.047395 -0.85725,1.904645 -1.90465,1.904645 h -16.57985 c -1.04775,0 -1.905,-0.85725 -1.905,-1.904645 V -79.53612 c 0,-1.047397 0.85725,-1.904647 1.905,-1.904647 h 16.57985 c 1.0474,0 1.90465,0.85725 1.90465,1.904647 z" />
    <path
       inkscape:connector-curvature="0"
       id="path9651"
       style="display:inline;fill:none;stroke:#cccccc;stroke-width:0.22225;stroke-linecap:butt;stroke-linejoin:miter;stroke-miterlimit:3.86400008;stroke-dasharray:none;stroke-opacity:1"
       d="m 197.55878,-54.873425 c 0,1.047395 -0.85725,1.904645 -1.90465,1.904645 h -16.57985 c -1.04775,0 -1.905,-0.85725 -1.905,-1.904645 V -79.53612 c 0,-1.047397 0.85725,-1.904647 1.905,-1.904647 h 16.57985 c 1.0474,0 1.90465,0.85725 1.90465,1.904647 z" />
    <path
       inkscape:connector-curvature="0"
       id="path9655"
       style="display:inline;fill:#0000ff;fill-opacity:1;fill-rule:nonzero;stroke:none;stroke-width:0.35277775"
       d="m 181.7513,-76.512602 v -1.155699 c 0,-0.458612 -0.20143,-0.623712 -0.52246,-0.623712 -0.32138,0 -0.52282,0.1651 -0.52282,0.623712 v 1.155699 c 0,0.458612 0.20144,0.632884 0.52282,0.632884 0.32103,0 0.52246,-0.174272 0.52246,-0.632884 m 1.0093,2.192162 c 0,1.082322 -0.4953,1.669344 -1.54129,1.669344 -0.99024,0 -1.50389,-0.587022 -1.50389,-1.614311 v -0.1651 h 0.95391 v 0.229305 c 0,0.458964 0.20144,0.632884 0.52247,0.632884 0.35807,0 0.5595,-0.17392 0.5595,-0.788811 v -1.174045 c -0.17392,0.366889 -0.48577,0.569031 -0.93521,0.569031 -0.7433,0 -1.11936,-0.52317 -1.11936,-1.467909 v -1.174044 c 0,-1.027289 0.54151,-1.614311 1.53211,-1.614311 0.99025,0 1.53176,0.587022 1.53176,1.614311 z" />
    <path
       inkscape:connector-curvature="0"
       id="path9659"
       style="display:inline;fill:#0000ff;fill-opacity:1;fill-rule:nonzero;stroke:none;stroke-width:0.35277775"
       d="m 181.22146,-71.914778 1.55575,2.249311 -1.55575,2.168878 -1.5882,-2.168878 z" />
    <path
       inkscape:connector-curvature="0"
       id="path9663"
       style="display:inline;fill:#0000ff;fill-opacity:1;fill-rule:nonzero;stroke:none;stroke-width:0.35277775"
       d="m 190.00853,-66.279296 3.88937,5.623631 -3.88937,5.422194 -3.97017,-5.422194 z" />
  </g>
</svg>
