<svg xmlns="http://www.w3.org/2000/svg" width="77.9" height="108.451" viewBox="0 0 20.611 28.694"><path d="M20.5 26.678a1.91 1.91 0 0 1-1.905 1.905H2.015a1.91 1.91 0 0 1-1.904-1.905V2.016A1.91 1.91 0 0 1 2.016.11h16.58A1.91 1.91 0 0 1 20.5 2.016z" fill="#fafafa" fill-rule="evenodd"/><path d="M20.5 26.678a1.91 1.91 0 0 1-1.905 1.905H2.015a1.91 1.91 0 0 1-1.904-1.905V2.016A1.91 1.91 0 0 1 2.016.11h16.58A1.91 1.91 0 0 1 20.5 2.016z" fill="none" stroke="#ccc" stroke-width=".222" stroke-miterlimit="3.864"/><path d="M5.175 10.122a1.05 1.05 0 0 0-1.028.786 1.051 1.051 0 0 0-1.029-.786c-.585 0-1.06.457-1.06 1.02.045 1.015 2.09 2.938 2.09 2.938s2.044-1.923 2.087-2.938c0-.563-.474-1.02-1.06-1.02M15.407 16.71c-1.217 0-2.23.816-2.497 1.909-.268-1.093-1.281-1.91-2.498-1.91-1.42 0-2.571 1.11-2.571 2.478.106 2.464 5.07 7.131 5.07 7.131s4.963-4.667 5.068-7.131c0-1.367-1.151-2.477-2.572-2.477M4.693 5.04V3.883c0-.459-.202-.624-.523-.624s-.523.165-.523.624v1.155c0 .459.202.633.523.633s.523-.174.523-.633m1.009 2.192c0 1.083-.496 1.67-1.54 1.67-.991 0-1.505-.587-1.505-1.615v-.165h.954v.23c0 .459.202.633.523.633.357 0 .56-.174.56-.79V6.022c-.175.367-.487.569-.936.569-.744 0-1.12-.523-1.12-1.468V3.948c0-1.027.541-1.615 1.532-1.615.99 0 1.532.588 1.532 1.615z" fill="#b50f0d"/></svg>