<svg xmlns="http://www.w3.org/2000/svg" width="77.9" height="108.451" viewBox="0 0 20.611 28.694"><path d="M20.5 26.678a1.91 1.91 0 0 1-1.905 1.905H2.015a1.91 1.91 0 0 1-1.904-1.905V2.016A1.91 1.91 0 0 1 2.016.11h16.58A1.91 1.91 0 0 1 20.5 2.016z" fill="#fafafa" fill-rule="evenodd"/><path d="M20.5 26.678a1.91 1.91 0 0 1-1.905 1.905H2.015a1.91 1.91 0 0 1-1.904-1.905V2.016A1.91 1.91 0 0 1 2.016.11h16.58A1.91 1.91 0 0 1 20.5 2.016z" fill="none" stroke="#ccc" stroke-width=".222" stroke-miterlimit="3.864"/><path d="M4.693 5.04V3.883c0-.459-.202-.624-.523-.624s-.523.165-.523.624v1.155c0 .459.202.633.523.633s.523-.174.523-.633m1.009 2.192c0 1.083-.496 1.67-1.54 1.67-.991 0-1.505-.587-1.505-1.615v-.165h.954v.23c0 .459.202.633.523.633.357 0 .56-.174.56-.79V6.022c-.175.367-.487.569-.936.569-.744 0-1.12-.523-1.12-1.468V3.948c0-1.027.541-1.615 1.532-1.615.99 0 1.532.588 1.532 1.615zM4.147 10.122S2.3 11.858 2.26 12.775c0 .509.428.922.958.922a.97.97 0 0 0 .598-.204c-.044.34-.118.748-.226.843h1.114c-.091-.08-.175-.542-.22-.839.163.125.368.2.592.2.528 0 .958-.413.958-.922-.04-.917-1.887-2.653-1.887-2.653M12.91 15.91s-4.617 4.342-4.717 6.635c0 1.272 1.071 2.304 2.394 2.304.568 0 1.087-.192 1.496-.51-.111.85-.295 1.868-.566 2.107h2.786c-.227-.202-.438-1.356-.55-2.096.406.312.92.499 1.48.499 1.322 0 2.394-1.032 2.394-2.304-.1-2.293-4.717-6.635-4.717-6.635" fill="#171717"/></svg>