<svg xmlns="http://www.w3.org/2000/svg" width="77.9" height="108.451" viewBox="0 0 20.611 28.694"><path d="M20.5 26.678a1.91 1.91 0 0 1-1.905 1.905H2.015a1.91 1.91 0 0 1-1.904-1.905V2.016A1.91 1.91 0 0 1 2.016.11h16.58A1.91 1.91 0 0 1 20.5 2.016z" fill="#fafafa" fill-rule="evenodd"/><path d="M20.5 26.678a1.91 1.91 0 0 1-1.905 1.905H2.015a1.91 1.91 0 0 1-1.904-1.905V2.016A1.91 1.91 0 0 1 2.016.11h16.58A1.91 1.91 0 0 1 20.5 2.016z" fill="none" stroke="#ccc" stroke-width=".2222514" stroke-miterlimit="3.864"/><path d="M3.483 6.791h.972l-.486-3.247zm2.302 2.036H4.767l-.175-1.164H3.354L3.18 8.827h-.927l1.028-6.42h1.476zM4.163 9.892l1.555 2.249-1.555 2.169-1.589-2.169zM12.95 15.527l3.89 5.624-3.89 5.422-3.97-5.422z" fill="#b50f0d"/></svg>