<svg xmlns="http://www.w3.org/2000/svg" width="77.903" height="108.451" viewBox="0 0 20.612 28.694"><path d="M20.5 26.678a1.91 1.91 0 0 1-1.904 1.905H2.016A1.91 1.91 0 0 1 .11 26.678V2.016A1.91 1.91 0 0 1 2.016.11h16.58a1.91 1.91 0 0 1 1.905 1.905z" fill="#fafafa" fill-rule="evenodd"/><path d="M20.5 26.678a1.91 1.91 0 0 1-1.904 1.905H2.016A1.91 1.91 0 0 1 .11 26.678V2.016A1.91 1.91 0 0 1 2.016.11h16.58a1.91 1.91 0 0 1 1.905 1.905z" fill="none" stroke="#ccc" stroke-width=".2222514" stroke-miterlimit="3.864"/><path d="M3.483 6.791h.972L3.97 3.544zm2.302 2.036H4.767l-.174-1.164H3.354L3.18 8.827h-.926l1.027-6.42h1.477zM4.147 9.993S2.3 11.73 2.26 12.647c0 .509.429.922.958.922a.97.97 0 0 0 .598-.204c-.044.34-.118.747-.226.843h1.115c-.092-.08-.175-.543-.22-.839.162.125.367.2.591.2.529 0 .958-.413.958-.922-.04-.917-1.887-2.654-1.887-2.654M12.91 15.781s-4.617 4.342-4.717 6.636c0 1.272 1.071 2.304 2.394 2.304.568 0 1.087-.192 1.496-.51-.111.85-.295 1.868-.566 2.107h2.786c-.227-.202-.438-1.356-.55-2.096.406.312.92.499 1.48.499 1.322 0 2.394-1.032 2.394-2.304-.1-2.294-4.717-6.636-4.717-6.636" fill="#171717"/></svg>