<?xml version="1.0" encoding="UTF-8" standalone="no"?>
<!-- Created with Inkscape (http://www.inkscape.org/) -->

<svg
   xmlns:dc="http://purl.org/dc/elements/1.1/"
   xmlns:cc="http://creativecommons.org/ns#"
   xmlns:rdf="http://www.w3.org/1999/02/22-rdf-syntax-ns#"
   xmlns:svg="http://www.w3.org/2000/svg"
   xmlns="http://www.w3.org/2000/svg"
   xmlns:sodipodi="http://sodipodi.sourceforge.net/DTD/sodipodi-0.dtd"
   xmlns:inkscape="http://www.inkscape.org/namespaces/inkscape"
   width="20.611746mm"
   height="28.694239mm"
   viewBox="0 0 20.611746 28.694239"
   version="1.1"
   id="svg17344"
   inkscape:version="0.92.3 (2405546, 2018-03-11)">
  <defs
     id="defs17338" />
  <sodipodi:namedview
     id="base"
     pagecolor="#ffffff"
     bordercolor="#666666"
     borderopacity="1.0"
     inkscape:pageopacity="0.0"
     inkscape:pageshadow="2"
     inkscape:zoom="5.6"
     inkscape:cx="15.994225"
     inkscape:cy="42.261012"
     inkscape:document-units="mm"
     inkscape:current-layer="layer1"
     showgrid="false"
     inkscape:window-width="1920"
     inkscape:window-height="1057"
     inkscape:window-x="-8"
     inkscape:window-y="-8"
     inkscape:window-maximized="1"
     fit-margin-top="0"
     fit-margin-left="0"
     fit-margin-right="0"
     fit-margin-bottom="0" />
  <metadata
     id="metadata17341">
    <rdf:RDF>
      <cc:Work
         rdf:about="">
        <dc:format>image/svg+xml</dc:format>
        <dc:type
           rdf:resource="http://purl.org/dc/dcmitype/StillImage" />
        <dc:title></dc:title>
      </cc:Work>
    </rdf:RDF>
  </metadata>
  <g
     inkscape:label="Layer 1"
     inkscape:groupmode="layer"
     id="layer1"
     transform="translate(-78.611272,-93.398334)">
    <g
       style="display:inline"
       id="g5649"
       transform="matrix(0.35277777,0,0,-0.35277777,99.111894,120.0768)">
      <path
         d="m 0,0 c 0,-2.969 -2.43,-5.399 -5.399,-5.399 h -46.999 c -2.969,0 -5.399,2.43 -5.399,5.399 v 69.91 c 0,2.969 2.43,5.399 5.399,5.399 H -5.399 C -2.43,75.309 0,72.879 0,69.91 Z"
         style="fill:#fafafa;fill-opacity:1;fill-rule:evenodd;stroke:none"
         id="path5651"
         inkscape:connector-curvature="0" />
    </g>
    <g
       style="display:inline"
       id="g5653"
       transform="matrix(0.35277777,0,0,-0.35277777,99.111894,120.0768)">
      <path
         d="m 0,0 c 0,-2.969 -2.43,-5.399 -5.399,-5.399 h -46.999 c -2.969,0 -5.399,2.43 -5.399,5.399 v 69.91 c 0,2.969 2.43,5.399 5.399,5.399 H -5.399 C -2.43,75.309 0,72.879 0,69.91 Z"
         style="fill:none;stroke:#cccccc;stroke-width:0.63;stroke-linecap:butt;stroke-linejoin:miter;stroke-miterlimit:3.86400008;stroke-dasharray:none;stroke-opacity:1"
         id="path5655"
         inkscape:connector-curvature="0" />
    </g>
    <g
       style="display:inline"
       id="g5657"
       transform="matrix(0.35277777,0,0,-0.35277777,82.094142,100.18948)">
      <path
         d="M 0,0 H 2.757 L 1.378,9.204 Z M 6.526,-5.772 H 3.64 l -0.494,3.301 h -3.51 l -0.494,-3.301 h -2.625 l 2.912,18.201 h 4.185 z"
         style="fill:#171717;fill-opacity:1;fill-rule:nonzero;stroke:none"
         id="path5659"
         inkscape:connector-curvature="0" />
    </g>
    <g
       style="display:inline"
       id="g5661"
       transform="matrix(0.35277777,0,0,-0.35277777,82.758704,103.39168)">
      <path
         d="m 0,0 c 0,0 -5.236,-4.922 -5.35,-7.522 0,-1.442 1.215,-2.614 2.715,-2.614 0.645,0 1.233,0.218 1.696,0.579 -0.125,-0.964 -0.334,-2.119 -0.641,-2.39 h 3.16 c -0.26,0.228 -0.496,1.538 -0.625,2.378 0.461,-0.354 1.043,-0.567 1.678,-0.567 1.498,0 2.715,1.172 2.715,2.614 C 5.234,-4.922 0,0 0,0"
         style="fill:#171717;fill-opacity:1;fill-rule:nonzero;stroke:none"
         id="path5663"
         inkscape:connector-curvature="0" />
    </g>
    <g
       style="display:inline"
       id="g5665"
       transform="matrix(0.35277777,0,0,-0.35277777,91.520964,109.17981)">
      <path
         d="m 0,0 c 0,0 -13.088,-12.308 -13.369,-18.809 0,-3.605 3.035,-6.53 6.785,-6.53 1.609,0 3.082,0.544 4.24,1.445 -0.314,-2.409 -0.836,-5.296 -1.605,-5.974 h 7.898 c -0.644,0.573 -1.24,3.844 -1.558,5.943 1.15,-0.885 2.605,-1.414 4.195,-1.414 3.748,0 6.785,2.925 6.785,6.53 C 13.09,-12.308 0,0 0,0"
         style="fill:#171717;fill-opacity:1;fill-rule:nonzero;stroke:none"
         id="path5667"
         inkscape:connector-curvature="0" />
    </g>
  </g>
</svg>
