<svg xmlns="http://www.w3.org/2000/svg" width="77.903" height="108.449" viewBox="0 0 20.612 28.694"><defs><clipPath clipPathUnits="userSpaceOnUse" id="a"><path d="M388.898 357.294l-18.192-12.446-3.277-13.408h45.786v18.76l-5.045 8.49-9.966 4.557z"/></clipPath><clipPath clipPathUnits="userSpaceOnUse" id="b"><path d="M388.898 357.294l-3.553-2.431-1.224-9.86 20.533 13.668.426 1.432-6.876 3.144z"/></clipPath><clipPath clipPathUnits="userSpaceOnUse" id="c"><path d="M388.898 357.294l-1.536-1.052-.767-7.235 15.447 10.006-1.489 3.16-2.349 1.074z"/></clipPath><clipPath clipPathUnits="userSpaceOnUse" id="d"><path d="M388.898 357.294l-3.553-2.431-1.224-9.86 20.533 13.668.426 1.432-6.876 3.144z"/></clipPath><clipPath clipPathUnits="userSpaceOnUse" id="e"><path d="M388.898 357.294l-18.192-12.446-3.277-13.408h45.786v18.76l-5.045 8.49-9.966 4.557z"/></clipPath><clipPath clipPathUnits="userSpaceOnUse" id="f"><path d="M376.2 331.44h15.536l21.479 16.357v2.403l-3.621 6.094z"/></clipPath><clipPath clipPathUnits="userSpaceOnUse" id="g"><path d="M388.898 357.294l-18.192-12.446-3.277-13.408h45.786v18.76l-5.045 8.49-9.966 4.557z"/></clipPath><clipPath clipPathUnits="userSpaceOnUse" id="h"><path d="M377.725 349.65l-2.801-18.21h5.367l3.22 22.168z"/></clipPath><clipPath clipPathUnits="userSpaceOnUse" id="i"><path d="M388.898 357.294l-18.192-12.446-3.277-13.408h45.786v18.76l-5.045 8.49-9.966 4.557z"/></clipPath><clipPath clipPathUnits="userSpaceOnUse" id="j"><path d="M0 842.979h701.352V0H0z"/></clipPath><clipPath clipPathUnits="userSpaceOnUse" id="k"><path d="M394.845 364.558l9.592-5.652 5.557 2.095-.678 6.365c-2.996 3.676-1.139 7.243-1.139 7.243l-5.214 1.492-9.538.162z"/></clipPath><clipPath clipPathUnits="userSpaceOnUse" id="l"><path d="M0 842.979h701.352V0H0z"/></clipPath><clipPath clipPathUnits="userSpaceOnUse" id="m"><path d="M367.13 345.036v-13.559c8.809 4.366 6.999 13.559 6.999 13.559z"/></clipPath></defs><path d="M20.5 26.678a1.91 1.91 0 0 1-1.904 1.905H2.016a1.91 1.91 0 0 1-1.905-1.905V2.016A1.91 1.91 0 0 1 2.016.111h16.58a1.91 1.91 0 0 1 1.905 1.905z" fill="#fafafa" fill-rule="evenodd"/><path d="M20.5 26.678a1.91 1.91 0 0 1-1.904 1.905H2.016a1.91 1.91 0 0 1-1.905-1.905V2.016A1.91 1.91 0 0 1 2.016.111h16.58a1.91 1.91 0 0 1 1.905 1.905z" fill="none" stroke="#ccc" stroke-width=".2222514" stroke-miterlimit="3.864"/><path d="M3.108 7.91c.11.01.238.01.348.01.321 0 .578-.12.578-.615V2.406h1.01v4.826c0 1.284-.689 1.614-1.45 1.614-.184 0-.32 0-.486-.019z" fill="#00f"/><path d="M15.856 16.17s2.315.587 2.57-1.29c.158-1.174-.808-2.086-1.998-1.89v1.073l.86.604.201.485-.394.607z" fill="#f5cc00"/><path d="M15.856 16.17s2.315.587 2.57-1.29c.158-1.174-.808-2.086-1.998-1.89v1.073l.86.604.201.485-.394.607z" fill="none" stroke="#020202" stroke-width=".15381208" stroke-miterlimit="10"/><path d="M9.854 17.52l-6.418 4.39-1.156 4.73h16.152v-6.618l-1.78-2.995-3.515-1.608z" fill="#00f"/><g clip-path="url(#a)" transform="matrix(.35278 0 0 -.35278 -127.34 143.565)"><path d="M404.654 358.67l-20.533-13.667 2.377 19.147 15.544 2.626 4.466-1.865z" fill="#fff"/></g><g clip-path="url(#b)" transform="matrix(.35278 0 0 -.35278 -127.34 143.565)"><path d="M402.042 359.013l-15.447-10.006.849 8.02s-1.186 1.77-.282 4.468l12.502 2.567z" fill="#f5cc00"/></g><g clip-path="url(#c)" transform="matrix(.35278 0 0 -.35278 -127.34 143.565)"><path d="M401.371 360.76l-12.664-8.368 1.367 14.86 9.77-.831z"/><path d="M401.371 360.76l-12.664-8.368 1.367 14.86 9.77-.831z" fill="none" stroke="#020202" stroke-width=".551" stroke-miterlimit="10"/></g><g clip-path="url(#d)" transform="matrix(.35278 0 0 -.35278 -127.34 143.565)"><path d="M402.042 359.013l-15.447-10.006.849 8.02s-1.186 1.77-.282 4.468l12.502 2.567z" fill="none" stroke="#020202" stroke-width=".551" stroke-miterlimit="10"/></g><g clip-path="url(#e)" transform="matrix(.35278 0 0 -.35278 -127.34 143.565)"><path d="M404.654 358.67l-20.533-13.667 2.377 19.147 15.544 2.626 4.466-1.865z" fill="none" stroke="#000" stroke-width=".551" stroke-miterlimit="10"/><path d="M373.267 329.257l38.679 28.787 4.668-7.658-30.078-22.906z" fill="#f5cc00"/></g><g clip-path="url(#f)" transform="matrix(.35278 0 0 -.35278 -127.34 143.565)"><path d="M384.669 328.282l33.798 25.691-3.242 4.248-40.943-30.117z" fill="#ae2a20"/><path d="M384.669 328.282l33.798 25.691-3.242 4.248-40.943-30.117z" fill="none" stroke="#000" stroke-width=".579" stroke-miterlimit="10"/></g><g clip-path="url(#g)" transform="matrix(.35278 0 0 -.35278 -127.34 143.565)"><path d="M373.267 329.257l38.679 28.787 4.668-7.658-30.078-22.906z" fill="none" stroke="#020202" stroke-width=".551" stroke-miterlimit="10"/><path d="M378.453 354.38l-3.893-25.303h5.387l3.98 27.387z" fill="#fff"/></g><g clip-path="url(#h)" transform="matrix(.35278 0 0 -.35278 -127.34 143.565)"><path d="M380.505 355.813l-4.248-26.377h5.878l4.342 28.55z" fill="#f5cc00"/><path d="M380.505 355.813l-4.248-26.377h5.878l4.342 28.55z" fill="none" stroke="#020202" stroke-width=".551" stroke-miterlimit="10"/><path d="M382.14 355.813l-4.247-26.377h5.879l4.34 28.55z" fill="#fff"/><path d="M382.14 355.813l-4.247-26.377h5.879l4.34 28.55z" fill="none" stroke="#000" stroke-width=".551" stroke-miterlimit="10"/></g><g clip-path="url(#i)" transform="matrix(.35278 0 0 -.35278 -127.34 143.565)"><path d="M378.453 354.38l-3.893-25.303h5.387l3.98 27.387z" fill="none" stroke="#000" stroke-width=".551" stroke-miterlimit="10"/></g><g clip-path="url(#j)" transform="matrix(.35278 0 0 -.35278 -127.34 143.565)"><path d="M388.898 357.294l-18.192-12.445-3.278-13.41h45.786v18.76l-5.045 8.49-9.965 4.558z" fill="none" stroke="#000" stroke-width=".579" stroke-miterlimit="10"/><path d="M386.127 376.02v-5.001l-2.508-6.271h2.68v-7.407s10.928-2.564 14.162 5.8v15.361s-11.676-.302-14.334-2.482" fill="#fff"/><path d="M386.127 376.02v-5.001l-2.508-6.271h2.68v-7.407s10.928-2.564 14.162 5.8v15.361s-11.676-.302-14.334-2.482z" fill="none" stroke="#000" stroke-width=".551" stroke-miterlimit="10"/><path d="M408.177 374.608s-1.856-3.566 1.14-7.242l.677-6.365-5.557-2.096-9.591 5.652-1.421 11.705 9.538-.162z" fill="#f5cc00"/></g><g clip-path="url(#k)" transform="matrix(.35278 0 0 -.35278 -127.34 143.565)"><path d="M397.11 377.862c-.212-4.449-2.013-15.939 15.293-17.652 0 0-1.013 4.642-.237 3.351.328-.553-13.735-.91-12.39 12.901 0 0-2.306 8.87-2.666 1.4" fill="#f5cc00"/><path d="M397.11 377.862c-.212-4.449-2.013-15.939 15.293-17.652 0 0-1.013 4.642-.237 3.351.328-.553-13.735-.91-12.39 12.901 0 0-2.306 8.87-2.666 1.4z" fill="none" stroke="#020202" stroke-width=".543" stroke-miterlimit="10"/><path d="M399.617 378.632c-.01-5.35-1.518-14.32 13.052-16.223 0 0-.667 4.223.01 2.98.24-.437-11.48-1.536-10.353 11.159 0 0-2.697 9.246-2.709 2.084" fill="#f5cc00"/><path d="M399.617 378.632c-.01-5.35-1.518-14.32 13.052-16.223 0 0-.667 4.223.01 2.98.24-.437-11.48-1.536-10.353 11.159 0 0-2.697 9.246-2.709 2.084z" fill="none" stroke="#020202" stroke-width=".498" stroke-miterlimit="10"/><path d="M405.557 376.544s-2.568-9.953 6.787-8.986" fill="#f5cc00" stroke="#020202" stroke-width=".498" stroke-miterlimit="10"/></g><g clip-path="url(#l)" transform="matrix(.35278 0 0 -.35278 -127.34 143.565)"><path d="M408.177 374.608s-1.856-3.566 1.14-7.242l.677-6.365-5.557-2.096-9.591 5.652-1.421 11.705 9.538-.162z" fill="none" stroke="#020202" stroke-width=".498" stroke-miterlimit="10"/><path d="M389.566 369.685a.74.74 0 0 0-.734-.744.74.74 0 0 0-.735.744.74.74 0 0 0 .735.746.74.74 0 0 0 .734-.746M386.299 362.327c1.504.314 3.507 0 3.507 0 2.444-.266 3.168.855 3.168.855s-.605-.51-3.168.034c-2.561.545-3.507.408-3.507.408z" fill="#171717"/><path d="M385.465 364.747h2.14" fill="none" stroke="#000" stroke-width=".551" stroke-miterlimit="10"/><path d="M367.13 345.036h6.999s1.81-9.193-7-13.559z" fill="#fff"/></g><g clip-path="url(#m)" transform="matrix(.35278 0 0 -.35278 -127.34 143.565)"><path d="M365.846 342.11h8.572v-3.504h-8.35l.322-3.726h7.054l-1.108-2.98-6.49-.028" fill="#fff" stroke="#000" stroke-width=".669" stroke-miterlimit="10"/></g><path d="M2.174 21.844h2.47s.638 3.243-2.47 4.783z" fill="none" stroke="#000" stroke-width=".19438178" stroke-linecap="round" stroke-linejoin="round" stroke-miterlimit="10"/><path d="M9.751 16.096l-.716-.017" fill="none" stroke="#000" stroke-width=".1905012" stroke-miterlimit="10"/><path d="M15.388 16.866s2.413.588 2.667-1.29c.16-1.174-.807-2.085-1.997-1.888v1.072l.86.604.199.485-.393.606z" fill="#f5cc00"/><path d="M15.388 16.866s2.413.588 2.667-1.29c.16-1.174-.807-2.085-1.997-1.888v1.072l.86.604.199.485-.393.606z" fill="none" stroke="#020202" stroke-width=".15381208" stroke-miterlimit="10"/><path d="M10.83 10.833s-.695 5.239 4.106 6.445c.573.144 2.321.247 2.478-1.426.1-1.08-1.054-1.77-1.943-1.587l.042.882s.964-.132.93.713c0 0-.098.73-1.15.546 0 0-3.95-.633-3.558-5.614z" fill="#f5cc00"/><path d="M10.83 10.833s-.695 5.239 4.106 6.445c.573.144 2.321.247 2.478-1.426.1-1.08-1.054-1.77-1.943-1.587l.042.882s.964-.132.93.713c0 0-.098.73-1.15.546 0 0-3.95-.633-3.558-5.614z" fill="none" stroke="#020202" stroke-width=".19438178" stroke-miterlimit="10"/><path d="M7.124 8.463l1.643 3.084s4.667-1.259 7.866-.026l1.155-3.102s-4.82-1.852-10.664.044" fill="#020202"/><path d="M7.124 8.463l1.643 3.084s4.667-1.259 7.866-.026l1.155-3.102s-4.82-1.852-10.664.044z" fill="none" stroke="#000" stroke-width=".19438178" stroke-miterlimit="10"/><path d="M7.275 8.553l1.132 2.323s4.64-1.024 8.464-.007l.857-2.273s-4.87-1.831-10.453-.043" fill="#ae2a20"/><path d="M7.275 8.553l1.132 2.323s4.64-1.024 8.464-.007l.857-2.273s-4.87-1.831-10.453-.043z" fill="none" stroke="#000" stroke-width=".19438178" stroke-miterlimit="10"/><path d="M8.187 8.91l.653 1.267s.85-.227 1.858-.308l-.128-1.341M16.903 8.8l-.456 1.25s-1.144-.13-2.153-.212l.03-1.34M11.355 8.528l.098 1.272h2.09V8.477" fill="#ae2a20" stroke="#000" stroke-width=".19438178" stroke-miterlimit="10"/><path d="M8.316 26.102h1.123l1.095-.786h-1.13z"/><path d="M8.316 26.102h1.123l1.095-.786h-1.13z" fill="none" stroke="#020202" stroke-width=".19438178" stroke-miterlimit="10"/><path d="M10.05 24.726h1.122l1.095-.788h-1.13z"/><path d="M10.05 24.726h1.122l1.095-.788h-1.13z" fill="none" stroke="#020202" stroke-width=".19438178" stroke-miterlimit="10"/><path d="M11.86 23.424h1.121l1.096-.788h-1.13z"/><path d="M11.86 23.424h1.121l1.096-.788h-1.13z" fill="none" stroke="#020202" stroke-width=".19438178" stroke-miterlimit="10"/><path d="M13.593 22.142h1.122l1.095-.787h-1.13z"/><path d="M13.593 22.142h1.122l1.095-.787h-1.13z" fill="none" stroke="#020202" stroke-width=".19438178" stroke-miterlimit="10"/><path d="M15.374 20.815h1.025l.997-.691-.346-.578z"/><path d="M15.374 20.815h1.025l.997-.691-.346-.578z" fill="none" stroke="#020202" stroke-width=".19438178" stroke-miterlimit="10"/><path d="M13.714 25.74l3.89-2.817v2.818z"/><path d="M13.714 25.74l3.89-2.817v2.818z" fill="none" stroke="#020202" stroke-width=".17215664" stroke-miterlimit="10"/><path d="M15.025 25.26l2.096-1.446v1.446z" fill="#f5cc00"/><path d="M15.025 25.26l2.096-1.446v1.446z" fill="none" stroke="#020202" stroke-width=".16615938" stroke-miterlimit="10"/><path d="M15.669 18.11c0 .16-.133.29-.295.29a.292.292 0 0 1-.295-.29c0-.16.133-.29.295-.29.162 0 .295.13.295.29" fill="#fff"/><path d="M15.669 18.11c0 .16-.133.29-.295.29a.292.292 0 0 1-.295-.29c0-.16.133-.29.295-.29.162 0 .295.13.295.29z" fill="none" stroke="#000" stroke-width=".13158693999999999" stroke-miterlimit="10"/><path d="M14.423 19.054c0 .16-.133.288-.295.288a.29.29 0 0 1-.294-.288c0-.16.132-.29.294-.29.162 0 .295.13.295.29" fill="#fff"/><path d="M14.423 19.054c0 .16-.133.288-.295.288a.29.29 0 0 1-.294-.288c0-.16.132-.29.294-.29.162 0 .295.13.295.29z" fill="none" stroke="#000" stroke-width=".13158693999999999" stroke-miterlimit="10"/><path d="M13.152 20.005c0 .16-.132.29-.295.29a.292.292 0 0 1-.294-.29c0-.16.132-.289.294-.289.163 0 .295.13.295.29" fill="#fff"/><path d="M13.152 20.005c0 .16-.132.29-.295.29a.292.292 0 0 1-.294-.29c0-.16.132-.289.294-.289.163 0 .295.13.295.29z" fill="none" stroke="#000" stroke-width=".13158693999999999" stroke-miterlimit="10"/><path d="M11.71 21.141c0 .162-.131.29-.293.29a.291.291 0 0 1-.295-.29c0-.159.132-.288.295-.288.162 0 .293.13.293.288" fill="#fff"/><path d="M11.71 21.141c0 .162-.131.29-.293.29a.291.291 0 0 1-.295-.29c0-.159.132-.288.295-.288.162 0 .293.13.293.288z" fill="none" stroke="#000" stroke-width=".13158693999999999" stroke-miterlimit="10"/><path d="M10.197 22.212c0 .16-.132.288-.294.288a.292.292 0 0 1-.295-.288c0-.158.133-.29.295-.29.162 0 .294.132.294.29" fill="#fff"/><path d="M10.197 22.212c0 .16-.132.288-.294.288a.292.292 0 0 1-.295-.288c0-.158.133-.29.295-.29.162 0 .294.132.294.29z" fill="none" stroke="#000" stroke-width=".13158693999999999" stroke-miterlimit="10"/><path d="M8.756 23.348c0 .16-.132.29-.295.29a.292.292 0 0 1-.294-.29c0-.159.132-.288.294-.288.163 0 .295.13.295.288" fill="#fff"/><path d="M8.756 23.348c0 .16-.132.29-.295.29a.292.292 0 0 1-.294-.29c0-.159.132-.288.294-.288.163 0 .295.13.295.288z" fill="none" stroke="#000" stroke-width=".13158693999999999" stroke-miterlimit="10"/><path d="M4.193 17.32c0-.28-.321-.508-.736-.508-.414 0-.738.228-.738.509v4.448h1.474z"/><path d="M4.193 17.32c0-.28-.321-.508-.736-.508-.414 0-.738.228-.738.509v4.448h1.474z" fill="none" stroke="#020202" stroke-width=".15451763999999998" stroke-miterlimit="10"/><path d="M3.647 17.26c0-.071-.083-.13-.19-.13-.105 0-.188.059-.188.13v4.192h.378z" fill="#fff"/><path d="M3.26 15.583h.394v1.163H3.26z" stroke="#020202" stroke-width=".185" stroke-miterlimit="10"/><path d="M3.486 14.786l.646 1.431H2.787z"/><path d="M3.486 14.786l.646 1.431H2.787z" fill="none" stroke="#020202" stroke-width=".17780111999999998" stroke-miterlimit="10"/><path d="M4.165 10.059l1.555 2.249-1.555 2.168-1.589-2.168z" fill="#00f"/></svg>