<svg xmlns="http://www.w3.org/2000/svg" width="77.9" height="108.449" viewBox="0 0 20.611 28.694"><defs><clipPath clipPathUnits="userSpaceOnUse" id="a"><path d="M460.898 357.294l-18.192-12.446-3.278-13.408h45.786v18.76l-5.046 8.49-9.965 4.557z"/></clipPath><clipPath clipPathUnits="userSpaceOnUse" id="b"><path d="M460.898 357.294l-3.554-2.432-1.223-9.859 20.533 13.668.426 1.432-6.877 3.144z"/></clipPath><clipPath clipPathUnits="userSpaceOnUse" id="c"><path d="M460.898 357.294l-1.537-1.052-.767-7.235 15.447 10.006-1.488 3.16-2.35 1.074z"/></clipPath><clipPath clipPathUnits="userSpaceOnUse" id="d"><path d="M460.898 357.294l-3.554-2.432-1.223-9.859 20.533 13.668.426 1.432-6.877 3.144z"/></clipPath><clipPath clipPathUnits="userSpaceOnUse" id="e"><path d="M460.898 357.294l-18.192-12.446-3.278-13.408h45.786v18.76l-5.046 8.49-9.965 4.557z"/></clipPath><clipPath clipPathUnits="userSpaceOnUse" id="f"><path d="M448.2 331.44h15.465l21.549 16.365v2.395l-3.622 6.094z"/></clipPath><clipPath clipPathUnits="userSpaceOnUse" id="g"><path d="M460.898 357.294l-18.192-12.446-3.278-13.408h45.786v18.76l-5.046 8.49-9.965 4.557z"/></clipPath><clipPath clipPathUnits="userSpaceOnUse" id="h"><path d="M449.723 349.649l-2.8-18.209h5.367l3.219 22.167z"/></clipPath><clipPath clipPathUnits="userSpaceOnUse" id="i"><path d="M460.898 357.294l-18.192-12.446-3.278-13.408h45.786v18.76l-5.046 8.49-9.965 4.557z"/></clipPath><clipPath clipPathUnits="userSpaceOnUse" id="j"><path d="M0 842.979h701.352V0H0z"/></clipPath><clipPath clipPathUnits="userSpaceOnUse" id="k"><path d="M466.845 364.558l9.591-5.652 5.558 2.095-.679 6.365c-2.995 3.676-1.139 7.243-1.139 7.243l-5.215 1.492-9.537.162z"/></clipPath><clipPath clipPathUnits="userSpaceOnUse" id="l"><path d="M0 842.979h701.352V0H0z"/></clipPath><clipPath clipPathUnits="userSpaceOnUse" id="m"><path d="M439.129 345.036v-13.559c8.809 4.366 6.998 13.559 6.998 13.559z"/></clipPath></defs><path d="M20.5 26.678a1.91 1.91 0 0 1-1.905 1.905H2.015a1.91 1.91 0 0 1-1.904-1.905V2.016A1.91 1.91 0 0 1 2.016.111h16.58A1.91 1.91 0 0 1 20.5 2.016z" fill="#fafafa" fill-rule="evenodd"/><path d="M20.5 26.678a1.91 1.91 0 0 1-1.905 1.905H2.015a1.91 1.91 0 0 1-1.904-1.905V2.016A1.91 1.91 0 0 1 2.016.111h16.58A1.91 1.91 0 0 1 20.5 2.016z" fill="none" stroke="#ccc" stroke-width=".2222514" stroke-miterlimit="3.864"/><path d="M5.177 10.121c-.501 0-.918.337-1.028.787a1.052 1.052 0 0 0-1.03-.787c-.584 0-1.06.458-1.06 1.02.045 1.016 2.09 2.939 2.09 2.939s2.045-1.923 2.088-2.938c0-.563-.475-1.02-1.06-1.02M3.107 7.91c.11.01.24.01.349.01.32 0 .578-.12.578-.615V2.406h1.009v4.826c0 1.284-.688 1.614-1.45 1.614-.183 0-.32 0-.486-.019z" fill="#b50f0d"/><path d="M15.856 16.17s2.315.587 2.57-1.29c.158-1.174-.808-2.086-1.999-1.89v1.073l.86.604.201.485-.393.607z" fill="#f5cc00"/><path d="M15.856 16.17s2.315.587 2.57-1.29c.158-1.174-.808-2.086-1.999-1.89v1.073l.86.604.201.485-.393.607z" fill="none" stroke="#020202" stroke-width=".15381208" stroke-miterlimit="10"/><path d="M9.854 17.52l-6.418 4.39-1.157 4.73h16.153v-6.618l-1.78-2.995-3.516-1.608z" fill="#ae2a20"/><g clip-path="url(#a)" transform="matrix(.35278 0 0 -.35278 -152.74 143.565)"><path d="M476.654 358.67l-20.533-13.667 2.375 19.147 15.545 2.626 4.467-1.865z" fill="#fff"/></g><g clip-path="url(#b)" transform="matrix(.35278 0 0 -.35278 -152.74 143.565)"><path d="M474.041 359.013l-15.447-10.006.849 8.02s-1.186 1.77-.283 4.468l12.503 2.567z" fill="#f5cc00"/></g><g clip-path="url(#c)" transform="matrix(.35278 0 0 -.35278 -152.74 143.565)"><path d="M473.37 360.76l-12.664-8.368 1.366 14.86 9.772-.831z"/><path d="M473.37 360.76l-12.664-8.368 1.366 14.86 9.772-.831z" fill="none" stroke="#020202" stroke-width=".551" stroke-miterlimit="10"/></g><g clip-path="url(#d)" transform="matrix(.35278 0 0 -.35278 -152.74 143.565)"><path d="M474.041 359.013l-15.447-10.006.849 8.02s-1.186 1.77-.283 4.468l12.503 2.567z" fill="none" stroke="#020202" stroke-width=".551" stroke-miterlimit="10"/></g><g clip-path="url(#e)" transform="matrix(.35278 0 0 -.35278 -152.74 143.565)"><path d="M476.654 358.67l-20.533-13.667 2.375 19.147 15.545 2.626 4.467-1.865z" fill="none" stroke="#000" stroke-width=".551" stroke-miterlimit="10"/><path d="M445.266 329.257l38.679 28.787 4.668-7.658-28.517-21.656z" fill="#f5cc00"/></g><g clip-path="url(#f)" transform="matrix(.35278 0 0 -.35278 -152.74 143.565)"><path d="M456.668 328.032l33.798 25.941-3.241 4.248-40.944-30.367z" fill="#ae2a20"/><path d="M456.668 328.032l33.798 25.941-3.241 4.248-40.944-30.367z" fill="none" stroke="#000" stroke-width=".579" stroke-miterlimit="10"/></g><g clip-path="url(#g)" transform="matrix(.35278 0 0 -.35278 -152.74 143.565)"><path d="M445.266 329.257l38.679 28.787 4.668-7.658-28.517-21.656z" fill="none" stroke="#020202" stroke-width=".551" stroke-miterlimit="10"/><path d="M450.451 354.38l-3.892-25.303h5.387l3.978 27.387z" fill="#fff"/></g><g clip-path="url(#h)" transform="matrix(.35278 0 0 -.35278 -152.74 143.565)"><path d="M452.504 355.813l-4.248-26.377h5.879l4.34 28.55z" fill="#f5cc00"/><path d="M452.504 355.813l-4.248-26.377h5.879l4.34 28.55z" fill="none" stroke="#020202" stroke-width=".551" stroke-miterlimit="10"/><path d="M454.14 355.813l-4.248-26.377h5.878l4.34 28.55z" fill="#fff"/><path d="M454.14 355.813l-4.248-26.377h5.878l4.34 28.55z" fill="none" stroke="#000" stroke-width=".551" stroke-miterlimit="10"/></g><g clip-path="url(#i)" transform="matrix(.35278 0 0 -.35278 -152.74 143.565)"><path d="M450.451 354.38l-3.892-25.303h5.387l3.978 27.387z" fill="none" stroke="#000" stroke-width=".551" stroke-miterlimit="10"/></g><g clip-path="url(#j)" transform="matrix(.35278 0 0 -.35278 -152.74 143.565)"><path d="M460.898 357.294l-18.193-12.445-3.278-13.41h45.786v18.76l-5.045 8.49-9.965 4.558z" fill="none" stroke="#000" stroke-width=".579" stroke-miterlimit="10"/><path d="M458.127 376.02v-5.001l-2.51-6.271h2.68v-7.407s10.929-2.564 14.164 5.8v15.361s-11.677-.302-14.334-2.482" fill="#fff"/><path d="M458.127 376.02v-5.001l-2.51-6.271h2.68v-7.407s10.929-2.564 14.164 5.8v15.361s-11.677-.302-14.334-2.482z" fill="none" stroke="#000" stroke-width=".551" stroke-miterlimit="10"/><path d="M480.176 374.608s-1.855-3.566 1.139-7.242l.679-6.365-5.558-2.096-9.59 5.652-1.422 11.705 9.537-.162z" fill="#f5cc00"/></g><g clip-path="url(#k)" transform="matrix(.35278 0 0 -.35278 -152.74 143.565)"><path d="M469.11 377.862c-.212-4.449-2.014-15.939 15.292-17.652 0 0-1.014 4.642-.237 3.351.327-.553-13.734-.91-12.39 12.901 0 0-2.305 8.87-2.666 1.4" fill="#f5cc00"/><path d="M469.11 377.862c-.212-4.449-2.014-15.939 15.292-17.652 0 0-1.014 4.642-.237 3.351.327-.553-13.734-.91-12.39 12.901 0 0-2.305 8.87-2.666 1.4z" fill="none" stroke="#020202" stroke-width=".543" stroke-miterlimit="10"/><path d="M471.615 378.632c-.01-5.35-1.516-14.32 13.053-16.223 0 0-.667 4.223.01 2.98.24-.437-11.479-1.536-10.352 11.159 0 0-2.699 9.246-2.71 2.084" fill="#f5cc00"/><path d="M471.615 378.632c-.01-5.35-1.516-14.32 13.053-16.223 0 0-.667 4.223.01 2.98.24-.437-11.479-1.536-10.352 11.159 0 0-2.699 9.246-2.71 2.084z" fill="none" stroke="#020202" stroke-width=".498" stroke-miterlimit="10"/><path d="M477.556 376.544s-2.567-9.953 6.787-8.986" fill="#f5cc00" stroke="#020202" stroke-width=".498" stroke-miterlimit="10"/></g><g clip-path="url(#l)" transform="matrix(.35278 0 0 -.35278 -152.74 143.565)"><path d="M480.176 374.608s-1.855-3.566 1.139-7.242l.679-6.365-5.558-2.096-9.59 5.652-1.422 11.705 9.537-.162z" fill="none" stroke="#020202" stroke-width=".498" stroke-miterlimit="10"/><path d="M461.565 369.685a.738.738 0 0 0-.732-.744.741.741 0 0 0-.738.744c0 .412.33.746.737.746a.739.739 0 0 0 .732-.746M458.297 362.327c1.505.314 3.508 0 3.508 0 2.445-.266 3.168.855 3.168.855s-.606-.51-3.168.034c-2.561.545-3.508.408-3.508.408z" fill="#171717"/><path d="M457.465 364.747h2.14" fill="none" stroke="#000" stroke-width=".551" stroke-miterlimit="10"/><path d="M439.129 345.036h6.998s1.812-9.193-6.998-13.559z" fill="#fff"/></g><g clip-path="url(#m)" transform="matrix(.35278 0 0 -.35278 -152.74 143.565)"><path d="M437.846 342.11h8.57v-3.504h-8.347l.32-3.726h7.053l-1.106-2.98-6.49-.028" fill="#fff" stroke="#000" stroke-width=".669" stroke-miterlimit="10"/></g><path d="M2.174 21.844h2.469s.639 3.243-2.469 4.783z" fill="none" stroke="#000" stroke-width=".19438178" stroke-linecap="round" stroke-linejoin="round" stroke-miterlimit="10"/><path d="M9.75 16.096l-.716-.017" fill="none" stroke="#000" stroke-width=".1905012" stroke-miterlimit="10"/><path d="M15.388 16.866s2.412.588 2.667-1.29c.16-1.174-.807-2.085-1.998-1.888v1.072l.86.604.2.485-.393.606z" fill="#f5cc00"/><path d="M15.388 16.866s2.412.588 2.667-1.29c.16-1.174-.807-2.085-1.998-1.888v1.072l.86.604.2.485-.393.606z" fill="none" stroke="#020202" stroke-width=".15381208" stroke-miterlimit="10"/><path d="M10.83 10.833s-.696 5.239 4.105 6.445c.574.144 2.322.247 2.479-1.426.1-1.08-1.054-1.77-1.943-1.587l.042.882s.963-.132.93.713c0 0-.099.73-1.15.546 0 0-3.95-.633-3.558-5.614z" fill="#f5cc00"/><path d="M10.83 10.833s-.696 5.239 4.105 6.445c.574.144 2.322.247 2.479-1.426.1-1.08-1.054-1.77-1.943-1.587l.042.882s.963-.132.93.713c0 0-.099.73-1.15.546 0 0-3.95-.633-3.558-5.614z" fill="none" stroke="#020202" stroke-width=".19438178" stroke-miterlimit="10"/><path d="M7.124 8.463l1.642 3.084s4.668-1.259 7.867-.026l1.155-3.102s-4.82-1.852-10.664.044" fill="#020202"/><path d="M7.124 8.463l1.642 3.084s4.668-1.259 7.867-.026l1.155-3.102s-4.82-1.852-10.664.044z" fill="none" stroke="#000" stroke-width=".19438178" stroke-miterlimit="10"/><path d="M7.274 8.553l1.132 2.323s4.64-1.024 8.464-.007l.858-2.273s-4.871-1.831-10.454-.043" fill="#ae2a20"/><path d="M7.274 8.553l1.132 2.323s4.64-1.024 8.464-.007l.858-2.273s-4.871-1.831-10.454-.043z" fill="none" stroke="#000" stroke-width=".19438178" stroke-miterlimit="10"/><path d="M8.187 8.91l.652 1.267s.85-.227 1.859-.308l-.128-1.341M16.903 8.8l-.456 1.25s-1.145-.13-2.153-.212l.03-1.34M11.354 8.528l.099 1.272h2.09V8.477" fill="#ae2a20" stroke="#000" stroke-width=".19438178" stroke-miterlimit="10"/><path d="M8.316 26.102h1.123l1.095-.786h-1.13z"/><path d="M8.316 26.102h1.123l1.095-.786h-1.13z" fill="none" stroke="#020202" stroke-width=".19438178" stroke-miterlimit="10"/><path d="M10.049 24.726h1.122l1.095-.788h-1.13z"/><path d="M10.049 24.726h1.122l1.095-.788h-1.13z" fill="none" stroke="#020202" stroke-width=".19438178" stroke-miterlimit="10"/><path d="M11.859 23.424h1.122l1.096-.788h-1.13z"/><path d="M11.859 23.424h1.122l1.096-.788h-1.13z" fill="none" stroke="#020202" stroke-width=".19438178" stroke-miterlimit="10"/><path d="M13.592 22.142h1.123l1.095-.787h-1.13z"/><path d="M13.592 22.142h1.123l1.095-.787h-1.13z" fill="none" stroke="#020202" stroke-width=".19438178" stroke-miterlimit="10"/><path d="M15.374 20.815h1.024l.997-.691-.345-.578z"/><path d="M15.374 20.815h1.024l.997-.691-.345-.578z" fill="none" stroke="#020202" stroke-width=".19438178" stroke-miterlimit="10"/><path d="M13.713 25.74l3.89-2.817v2.818z"/><path d="M13.713 25.74l3.89-2.817v2.818z" fill="none" stroke="#020202" stroke-width=".17215664" stroke-miterlimit="10"/><path d="M15.024 25.26l2.097-1.446v1.446z" fill="#f5cc00"/><path d="M15.024 25.26l2.097-1.446v1.446z" fill="none" stroke="#020202" stroke-width=".16615938" stroke-miterlimit="10"/><path d="M15.668 18.11c0 .16-.132.29-.294.29a.292.292 0 0 1-.295-.29c0-.16.132-.29.295-.29.162 0 .294.13.294.29" fill="#fff"/><path d="M15.668 18.11c0 .16-.132.29-.294.29a.292.292 0 0 1-.295-.29c0-.16.132-.29.295-.29.162 0 .294.13.294.29z" fill="none" stroke="#000" stroke-width=".13158693999999999" stroke-miterlimit="10"/><path d="M14.423 19.054c0 .16-.133.288-.295.288a.291.291 0 0 1-.294-.288c0-.16.131-.29.294-.29.162 0 .295.13.295.29" fill="#fff"/><path d="M14.423 19.054c0 .16-.133.288-.295.288a.291.291 0 0 1-.294-.288c0-.16.131-.29.294-.29.162 0 .295.13.295.29z" fill="none" stroke="#000" stroke-width=".13158693999999999" stroke-miterlimit="10"/><path d="M13.152 20.005c0 .16-.133.29-.295.29a.292.292 0 0 1-.294-.29c0-.16.132-.289.294-.289.162 0 .295.13.295.29" fill="#fff"/><path d="M13.152 20.005c0 .16-.133.29-.295.29a.292.292 0 0 1-.294-.29c0-.16.132-.289.294-.289.162 0 .295.13.295.29z" fill="none" stroke="#000" stroke-width=".13158693999999999" stroke-miterlimit="10"/><path d="M11.71 21.141c0 .162-.131.29-.294.29a.291.291 0 0 1-.294-.29c0-.159.132-.288.294-.288.163 0 .294.13.294.288" fill="#fff"/><path d="M11.71 21.141c0 .162-.131.29-.294.29a.291.291 0 0 1-.294-.29c0-.159.132-.288.294-.288.163 0 .294.13.294.288z" fill="none" stroke="#000" stroke-width=".13158693999999999" stroke-miterlimit="10"/><path d="M10.197 22.212c0 .16-.132.288-.295.288a.292.292 0 0 1-.294-.288c0-.158.133-.289.294-.289.163 0 .295.13.295.29" fill="#fff"/><path d="M10.197 22.212c0 .16-.132.288-.295.288a.292.292 0 0 1-.294-.288c0-.158.133-.289.294-.289.163 0 .295.13.295.29z" fill="none" stroke="#000" stroke-width=".13158693999999999" stroke-miterlimit="10"/><path d="M8.756 23.348c0 .16-.132.29-.295.29a.292.292 0 0 1-.294-.29c0-.159.132-.288.294-.288.163 0 .295.13.295.288" fill="#fff"/><path d="M8.756 23.348c0 .16-.132.29-.295.29a.292.292 0 0 1-.294-.29c0-.159.132-.288.294-.288.163 0 .295.13.295.288z" fill="none" stroke="#000" stroke-width=".13158693999999999" stroke-miterlimit="10"/><path d="M4.193 17.32c0-.28-.322-.508-.736-.508-.415 0-.738.228-.738.509v4.448h1.474z"/><path d="M4.193 17.32c0-.28-.322-.508-.736-.508-.415 0-.738.228-.738.509v4.448h1.474z" fill="none" stroke="#020202" stroke-width=".15451763999999998" stroke-miterlimit="10"/><path d="M3.646 17.26c0-.071-.083-.13-.19-.13-.105 0-.188.059-.188.13v4.192h.378z" fill="#fff"/><path d="M3.26 15.583h.393v1.163H3.26z" stroke="#020202" stroke-width=".185" stroke-miterlimit="10"/><path d="M3.486 14.786l.646 1.431H2.787z"/><path d="M3.486 14.786l.646 1.431H2.787z" fill="none" stroke="#020202" stroke-width=".17780111999999998" stroke-miterlimit="10"/></svg>