<?xml version="1.0" encoding="UTF-8" standalone="no"?>
<!-- Created with Inkscape (http://www.inkscape.org/) -->

<svg
   xmlns:dc="http://purl.org/dc/elements/1.1/"
   xmlns:cc="http://creativecommons.org/ns#"
   xmlns:rdf="http://www.w3.org/1999/02/22-rdf-syntax-ns#"
   xmlns:svg="http://www.w3.org/2000/svg"
   xmlns="http://www.w3.org/2000/svg"
   xmlns:sodipodi="http://sodipodi.sourceforge.net/DTD/sodipodi-0.dtd"
   xmlns:inkscape="http://www.inkscape.org/namespaces/inkscape"
   width="20.611042mm"
   height="28.693886mm"
   viewBox="0 0 20.611042 28.693886"
   version="1.1"
   id="svg13707"
   inkscape:version="0.92.3 (2405546, 2018-03-11)">
  <defs
     id="defs13701">
    <clipPath
       clipPathUnits="userSpaceOnUse"
       id="clipPath6016">
      <path
         d="m 388.898,357.294 -18.192,-12.446 -3.277,-13.408 h 3.429 42.357 v 18.76 l -5.045,8.49 -9.966,4.557 z"
         id="path6014"
         inkscape:connector-curvature="0" />
    </clipPath>
    <clipPath
       clipPathUnits="userSpaceOnUse"
       id="clipPath6028">
      <path
         d="m 388.898,357.294 -3.553,-2.431 -1.224,-9.86 20.533,13.668 0.426,1.432 -6.876,3.144 z"
         id="path6026"
         inkscape:connector-curvature="0" />
    </clipPath>
    <clipPath
       clipPathUnits="userSpaceOnUse"
       id="clipPath6040">
      <path
         d="m 388.898,357.294 -1.536,-1.052 -0.767,-7.235 15.447,10.006 -1.489,3.16 -2.349,1.074 z"
         id="path6038"
         inkscape:connector-curvature="0" />
    </clipPath>
    <clipPath
       clipPathUnits="userSpaceOnUse"
       id="clipPath6056">
      <path
         d="m 388.898,357.294 -3.553,-2.431 -1.224,-9.86 20.533,13.668 0.426,1.432 -6.876,3.144 z"
         id="path6054"
         inkscape:connector-curvature="0" />
    </clipPath>
    <clipPath
       clipPathUnits="userSpaceOnUse"
       id="clipPath6068">
      <path
         d="m 388.898,357.294 -18.192,-12.446 -3.277,-13.408 h 3.429 42.357 v 18.76 l -5.045,8.49 -9.966,4.557 z"
         id="path6066"
         inkscape:connector-curvature="0" />
    </clipPath>
    <clipPath
       clipPathUnits="userSpaceOnUse"
       id="clipPath6084">
      <path
         d="m 376.2,331.44 h 15.536 l 21.479,16.357 v 2.403 l -3.621,6.094 z"
         id="path6082"
         inkscape:connector-curvature="0" />
    </clipPath>
    <clipPath
       clipPathUnits="userSpaceOnUse"
       id="clipPath6100">
      <path
         d="m 388.898,357.294 -18.192,-12.446 -3.277,-13.408 h 3.429 42.357 v 18.76 l -5.045,8.49 -9.966,4.557 z"
         id="path6098"
         inkscape:connector-curvature="0" />
    </clipPath>
    <clipPath
       clipPathUnits="userSpaceOnUse"
       id="clipPath6116">
      <path
         d="m 377.725,349.65 -2.801,-18.21 h 5.367 l 3.22,22.168 z"
         id="path6114"
         inkscape:connector-curvature="0" />
    </clipPath>
    <clipPath
       clipPathUnits="userSpaceOnUse"
       id="clipPath6140">
      <path
         d="m 388.898,357.294 -18.192,-12.446 -3.277,-13.408 h 3.429 42.357 v 18.76 l -5.045,8.49 -9.966,4.557 z"
         id="path6138"
         inkscape:connector-curvature="0" />
    </clipPath>
    <clipPath
       clipPathUnits="userSpaceOnUse"
       id="clipPath6152">
      <path
         d="M 0,842.979 H 701.352 V 0 H 0 Z"
         id="path6150"
         inkscape:connector-curvature="0" />
    </clipPath>
    <clipPath
       clipPathUnits="userSpaceOnUse"
       id="clipPath6176">
      <path
         d="m 394.845,364.558 9.592,-5.652 5.557,2.095 -0.678,6.365 c -2.996,3.676 -1.139,7.243 -1.139,7.243 v 0 l -5.214,1.492 -9.538,0.162 z"
         id="path6174"
         inkscape:connector-curvature="0" />
    </clipPath>
    <clipPath
       clipPathUnits="userSpaceOnUse"
       id="clipPath6204">
      <path
         d="M 0,842.979 H 701.352 V 0 H 0 Z"
         id="path6202"
         inkscape:connector-curvature="0" />
    </clipPath>
    <clipPath
       clipPathUnits="userSpaceOnUse"
       id="clipPath6232">
      <path
         d="m 367.13,345.036 v -13.559 c 8.809,4.366 6.999,13.559 6.999,13.559 v 0 z"
         id="path6230"
         inkscape:connector-curvature="0" />
    </clipPath>
    <clipPath
       clipPathUnits="userSpaceOnUse"
       id="clipPath266">
      <path
         d="m 460.898,357.294 -18.192,-12.446 -3.278,-13.408 h 3.43 42.356 v 18.76 l -5.046,8.49 -9.965,4.557 z"
         id="path264"
         inkscape:connector-curvature="0" />
    </clipPath>
    <clipPath
       clipPathUnits="userSpaceOnUse"
       id="clipPath278">
      <path
         d="m 460.898,357.294 -3.554,-2.432 -1.223,-9.859 20.533,13.668 0.426,1.432 -6.877,3.144 z"
         id="path276"
         inkscape:connector-curvature="0" />
    </clipPath>
    <clipPath
       clipPathUnits="userSpaceOnUse"
       id="clipPath290">
      <path
         d="m 460.898,357.294 -1.537,-1.052 -0.767,-7.235 15.447,10.006 -1.488,3.16 -2.35,1.074 z"
         id="path288"
         inkscape:connector-curvature="0" />
    </clipPath>
    <clipPath
       clipPathUnits="userSpaceOnUse"
       id="clipPath306">
      <path
         d="m 460.898,357.294 -3.554,-2.432 -1.223,-9.859 20.533,13.668 0.426,1.432 -6.877,3.144 z"
         id="path304"
         inkscape:connector-curvature="0" />
    </clipPath>
    <clipPath
       clipPathUnits="userSpaceOnUse"
       id="clipPath318">
      <path
         d="m 460.898,357.294 -18.192,-12.446 -3.278,-13.408 h 3.43 42.356 v 18.76 l -5.046,8.49 -9.965,4.557 z"
         id="path316"
         inkscape:connector-curvature="0" />
    </clipPath>
    <clipPath
       clipPathUnits="userSpaceOnUse"
       id="clipPath334">
      <path
         d="m 448.2,331.44 h 15.465 l 21.549,16.365 v 2.395 l -3.622,6.094 z"
         id="path332"
         inkscape:connector-curvature="0" />
    </clipPath>
    <clipPath
       clipPathUnits="userSpaceOnUse"
       id="clipPath350">
      <path
         d="m 460.898,357.294 -18.192,-12.446 -3.278,-13.408 h 3.43 42.356 v 18.76 l -5.046,8.49 -9.965,4.557 z"
         id="path348"
         inkscape:connector-curvature="0" />
    </clipPath>
    <clipPath
       clipPathUnits="userSpaceOnUse"
       id="clipPath366">
      <path
         d="m 449.723,349.649 -2.8,-18.209 h 5.367 l 3.219,22.167 z"
         id="path364"
         inkscape:connector-curvature="0" />
    </clipPath>
    <clipPath
       clipPathUnits="userSpaceOnUse"
       id="clipPath390">
      <path
         d="m 460.898,357.294 -18.192,-12.446 -3.278,-13.408 h 3.43 42.356 v 18.76 l -5.046,8.49 -9.965,4.557 z"
         id="path388"
         inkscape:connector-curvature="0" />
    </clipPath>
    <clipPath
       clipPathUnits="userSpaceOnUse"
       id="clipPath402">
      <path
         d="M 0,842.979 H 701.352 V 0 H 0 Z"
         id="path400"
         inkscape:connector-curvature="0" />
    </clipPath>
    <clipPath
       clipPathUnits="userSpaceOnUse"
       id="clipPath426">
      <path
         d="m 466.845,364.558 9.591,-5.652 5.558,2.095 -0.679,6.365 c -2.995,3.676 -1.139,7.243 -1.139,7.243 v 0 l -5.215,1.492 -9.537,0.162 z"
         id="path424"
         inkscape:connector-curvature="0" />
    </clipPath>
    <clipPath
       clipPathUnits="userSpaceOnUse"
       id="clipPath454">
      <path
         d="M 0,842.979 H 701.352 V 0 H 0 Z"
         id="path452"
         inkscape:connector-curvature="0" />
    </clipPath>
    <clipPath
       clipPathUnits="userSpaceOnUse"
       id="clipPath482">
      <path
         d="m 439.129,345.036 v -13.559 c 8.809,4.366 6.998,13.559 6.998,13.559 v 0 z"
         id="path480"
         inkscape:connector-curvature="0" />
    </clipPath>
  </defs>
  <sodipodi:namedview
     id="base"
     pagecolor="#ffffff"
     bordercolor="#666666"
     borderopacity="1.0"
     inkscape:pageopacity="0.0"
     inkscape:pageshadow="2"
     inkscape:zoom="3.959798"
     inkscape:cx="36.988907"
     inkscape:cy="55.560445"
     inkscape:document-units="mm"
     inkscape:current-layer="layer1"
     showgrid="false"
     fit-margin-top="0"
     fit-margin-left="0"
     fit-margin-right="0"
     fit-margin-bottom="0"
     inkscape:window-width="1920"
     inkscape:window-height="1057"
     inkscape:window-x="-8"
     inkscape:window-y="-8"
     inkscape:window-maximized="1" />
  <metadata
     id="metadata13704">
    <rdf:RDF>
      <cc:Work
         rdf:about="">
        <dc:format>image/svg+xml</dc:format>
        <dc:type
           rdf:resource="http://purl.org/dc/dcmitype/StillImage" />
        <dc:title></dc:title>
      </cc:Work>
    </rdf:RDF>
  </metadata>
  <g
     inkscape:label="Layer 1"
     inkscape:groupmode="layer"
     id="layer1"
     transform="translate(-81.566654,-82.169317)">
    <g
       style="display:inline"
       id="g232"
       transform="matrix(0.35277777,0,0,-0.35277777,102.06657,108.84743)">
      <path
         d="m 0,0 c 0,-2.97 -2.43,-5.399 -5.399,-5.399 h -46.997 c -2.969,0 -5.399,2.429 -5.399,5.399 v 69.908 c 0,2.97 2.43,5.4 5.399,5.4 h 46.997 c 2.969,0 5.399,-2.43 5.399,-5.4 z"
         style="fill:#fafafa;fill-opacity:1;fill-rule:evenodd;stroke:none"
         id="path234"
         inkscape:connector-curvature="0" />
    </g>
    <g
       style="display:inline"
       id="g236"
       transform="matrix(0.35277777,0,0,-0.35277777,102.06657,108.84743)">
      <path
         d="m 0,0 c 0,-2.97 -2.43,-5.399 -5.399,-5.399 h -46.997 c -2.969,0 -5.399,2.429 -5.399,5.399 v 69.908 c 0,2.97 2.43,5.4 5.399,5.4 h 46.997 c 2.969,0 5.399,-2.43 5.399,-5.4 z"
         style="fill:none;stroke:#cccccc;stroke-width:0.63;stroke-linecap:butt;stroke-linejoin:miter;stroke-miterlimit:3.86400008;stroke-dasharray:none;stroke-opacity:1"
         id="path238"
         inkscape:connector-curvature="0" />
    </g>
    <g
       style="display:inline"
       id="g240"
       transform="matrix(0.35277777,0,0,-0.35277777,86.743464,92.290652)">
      <path
         d="M 0,0 C -1.42,0 -2.601,-0.953 -2.914,-2.23 -3.228,-0.953 -4.412,0 -5.832,0 -7.49,0 -8.836,-1.297 -8.836,-2.893 c 0.126,-2.878 5.922,-8.328 5.922,-8.328 0,0 5.797,5.45 5.918,8.328 C 3.004,-1.297 1.66,0 0,0"
         style="fill:#b50f0d;fill-opacity:1;fill-rule:nonzero;stroke:none"
         id="path242"
         inkscape:connector-curvature="0" />
    </g>
    <g
       style="display:inline"
       id="g244"
       transform="matrix(0.35277777,0,0,-0.35277777,84.673999,90.079582)">
      <path
         d="m 0,0 c 0.312,-0.025 0.677,-0.025 0.988,-0.025 0.91,0 1.638,0.337 1.638,1.742 v 13.885 h 2.86 V 1.924 c 0,-3.641 -1.95,-4.576 -4.108,-4.576 -0.52,0 -0.91,0 -1.378,0.052 z"
         style="fill:#b50f0d;fill-opacity:1;fill-rule:nonzero;stroke:none"
         id="path246"
         inkscape:connector-curvature="0" />
    </g>
    <g
       style="display:inline"
       id="g248"
       transform="matrix(0.35277777,0,0,-0.35277777,97.422573,98.33885)">
      <path
         d="M 0,0 C 0,0 6.562,-1.666 7.283,3.658 7.733,6.982 4.995,9.568 1.62,9.014 V 5.971 L 4.058,4.26 4.627,2.883 3.512,1.164 Z"
         style="fill:#f5cc00;fill-opacity:1;fill-rule:nonzero;stroke:none"
         id="path250"
         inkscape:connector-curvature="0" />
    </g>
    <g
       style="display:inline"
       id="g252"
       transform="matrix(0.35277777,0,0,-0.35277777,97.422573,98.33885)">
      <path
         d="M 0,0 C 0,0 6.562,-1.666 7.283,3.658 7.733,6.982 4.995,9.568 1.62,9.014 V 5.971 L 4.058,4.26 4.627,2.883 3.512,1.164 Z"
         style="fill:none;stroke:#020202;stroke-width:0.43599999;stroke-linecap:butt;stroke-linejoin:miter;stroke-miterlimit:10;stroke-dasharray:none;stroke-opacity:1"
         id="path254"
         inkscape:connector-curvature="0" />
    </g>
    <g
       style="display:inline"
       id="g256"
       transform="matrix(0.35277777,0,0,-0.35277777,91.420519,99.68865)">
      <path
         d="m 0,0 -18.193,-12.445 -3.278,-13.409 h 3.43 42.356 v 18.76 L 19.27,1.396 9.305,5.953 Z"
         style="fill:#ae2a20;fill-opacity:1;fill-rule:nonzero;stroke:none"
         id="path258"
         inkscape:connector-curvature="0" />
    </g>
    <g
       transform="matrix(0.35277777,0,0,-0.35277777,-71.174188,225.73399)"
       id="g260">
      <g
         id="g262"
         clip-path="url(#clipPath266)">
        <g
           id="g268"
           transform="translate(476.6543,358.6709)">
          <path
             d="M 0,0 -20.533,-13.668 -18.158,5.479 -2.613,8.105 1.854,6.24 Z"
             style="fill:#ffffff;fill-opacity:1;fill-rule:nonzero;stroke:none"
             id="path270"
             inkscape:connector-curvature="0" />
        </g>
      </g>
    </g>
    <g
       transform="matrix(0.35277777,0,0,-0.35277777,-71.174188,225.73399)"
       id="g272">
      <g
         id="g274"
         clip-path="url(#clipPath278)">
        <g
           id="g280"
           transform="translate(474.041,359.0127)">
          <path
             d="m 0,0 -15.447,-10.006 0.849,8.02 c 0,0 -1.186,1.771 -0.283,4.468 l 12.503,2.567 z"
             style="fill:#f5cc00;fill-opacity:1;fill-rule:nonzero;stroke:none"
             id="path282"
             inkscape:connector-curvature="0" />
        </g>
      </g>
    </g>
    <g
       transform="matrix(0.35277777,0,0,-0.35277777,-71.174188,225.73399)"
       id="g284">
      <g
         id="g286"
         clip-path="url(#clipPath290)">
        <g
           id="g292"
           transform="translate(473.3691,360.7607)">
          <path
             d="M 0,0 -12.663,-8.369 -11.297,6.492 -1.525,5.66 Z"
             style="fill:#000000;fill-opacity:1;fill-rule:nonzero;stroke:none"
             id="path294"
             inkscape:connector-curvature="0" />
        </g>
        <g
           id="g296"
           transform="translate(473.3691,360.7607)">
          <path
             d="M 0,0 -12.663,-8.369 -11.297,6.492 -1.525,5.66 Z"
             style="fill:none;stroke:#020202;stroke-width:0.551;stroke-linecap:butt;stroke-linejoin:miter;stroke-miterlimit:10;stroke-dasharray:none;stroke-opacity:1"
             id="path298"
             inkscape:connector-curvature="0" />
        </g>
      </g>
    </g>
    <g
       transform="matrix(0.35277777,0,0,-0.35277777,-71.174188,225.73399)"
       id="g300">
      <g
         id="g302"
         clip-path="url(#clipPath306)">
        <g
           id="g308"
           transform="translate(474.041,359.0127)">
          <path
             d="m 0,0 -15.447,-10.006 0.849,8.02 c 0,0 -1.186,1.771 -0.283,4.468 l 12.503,2.567 z"
             style="fill:none;stroke:#020202;stroke-width:0.551;stroke-linecap:butt;stroke-linejoin:miter;stroke-miterlimit:10;stroke-dasharray:none;stroke-opacity:1"
             id="path310"
             inkscape:connector-curvature="0" />
        </g>
      </g>
    </g>
    <g
       transform="matrix(0.35277777,0,0,-0.35277777,-71.174188,225.73399)"
       id="g312">
      <g
         id="g314"
         clip-path="url(#clipPath318)">
        <g
           id="g320"
           transform="translate(476.6543,358.6709)">
          <path
             d="M 0,0 -20.533,-13.668 -18.158,5.479 -2.613,8.105 1.854,6.24 Z"
             style="fill:none;stroke:#000000;stroke-width:0.551;stroke-linecap:butt;stroke-linejoin:miter;stroke-miterlimit:10;stroke-dasharray:none;stroke-opacity:1"
             id="path322"
             inkscape:connector-curvature="0" />
        </g>
        <g
           id="g324"
           transform="translate(445.2656,329.2568)">
          <path
             d="M 0,0 38.679,28.787 43.347,21.129 14.83,-0.527 Z"
             style="fill:#f5cc00;fill-opacity:1;fill-rule:nonzero;stroke:none"
             id="path326"
             inkscape:connector-curvature="0" />
        </g>
      </g>
    </g>
    <g
       transform="matrix(0.35277777,0,0,-0.35277777,-71.174188,225.73399)"
       id="g328">
      <g
         id="g330"
         clip-path="url(#clipPath334)">
        <g
           id="g336"
           transform="translate(456.668,328.0322)">
          <path
             d="M 0,0 33.798,25.941 30.557,30.189 -10.387,-0.178 Z"
             style="fill:#ae2a20;fill-opacity:1;fill-rule:nonzero;stroke:none"
             id="path338"
             inkscape:connector-curvature="0" />
        </g>
        <g
           id="g340"
           transform="translate(456.668,328.0322)">
          <path
             d="M 0,0 33.798,25.941 30.557,30.189 -10.387,-0.178 Z"
             style="fill:none;stroke:#000000;stroke-width:0.579;stroke-linecap:butt;stroke-linejoin:miter;stroke-miterlimit:10;stroke-dasharray:none;stroke-opacity:1"
             id="path342"
             inkscape:connector-curvature="0" />
        </g>
      </g>
    </g>
    <g
       transform="matrix(0.35277777,0,0,-0.35277777,-71.174188,225.73399)"
       id="g344">
      <g
         id="g346"
         clip-path="url(#clipPath350)">
        <g
           id="g352"
           transform="translate(445.2656,329.2568)">
          <path
             d="M 0,0 38.679,28.787 43.347,21.129 14.83,-0.527 Z"
             style="fill:none;stroke:#020202;stroke-width:0.551;stroke-linecap:butt;stroke-linejoin:miter;stroke-miterlimit:10;stroke-dasharray:none;stroke-opacity:1"
             id="path354"
             inkscape:connector-curvature="0" />
        </g>
        <g
           id="g356"
           transform="translate(450.4512,354.3799)">
          <path
             d="M 0,0 -3.892,-25.303 H 1.495 L 5.473,2.084 Z"
             style="fill:#ffffff;fill-opacity:1;fill-rule:nonzero;stroke:none"
             id="path358"
             inkscape:connector-curvature="0" />
        </g>
      </g>
    </g>
    <g
       transform="matrix(0.35277777,0,0,-0.35277777,-71.174188,225.73399)"
       id="g360">
      <g
         id="g362"
         clip-path="url(#clipPath366)">
        <g
           id="g368"
           transform="translate(452.5039,355.8135)">
          <path
             d="M 0,0 -4.248,-26.377 H 1.631 L 5.971,2.172 Z"
             style="fill:#f5cc00;fill-opacity:1;fill-rule:nonzero;stroke:none"
             id="path370"
             inkscape:connector-curvature="0" />
        </g>
        <g
           id="g372"
           transform="translate(452.5039,355.8135)">
          <path
             d="M 0,0 -4.248,-26.377 H 1.631 L 5.971,2.172 Z"
             style="fill:none;stroke:#020202;stroke-width:0.551;stroke-linecap:butt;stroke-linejoin:miter;stroke-miterlimit:10;stroke-dasharray:none;stroke-opacity:1"
             id="path374"
             inkscape:connector-curvature="0" />
        </g>
        <g
           id="g376"
           transform="translate(454.1396,355.8135)">
          <path
             d="M 0,0 -4.248,-26.377 H 1.63 L 5.971,2.172 Z"
             style="fill:#ffffff;fill-opacity:1;fill-rule:nonzero;stroke:none"
             id="path378"
             inkscape:connector-curvature="0" />
        </g>
        <g
           id="g380"
           transform="translate(454.1396,355.8135)">
          <path
             d="M 0,0 -4.248,-26.377 H 1.63 L 5.971,2.172 Z"
             style="fill:none;stroke:#000000;stroke-width:0.551;stroke-linecap:butt;stroke-linejoin:miter;stroke-miterlimit:10;stroke-dasharray:none;stroke-opacity:1"
             id="path382"
             inkscape:connector-curvature="0" />
        </g>
      </g>
    </g>
    <g
       transform="matrix(0.35277777,0,0,-0.35277777,-71.174188,225.73399)"
       id="g384">
      <g
         id="g386"
         clip-path="url(#clipPath390)">
        <g
           id="g392"
           transform="translate(450.4512,354.3799)">
          <path
             d="M 0,0 -3.892,-25.303 H 1.495 L 5.473,2.084 Z"
             style="fill:none;stroke:#000000;stroke-width:0.551;stroke-linecap:butt;stroke-linejoin:miter;stroke-miterlimit:10;stroke-dasharray:none;stroke-opacity:1"
             id="path394"
             inkscape:connector-curvature="0" />
        </g>
      </g>
    </g>
    <g
       transform="matrix(0.35277777,0,0,-0.35277777,-71.174188,225.73399)"
       id="g396">
      <g
         id="g398"
         clip-path="url(#clipPath402)">
        <g
           id="g404"
           transform="translate(460.8984,357.2939)">
          <path
             d="m 0,0 -18.193,-12.445 -3.278,-13.409 h 3.43 42.356 v 18.76 L 19.27,1.396 9.305,5.953 Z"
             style="fill:none;stroke:#000000;stroke-width:0.579;stroke-linecap:butt;stroke-linejoin:miter;stroke-miterlimit:10;stroke-dasharray:none;stroke-opacity:1"
             id="path406"
             inkscape:connector-curvature="0" />
        </g>
        <g
           id="g408"
           transform="translate(458.127,376.0205)">
          <path
             d="m 0,0 v -5.002 l -2.51,-6.271 h 2.68 v -7.407 c 0,0 10.929,-2.564 14.164,5.801 V 2.482 C 14.334,2.482 2.657,2.18 0,0"
             style="fill:#ffffff;fill-opacity:1;fill-rule:nonzero;stroke:none"
             id="path410"
             inkscape:connector-curvature="0" />
        </g>
        <g
           id="g412"
           transform="translate(458.127,376.0205)">
          <path
             d="m 0,0 v -5.002 l -2.51,-6.271 h 2.68 v -7.407 c 0,0 10.929,-2.564 14.164,5.801 V 2.482 C 14.334,2.482 2.657,2.18 0,0 Z"
             style="fill:none;stroke:#000000;stroke-width:0.551;stroke-linecap:butt;stroke-linejoin:miter;stroke-miterlimit:10;stroke-dasharray:none;stroke-opacity:1"
             id="path414"
             inkscape:connector-curvature="0" />
        </g>
        <g
           id="g416"
           transform="translate(480.1758,374.6084)">
          <path
             d="m 0,0 c 0,0 -1.855,-3.566 1.139,-7.242 l 0.679,-6.365 -5.558,-2.096 -9.59,5.652 -1.422,11.705 9.537,-0.162 z"
             style="fill:#f5cc00;fill-opacity:1;fill-rule:nonzero;stroke:none"
             id="path418"
             inkscape:connector-curvature="0" />
        </g>
      </g>
    </g>
    <g
       transform="matrix(0.35277777,0,0,-0.35277777,-71.174188,225.73399)"
       id="g420">
      <g
         id="g422"
         clip-path="url(#clipPath426)">
        <g
           id="g428"
           transform="translate(469.1094,377.8623)">
          <path
             d="m 0,0 c -0.211,-4.449 -2.013,-15.939 15.293,-17.652 0,0 -1.014,4.642 -0.237,3.351 C 15.383,-14.854 1.322,-15.211 2.665,-1.4 2.665,-1.4 0.361,7.469 0,0"
             style="fill:#f5cc00;fill-opacity:1;fill-rule:nonzero;stroke:none"
             id="path430"
             inkscape:connector-curvature="0" />
        </g>
        <g
           id="g432"
           transform="translate(469.1094,377.8623)">
          <path
             d="m 0,0 c -0.211,-4.449 -2.013,-15.939 15.293,-17.652 0,0 -1.014,4.642 -0.237,3.351 C 15.383,-14.854 1.322,-15.211 2.665,-1.4 2.665,-1.4 0.361,7.469 0,0 Z"
             style="fill:none;stroke:#020202;stroke-width:0.54299998;stroke-linecap:butt;stroke-linejoin:miter;stroke-miterlimit:10;stroke-dasharray:none;stroke-opacity:1"
             id="path434"
             inkscape:connector-curvature="0" />
        </g>
        <g
           id="g436"
           transform="translate(471.6152,378.6318)">
          <path
             d="m 0,0 c -0.01,-5.35 -1.516,-14.32 13.053,-16.223 0,0 -0.667,4.223 0.01,2.981 C 13.302,-13.68 1.584,-14.779 2.711,-2.084 2.711,-2.084 0.012,7.162 0,0"
             style="fill:#f5cc00;fill-opacity:1;fill-rule:nonzero;stroke:none"
             id="path438"
             inkscape:connector-curvature="0" />
        </g>
        <g
           id="g440"
           transform="translate(471.6152,378.6318)">
          <path
             d="m 0,0 c -0.01,-5.35 -1.516,-14.32 13.053,-16.223 0,0 -0.667,4.223 0.01,2.981 C 13.302,-13.68 1.584,-14.779 2.711,-2.084 2.711,-2.084 0.012,7.162 0,0 Z"
             style="fill:none;stroke:#020202;stroke-width:0.498;stroke-linecap:butt;stroke-linejoin:miter;stroke-miterlimit:10;stroke-dasharray:none;stroke-opacity:1"
             id="path442"
             inkscape:connector-curvature="0" />
        </g>
        <g
           id="g444"
           transform="translate(477.5557,376.5439)">
          <path
             d="M 0,0 C 0,0 -2.567,-9.953 6.787,-8.986"
             style="fill:#f5cc00;fill-opacity:1;fill-rule:nonzero;stroke:#020202;stroke-width:0.498;stroke-linecap:butt;stroke-linejoin:miter;stroke-miterlimit:10;stroke-dasharray:none;stroke-opacity:1"
             id="path446"
             inkscape:connector-curvature="0" />
        </g>
      </g>
    </g>
    <g
       transform="matrix(0.35277777,0,0,-0.35277777,-71.174188,225.73399)"
       id="g448">
      <g
         id="g450"
         clip-path="url(#clipPath454)">
        <g
           id="g456"
           transform="translate(480.1758,374.6084)">
          <path
             d="m 0,0 c 0,0 -1.855,-3.566 1.139,-7.242 l 0.679,-6.365 -5.558,-2.096 -9.59,5.652 -1.422,11.705 9.537,-0.162 z"
             style="fill:none;stroke:#020202;stroke-width:0.498;stroke-linecap:butt;stroke-linejoin:miter;stroke-miterlimit:10;stroke-dasharray:none;stroke-opacity:1"
             id="path458"
             inkscape:connector-curvature="0" />
        </g>
        <g
           id="g460"
           transform="translate(461.5645,369.6846)">
          <path
             d="m 0,0 c 0,-0.41 -0.327,-0.744 -0.732,-0.744 -0.407,0 -0.737,0.334 -0.737,0.744 0,0.412 0.33,0.746 0.737,0.746 C -0.327,0.746 0,0.412 0,0"
             style="fill:#171717;fill-opacity:1;fill-rule:nonzero;stroke:none"
             id="path462"
             inkscape:connector-curvature="0" />
        </g>
        <g
           id="g464"
           transform="translate(458.2969,362.3271)">
          <path
             d="m 0,0 c 1.505,0.314 3.508,0 3.508,0 2.445,-0.266 3.168,0.855 3.168,0.855 0,0 -0.606,-0.511 -3.168,0.034 C 0.947,1.434 0,1.297 0,1.297 Z"
             style="fill:#171717;fill-opacity:1;fill-rule:nonzero;stroke:none"
             id="path466"
             inkscape:connector-curvature="0" />
        </g>
        <g
           id="g468"
           transform="translate(457.4648,364.7471)">
          <path
             d="M 0,0 H 2.141"
             style="fill:none;stroke:#000000;stroke-width:0.551;stroke-linecap:butt;stroke-linejoin:miter;stroke-miterlimit:10;stroke-dasharray:none;stroke-opacity:1"
             id="path470"
             inkscape:connector-curvature="0" />
        </g>
        <g
           id="g472"
           transform="translate(439.1289,345.0361)">
          <path
             d="M 0,0 H 6.998 C 6.998,0 8.81,-9.193 0,-13.559 Z"
             style="fill:#ffffff;fill-opacity:1;fill-rule:nonzero;stroke:none"
             id="path474"
             inkscape:connector-curvature="0" />
        </g>
      </g>
    </g>
    <g
       transform="matrix(0.35277777,0,0,-0.35277777,-71.174188,225.73399)"
       id="g476">
      <g
         id="g478"
         clip-path="url(#clipPath482)">
        <g
           id="g484"
           transform="translate(437.8457,342.1104)">
          <path
             d="M 0,0 H 8.571 V -3.504 H 0.223 L 0.543,-7.23 H 7.596 L 6.49,-10.211 0,-10.238"
             style="fill:#ffffff;fill-opacity:1;fill-rule:nonzero;stroke:#000000;stroke-width:0.66900003;stroke-linecap:butt;stroke-linejoin:miter;stroke-miterlimit:10;stroke-dasharray:none;stroke-opacity:1"
             id="path486"
             inkscape:connector-curvature="0" />
        </g>
      </g>
    </g>
    <g
       id="g496"
       transform="matrix(0.35277777,0,0,-0.35277777,83.740726,104.01293)">
      <path
         d="M 0,0 H 6.998 C 6.998,0 8.81,-9.193 0,-13.559 Z"
         style="fill:none;stroke:#000000;stroke-width:0.551;stroke-linecap:round;stroke-linejoin:round;stroke-miterlimit:10;stroke-dasharray:none;stroke-opacity:1"
         id="path498"
         inkscape:connector-curvature="0" />
    </g>
    <g
       id="g500"
       transform="matrix(0.35277777,0,0,-0.35277777,91.317509,98.26512)">
      <path
         d="M 0,0 -2.031,0.049"
         style="fill:none;stroke:#000000;stroke-width:0.54000002;stroke-linecap:butt;stroke-linejoin:miter;stroke-miterlimit:10;stroke-dasharray:none;stroke-opacity:1"
         id="path502"
         inkscape:connector-curvature="0" />
    </g>
    <g
       id="g504"
       transform="matrix(0.35277777,0,0,-0.35277777,96.954404,99.03545)">
      <path
         d="M 0,0 C 0,0 6.839,-1.666 7.562,3.658 8.013,6.986 5.273,9.568 1.898,9.01 V 5.971 L 4.336,4.258 4.901,2.883 3.788,1.164 Z"
         style="fill:#f5cc00;fill-opacity:1;fill-rule:nonzero;stroke:none"
         id="path506"
         inkscape:connector-curvature="0" />
    </g>
    <g
       id="g508"
       transform="matrix(0.35277777,0,0,-0.35277777,96.954404,99.03545)">
      <path
         d="M 0,0 C 0,0 6.839,-1.666 7.562,3.658 8.013,6.986 5.273,9.568 1.898,9.01 V 5.971 L 4.336,4.258 4.901,2.883 3.788,1.164 Z"
         style="fill:none;stroke:#020202;stroke-width:0.43599999;stroke-linecap:butt;stroke-linejoin:miter;stroke-miterlimit:10;stroke-dasharray:none;stroke-opacity:1"
         id="path510"
         inkscape:connector-curvature="0" />
    </g>
    <g
       id="g512"
       transform="matrix(0.35277777,0,0,-0.35277777,92.397572,93.002381)">
      <path
         d="m 0,0 c 0,0 -1.975,-14.85 11.635,-18.27 1.627,-0.408 6.582,-0.699 7.025,4.043 0.285,3.059 -2.988,5.018 -5.508,4.5 l 0.121,-2.502 c 0,0 2.729,0.375 2.637,-2.021 0,0 -0.281,-2.068 -3.262,-1.547 0,0 -11.196,1.795 -10.085,15.912 z"
         style="fill:#f5cc00;fill-opacity:1;fill-rule:nonzero;stroke:none"
         id="path514"
         inkscape:connector-curvature="0" />
    </g>
    <g
       id="g516"
       transform="matrix(0.35277777,0,0,-0.35277777,92.397572,93.002381)">
      <path
         d="m 0,0 c 0,0 -1.975,-14.85 11.635,-18.27 1.627,-0.408 6.582,-0.699 7.025,4.043 0.285,3.059 -2.988,5.018 -5.508,4.5 l 0.121,-2.502 c 0,0 2.729,0.375 2.637,-2.021 0,0 -0.281,-2.068 -3.262,-1.547 0,0 -11.196,1.795 -10.085,15.912 z"
         style="fill:none;stroke:#020202;stroke-width:0.551;stroke-linecap:butt;stroke-linejoin:miter;stroke-miterlimit:10;stroke-dasharray:none;stroke-opacity:1"
         id="path518"
         inkscape:connector-curvature="0" />
    </g>
    <g
       id="g520"
       transform="matrix(0.35277777,0,0,-0.35277777,88.690302,90.632175)">
      <path
         d="m 0,0 4.656,-8.742 c 0,0 13.231,3.568 22.299,0.072 l 3.274,8.793 C 30.229,0.123 16.567,5.373 0,0"
         style="fill:#020202;fill-opacity:1;fill-rule:nonzero;stroke:none"
         id="path522"
         inkscape:connector-curvature="0" />
    </g>
    <g
       id="g524"
       transform="matrix(0.35277777,0,0,-0.35277777,88.690302,90.632175)">
      <path
         d="m 0,0 4.656,-8.742 c 0,0 13.231,3.568 22.299,0.072 l 3.274,8.793 C 30.229,0.123 16.567,5.373 0,0 Z"
         style="fill:none;stroke:#000000;stroke-width:0.551;stroke-linecap:butt;stroke-linejoin:miter;stroke-miterlimit:10;stroke-dasharray:none;stroke-opacity:1"
         id="path526"
         inkscape:connector-curvature="0" />
    </g>
    <g
       id="g528"
       transform="matrix(0.35277777,0,0,-0.35277777,88.840832,90.722414)">
      <path
         d="m 0,0 3.209,-6.584 c 0,0 13.154,2.902 23.993,0.02 l 2.431,6.441 C 29.633,-0.123 15.824,5.07 0,0"
         style="fill:#ae2a20;fill-opacity:1;fill-rule:nonzero;stroke:none"
         id="path530"
         inkscape:connector-curvature="0" />
    </g>
    <g
       id="g532"
       transform="matrix(0.35277777,0,0,-0.35277777,88.840832,90.722414)">
      <path
         d="m 0,0 3.209,-6.584 c 0,0 13.154,2.902 23.993,0.02 l 2.431,6.441 C 29.633,-0.123 15.824,5.07 0,0 Z"
         style="fill:none;stroke:#000000;stroke-width:0.551;stroke-linecap:butt;stroke-linejoin:miter;stroke-miterlimit:10;stroke-dasharray:none;stroke-opacity:1"
         id="path534"
         inkscape:connector-curvature="0" />
    </g>
    <g
       id="g536"
       transform="matrix(0.35277777,0,0,-0.35277777,89.753787,91.079355)">
      <path
         d="m 0,0 1.848,-3.59 c 0,0 2.411,0.641 5.269,0.873 L 6.754,1.084"
         style="fill:#ae2a20;fill-opacity:1;fill-rule:nonzero;stroke:#000000;stroke-width:0.551;stroke-linecap:butt;stroke-linejoin:miter;stroke-miterlimit:10;stroke-dasharray:none;stroke-opacity:1"
         id="path538"
         inkscape:connector-curvature="0" />
    </g>
    <g
       id="g540"
       transform="matrix(0.35277777,0,0,-0.35277777,98.469903,90.969111)">
      <path
         d="m 0,0 -1.293,-3.545 c 0,0 -3.245,0.367 -6.103,0.602 l 0.086,3.798"
         style="fill:#ae2a20;fill-opacity:1;fill-rule:nonzero;stroke:#000000;stroke-width:0.551;stroke-linecap:butt;stroke-linejoin:miter;stroke-miterlimit:10;stroke-dasharray:none;stroke-opacity:1"
         id="path542"
         inkscape:connector-curvature="0" />
    </g>
    <g
       id="g544"
       transform="matrix(0.35277777,0,0,-0.35277777,92.920532,90.696945)">
      <path
         d="m 0,0 0.281,-3.607 h 5.926 v 3.75"
         style="fill:#ae2a20;fill-opacity:1;fill-rule:nonzero;stroke:#000000;stroke-width:0.551;stroke-linecap:butt;stroke-linejoin:miter;stroke-miterlimit:10;stroke-dasharray:none;stroke-opacity:1"
         id="path546"
         inkscape:connector-curvature="0" />
    </g>
    <g
       id="g548"
       transform="matrix(0.35277777,0,0,-0.35277777,89.882655,108.27173)">
      <path
         d="M 0,0 H 3.182 L 6.286,2.23 H 3.082 Z"
         style="fill:#000000;fill-opacity:1;fill-rule:nonzero;stroke:none"
         id="path550"
         inkscape:connector-curvature="0" />
    </g>
    <g
       id="g552"
       transform="matrix(0.35277777,0,0,-0.35277777,89.882655,108.27173)">
      <path
         d="M 0,0 H 3.182 L 6.286,2.23 H 3.082 Z"
         style="fill:none;stroke:#020202;stroke-width:0.551;stroke-linecap:butt;stroke-linejoin:miter;stroke-miterlimit:10;stroke-dasharray:none;stroke-opacity:1"
         id="path554"
         inkscape:connector-curvature="0" />
    </g>
    <g
       id="g556"
       transform="matrix(0.35277777,0,0,-0.35277777,91.615535,106.89509)">
      <path
         d="M 0,0 H 3.182 L 6.286,2.232 H 3.083 Z"
         style="fill:#000000;fill-opacity:1;fill-rule:nonzero;stroke:none"
         id="path558"
         inkscape:connector-curvature="0" />
    </g>
    <g
       id="g560"
       transform="matrix(0.35277777,0,0,-0.35277777,91.615535,106.89509)">
      <path
         d="M 0,0 H 3.182 L 6.286,2.232 H 3.083 Z"
         style="fill:none;stroke:#020202;stroke-width:0.551;stroke-linecap:butt;stroke-linejoin:miter;stroke-miterlimit:10;stroke-dasharray:none;stroke-opacity:1"
         id="path562"
         inkscape:connector-curvature="0" />
    </g>
    <g
       id="g564"
       transform="matrix(0.35277777,0,0,-0.35277777,93.425569,105.59284)">
      <path
         d="M 0,0 H 3.18 L 6.287,2.232 H 3.083 Z"
         style="fill:#000000;fill-opacity:1;fill-rule:nonzero;stroke:none"
         id="path566"
         inkscape:connector-curvature="0" />
    </g>
    <g
       id="g568"
       transform="matrix(0.35277777,0,0,-0.35277777,93.425569,105.59284)">
      <path
         d="M 0,0 H 3.18 L 6.287,2.232 H 3.083 Z"
         style="fill:none;stroke:#020202;stroke-width:0.551;stroke-linecap:butt;stroke-linejoin:miter;stroke-miterlimit:10;stroke-dasharray:none;stroke-opacity:1"
         id="path570"
         inkscape:connector-curvature="0" />
    </g>
    <g
       id="g572"
       transform="matrix(0.35277777,0,0,-0.35277777,95.158447,104.31127)">
      <path
         d="M 0,0 H 3.183 L 6.287,2.23 H 3.084 Z"
         style="fill:#000000;fill-opacity:1;fill-rule:nonzero;stroke:none"
         id="path574"
         inkscape:connector-curvature="0" />
    </g>
    <g
       id="g576"
       transform="matrix(0.35277777,0,0,-0.35277777,95.158447,104.31127)">
      <path
         d="M 0,0 H 3.183 L 6.287,2.23 H 3.084 Z"
         style="fill:none;stroke:#020202;stroke-width:0.551;stroke-linecap:butt;stroke-linejoin:miter;stroke-miterlimit:10;stroke-dasharray:none;stroke-opacity:1"
         id="path578"
         inkscape:connector-curvature="0" />
    </g>
    <g
       id="g580"
       transform="matrix(0.35277777,0,0,-0.35277777,96.940257,102.98423)">
      <path
         d="M 0,0 H 2.904 L 5.73,1.959 4.751,3.598 Z"
         style="fill:#000000;fill-opacity:1;fill-rule:nonzero;stroke:none"
         id="path582"
         inkscape:connector-curvature="0" />
    </g>
    <g
       id="g584"
       transform="matrix(0.35277777,0,0,-0.35277777,96.940257,102.98423)">
      <path
         d="M 0,0 H 2.904 L 5.73,1.959 4.751,3.598 Z"
         style="fill:none;stroke:#020202;stroke-width:0.551;stroke-linecap:butt;stroke-linejoin:miter;stroke-miterlimit:10;stroke-dasharray:none;stroke-opacity:1"
         id="path586"
         inkscape:connector-curvature="0" />
    </g>
    <g
       id="g588"
       transform="matrix(0.35277777,0,0,-0.35277777,95.280086,107.90999)">
      <path
         d="M 0,0 11.025,7.986 V 0 Z"
         style="fill:#000000;fill-opacity:1;fill-rule:nonzero;stroke:none"
         id="path590"
         inkscape:connector-curvature="0" />
    </g>
    <g
       id="g592"
       transform="matrix(0.35277777,0,0,-0.35277777,95.280086,107.90999)">
      <path
         d="M 0,0 11.025,7.986 V 0 Z"
         style="fill:none;stroke:#020202;stroke-width:0.48800001;stroke-linecap:butt;stroke-linejoin:miter;stroke-miterlimit:10;stroke-dasharray:none;stroke-opacity:1"
         id="path594"
         inkscape:connector-curvature="0" />
    </g>
    <g
       id="g596"
       transform="matrix(0.35277777,0,0,-0.35277777,96.590938,107.42976)">
      <path
         d="M 0,0 5.943,4.1 V 0 Z"
         style="fill:#f5cc00;fill-opacity:1;fill-rule:nonzero;stroke:none"
         id="path598"
         inkscape:connector-curvature="0" />
    </g>
    <g
       id="g600"
       transform="matrix(0.35277777,0,0,-0.35277777,96.590938,107.42976)">
      <path
         d="M 0,0 5.943,4.1 V 0 Z"
         style="fill:none;stroke:#020202;stroke-width:0.47099999;stroke-linecap:butt;stroke-linejoin:miter;stroke-miterlimit:10;stroke-dasharray:none;stroke-opacity:1"
         id="path602"
         inkscape:connector-curvature="0" />
    </g>
    <g
       id="g604"
       transform="matrix(0.35277777,0,0,-0.35277777,97.234828,100.27913)">
      <path
         d="m 0,0 c 0,-0.453 -0.375,-0.82 -0.835,-0.82 -0.461,0 -0.836,0.367 -0.836,0.82 0,0.453 0.375,0.82 0.836,0.82 C -0.375,0.82 0,0.453 0,0"
         style="fill:#ffffff;fill-opacity:1;fill-rule:nonzero;stroke:none"
         id="path606"
         inkscape:connector-curvature="0" />
    </g>
    <g
       id="g608"
       transform="matrix(0.35277777,0,0,-0.35277777,97.234828,100.27913)">
      <path
         d="m 0,0 c 0,-0.453 -0.375,-0.82 -0.835,-0.82 -0.461,0 -0.836,0.367 -0.836,0.82 0,0.453 0.375,0.82 0.836,0.82 C -0.375,0.82 0,0.453 0,0 Z"
         style="fill:none;stroke:#000000;stroke-width:0.373;stroke-linecap:butt;stroke-linejoin:miter;stroke-miterlimit:10;stroke-dasharray:none;stroke-opacity:1"
         id="path610"
         inkscape:connector-curvature="0" />
    </g>
    <g
       id="g612"
       transform="matrix(0.35277777,0,0,-0.35277777,95.989415,101.22309)">
      <path
         d="m 0,0 c 0,-0.453 -0.376,-0.818 -0.836,-0.818 -0.461,0 -0.834,0.365 -0.834,0.818 0,0.453 0.373,0.82 0.834,0.82 C -0.376,0.82 0,0.453 0,0"
         style="fill:#ffffff;fill-opacity:1;fill-rule:nonzero;stroke:none"
         id="path614"
         inkscape:connector-curvature="0" />
    </g>
    <g
       id="g616"
       transform="matrix(0.35277777,0,0,-0.35277777,95.989415,101.22309)">
      <path
         d="m 0,0 c 0,-0.453 -0.376,-0.818 -0.836,-0.818 -0.461,0 -0.834,0.365 -0.834,0.818 0,0.453 0.373,0.82 0.834,0.82 C -0.376,0.82 0,0.453 0,0 Z"
         style="fill:none;stroke:#000000;stroke-width:0.373;stroke-linecap:butt;stroke-linejoin:miter;stroke-miterlimit:10;stroke-dasharray:none;stroke-opacity:1"
         id="path618"
         inkscape:connector-curvature="0" />
    </g>
    <g
       id="g620"
       transform="matrix(0.35277777,0,0,-0.35277777,94.71818,102.1746)">
      <path
         d="m 0,0 c 0,-0.451 -0.375,-0.82 -0.836,-0.82 -0.459,0 -0.832,0.369 -0.832,0.82 0,0.453 0.373,0.82 0.832,0.82 C -0.375,0.82 0,0.453 0,0"
         style="fill:#ffffff;fill-opacity:1;fill-rule:nonzero;stroke:none"
         id="path622"
         inkscape:connector-curvature="0" />
    </g>
    <g
       id="g624"
       transform="matrix(0.35277777,0,0,-0.35277777,94.71818,102.1746)">
      <path
         d="m 0,0 c 0,-0.451 -0.375,-0.82 -0.836,-0.82 -0.459,0 -0.832,0.369 -0.832,0.82 0,0.453 0.373,0.82 0.832,0.82 C -0.375,0.82 0,0.453 0,0 Z"
         style="fill:none;stroke:#000000;stroke-width:0.373;stroke-linecap:butt;stroke-linejoin:miter;stroke-miterlimit:10;stroke-dasharray:none;stroke-opacity:1"
         id="path626"
         inkscape:connector-curvature="0" />
    </g>
    <g
       id="g628"
       transform="matrix(0.35277777,0,0,-0.35277777,93.276767,103.31079)">
      <path
         d="m 0,0 c 0,-0.457 -0.373,-0.822 -0.834,-0.822 -0.46,0 -0.832,0.365 -0.832,0.822 0,0.451 0.372,0.818 0.832,0.818 C -0.373,0.818 0,0.451 0,0"
         style="fill:#ffffff;fill-opacity:1;fill-rule:nonzero;stroke:none"
         id="path630"
         inkscape:connector-curvature="0" />
    </g>
    <g
       id="g632"
       transform="matrix(0.35277777,0,0,-0.35277777,93.276767,103.31079)">
      <path
         d="m 0,0 c 0,-0.457 -0.373,-0.822 -0.834,-0.822 -0.46,0 -0.832,0.365 -0.832,0.822 0,0.451 0.372,0.818 0.832,0.818 C -0.373,0.818 0,0.451 0,0 Z"
         style="fill:none;stroke:#000000;stroke-width:0.373;stroke-linecap:butt;stroke-linejoin:miter;stroke-miterlimit:10;stroke-dasharray:none;stroke-opacity:1"
         id="path634"
         inkscape:connector-curvature="0" />
    </g>
    <g
       id="g636"
       transform="matrix(0.35277777,0,0,-0.35277777,91.763668,104.38155)">
      <path
         d="m 0,0 c 0,-0.451 -0.375,-0.816 -0.836,-0.816 -0.457,0 -0.835,0.365 -0.835,0.816 0,0.449 0.378,0.82 0.835,0.82 C -0.375,0.82 0,0.449 0,0"
         style="fill:#ffffff;fill-opacity:1;fill-rule:nonzero;stroke:none"
         id="path638"
         inkscape:connector-curvature="0" />
    </g>
    <g
       id="g640"
       transform="matrix(0.35277777,0,0,-0.35277777,91.763668,104.38155)">
      <path
         d="m 0,0 c 0,-0.451 -0.375,-0.816 -0.836,-0.816 -0.457,0 -0.835,0.365 -0.835,0.816 0,0.449 0.378,0.82 0.835,0.82 C -0.375,0.82 0,0.449 0,0 Z"
         style="fill:none;stroke:#000000;stroke-width:0.373;stroke-linecap:butt;stroke-linejoin:miter;stroke-miterlimit:10;stroke-dasharray:none;stroke-opacity:1"
         id="path642"
         inkscape:connector-curvature="0" />
    </g>
    <g
       id="g644"
       transform="matrix(0.35277777,0,0,-0.35277777,90.322252,105.51774)">
      <path
         d="m 0,0 c 0,-0.455 -0.373,-0.822 -0.836,-0.822 -0.458,0 -0.833,0.367 -0.833,0.822 0,0.451 0.375,0.818 0.833,0.818 C -0.373,0.818 0,0.451 0,0"
         style="fill:#ffffff;fill-opacity:1;fill-rule:nonzero;stroke:none"
         id="path646"
         inkscape:connector-curvature="0" />
    </g>
    <g
       id="g648"
       transform="matrix(0.35277777,0,0,-0.35277777,90.322252,105.51774)">
      <path
         d="m 0,0 c 0,-0.455 -0.373,-0.822 -0.836,-0.822 -0.458,0 -0.833,0.367 -0.833,0.822 0,0.451 0.375,0.818 0.833,0.818 C -0.373,0.818 0,0.451 0,0 Z"
         style="fill:none;stroke:#000000;stroke-width:0.373;stroke-linecap:butt;stroke-linejoin:miter;stroke-miterlimit:10;stroke-dasharray:none;stroke-opacity:1"
         id="path650"
         inkscape:connector-curvature="0" />
    </g>
    <g
       id="g652"
       transform="matrix(0.35277777,0,0,-0.35277777,85.759214,99.49021)">
      <path
         d="M 0,0 C 0,0.797 -0.911,1.443 -2.086,1.443 -3.261,1.443 -4.177,0.797 -4.177,0 V -12.609 H 0 Z"
         style="fill:#000000;fill-opacity:1;fill-rule:nonzero;stroke:none"
         id="path654"
         inkscape:connector-curvature="0" />
    </g>
    <g
       id="g656"
       transform="matrix(0.35277777,0,0,-0.35277777,85.759214,99.49021)">
      <path
         d="M 0,0 C 0,0.797 -0.911,1.443 -2.086,1.443 -3.261,1.443 -4.177,0.797 -4.177,0 V -12.609 H 0 Z"
         style="fill:none;stroke:#020202;stroke-width:0.43799999;stroke-linecap:butt;stroke-linejoin:miter;stroke-miterlimit:10;stroke-dasharray:none;stroke-opacity:1"
         id="path658"
         inkscape:connector-curvature="0" />
    </g>
    <g
       id="g660"
       transform="matrix(0.35277777,0,0,-0.35277777,85.212479,99.42886)">
      <path
         d="M 0,0 C 0,0.201 -0.234,0.367 -0.536,0.367 -0.835,0.367 -1.07,0.201 -1.07,0 V -11.883 H 0 Z"
         style="fill:#ffffff;fill-opacity:1;fill-rule:nonzero;stroke:none"
         id="path662"
         inkscape:connector-curvature="0" />
    </g>
    <path
       d="m 84.82661,97.75186 h 0.393347 v 1.16311 H 84.82661 Z"
       style="fill:#000000;fill-opacity:1;fill-rule:nonzero;stroke:#020202;stroke-width:0.18485555;stroke-linecap:butt;stroke-linejoin:miter;stroke-miterlimit:10;stroke-dasharray:none;stroke-opacity:1"
       id="path664"
       inkscape:connector-curvature="0" />
    <g
       id="g666"
       transform="matrix(0.35277777,0,0,-0.35277777,85.052636,96.955293)">
      <path
         d="M 0,0 1.83,-4.057 H -1.981 Z"
         style="fill:#000000;fill-opacity:1;fill-rule:nonzero;stroke:none"
         id="path668"
         inkscape:connector-curvature="0" />
    </g>
    <g
       id="g670"
       transform="matrix(0.35277777,0,0,-0.35277777,85.052636,96.955293)">
      <path
         d="M 0,0 1.83,-4.057 H -1.981 Z"
         style="fill:none;stroke:#020202;stroke-width:0.50400001;stroke-linecap:butt;stroke-linejoin:miter;stroke-miterlimit:10;stroke-dasharray:none;stroke-opacity:1"
         id="path672"
         inkscape:connector-curvature="0" />
    </g>
  </g>
</svg>
