<svg xmlns="http://www.w3.org/2000/svg" width="77.9" height="108.449" viewBox="0 0 20.611 28.694"><defs><clipPath clipPathUnits="userSpaceOnUse" id="a"><path d="M533.272 357.294l-18.194-12.446-3.277-13.408h45.786v18.76l-5.046 8.49-9.965 4.557z"/></clipPath><clipPath clipPathUnits="userSpaceOnUse" id="b"><path d="M533.272 357.294l-3.555-2.431-1.223-9.86 20.533 13.668.425 1.432-6.876 3.144z"/></clipPath><clipPath clipPathUnits="userSpaceOnUse" id="c"><path d="M533.272 357.294l-1.539-1.053-.766-7.234 15.447 10.006-1.488 3.159-2.35 1.075z"/></clipPath><clipPath clipPathUnits="userSpaceOnUse" id="d"><path d="M533.272 357.294l-3.555-2.431-1.223-9.86 20.533 13.668.425 1.432-6.876 3.144z"/></clipPath><clipPath clipPathUnits="userSpaceOnUse" id="e"><path d="M533.272 357.294l-18.194-12.446-3.277-13.408h45.786v18.76l-5.046 8.49-9.965 4.557z"/></clipPath><clipPath clipPathUnits="userSpaceOnUse" id="f"><path d="M520.572 331.44h15.47l21.545 16.364v2.396l-3.622 6.094z"/></clipPath><clipPath clipPathUnits="userSpaceOnUse" id="g"><path d="M533.272 357.294l-18.194-12.446-3.277-13.408h45.786v18.76l-5.046 8.49-9.965 4.557z"/></clipPath><clipPath clipPathUnits="userSpaceOnUse" id="h"><path d="M522.097 349.65l-2.801-18.21h5.367l3.219 22.167z"/></clipPath><clipPath clipPathUnits="userSpaceOnUse" id="i"><path d="M533.272 357.294l-18.194-12.446-3.277-13.408h45.786v18.76l-5.046 8.49-9.965 4.557z"/></clipPath><clipPath clipPathUnits="userSpaceOnUse" id="j"><path d="M0 842.979h701.352V0H0z"/></clipPath><clipPath clipPathUnits="userSpaceOnUse" id="k"><path d="M539.219 364.558l9.589-5.652 5.56 2.095-.681 6.365c-2.994 3.676-1.138 7.243-1.138 7.243l-5.215 1.492-9.537.162z"/></clipPath><clipPath clipPathUnits="userSpaceOnUse" id="l"><path d="M0 842.979h701.352V0H0z"/></clipPath><clipPath clipPathUnits="userSpaceOnUse" id="m"><path d="M511.501 345.036v-13.559c8.811 4.366 6.999 13.559 6.999 13.559z"/></clipPath></defs><path d="M20.5 26.678a1.91 1.91 0 0 1-1.905 1.905H2.015a1.91 1.91 0 0 1-1.904-1.905V2.016A1.91 1.91 0 0 1 2.016.111h16.58A1.91 1.91 0 0 1 20.5 2.016z" fill="#fafafa" fill-rule="evenodd"/><path d="M20.5 26.678a1.91 1.91 0 0 1-1.905 1.905H2.015a1.91 1.91 0 0 1-1.904-1.905V2.016A1.91 1.91 0 0 1 2.016.111h16.58A1.91 1.91 0 0 1 20.5 2.016z" fill="none" stroke="#ccc" stroke-width=".2222514" stroke-miterlimit="3.864"/><path d="M3.107 7.91c.11.01.24.01.349.01.32 0 .578-.12.578-.615V2.406h1.009v4.826c0 1.284-.688 1.614-1.45 1.614-.183 0-.32 0-.486-.019z" fill="#171717"/><path d="M15.856 16.17s2.315.587 2.57-1.29c.158-1.174-.808-2.086-1.999-1.89v1.073l.86.604.201.485-.393.607z" fill="#f5cc00"/><path d="M15.856 16.17s2.315.587 2.57-1.29c.158-1.174-.808-2.086-1.999-1.89v1.073l.86.604.201.485-.393.607z" fill="none" stroke="#020202" stroke-width=".15381208" stroke-miterlimit="10"/><path d="M9.854 17.52l-6.418 4.39-1.157 4.73h16.153v-6.618l-1.78-2.995-3.516-1.608z"/><g clip-path="url(#a)" transform="matrix(.35278 0 0 -.35278 -178.272 143.565)"><path d="M549.027 358.67l-20.533-13.667 2.375 19.147 15.545 2.626 4.467-1.865z" fill="#fff"/></g><g clip-path="url(#b)" transform="matrix(.35278 0 0 -.35278 -178.272 143.565)"><path d="M546.414 359.013l-15.447-10.006.85 8.02s-1.187 1.77-.284 4.468l12.503 2.567z" fill="#f5cc00"/></g><g clip-path="url(#c)" transform="matrix(.35278 0 0 -.35278 -178.272 143.565)"><path d="M545.742 360.76l-12.663-8.368 1.366 14.86 9.772-.831z"/><path d="M545.742 360.76l-12.663-8.368 1.366 14.86 9.772-.831z" fill="none" stroke="#020202" stroke-width=".551" stroke-miterlimit="10"/></g><g clip-path="url(#d)" transform="matrix(.35278 0 0 -.35278 -178.272 143.565)"><path d="M546.414 359.013l-15.447-10.006.85 8.02s-1.187 1.77-.284 4.468l12.503 2.567z" fill="none" stroke="#020202" stroke-width=".551" stroke-miterlimit="10"/></g><g clip-path="url(#e)" transform="matrix(.35278 0 0 -.35278 -178.272 143.565)"><path d="M549.027 358.67l-20.533-13.667 2.375 19.147 15.545 2.626 4.467-1.865z" fill="none" stroke="#000" stroke-width=".551" stroke-miterlimit="10"/><path d="M517.639 329.257l38.679 28.787 4.668-7.658-29.007-22.031z" fill="#f5cc00"/></g><g clip-path="url(#f)" transform="matrix(.35278 0 0 -.35278 -178.272 143.565)"><path d="M530.02 328.907l30.604 23.366-1.027 5.948-39.964-29.492z" fill="#ae2a20"/><path d="M530.02 328.907l30.604 23.366-1.027 5.948-39.964-29.492z" fill="none" stroke="#000" stroke-width=".579" stroke-miterlimit="10"/></g><g clip-path="url(#g)" transform="matrix(.35278 0 0 -.35278 -178.272 143.565)"><path d="M517.639 329.257l38.679 28.787 4.668-7.658-29.007-22.031z" fill="none" stroke="#020202" stroke-width=".551" stroke-miterlimit="10"/><path d="M522.824 354.38l-3.892-25.303h5.387l3.978 27.387z" fill="#fff"/></g><g clip-path="url(#h)" transform="matrix(.35278 0 0 -.35278 -178.272 143.565)"><path d="M524.877 355.813l-4.248-26.377h5.879l4.34 28.55z" fill="#f5cc00"/><path d="M524.877 355.813l-4.248-26.377h5.879l4.34 28.55z" fill="none" stroke="#020202" stroke-width=".551" stroke-miterlimit="10"/><path d="M526.513 355.813l-4.248-26.377h5.878l4.34 28.55z" fill="#fff"/><path d="M526.513 355.813l-4.248-26.377h5.878l4.34 28.55z" fill="none" stroke="#000" stroke-width=".551" stroke-miterlimit="10"/></g><g clip-path="url(#i)" transform="matrix(.35278 0 0 -.35278 -178.272 143.565)"><path d="M522.824 354.38l-3.892-25.303h5.387l3.978 27.387z" fill="none" stroke="#000" stroke-width=".551" stroke-miterlimit="10"/></g><g clip-path="url(#j)" transform="matrix(.35278 0 0 -.35278 -178.272 143.565)"><path d="M533.271 357.294l-18.193-12.445-3.278-13.41h45.786v18.76l-5.045 8.49-9.965 4.558z" fill="none" stroke="#000" stroke-width=".579" stroke-miterlimit="10"/><path d="M530.5 376.02v-5.001l-2.51-6.271h2.68v-7.407s10.929-2.564 14.164 5.8v15.361s-11.677-.302-14.334-2.482" fill="#fff"/><path d="M530.5 376.02v-5.001l-2.51-6.271h2.68v-7.407s10.929-2.564 14.164 5.8v15.361s-11.677-.302-14.334-2.482z" fill="none" stroke="#000" stroke-width=".551" stroke-miterlimit="10"/><path d="M552.549 374.608s-1.855-3.566 1.139-7.242l.679-6.365-5.558-2.096-9.59 5.652-1.422 11.705 9.537-.162z" fill="#f5cc00"/></g><g clip-path="url(#k)" transform="matrix(.35278 0 0 -.35278 -178.272 143.565)"><path d="M541.482 377.862c-.21-4.449-2.013-15.939 15.293-17.652 0 0-1.014 4.642-.237 3.351.327-.553-13.734-.91-12.39 12.901 0 0-2.305 8.87-2.666 1.4" fill="#f5cc00"/><path d="M541.482 377.862c-.21-4.449-2.013-15.939 15.293-17.652 0 0-1.014 4.642-.237 3.351.327-.553-13.734-.91-12.39 12.901 0 0-2.305 8.87-2.666 1.4z" fill="none" stroke="#020202" stroke-width=".543" stroke-miterlimit="10"/><path d="M543.988 378.632c-.01-5.35-1.516-14.32 13.053-16.223 0 0-.667 4.223.01 2.98.24-.437-11.479-1.536-10.352 11.159 0 0-2.699 9.246-2.71 2.084" fill="#f5cc00"/><path d="M543.988 378.632c-.01-5.35-1.516-14.32 13.053-16.223 0 0-.667 4.223.01 2.98.24-.437-11.479-1.536-10.352 11.159 0 0-2.699 9.246-2.71 2.084z" fill="none" stroke="#020202" stroke-width=".498" stroke-miterlimit="10"/><path d="M549.929 376.544s-2.567-9.953 6.787-8.986" fill="#f5cc00" stroke="#020202" stroke-width=".498" stroke-miterlimit="10"/></g><g clip-path="url(#l)" transform="matrix(.35278 0 0 -.35278 -178.272 143.565)"><path d="M552.549 374.608s-1.855-3.566 1.139-7.242l.679-6.365-5.558-2.096-9.59 5.652-1.422 11.705 9.537-.162z" fill="none" stroke="#020202" stroke-width=".498" stroke-miterlimit="10"/><path d="M533.938 369.685a.738.738 0 0 0-.732-.744.741.741 0 0 0-.737.744c0 .412.33.746.737.746a.739.739 0 0 0 .732-.746M530.67 362.327c1.505.314 3.508 0 3.508 0 2.445-.266 3.168.855 3.168.855s-.606-.51-3.168.034c-2.561.545-3.508.408-3.508.408z" fill="#171717"/><path d="M529.838 364.747h2.14" fill="none" stroke="#000" stroke-width=".551" stroke-miterlimit="10"/><path d="M511.502 345.036h6.998s1.812-9.193-6.998-13.559z" fill="#fff"/></g><g clip-path="url(#m)" transform="matrix(.35278 0 0 -.35278 -178.272 143.565)"><path d="M510.219 342.11h8.57v-3.504h-8.347l.32-3.726h7.053l-1.106-2.98-6.49-.028" fill="#fff" stroke="#000" stroke-width=".669" stroke-miterlimit="10"/></g><path d="M2.174 21.844h2.469s.64 3.243-2.469 4.783z" fill="none" stroke="#000" stroke-width=".19438178" stroke-linecap="round" stroke-linejoin="round" stroke-miterlimit="10"/><path d="M9.75 16.096l-.716-.017" fill="none" stroke="#000" stroke-width=".1905012" stroke-miterlimit="10"/><path d="M15.388 16.866s2.412.588 2.667-1.29c.16-1.174-.807-2.085-1.998-1.888v1.072l.86.604.2.485-.393.606z" fill="#f5cc00"/><path d="M15.388 16.866s2.412.588 2.667-1.29c.16-1.174-.807-2.085-1.998-1.888v1.072l.86.604.2.485-.393.606z" fill="none" stroke="#020202" stroke-width=".15381208" stroke-miterlimit="10"/><path d="M10.83 10.833s-.696 5.239 4.105 6.445c.574.144 2.322.247 2.479-1.426.1-1.08-1.054-1.77-1.943-1.587l.042.882s.963-.132.93.713c0 0-.099.73-1.15.546 0 0-3.95-.633-3.558-5.614z" fill="#f5cc00"/><path d="M10.83 10.833s-.696 5.239 4.105 6.445c.574.144 2.322.247 2.479-1.426.1-1.08-1.054-1.77-1.943-1.587l.042.882s.963-.132.93.713c0 0-.099.73-1.15.546 0 0-3.95-.633-3.558-5.614z" fill="none" stroke="#020202" stroke-width=".19438178" stroke-miterlimit="10"/><path d="M7.124 8.463l1.642 3.084s4.668-1.259 7.867-.026l1.155-3.102s-4.82-1.852-10.664.044" fill="#020202"/><path d="M7.124 8.463l1.642 3.084s4.668-1.259 7.867-.026l1.155-3.102s-4.82-1.852-10.664.044z" fill="none" stroke="#000" stroke-width=".19438178" stroke-miterlimit="10"/><path d="M7.274 8.553l1.132 2.323s4.64-1.024 8.464-.007l.858-2.273s-4.871-1.831-10.454-.043" fill="#ae2a20"/><path d="M7.274 8.553l1.132 2.323s4.64-1.024 8.464-.007l.858-2.273s-4.871-1.831-10.454-.043z" fill="none" stroke="#000" stroke-width=".19438178" stroke-miterlimit="10"/><path d="M8.187 8.91l.652 1.267s.85-.227 1.859-.308l-.128-1.341M16.903 8.8l-.456 1.25s-1.145-.13-2.153-.212l.03-1.34M11.354 8.528l.099 1.272h2.09V8.477" fill="#ae2a20" stroke="#000" stroke-width=".19438178" stroke-miterlimit="10"/><path d="M8.316 26.102h1.123l1.095-.786h-1.13z"/><path d="M8.316 26.102h1.123l1.095-.786h-1.13z" fill="none" stroke="#020202" stroke-width=".19438178" stroke-miterlimit="10"/><path d="M10.049 24.726h1.122l1.095-.788h-1.13z"/><path d="M10.049 24.726h1.122l1.095-.788h-1.13z" fill="none" stroke="#020202" stroke-width=".19438178" stroke-miterlimit="10"/><path d="M11.859 23.424h1.122l1.096-.788h-1.13z"/><path d="M11.859 23.424h1.122l1.096-.788h-1.13z" fill="none" stroke="#020202" stroke-width=".19438178" stroke-miterlimit="10"/><path d="M13.592 22.142h1.123l1.095-.787h-1.13z"/><path d="M13.592 22.142h1.123l1.095-.787h-1.13z" fill="none" stroke="#020202" stroke-width=".19438178" stroke-miterlimit="10"/><path d="M15.374 20.815h1.024l.997-.691-.345-.578z"/><path d="M15.374 20.815h1.024l.997-.691-.345-.578z" fill="none" stroke="#020202" stroke-width=".19438178" stroke-miterlimit="10"/><path d="M13.713 25.74l3.89-2.817v2.818z"/><path d="M13.713 25.74l3.89-2.817v2.818z" fill="none" stroke="#020202" stroke-width=".17215664" stroke-miterlimit="10"/><path d="M15.024 25.26l2.097-1.446v1.446z" fill="#f5cc00"/><path d="M15.024 25.26l2.097-1.446v1.446z" fill="none" stroke="#020202" stroke-width=".16615938" stroke-miterlimit="10"/><path d="M15.668 18.11c0 .16-.132.29-.294.29a.292.292 0 0 1-.295-.29c0-.16.132-.29.295-.29.162 0 .294.13.294.29" fill="#fff"/><path d="M15.668 18.11c0 .16-.132.29-.294.29a.292.292 0 0 1-.295-.29c0-.16.132-.29.295-.29.162 0 .294.13.294.29z" fill="none" stroke="#000" stroke-width=".13158693999999999" stroke-miterlimit="10"/><path d="M14.423 19.054c0 .16-.133.288-.295.288a.291.291 0 0 1-.294-.288c0-.16.131-.29.294-.29.162 0 .295.13.295.29" fill="#fff"/><path d="M14.423 19.054c0 .16-.133.288-.295.288a.291.291 0 0 1-.294-.288c0-.16.131-.29.294-.29.162 0 .295.13.295.29z" fill="none" stroke="#000" stroke-width=".13158693999999999" stroke-miterlimit="10"/><path d="M13.152 20.005c0 .16-.133.29-.295.29a.292.292 0 0 1-.294-.29c0-.16.132-.289.294-.289.162 0 .295.13.295.29" fill="#fff"/><path d="M13.152 20.005c0 .16-.133.29-.295.29a.292.292 0 0 1-.294-.29c0-.16.132-.289.294-.289.162 0 .295.13.295.29z" fill="none" stroke="#000" stroke-width=".13158693999999999" stroke-miterlimit="10"/><path d="M11.71 21.141c0 .162-.131.29-.294.29a.291.291 0 0 1-.294-.29c0-.159.132-.288.294-.288.163 0 .294.13.294.288" fill="#fff"/><path d="M11.71 21.141c0 .162-.131.29-.294.29a.291.291 0 0 1-.294-.29c0-.159.132-.288.294-.288.163 0 .294.13.294.288z" fill="none" stroke="#000" stroke-width=".13158693999999999" stroke-miterlimit="10"/><path d="M10.197 22.212c0 .16-.132.288-.295.288a.292.292 0 0 1-.294-.288c0-.158.133-.289.294-.289.163 0 .295.13.295.29" fill="#fff"/><path d="M10.197 22.212c0 .16-.132.288-.295.288a.292.292 0 0 1-.294-.288c0-.158.133-.289.294-.289.163 0 .295.13.295.29z" fill="none" stroke="#000" stroke-width=".13158693999999999" stroke-miterlimit="10"/><path d="M8.756 23.348c0 .16-.132.29-.295.29a.292.292 0 0 1-.294-.29c0-.159.132-.288.294-.288.163 0 .295.13.295.288" fill="#fff"/><path d="M8.756 23.348c0 .16-.132.29-.295.29a.292.292 0 0 1-.294-.29c0-.159.132-.288.294-.288.163 0 .295.13.295.288z" fill="none" stroke="#000" stroke-width=".13158693999999999" stroke-miterlimit="10"/><path d="M4.193 17.32c0-.28-.322-.508-.736-.508-.415 0-.738.228-.738.509v4.448h1.474z"/><path d="M4.193 17.32c0-.28-.322-.508-.736-.508-.415 0-.738.228-.738.509v4.448h1.474z" fill="none" stroke="#020202" stroke-width=".15451763999999998" stroke-miterlimit="10"/><path d="M3.646 17.26c0-.071-.083-.13-.19-.13-.105 0-.188.059-.188.13v4.192h.378z" fill="#fff"/><path d="M3.26 15.583h.393v1.163H3.26z" stroke="#020202" stroke-width=".185" stroke-miterlimit="10"/><path d="M3.486 14.786l.646 1.431H2.787z"/><path d="M3.486 14.786l.646 1.431H2.787z" fill="none" stroke="#020202" stroke-width=".17780111999999998" stroke-miterlimit="10"/><path d="M4.148 9.884s-1.847 1.736-1.887 2.654c0 .508.429.922.958.922a.97.97 0 0 0 .598-.205c-.044.34-.118.748-.226.843h1.115c-.092-.08-.175-.542-.22-.838.162.125.367.2.591.2.529 0 .958-.414.958-.922-.04-.918-1.887-2.654-1.887-2.654" fill="#171717"/></svg>