<?xml version="1.0" encoding="UTF-8" standalone="no"?>
<!-- Created with Inkscape (http://www.inkscape.org/) -->

<svg
   xmlns:dc="http://purl.org/dc/elements/1.1/"
   xmlns:cc="http://creativecommons.org/ns#"
   xmlns:rdf="http://www.w3.org/1999/02/22-rdf-syntax-ns#"
   xmlns:svg="http://www.w3.org/2000/svg"
   xmlns="http://www.w3.org/2000/svg"
   xmlns:sodipodi="http://sodipodi.sourceforge.net/DTD/sodipodi-0.dtd"
   xmlns:inkscape="http://www.inkscape.org/namespaces/inkscape"
   width="20.611042mm"
   height="28.693886mm"
   viewBox="0 0 20.611042 28.693886"
   version="1.1"
   id="svg13707"
   inkscape:version="0.92.3 (2405546, 2018-03-11)">
  <defs
     id="defs13701">
    <clipPath
       clipPathUnits="userSpaceOnUse"
       id="clipPath6016">
      <path
         d="m 388.898,357.294 -18.192,-12.446 -3.277,-13.408 h 3.429 42.357 v 18.76 l -5.045,8.49 -9.966,4.557 z"
         id="path6014"
         inkscape:connector-curvature="0" />
    </clipPath>
    <clipPath
       clipPathUnits="userSpaceOnUse"
       id="clipPath6028">
      <path
         d="m 388.898,357.294 -3.553,-2.431 -1.224,-9.86 20.533,13.668 0.426,1.432 -6.876,3.144 z"
         id="path6026"
         inkscape:connector-curvature="0" />
    </clipPath>
    <clipPath
       clipPathUnits="userSpaceOnUse"
       id="clipPath6040">
      <path
         d="m 388.898,357.294 -1.536,-1.052 -0.767,-7.235 15.447,10.006 -1.489,3.16 -2.349,1.074 z"
         id="path6038"
         inkscape:connector-curvature="0" />
    </clipPath>
    <clipPath
       clipPathUnits="userSpaceOnUse"
       id="clipPath6056">
      <path
         d="m 388.898,357.294 -3.553,-2.431 -1.224,-9.86 20.533,13.668 0.426,1.432 -6.876,3.144 z"
         id="path6054"
         inkscape:connector-curvature="0" />
    </clipPath>
    <clipPath
       clipPathUnits="userSpaceOnUse"
       id="clipPath6068">
      <path
         d="m 388.898,357.294 -18.192,-12.446 -3.277,-13.408 h 3.429 42.357 v 18.76 l -5.045,8.49 -9.966,4.557 z"
         id="path6066"
         inkscape:connector-curvature="0" />
    </clipPath>
    <clipPath
       clipPathUnits="userSpaceOnUse"
       id="clipPath6084">
      <path
         d="m 376.2,331.44 h 15.536 l 21.479,16.357 v 2.403 l -3.621,6.094 z"
         id="path6082"
         inkscape:connector-curvature="0" />
    </clipPath>
    <clipPath
       clipPathUnits="userSpaceOnUse"
       id="clipPath6100">
      <path
         d="m 388.898,357.294 -18.192,-12.446 -3.277,-13.408 h 3.429 42.357 v 18.76 l -5.045,8.49 -9.966,4.557 z"
         id="path6098"
         inkscape:connector-curvature="0" />
    </clipPath>
    <clipPath
       clipPathUnits="userSpaceOnUse"
       id="clipPath6116">
      <path
         d="m 377.725,349.65 -2.801,-18.21 h 5.367 l 3.22,22.168 z"
         id="path6114"
         inkscape:connector-curvature="0" />
    </clipPath>
    <clipPath
       clipPathUnits="userSpaceOnUse"
       id="clipPath6140">
      <path
         d="m 388.898,357.294 -18.192,-12.446 -3.277,-13.408 h 3.429 42.357 v 18.76 l -5.045,8.49 -9.966,4.557 z"
         id="path6138"
         inkscape:connector-curvature="0" />
    </clipPath>
    <clipPath
       clipPathUnits="userSpaceOnUse"
       id="clipPath6152">
      <path
         d="M 0,842.979 H 701.352 V 0 H 0 Z"
         id="path6150"
         inkscape:connector-curvature="0" />
    </clipPath>
    <clipPath
       clipPathUnits="userSpaceOnUse"
       id="clipPath6176">
      <path
         d="m 394.845,364.558 9.592,-5.652 5.557,2.095 -0.678,6.365 c -2.996,3.676 -1.139,7.243 -1.139,7.243 v 0 l -5.214,1.492 -9.538,0.162 z"
         id="path6174"
         inkscape:connector-curvature="0" />
    </clipPath>
    <clipPath
       clipPathUnits="userSpaceOnUse"
       id="clipPath6204">
      <path
         d="M 0,842.979 H 701.352 V 0 H 0 Z"
         id="path6202"
         inkscape:connector-curvature="0" />
    </clipPath>
    <clipPath
       clipPathUnits="userSpaceOnUse"
       id="clipPath6232">
      <path
         d="m 367.13,345.036 v -13.559 c 8.809,4.366 6.999,13.559 6.999,13.559 v 0 z"
         id="path6230"
         inkscape:connector-curvature="0" />
    </clipPath>
    <clipPath
       clipPathUnits="userSpaceOnUse"
       id="clipPath266">
      <path
         d="m 460.898,357.294 -18.192,-12.446 -3.278,-13.408 h 3.43 42.356 v 18.76 l -5.046,8.49 -9.965,4.557 z"
         id="path264"
         inkscape:connector-curvature="0" />
    </clipPath>
    <clipPath
       clipPathUnits="userSpaceOnUse"
       id="clipPath278">
      <path
         d="m 460.898,357.294 -3.554,-2.432 -1.223,-9.859 20.533,13.668 0.426,1.432 -6.877,3.144 z"
         id="path276"
         inkscape:connector-curvature="0" />
    </clipPath>
    <clipPath
       clipPathUnits="userSpaceOnUse"
       id="clipPath290">
      <path
         d="m 460.898,357.294 -1.537,-1.052 -0.767,-7.235 15.447,10.006 -1.488,3.16 -2.35,1.074 z"
         id="path288"
         inkscape:connector-curvature="0" />
    </clipPath>
    <clipPath
       clipPathUnits="userSpaceOnUse"
       id="clipPath306">
      <path
         d="m 460.898,357.294 -3.554,-2.432 -1.223,-9.859 20.533,13.668 0.426,1.432 -6.877,3.144 z"
         id="path304"
         inkscape:connector-curvature="0" />
    </clipPath>
    <clipPath
       clipPathUnits="userSpaceOnUse"
       id="clipPath318">
      <path
         d="m 460.898,357.294 -18.192,-12.446 -3.278,-13.408 h 3.43 42.356 v 18.76 l -5.046,8.49 -9.965,4.557 z"
         id="path316"
         inkscape:connector-curvature="0" />
    </clipPath>
    <clipPath
       clipPathUnits="userSpaceOnUse"
       id="clipPath334">
      <path
         d="m 448.2,331.44 h 15.465 l 21.549,16.365 v 2.395 l -3.622,6.094 z"
         id="path332"
         inkscape:connector-curvature="0" />
    </clipPath>
    <clipPath
       clipPathUnits="userSpaceOnUse"
       id="clipPath350">
      <path
         d="m 460.898,357.294 -18.192,-12.446 -3.278,-13.408 h 3.43 42.356 v 18.76 l -5.046,8.49 -9.965,4.557 z"
         id="path348"
         inkscape:connector-curvature="0" />
    </clipPath>
    <clipPath
       clipPathUnits="userSpaceOnUse"
       id="clipPath366">
      <path
         d="m 449.723,349.649 -2.8,-18.209 h 5.367 l 3.219,22.167 z"
         id="path364"
         inkscape:connector-curvature="0" />
    </clipPath>
    <clipPath
       clipPathUnits="userSpaceOnUse"
       id="clipPath390">
      <path
         d="m 460.898,357.294 -18.192,-12.446 -3.278,-13.408 h 3.43 42.356 v 18.76 l -5.046,8.49 -9.965,4.557 z"
         id="path388"
         inkscape:connector-curvature="0" />
    </clipPath>
    <clipPath
       clipPathUnits="userSpaceOnUse"
       id="clipPath402">
      <path
         d="M 0,842.979 H 701.352 V 0 H 0 Z"
         id="path400"
         inkscape:connector-curvature="0" />
    </clipPath>
    <clipPath
       clipPathUnits="userSpaceOnUse"
       id="clipPath426">
      <path
         d="m 466.845,364.558 9.591,-5.652 5.558,2.095 -0.679,6.365 c -2.995,3.676 -1.139,7.243 -1.139,7.243 v 0 l -5.215,1.492 -9.537,0.162 z"
         id="path424"
         inkscape:connector-curvature="0" />
    </clipPath>
    <clipPath
       clipPathUnits="userSpaceOnUse"
       id="clipPath454">
      <path
         d="M 0,842.979 H 701.352 V 0 H 0 Z"
         id="path452"
         inkscape:connector-curvature="0" />
    </clipPath>
    <clipPath
       clipPathUnits="userSpaceOnUse"
       id="clipPath482">
      <path
         d="m 439.129,345.036 v -13.559 c 8.809,4.366 6.998,13.559 6.998,13.559 v 0 z"
         id="path480"
         inkscape:connector-curvature="0" />
    </clipPath>
    <clipPath
       clipPathUnits="userSpaceOnUse"
       id="clipPath2180">
      <path
         d="m 533.272,357.294 -18.194,-12.446 -3.277,-13.408 h 3.429 42.357 v 18.76 l -5.046,8.49 -9.965,4.557 z"
         id="path2178"
         inkscape:connector-curvature="0" />
    </clipPath>
    <clipPath
       clipPathUnits="userSpaceOnUse"
       id="clipPath2192">
      <path
         d="m 533.272,357.294 -3.555,-2.431 -1.223,-9.86 20.533,13.668 0.425,1.432 -6.876,3.144 z"
         id="path2190"
         inkscape:connector-curvature="0" />
    </clipPath>
    <clipPath
       clipPathUnits="userSpaceOnUse"
       id="clipPath2204">
      <path
         d="m 533.272,357.294 -1.539,-1.053 -0.766,-7.234 15.447,10.006 -1.488,3.159 -2.35,1.075 z"
         id="path2202"
         inkscape:connector-curvature="0" />
    </clipPath>
    <clipPath
       clipPathUnits="userSpaceOnUse"
       id="clipPath2220">
      <path
         d="m 533.272,357.294 -3.555,-2.431 -1.223,-9.86 20.533,13.668 0.425,1.432 -6.876,3.144 z"
         id="path2218"
         inkscape:connector-curvature="0" />
    </clipPath>
    <clipPath
       clipPathUnits="userSpaceOnUse"
       id="clipPath2232">
      <path
         d="m 533.272,357.294 -18.194,-12.446 -3.277,-13.408 h 3.429 42.357 v 18.76 l -5.046,8.49 -9.965,4.557 z"
         id="path2230"
         inkscape:connector-curvature="0" />
    </clipPath>
    <clipPath
       clipPathUnits="userSpaceOnUse"
       id="clipPath2248">
      <path
         d="m 520.572,331.44 h 15.47 l 21.545,16.364 v 2.396 l -3.622,6.094 z"
         id="path2246"
         inkscape:connector-curvature="0" />
    </clipPath>
    <clipPath
       clipPathUnits="userSpaceOnUse"
       id="clipPath2264">
      <path
         d="m 533.272,357.294 -18.194,-12.446 -3.277,-13.408 h 3.429 42.357 v 18.76 l -5.046,8.49 -9.965,4.557 z"
         id="path2262"
         inkscape:connector-curvature="0" />
    </clipPath>
    <clipPath
       clipPathUnits="userSpaceOnUse"
       id="clipPath2280">
      <path
         d="m 522.097,349.65 -2.801,-18.21 h 5.367 l 3.219,22.167 z"
         id="path2278"
         inkscape:connector-curvature="0" />
    </clipPath>
    <clipPath
       clipPathUnits="userSpaceOnUse"
       id="clipPath2304">
      <path
         d="m 533.272,357.294 -18.194,-12.446 -3.277,-13.408 h 3.429 42.357 v 18.76 l -5.046,8.49 -9.965,4.557 z"
         id="path2302"
         inkscape:connector-curvature="0" />
    </clipPath>
    <clipPath
       clipPathUnits="userSpaceOnUse"
       id="clipPath2316">
      <path
         d="M 0,842.979 H 701.352 V 0 H 0 Z"
         id="path2314"
         inkscape:connector-curvature="0" />
    </clipPath>
    <clipPath
       clipPathUnits="userSpaceOnUse"
       id="clipPath2340">
      <path
         d="m 539.219,364.558 9.589,-5.652 5.56,2.095 -0.681,6.365 c -2.994,3.676 -1.138,7.243 -1.138,7.243 v 0 l -5.215,1.492 -9.537,0.162 z"
         id="path2338"
         inkscape:connector-curvature="0" />
    </clipPath>
    <clipPath
       clipPathUnits="userSpaceOnUse"
       id="clipPath2368">
      <path
         d="M 0,842.979 H 701.352 V 0 H 0 Z"
         id="path2366"
         inkscape:connector-curvature="0" />
    </clipPath>
    <clipPath
       clipPathUnits="userSpaceOnUse"
       id="clipPath2396">
      <path
         d="m 511.501,345.036 v -13.559 c 8.811,4.366 6.999,13.559 6.999,13.559 v 0 z"
         id="path2394"
         inkscape:connector-curvature="0" />
    </clipPath>
  </defs>
  <sodipodi:namedview
     id="base"
     pagecolor="#ffffff"
     bordercolor="#666666"
     borderopacity="1.0"
     inkscape:pageopacity="0.0"
     inkscape:pageshadow="2"
     inkscape:zoom="3.959798"
     inkscape:cx="40.331032"
     inkscape:cy="51.196255"
     inkscape:document-units="mm"
     inkscape:current-layer="layer1"
     showgrid="false"
     fit-margin-top="0"
     fit-margin-left="0"
     fit-margin-right="0"
     fit-margin-bottom="0"
     inkscape:window-width="1920"
     inkscape:window-height="1057"
     inkscape:window-x="-8"
     inkscape:window-y="-8"
     inkscape:window-maximized="1" />
  <metadata
     id="metadata13704">
    <rdf:RDF>
      <cc:Work
         rdf:about="">
        <dc:format>image/svg+xml</dc:format>
        <dc:type
           rdf:resource="http://purl.org/dc/dcmitype/StillImage" />
        <dc:title></dc:title>
      </cc:Work>
    </rdf:RDF>
  </metadata>
  <g
     inkscape:label="Layer 1"
     inkscape:groupmode="layer"
     id="layer1"
     transform="translate(-80.682384,-81.014627)">
    <g
       id="g2150"
       transform="matrix(0.35277777,0,0,-0.35277777,101.1823,107.69274)">
      <path
         d="m 0,0 c 0,-2.97 -2.43,-5.399 -5.399,-5.399 h -46.997 c -2.969,0 -5.399,2.429 -5.399,5.399 v 69.908 c 0,2.97 2.43,5.4 5.399,5.4 h 46.997 c 2.969,0 5.399,-2.43 5.399,-5.4 z"
         style="fill:#fafafa;fill-opacity:1;fill-rule:evenodd;stroke:none"
         id="path2152"
         inkscape:connector-curvature="0" />
    </g>
    <g
       id="g2154"
       transform="matrix(0.35277777,0,0,-0.35277777,101.1823,107.69274)">
      <path
         d="m 0,0 c 0,-2.97 -2.43,-5.399 -5.399,-5.399 h -46.997 c -2.969,0 -5.399,2.429 -5.399,5.399 v 69.908 c 0,2.97 2.43,5.4 5.399,5.4 h 46.997 c 2.969,0 5.399,-2.43 5.399,-5.4 z"
         style="fill:none;stroke:#cccccc;stroke-width:0.63;stroke-linecap:butt;stroke-linejoin:miter;stroke-miterlimit:3.86400008;stroke-dasharray:none;stroke-opacity:1"
         id="path2156"
         inkscape:connector-curvature="0" />
    </g>
    <g
       id="g2158"
       transform="matrix(0.35277777,0,0,-0.35277777,83.789756,88.924893)">
      <path
         d="m 0,0 c 0.312,-0.025 0.677,-0.025 0.988,-0.025 0.91,0 1.638,0.337 1.638,1.742 v 13.885 h 2.86 V 1.924 c 0,-3.641 -1.95,-4.576 -4.108,-4.576 -0.52,0 -0.91,0 -1.378,0.052 z"
         style="fill:#171717;fill-opacity:1;fill-rule:nonzero;stroke:none"
         id="path2160"
         inkscape:connector-curvature="0" />
    </g>
    <g
       id="g2162"
       transform="matrix(0.35277777,0,0,-0.35277777,96.538333,97.184163)">
      <path
         d="M 0,0 C 0,0 6.562,-1.666 7.283,3.658 7.733,6.982 4.995,9.568 1.62,9.014 V 5.971 L 4.058,4.26 4.627,2.883 3.512,1.164 Z"
         style="fill:#f5cc00;fill-opacity:1;fill-rule:nonzero;stroke:none"
         id="path2164"
         inkscape:connector-curvature="0" />
    </g>
    <g
       id="g2166"
       transform="matrix(0.35277777,0,0,-0.35277777,96.538333,97.184163)">
      <path
         d="M 0,0 C 0,0 6.562,-1.666 7.283,3.658 7.733,6.982 4.995,9.568 1.62,9.014 V 5.971 L 4.058,4.26 4.627,2.883 3.512,1.164 Z"
         style="fill:none;stroke:#020202;stroke-width:0.43599999;stroke-linecap:butt;stroke-linejoin:miter;stroke-miterlimit:10;stroke-dasharray:none;stroke-opacity:1"
         id="path2168"
         inkscape:connector-curvature="0" />
    </g>
    <g
       id="g2170"
       transform="matrix(0.35277777,0,0,-0.35277777,90.536279,98.533962)">
      <path
         d="m 0,0 -18.193,-12.445 -3.278,-13.409 h 3.43 42.356 v 18.76 L 19.27,1.396 9.305,5.953 Z"
         style="fill:#000000;fill-opacity:1;fill-rule:nonzero;stroke:none"
         id="path2172"
         inkscape:connector-curvature="0" />
    </g>
    <g
       transform="matrix(0.35277777,0,0,-0.35277777,-97.590051,224.5793)"
       id="g2174">
      <g
         id="g2176"
         clip-path="url(#clipPath2180)">
        <g
           id="g2182"
           transform="translate(549.0273,358.6709)">
          <path
             d="M 0,0 -20.533,-13.668 -18.158,5.479 -2.613,8.105 1.854,6.24 Z"
             style="fill:#ffffff;fill-opacity:1;fill-rule:nonzero;stroke:none"
             id="path2184"
             inkscape:connector-curvature="0" />
        </g>
      </g>
    </g>
    <g
       transform="matrix(0.35277777,0,0,-0.35277777,-97.590051,224.5793)"
       id="g2186">
      <g
         id="g2188"
         clip-path="url(#clipPath2192)">
        <g
           id="g2194"
           transform="translate(546.4141,359.0127)">
          <path
             d="m 0,0 -15.447,-10.006 0.849,8.02 c 0,0 -1.186,1.771 -0.283,4.468 l 12.503,2.567 z"
             style="fill:#f5cc00;fill-opacity:1;fill-rule:nonzero;stroke:none"
             id="path2196"
             inkscape:connector-curvature="0" />
        </g>
      </g>
    </g>
    <g
       transform="matrix(0.35277777,0,0,-0.35277777,-97.590051,224.5793)"
       id="g2198">
      <g
         id="g2200"
         clip-path="url(#clipPath2204)">
        <g
           id="g2206"
           transform="translate(545.7422,360.7607)">
          <path
             d="M 0,0 -12.663,-8.369 -11.297,6.492 -1.525,5.66 Z"
             style="fill:#000000;fill-opacity:1;fill-rule:nonzero;stroke:none"
             id="path2208"
             inkscape:connector-curvature="0" />
        </g>
        <g
           id="g2210"
           transform="translate(545.7422,360.7607)">
          <path
             d="M 0,0 -12.663,-8.369 -11.297,6.492 -1.525,5.66 Z"
             style="fill:none;stroke:#020202;stroke-width:0.551;stroke-linecap:butt;stroke-linejoin:miter;stroke-miterlimit:10;stroke-dasharray:none;stroke-opacity:1"
             id="path2212"
             inkscape:connector-curvature="0" />
        </g>
      </g>
    </g>
    <g
       transform="matrix(0.35277777,0,0,-0.35277777,-97.590051,224.5793)"
       id="g2214">
      <g
         id="g2216"
         clip-path="url(#clipPath2220)">
        <g
           id="g2222"
           transform="translate(546.4141,359.0127)">
          <path
             d="m 0,0 -15.447,-10.006 0.849,8.02 c 0,0 -1.186,1.771 -0.283,4.468 l 12.503,2.567 z"
             style="fill:none;stroke:#020202;stroke-width:0.551;stroke-linecap:butt;stroke-linejoin:miter;stroke-miterlimit:10;stroke-dasharray:none;stroke-opacity:1"
             id="path2224"
             inkscape:connector-curvature="0" />
        </g>
      </g>
    </g>
    <g
       transform="matrix(0.35277777,0,0,-0.35277777,-97.590051,224.5793)"
       id="g2226">
      <g
         id="g2228"
         clip-path="url(#clipPath2232)">
        <g
           id="g2234"
           transform="translate(549.0273,358.6709)">
          <path
             d="M 0,0 -20.533,-13.668 -18.158,5.479 -2.613,8.105 1.854,6.24 Z"
             style="fill:none;stroke:#000000;stroke-width:0.551;stroke-linecap:butt;stroke-linejoin:miter;stroke-miterlimit:10;stroke-dasharray:none;stroke-opacity:1"
             id="path2236"
             inkscape:connector-curvature="0" />
        </g>
        <g
           id="g2238"
           transform="translate(517.6387,329.2568)">
          <path
             d="M 0,0 38.679,28.787 43.347,21.129 14.34,-0.902 Z"
             style="fill:#f5cc00;fill-opacity:1;fill-rule:nonzero;stroke:none"
             id="path2240"
             inkscape:connector-curvature="0" />
        </g>
      </g>
    </g>
    <g
       transform="matrix(0.35277777,0,0,-0.35277777,-97.590051,224.5793)"
       id="g2242">
      <g
         id="g2244"
         clip-path="url(#clipPath2248)">
        <g
           id="g2250"
           transform="translate(530.0205,328.9072)">
          <path
             d="M 0,0 30.604,23.366 29.577,29.314 -10.387,-0.178 Z"
             style="fill:#ae2a20;fill-opacity:1;fill-rule:nonzero;stroke:none"
             id="path2252"
             inkscape:connector-curvature="0" />
        </g>
        <g
           id="g2254"
           transform="translate(530.0205,328.9072)">
          <path
             d="M 0,0 30.604,23.366 29.577,29.314 -10.387,-0.178 Z"
             style="fill:none;stroke:#000000;stroke-width:0.579;stroke-linecap:butt;stroke-linejoin:miter;stroke-miterlimit:10;stroke-dasharray:none;stroke-opacity:1"
             id="path2256"
             inkscape:connector-curvature="0" />
        </g>
      </g>
    </g>
    <g
       transform="matrix(0.35277777,0,0,-0.35277777,-97.590051,224.5793)"
       id="g2258">
      <g
         id="g2260"
         clip-path="url(#clipPath2264)">
        <g
           id="g2266"
           transform="translate(517.6387,329.2568)">
          <path
             d="M 0,0 38.679,28.787 43.347,21.129 14.34,-0.902 Z"
             style="fill:none;stroke:#020202;stroke-width:0.551;stroke-linecap:butt;stroke-linejoin:miter;stroke-miterlimit:10;stroke-dasharray:none;stroke-opacity:1"
             id="path2268"
             inkscape:connector-curvature="0" />
        </g>
        <g
           id="g2270"
           transform="translate(522.8242,354.3799)">
          <path
             d="M 0,0 -3.892,-25.303 H 1.495 L 5.473,2.084 Z"
             style="fill:#ffffff;fill-opacity:1;fill-rule:nonzero;stroke:none"
             id="path2272"
             inkscape:connector-curvature="0" />
        </g>
      </g>
    </g>
    <g
       transform="matrix(0.35277777,0,0,-0.35277777,-97.590051,224.5793)"
       id="g2274">
      <g
         id="g2276"
         clip-path="url(#clipPath2280)">
        <g
           id="g2282"
           transform="translate(524.877,355.8135)">
          <path
             d="M 0,0 -4.248,-26.377 H 1.631 L 5.971,2.172 Z"
             style="fill:#f5cc00;fill-opacity:1;fill-rule:nonzero;stroke:none"
             id="path2284"
             inkscape:connector-curvature="0" />
        </g>
        <g
           id="g2286"
           transform="translate(524.877,355.8135)">
          <path
             d="M 0,0 -4.248,-26.377 H 1.631 L 5.971,2.172 Z"
             style="fill:none;stroke:#020202;stroke-width:0.551;stroke-linecap:butt;stroke-linejoin:miter;stroke-miterlimit:10;stroke-dasharray:none;stroke-opacity:1"
             id="path2288"
             inkscape:connector-curvature="0" />
        </g>
        <g
           id="g2290"
           transform="translate(526.5127,355.8135)">
          <path
             d="M 0,0 -4.248,-26.377 H 1.63 L 5.971,2.172 Z"
             style="fill:#ffffff;fill-opacity:1;fill-rule:nonzero;stroke:none"
             id="path2292"
             inkscape:connector-curvature="0" />
        </g>
        <g
           id="g2294"
           transform="translate(526.5127,355.8135)">
          <path
             d="M 0,0 -4.248,-26.377 H 1.63 L 5.971,2.172 Z"
             style="fill:none;stroke:#000000;stroke-width:0.551;stroke-linecap:butt;stroke-linejoin:miter;stroke-miterlimit:10;stroke-dasharray:none;stroke-opacity:1"
             id="path2296"
             inkscape:connector-curvature="0" />
        </g>
      </g>
    </g>
    <g
       transform="matrix(0.35277777,0,0,-0.35277777,-97.590051,224.5793)"
       id="g2298">
      <g
         id="g2300"
         clip-path="url(#clipPath2304)">
        <g
           id="g2306"
           transform="translate(522.8242,354.3799)">
          <path
             d="M 0,0 -3.892,-25.303 H 1.495 L 5.473,2.084 Z"
             style="fill:none;stroke:#000000;stroke-width:0.551;stroke-linecap:butt;stroke-linejoin:miter;stroke-miterlimit:10;stroke-dasharray:none;stroke-opacity:1"
             id="path2308"
             inkscape:connector-curvature="0" />
        </g>
      </g>
    </g>
    <g
       transform="matrix(0.35277777,0,0,-0.35277777,-97.590051,224.5793)"
       id="g2310">
      <g
         id="g2312"
         clip-path="url(#clipPath2316)">
        <g
           id="g2318"
           transform="translate(533.2715,357.2939)">
          <path
             d="m 0,0 -18.193,-12.445 -3.278,-13.409 h 3.43 42.356 v 18.76 L 19.27,1.396 9.305,5.953 Z"
             style="fill:none;stroke:#000000;stroke-width:0.579;stroke-linecap:butt;stroke-linejoin:miter;stroke-miterlimit:10;stroke-dasharray:none;stroke-opacity:1"
             id="path2320"
             inkscape:connector-curvature="0" />
        </g>
        <g
           id="g2322"
           transform="translate(530.5,376.0205)">
          <path
             d="m 0,0 v -5.002 l -2.51,-6.271 h 2.68 v -7.407 c 0,0 10.929,-2.564 14.164,5.801 V 2.482 C 14.334,2.482 2.657,2.18 0,0"
             style="fill:#ffffff;fill-opacity:1;fill-rule:nonzero;stroke:none"
             id="path2324"
             inkscape:connector-curvature="0" />
        </g>
        <g
           id="g2326"
           transform="translate(530.5,376.0205)">
          <path
             d="m 0,0 v -5.002 l -2.51,-6.271 h 2.68 v -7.407 c 0,0 10.929,-2.564 14.164,5.801 V 2.482 C 14.334,2.482 2.657,2.18 0,0 Z"
             style="fill:none;stroke:#000000;stroke-width:0.551;stroke-linecap:butt;stroke-linejoin:miter;stroke-miterlimit:10;stroke-dasharray:none;stroke-opacity:1"
             id="path2328"
             inkscape:connector-curvature="0" />
        </g>
        <g
           id="g2330"
           transform="translate(552.5488,374.6084)">
          <path
             d="m 0,0 c 0,0 -1.855,-3.566 1.139,-7.242 l 0.679,-6.365 -5.558,-2.096 -9.59,5.652 -1.422,11.705 9.537,-0.162 z"
             style="fill:#f5cc00;fill-opacity:1;fill-rule:nonzero;stroke:none"
             id="path2332"
             inkscape:connector-curvature="0" />
        </g>
      </g>
    </g>
    <g
       transform="matrix(0.35277777,0,0,-0.35277777,-97.590051,224.5793)"
       id="g2334">
      <g
         id="g2336"
         clip-path="url(#clipPath2340)">
        <g
           id="g2342"
           transform="translate(541.4824,377.8623)">
          <path
             d="m 0,0 c -0.211,-4.449 -2.013,-15.939 15.293,-17.652 0,0 -1.014,4.642 -0.237,3.351 C 15.383,-14.854 1.322,-15.211 2.665,-1.4 2.665,-1.4 0.361,7.469 0,0"
             style="fill:#f5cc00;fill-opacity:1;fill-rule:nonzero;stroke:none"
             id="path2344"
             inkscape:connector-curvature="0" />
        </g>
        <g
           id="g2346"
           transform="translate(541.4824,377.8623)">
          <path
             d="m 0,0 c -0.211,-4.449 -2.013,-15.939 15.293,-17.652 0,0 -1.014,4.642 -0.237,3.351 C 15.383,-14.854 1.322,-15.211 2.665,-1.4 2.665,-1.4 0.361,7.469 0,0 Z"
             style="fill:none;stroke:#020202;stroke-width:0.54299998;stroke-linecap:butt;stroke-linejoin:miter;stroke-miterlimit:10;stroke-dasharray:none;stroke-opacity:1"
             id="path2348"
             inkscape:connector-curvature="0" />
        </g>
        <g
           id="g2350"
           transform="translate(543.9883,378.6318)">
          <path
             d="m 0,0 c -0.01,-5.35 -1.516,-14.32 13.053,-16.223 0,0 -0.667,4.223 0.01,2.981 C 13.302,-13.68 1.584,-14.779 2.711,-2.084 2.711,-2.084 0.012,7.162 0,0"
             style="fill:#f5cc00;fill-opacity:1;fill-rule:nonzero;stroke:none"
             id="path2352"
             inkscape:connector-curvature="0" />
        </g>
        <g
           id="g2354"
           transform="translate(543.9883,378.6318)">
          <path
             d="m 0,0 c -0.01,-5.35 -1.516,-14.32 13.053,-16.223 0,0 -0.667,4.223 0.01,2.981 C 13.302,-13.68 1.584,-14.779 2.711,-2.084 2.711,-2.084 0.012,7.162 0,0 Z"
             style="fill:none;stroke:#020202;stroke-width:0.498;stroke-linecap:butt;stroke-linejoin:miter;stroke-miterlimit:10;stroke-dasharray:none;stroke-opacity:1"
             id="path2356"
             inkscape:connector-curvature="0" />
        </g>
        <g
           id="g2358"
           transform="translate(549.9287,376.5439)">
          <path
             d="M 0,0 C 0,0 -2.567,-9.953 6.787,-8.986"
             style="fill:#f5cc00;fill-opacity:1;fill-rule:nonzero;stroke:#020202;stroke-width:0.498;stroke-linecap:butt;stroke-linejoin:miter;stroke-miterlimit:10;stroke-dasharray:none;stroke-opacity:1"
             id="path2360"
             inkscape:connector-curvature="0" />
        </g>
      </g>
    </g>
    <g
       transform="matrix(0.35277777,0,0,-0.35277777,-97.590051,224.5793)"
       id="g2362">
      <g
         id="g2364"
         clip-path="url(#clipPath2368)">
        <g
           id="g2370"
           transform="translate(552.5488,374.6084)">
          <path
             d="m 0,0 c 0,0 -1.855,-3.566 1.139,-7.242 l 0.679,-6.365 -5.558,-2.096 -9.59,5.652 -1.422,11.705 9.537,-0.162 z"
             style="fill:none;stroke:#020202;stroke-width:0.498;stroke-linecap:butt;stroke-linejoin:miter;stroke-miterlimit:10;stroke-dasharray:none;stroke-opacity:1"
             id="path2372"
             inkscape:connector-curvature="0" />
        </g>
        <g
           id="g2374"
           transform="translate(533.9375,369.6846)">
          <path
             d="m 0,0 c 0,-0.41 -0.327,-0.744 -0.732,-0.744 -0.407,0 -0.737,0.334 -0.737,0.744 0,0.412 0.33,0.746 0.737,0.746 C -0.327,0.746 0,0.412 0,0"
             style="fill:#171717;fill-opacity:1;fill-rule:nonzero;stroke:none"
             id="path2376"
             inkscape:connector-curvature="0" />
        </g>
        <g
           id="g2378"
           transform="translate(530.6699,362.3271)">
          <path
             d="m 0,0 c 1.505,0.314 3.508,0 3.508,0 2.445,-0.266 3.168,0.855 3.168,0.855 0,0 -0.606,-0.511 -3.168,0.034 C 0.947,1.434 0,1.297 0,1.297 Z"
             style="fill:#171717;fill-opacity:1;fill-rule:nonzero;stroke:none"
             id="path2380"
             inkscape:connector-curvature="0" />
        </g>
        <g
           id="g2382"
           transform="translate(529.8379,364.7471)">
          <path
             d="M 0,0 H 2.141"
             style="fill:none;stroke:#000000;stroke-width:0.551;stroke-linecap:butt;stroke-linejoin:miter;stroke-miterlimit:10;stroke-dasharray:none;stroke-opacity:1"
             id="path2384"
             inkscape:connector-curvature="0" />
        </g>
        <g
           id="g2386"
           transform="translate(511.502,345.0361)">
          <path
             d="M 0,0 H 6.998 C 6.998,0 8.81,-9.193 0,-13.559 Z"
             style="fill:#ffffff;fill-opacity:1;fill-rule:nonzero;stroke:none"
             id="path2388"
             inkscape:connector-curvature="0" />
        </g>
      </g>
    </g>
    <g
       transform="matrix(0.35277777,0,0,-0.35277777,-97.590051,224.5793)"
       id="g2390">
      <g
         id="g2392"
         clip-path="url(#clipPath2396)">
        <g
           id="g2398"
           transform="translate(510.2187,342.1104)">
          <path
             d="M 0,0 H 8.571 V -3.504 H 0.223 L 0.543,-7.23 H 7.596 L 6.49,-10.211 0,-10.238"
             style="fill:#ffffff;fill-opacity:1;fill-rule:nonzero;stroke:#000000;stroke-width:0.66900003;stroke-linecap:butt;stroke-linejoin:miter;stroke-miterlimit:10;stroke-dasharray:none;stroke-opacity:1"
             id="path2400"
             inkscape:connector-curvature="0" />
        </g>
      </g>
    </g>
    <g
       id="g2410"
       transform="matrix(0.35277777,0,0,-0.35277777,82.856483,102.85824)">
      <path
         d="M 0,0 H 6.998 C 6.998,0 8.81,-9.193 0,-13.559 Z"
         style="fill:none;stroke:#000000;stroke-width:0.551;stroke-linecap:round;stroke-linejoin:round;stroke-miterlimit:10;stroke-dasharray:none;stroke-opacity:1"
         id="path2412"
         inkscape:connector-curvature="0" />
    </g>
    <g
       id="g2414"
       transform="matrix(0.35277777,0,0,-0.35277777,90.433269,97.110432)">
      <path
         d="M 0,0 -2.031,0.049"
         style="fill:none;stroke:#000000;stroke-width:0.54000002;stroke-linecap:butt;stroke-linejoin:miter;stroke-miterlimit:10;stroke-dasharray:none;stroke-opacity:1"
         id="path2416"
         inkscape:connector-curvature="0" />
    </g>
    <g
       id="g2418"
       transform="matrix(0.35277777,0,0,-0.35277777,96.070127,97.880758)">
      <path
         d="M 0,0 C 0,0 6.839,-1.666 7.562,3.658 8.013,6.986 5.273,9.568 1.898,9.01 V 5.971 L 4.336,4.258 4.901,2.883 3.788,1.164 Z"
         style="fill:#f5cc00;fill-opacity:1;fill-rule:nonzero;stroke:none"
         id="path2420"
         inkscape:connector-curvature="0" />
    </g>
    <g
       id="g2422"
       transform="matrix(0.35277777,0,0,-0.35277777,96.070127,97.880758)">
      <path
         d="M 0,0 C 0,0 6.839,-1.666 7.562,3.658 8.013,6.986 5.273,9.568 1.898,9.01 V 5.971 L 4.336,4.258 4.901,2.883 3.788,1.164 Z"
         style="fill:none;stroke:#020202;stroke-width:0.43599999;stroke-linecap:butt;stroke-linejoin:miter;stroke-miterlimit:10;stroke-dasharray:none;stroke-opacity:1"
         id="path2424"
         inkscape:connector-curvature="0" />
    </g>
    <g
       id="g2426"
       transform="matrix(0.35277777,0,0,-0.35277777,91.513298,91.847692)">
      <path
         d="m 0,0 c 0,0 -1.975,-14.85 11.635,-18.27 1.627,-0.408 6.582,-0.699 7.025,4.043 0.285,3.059 -2.988,5.018 -5.508,4.5 l 0.121,-2.502 c 0,0 2.729,0.375 2.637,-2.021 0,0 -0.281,-2.068 -3.262,-1.547 0,0 -11.196,1.795 -10.085,15.912 z"
         style="fill:#f5cc00;fill-opacity:1;fill-rule:nonzero;stroke:none"
         id="path2428"
         inkscape:connector-curvature="0" />
    </g>
    <g
       id="g2430"
       transform="matrix(0.35277777,0,0,-0.35277777,91.513298,91.847692)">
      <path
         d="m 0,0 c 0,0 -1.975,-14.85 11.635,-18.27 1.627,-0.408 6.582,-0.699 7.025,4.043 0.285,3.059 -2.988,5.018 -5.508,4.5 l 0.121,-2.502 c 0,0 2.729,0.375 2.637,-2.021 0,0 -0.281,-2.068 -3.262,-1.547 0,0 -11.196,1.795 -10.085,15.912 z"
         style="fill:none;stroke:#020202;stroke-width:0.551;stroke-linecap:butt;stroke-linejoin:miter;stroke-miterlimit:10;stroke-dasharray:none;stroke-opacity:1"
         id="path2432"
         inkscape:connector-curvature="0" />
    </g>
    <g
       id="g2434"
       transform="matrix(0.35277777,0,0,-0.35277777,87.806025,89.477486)">
      <path
         d="m 0,0 4.656,-8.742 c 0,0 13.231,3.568 22.299,0.072 l 3.274,8.793 C 30.229,0.123 16.567,5.373 0,0"
         style="fill:#020202;fill-opacity:1;fill-rule:nonzero;stroke:none"
         id="path2436"
         inkscape:connector-curvature="0" />
    </g>
    <g
       id="g2438"
       transform="matrix(0.35277777,0,0,-0.35277777,87.806025,89.477486)">
      <path
         d="m 0,0 4.656,-8.742 c 0,0 13.231,3.568 22.299,0.072 l 3.274,8.793 C 30.229,0.123 16.567,5.373 0,0 Z"
         style="fill:none;stroke:#000000;stroke-width:0.551;stroke-linecap:butt;stroke-linejoin:miter;stroke-miterlimit:10;stroke-dasharray:none;stroke-opacity:1"
         id="path2440"
         inkscape:connector-curvature="0" />
    </g>
    <g
       id="g2442"
       transform="matrix(0.35277777,0,0,-0.35277777,87.956592,89.567725)">
      <path
         d="m 0,0 3.209,-6.584 c 0,0 13.154,2.902 23.993,0.02 l 2.431,6.441 C 29.633,-0.123 15.824,5.07 0,0"
         style="fill:#ae2a20;fill-opacity:1;fill-rule:nonzero;stroke:none"
         id="path2444"
         inkscape:connector-curvature="0" />
    </g>
    <g
       id="g2446"
       transform="matrix(0.35277777,0,0,-0.35277777,87.956592,89.567725)">
      <path
         d="m 0,0 3.209,-6.584 c 0,0 13.154,2.902 23.993,0.02 l 2.431,6.441 C 29.633,-0.123 15.824,5.07 0,0 Z"
         style="fill:none;stroke:#000000;stroke-width:0.551;stroke-linecap:butt;stroke-linejoin:miter;stroke-miterlimit:10;stroke-dasharray:none;stroke-opacity:1"
         id="path2448"
         inkscape:connector-curvature="0" />
    </g>
    <g
       id="g2450"
       transform="matrix(0.35277777,0,0,-0.35277777,88.869544,89.924666)">
      <path
         d="m 0,0 1.848,-3.59 c 0,0 2.411,0.641 5.269,0.873 L 6.754,1.084"
         style="fill:#ae2a20;fill-opacity:1;fill-rule:nonzero;stroke:#000000;stroke-width:0.551;stroke-linecap:butt;stroke-linejoin:miter;stroke-miterlimit:10;stroke-dasharray:none;stroke-opacity:1"
         id="path2452"
         inkscape:connector-curvature="0" />
    </g>
    <g
       id="g2454"
       transform="matrix(0.35277777,0,0,-0.35277777,97.585626,89.814422)">
      <path
         d="m 0,0 -1.293,-3.545 c 0,0 -3.245,0.367 -6.103,0.602 l 0.086,3.798"
         style="fill:#ae2a20;fill-opacity:1;fill-rule:nonzero;stroke:#000000;stroke-width:0.551;stroke-linecap:butt;stroke-linejoin:miter;stroke-miterlimit:10;stroke-dasharray:none;stroke-opacity:1"
         id="path2456"
         inkscape:connector-curvature="0" />
    </g>
    <g
       id="g2458"
       transform="matrix(0.35277777,0,0,-0.35277777,92.036255,89.542256)">
      <path
         d="m 0,0 0.281,-3.607 h 5.926 v 3.75"
         style="fill:#ae2a20;fill-opacity:1;fill-rule:nonzero;stroke:#000000;stroke-width:0.551;stroke-linecap:butt;stroke-linejoin:miter;stroke-miterlimit:10;stroke-dasharray:none;stroke-opacity:1"
         id="path2460"
         inkscape:connector-curvature="0" />
    </g>
    <g
       id="g2462"
       transform="matrix(0.35277777,0,0,-0.35277777,88.998381,107.11704)">
      <path
         d="M 0,0 H 3.182 L 6.286,2.23 H 3.082 Z"
         style="fill:#000000;fill-opacity:1;fill-rule:nonzero;stroke:none"
         id="path2464"
         inkscape:connector-curvature="0" />
    </g>
    <g
       id="g2466"
       transform="matrix(0.35277777,0,0,-0.35277777,88.998381,107.11704)">
      <path
         d="M 0,0 H 3.182 L 6.286,2.23 H 3.082 Z"
         style="fill:none;stroke:#020202;stroke-width:0.551;stroke-linecap:butt;stroke-linejoin:miter;stroke-miterlimit:10;stroke-dasharray:none;stroke-opacity:1"
         id="path2468"
         inkscape:connector-curvature="0" />
    </g>
    <g
       id="g2470"
       transform="matrix(0.35277777,0,0,-0.35277777,90.731258,105.7404)">
      <path
         d="M 0,0 H 3.182 L 6.286,2.232 H 3.083 Z"
         style="fill:#000000;fill-opacity:1;fill-rule:nonzero;stroke:none"
         id="path2472"
         inkscape:connector-curvature="0" />
    </g>
    <g
       id="g2474"
       transform="matrix(0.35277777,0,0,-0.35277777,90.731258,105.7404)">
      <path
         d="M 0,0 H 3.182 L 6.286,2.232 H 3.083 Z"
         style="fill:none;stroke:#020202;stroke-width:0.551;stroke-linecap:butt;stroke-linejoin:miter;stroke-miterlimit:10;stroke-dasharray:none;stroke-opacity:1"
         id="path2476"
         inkscape:connector-curvature="0" />
    </g>
    <g
       id="g2478"
       transform="matrix(0.35277777,0,0,-0.35277777,92.541326,104.43815)">
      <path
         d="M 0,0 H 3.18 L 6.287,2.232 H 3.083 Z"
         style="fill:#000000;fill-opacity:1;fill-rule:nonzero;stroke:none"
         id="path2480"
         inkscape:connector-curvature="0" />
    </g>
    <g
       id="g2482"
       transform="matrix(0.35277777,0,0,-0.35277777,92.541326,104.43815)">
      <path
         d="M 0,0 H 3.18 L 6.287,2.232 H 3.083 Z"
         style="fill:none;stroke:#020202;stroke-width:0.551;stroke-linecap:butt;stroke-linejoin:miter;stroke-miterlimit:10;stroke-dasharray:none;stroke-opacity:1"
         id="path2484"
         inkscape:connector-curvature="0" />
    </g>
    <g
       id="g2486"
       transform="matrix(0.35277777,0,0,-0.35277777,94.274207,103.15658)">
      <path
         d="M 0,0 H 3.183 L 6.287,2.23 H 3.084 Z"
         style="fill:#000000;fill-opacity:1;fill-rule:nonzero;stroke:none"
         id="path2488"
         inkscape:connector-curvature="0" />
    </g>
    <g
       id="g2490"
       transform="matrix(0.35277777,0,0,-0.35277777,94.274207,103.15658)">
      <path
         d="M 0,0 H 3.183 L 6.287,2.23 H 3.084 Z"
         style="fill:none;stroke:#020202;stroke-width:0.551;stroke-linecap:butt;stroke-linejoin:miter;stroke-miterlimit:10;stroke-dasharray:none;stroke-opacity:1"
         id="path2492"
         inkscape:connector-curvature="0" />
    </g>
    <g
       id="g2494"
       transform="matrix(0.35277777,0,0,-0.35277777,96.056017,101.82954)">
      <path
         d="M 0,0 H 2.904 L 5.73,1.959 4.751,3.598 Z"
         style="fill:#000000;fill-opacity:1;fill-rule:nonzero;stroke:none"
         id="path2496"
         inkscape:connector-curvature="0" />
    </g>
    <g
       id="g2498"
       transform="matrix(0.35277777,0,0,-0.35277777,96.056017,101.82954)">
      <path
         d="M 0,0 H 2.904 L 5.73,1.959 4.751,3.598 Z"
         style="fill:none;stroke:#020202;stroke-width:0.551;stroke-linecap:butt;stroke-linejoin:miter;stroke-miterlimit:10;stroke-dasharray:none;stroke-opacity:1"
         id="path2500"
         inkscape:connector-curvature="0" />
    </g>
    <g
       id="g2502"
       transform="matrix(0.35277777,0,0,-0.35277777,94.395809,106.7553)">
      <path
         d="M 0,0 11.025,7.986 V 0 Z"
         style="fill:#000000;fill-opacity:1;fill-rule:nonzero;stroke:none"
         id="path2504"
         inkscape:connector-curvature="0" />
    </g>
    <g
       id="g2506"
       transform="matrix(0.35277777,0,0,-0.35277777,94.395809,106.7553)">
      <path
         d="M 0,0 11.025,7.986 V 0 Z"
         style="fill:none;stroke:#020202;stroke-width:0.48800001;stroke-linecap:butt;stroke-linejoin:miter;stroke-miterlimit:10;stroke-dasharray:none;stroke-opacity:1"
         id="path2508"
         inkscape:connector-curvature="0" />
    </g>
    <g
       id="g2510"
       transform="matrix(0.35277777,0,0,-0.35277777,95.706661,106.27507)">
      <path
         d="M 0,0 5.943,4.1 V 0 Z"
         style="fill:#f5cc00;fill-opacity:1;fill-rule:nonzero;stroke:none"
         id="path2512"
         inkscape:connector-curvature="0" />
    </g>
    <g
       id="g2514"
       transform="matrix(0.35277777,0,0,-0.35277777,95.706661,106.27507)">
      <path
         d="M 0,0 5.943,4.1 V 0 Z"
         style="fill:none;stroke:#020202;stroke-width:0.47099999;stroke-linecap:butt;stroke-linejoin:miter;stroke-miterlimit:10;stroke-dasharray:none;stroke-opacity:1"
         id="path2516"
         inkscape:connector-curvature="0" />
    </g>
    <g
       id="g2518"
       transform="matrix(0.35277777,0,0,-0.35277777,96.350551,99.124441)">
      <path
         d="m 0,0 c 0,-0.453 -0.375,-0.82 -0.835,-0.82 -0.461,0 -0.836,0.367 -0.836,0.82 0,0.453 0.375,0.82 0.836,0.82 C -0.375,0.82 0,0.453 0,0"
         style="fill:#ffffff;fill-opacity:1;fill-rule:nonzero;stroke:none"
         id="path2520"
         inkscape:connector-curvature="0" />
    </g>
    <g
       id="g2522"
       transform="matrix(0.35277777,0,0,-0.35277777,96.350551,99.124441)">
      <path
         d="m 0,0 c 0,-0.453 -0.375,-0.82 -0.835,-0.82 -0.461,0 -0.836,0.367 -0.836,0.82 0,0.453 0.375,0.82 0.836,0.82 C -0.375,0.82 0,0.453 0,0 Z"
         style="fill:none;stroke:#000000;stroke-width:0.373;stroke-linecap:butt;stroke-linejoin:miter;stroke-miterlimit:10;stroke-dasharray:none;stroke-opacity:1"
         id="path2524"
         inkscape:connector-curvature="0" />
    </g>
    <g
       id="g2526"
       transform="matrix(0.35277777,0,0,-0.35277777,95.105176,100.0684)">
      <path
         d="m 0,0 c 0,-0.453 -0.376,-0.818 -0.836,-0.818 -0.461,0 -0.834,0.365 -0.834,0.818 0,0.453 0.373,0.82 0.834,0.82 C -0.376,0.82 0,0.453 0,0"
         style="fill:#ffffff;fill-opacity:1;fill-rule:nonzero;stroke:none"
         id="path2528"
         inkscape:connector-curvature="0" />
    </g>
    <g
       id="g2530"
       transform="matrix(0.35277777,0,0,-0.35277777,95.105176,100.0684)">
      <path
         d="m 0,0 c 0,-0.453 -0.376,-0.818 -0.836,-0.818 -0.461,0 -0.834,0.365 -0.834,0.818 0,0.453 0.373,0.82 0.834,0.82 C -0.376,0.82 0,0.453 0,0 Z"
         style="fill:none;stroke:#000000;stroke-width:0.373;stroke-linecap:butt;stroke-linejoin:miter;stroke-miterlimit:10;stroke-dasharray:none;stroke-opacity:1"
         id="path2532"
         inkscape:connector-curvature="0" />
    </g>
    <g
       id="g2534"
       transform="matrix(0.35277777,0,0,-0.35277777,93.833906,101.01991)">
      <path
         d="m 0,0 c 0,-0.451 -0.375,-0.82 -0.836,-0.82 -0.459,0 -0.832,0.369 -0.832,0.82 0,0.453 0.373,0.82 0.832,0.82 C -0.375,0.82 0,0.453 0,0"
         style="fill:#ffffff;fill-opacity:1;fill-rule:nonzero;stroke:none"
         id="path2536"
         inkscape:connector-curvature="0" />
    </g>
    <g
       id="g2538"
       transform="matrix(0.35277777,0,0,-0.35277777,93.833906,101.01991)">
      <path
         d="m 0,0 c 0,-0.451 -0.375,-0.82 -0.836,-0.82 -0.459,0 -0.832,0.369 -0.832,0.82 0,0.453 0.373,0.82 0.832,0.82 C -0.375,0.82 0,0.453 0,0 Z"
         style="fill:none;stroke:#000000;stroke-width:0.373;stroke-linecap:butt;stroke-linejoin:miter;stroke-miterlimit:10;stroke-dasharray:none;stroke-opacity:1"
         id="path2540"
         inkscape:connector-curvature="0" />
    </g>
    <g
       id="g2542"
       transform="matrix(0.35277777,0,0,-0.35277777,92.39249,102.1561)">
      <path
         d="m 0,0 c 0,-0.457 -0.373,-0.822 -0.834,-0.822 -0.46,0 -0.832,0.365 -0.832,0.822 0,0.451 0.372,0.818 0.832,0.818 C -0.373,0.818 0,0.451 0,0"
         style="fill:#ffffff;fill-opacity:1;fill-rule:nonzero;stroke:none"
         id="path2544"
         inkscape:connector-curvature="0" />
    </g>
    <g
       id="g2546"
       transform="matrix(0.35277777,0,0,-0.35277777,92.39249,102.1561)">
      <path
         d="m 0,0 c 0,-0.457 -0.373,-0.822 -0.834,-0.822 -0.46,0 -0.832,0.365 -0.832,0.822 0,0.451 0.372,0.818 0.832,0.818 C -0.373,0.818 0,0.451 0,0 Z"
         style="fill:none;stroke:#000000;stroke-width:0.373;stroke-linecap:butt;stroke-linejoin:miter;stroke-miterlimit:10;stroke-dasharray:none;stroke-opacity:1"
         id="path2548"
         inkscape:connector-curvature="0" />
    </g>
    <g
       id="g2550"
       transform="matrix(0.35277777,0,0,-0.35277777,90.879391,103.22686)">
      <path
         d="m 0,0 c 0,-0.451 -0.375,-0.816 -0.836,-0.816 -0.457,0 -0.835,0.365 -0.835,0.816 0,0.449 0.378,0.82 0.835,0.82 C -0.375,0.82 0,0.449 0,0"
         style="fill:#ffffff;fill-opacity:1;fill-rule:nonzero;stroke:none"
         id="path2552"
         inkscape:connector-curvature="0" />
    </g>
    <g
       id="g2554"
       transform="matrix(0.35277777,0,0,-0.35277777,90.879391,103.22686)">
      <path
         d="m 0,0 c 0,-0.451 -0.375,-0.816 -0.836,-0.816 -0.457,0 -0.835,0.365 -0.835,0.816 0,0.449 0.378,0.82 0.835,0.82 C -0.375,0.82 0,0.449 0,0 Z"
         style="fill:none;stroke:#000000;stroke-width:0.373;stroke-linecap:butt;stroke-linejoin:miter;stroke-miterlimit:10;stroke-dasharray:none;stroke-opacity:1"
         id="path2556"
         inkscape:connector-curvature="0" />
    </g>
    <g
       id="g2558"
       transform="matrix(0.35277777,0,0,-0.35277777,89.437975,104.36305)">
      <path
         d="m 0,0 c 0,-0.455 -0.373,-0.822 -0.836,-0.822 -0.458,0 -0.833,0.367 -0.833,0.822 0,0.451 0.375,0.818 0.833,0.818 C -0.373,0.818 0,0.451 0,0"
         style="fill:#ffffff;fill-opacity:1;fill-rule:nonzero;stroke:none"
         id="path2560"
         inkscape:connector-curvature="0" />
    </g>
    <g
       id="g2562"
       transform="matrix(0.35277777,0,0,-0.35277777,89.437975,104.36305)">
      <path
         d="m 0,0 c 0,-0.455 -0.373,-0.822 -0.836,-0.822 -0.458,0 -0.833,0.367 -0.833,0.822 0,0.451 0.375,0.818 0.833,0.818 C -0.373,0.818 0,0.451 0,0 Z"
         style="fill:none;stroke:#000000;stroke-width:0.373;stroke-linecap:butt;stroke-linejoin:miter;stroke-miterlimit:10;stroke-dasharray:none;stroke-opacity:1"
         id="path2564"
         inkscape:connector-curvature="0" />
    </g>
    <g
       id="g2566"
       transform="matrix(0.35277777,0,0,-0.35277777,84.874937,98.335524)">
      <path
         d="M 0,0 C 0,0.797 -0.911,1.443 -2.086,1.443 -3.261,1.443 -4.177,0.797 -4.177,0 V -12.609 H 0 Z"
         style="fill:#000000;fill-opacity:1;fill-rule:nonzero;stroke:none"
         id="path2568"
         inkscape:connector-curvature="0" />
    </g>
    <g
       id="g2570"
       transform="matrix(0.35277777,0,0,-0.35277777,84.874937,98.335524)">
      <path
         d="M 0,0 C 0,0.797 -0.911,1.443 -2.086,1.443 -3.261,1.443 -4.177,0.797 -4.177,0 V -12.609 H 0 Z"
         style="fill:none;stroke:#020202;stroke-width:0.43799999;stroke-linecap:butt;stroke-linejoin:miter;stroke-miterlimit:10;stroke-dasharray:none;stroke-opacity:1"
         id="path2572"
         inkscape:connector-curvature="0" />
    </g>
    <g
       id="g2574"
       transform="matrix(0.35277777,0,0,-0.35277777,84.328202,98.274175)">
      <path
         d="M 0,0 C 0,0.201 -0.234,0.367 -0.536,0.367 -0.835,0.367 -1.07,0.201 -1.07,0 V -11.883 H 0 Z"
         style="fill:#ffffff;fill-opacity:1;fill-rule:nonzero;stroke:none"
         id="path2576"
         inkscape:connector-curvature="0" />
    </g>
    <path
       d="m 83.942333,96.597175 h 0.393347 v 1.163108 h -0.393347 z"
       style="fill:#000000;fill-opacity:1;fill-rule:nonzero;stroke:#020202;stroke-width:0.18485555;stroke-linecap:butt;stroke-linejoin:miter;stroke-miterlimit:10;stroke-dasharray:none;stroke-opacity:1"
       id="path2578"
       inkscape:connector-curvature="0" />
    <g
       id="g2580"
       transform="matrix(0.35277777,0,0,-0.35277777,84.168359,95.800604)">
      <path
         d="M 0,0 1.83,-4.057 H -1.981 Z"
         style="fill:#000000;fill-opacity:1;fill-rule:nonzero;stroke:none"
         id="path2582"
         inkscape:connector-curvature="0" />
    </g>
    <g
       id="g2584"
       transform="matrix(0.35277777,0,0,-0.35277777,84.168359,95.800604)">
      <path
         d="M 0,0 1.83,-4.057 H -1.981 Z"
         style="fill:none;stroke:#020202;stroke-width:0.50400001;stroke-linecap:butt;stroke-linejoin:miter;stroke-miterlimit:10;stroke-dasharray:none;stroke-opacity:1"
         id="path2586"
         inkscape:connector-curvature="0" />
    </g>
    <g
       id="g2588"
       transform="matrix(0.35277777,0,0,-0.35277777,84.830838,90.898227)">
      <path
         d="m 0,0 c 0,0 -5.236,-4.922 -5.35,-7.523 0,-1.442 1.215,-2.614 2.715,-2.614 0.645,0 1.233,0.219 1.696,0.58 -0.125,-0.964 -0.334,-2.119 -0.641,-2.39 h 3.16 c -0.26,0.228 -0.496,1.537 -0.625,2.377 0.461,-0.354 1.043,-0.567 1.678,-0.567 1.498,0 2.715,1.172 2.715,2.614 C 5.234,-4.922 0,0 0,0"
         style="fill:#171717;fill-opacity:1;fill-rule:nonzero;stroke:none"
         id="path2590"
         inkscape:connector-curvature="0" />
    </g>
  </g>
</svg>
