<svg xmlns="http://www.w3.org/2000/svg" width="77.901" height="108.452" viewBox="0 0 20.611 28.695"><defs><clipPath clipPathUnits="userSpaceOnUse" id="a"><path d="M603.719 169.393l-18.188-12.443-3.277-13.404h45.775V162.3l-5.045 8.488-9.962 4.554z"/></clipPath><clipPath clipPathUnits="userSpaceOnUse" id="b"><path d="M603.719 169.393l-3.553-2.43-1.223-9.858 20.528 13.664.425 1.431-6.874 3.142z"/></clipPath><clipPath clipPathUnits="userSpaceOnUse" id="c"><path d="M603.719 169.393l-18.188-12.443-3.277-13.404h45.775V162.3l-5.045 8.488-9.962 4.554z"/></clipPath><clipPath clipPathUnits="userSpaceOnUse" id="d"><path d="M591.023 143.546h15.237l21.769 16.382v2.372l-3.62 6.092z"/></clipPath><clipPath clipPathUnits="userSpaceOnUse" id="e"><path d="M603.719 169.393l-18.188-12.443-3.277-13.404h45.775V162.3l-5.045 8.488-9.962 4.554z"/></clipPath><clipPath clipPathUnits="userSpaceOnUse" id="f"><path d="M592.548 161.751l-2.8-18.205h5.365l3.218 22.161z"/></clipPath><clipPath clipPathUnits="userSpaceOnUse" id="g"><path d="M603.719 169.393l-18.188-12.443-3.277-13.404h45.775V162.3l-5.045 8.488-9.962 4.554z"/></clipPath><clipPath clipPathUnits="userSpaceOnUse" id="h"><path d="M0 842.979h701.352V0H0z"/></clipPath><clipPath clipPathUnits="userSpaceOnUse" id="i"><path d="M609.666 176.656l9.588-5.653 5.555 2.096-.678 6.363c-2.995 3.674-1.138 7.242-1.138 7.242l-5.214 1.492-9.535.16z"/></clipPath><clipPath clipPathUnits="userSpaceOnUse" id="j"><path d="M0 842.979h701.352V0H0z"/></clipPath><clipPath clipPathUnits="userSpaceOnUse" id="k"><path d="M581.955 157.137v-13.556c8.808 4.366 6.997 13.556 6.997 13.556z"/></clipPath><clipPath clipPathUnits="userSpaceOnUse" id="l"><path d="M0 842.979h701.352V0H0z"/></clipPath><clipPath clipPathUnits="userSpaceOnUse" id="m"><path d="M583.692 173.95s-.192-.57-.192-.898v-15.631h4.176v15.631c0 .328-.174.898-.174.898l-1.828 3.998z"/></clipPath></defs><path d="M20.5 26.679a1.91 1.91 0 0 1-1.904 1.904H2.016A1.91 1.91 0 0 1 .111 26.68V2.016A1.91 1.91 0 0 1 2.016.111h16.58A1.91 1.91 0 0 1 20.5 2.016z" fill="#fafafa" fill-rule="evenodd"/><path d="M20.5 26.679a1.91 1.91 0 0 1-1.904 1.904H2.016A1.91 1.91 0 0 1 .111 26.68V2.016A1.91 1.91 0 0 1 2.016.111h16.58A1.91 1.91 0 0 1 20.5 2.016z" fill="none" stroke="#ccc" stroke-width=".2222514" stroke-miterlimit="3.864"/><path d="M3.98 6.269l-.313.587v1.972H2.658v-6.42h1.01v2.796l1.32-2.797h1.01L4.593 5.27l1.403 3.56H4.961z" fill="green"/><path d="M15.551 16.515s2.32.512 2.486-1.46c.103-1.233-.896-2.142-2.067-1.885l.05 1.12.88.592.221.499-.361.65z" fill="#fff"/><path d="M15.551 16.515s2.32.512 2.486-1.46c.103-1.233-.896-2.142-2.067-1.885l.05 1.12.88.592.221.499-.361.65z" fill="none" stroke="#000" stroke-width=".23071812" stroke-miterlimit="10"/><path d="M9.856 17.521l-6.416 4.39-1.157 4.729h16.149v-6.616l-1.78-2.995-3.514-1.606z" fill="green"/><g clip-path="url(#a)" transform="matrix(.35278 0 0 -.35278 -203.123 77.28)"><path d="M619.47 170.769l-20.527-13.664 2.376 19.143 15.539 2.623 4.466-1.866z" fill="#f7cc10"/></g><g clip-path="url(#b)" transform="matrix(.35278 0 0 -.35278 -203.123 77.28)"><path d="M616.188 172.856l-12.661-8.365 1.366 14.857 9.77-.83z" fill="#b32825"/><path d="M616.188 172.856l-12.661-8.365 1.366 14.857 9.77-.83z" fill="none" stroke="#000" stroke-width=".579" stroke-miterlimit="10"/></g><g clip-path="url(#c)" transform="matrix(.35278 0 0 -.35278 -203.123 77.28)"><path d="M619.47 170.769l-20.527-13.664 2.376 19.143 15.539 2.623 4.466-1.866z" fill="none" stroke="#020202" stroke-width=".435" stroke-miterlimit="10"/><path d="M588.09 141.362l38.67 28.78 4.667-7.657-30.82-23.193z" fill="#f7cc10"/></g><g clip-path="url(#d)" transform="matrix(.35278 0 0 -.35278 -203.123 77.28)"><path d="M601.886 142.032l31.394 24.041-3.241 4.246-38.54-28.465z" fill="#b32825"/><path d="M601.886 142.032l31.394 24.041-3.241 4.246-38.54-28.465z" fill="none" stroke="#000" stroke-width=".579" stroke-miterlimit="10"/></g><g clip-path="url(#e)" transform="matrix(.35278 0 0 -.35278 -203.123 77.28)"><path d="M588.09 141.362l38.67 28.78 4.667-7.657-30.82-23.193z" fill="none" stroke="#020202" stroke-width=".551" stroke-miterlimit="10"/><path d="M593.275 166.48l-3.89-25.297h5.384l3.977 27.379z" fill="#fff"/></g><g clip-path="url(#f)" transform="matrix(.35278 0 0 -.35278 -203.123 77.28)"><path d="M595.326 167.913l-4.246-26.369h5.877l4.34 28.54z" fill="#b32825"/><path d="M595.326 167.913l-4.246-26.369h5.877l4.34 28.54z" fill="none" stroke="#000" stroke-width=".579" stroke-miterlimit="10"/><path d="M596.96 167.913l-4.245-26.369h5.877l4.339 28.54z" fill="#fff"/><path d="M596.96 167.913l-4.245-26.369h5.877l4.339 28.54z" fill="none" stroke="#000" stroke-width=".551" stroke-miterlimit="10"/></g><g clip-path="url(#g)" transform="matrix(.35278 0 0 -.35278 -203.123 77.28)"><path d="M593.275 166.48l-3.89-25.297h5.384l3.977 27.379z" fill="none" stroke="#000" stroke-width=".551" stroke-miterlimit="10"/></g><g clip-path="url(#h)" transform="matrix(.35278 0 0 -.35278 -203.123 77.28)"><path d="M603.719 169.394l-18.187-12.443-3.278-13.405h45.776V162.3l-5.045 8.489-9.962 4.554z" fill="none" stroke="#000" stroke-width=".579" stroke-miterlimit="10"/><path d="M600.947 188.114v-3.787l-2.508-7.484h2.68v-7.403s10.926-2.564 14.16 5.8v15.356s-11.675-.304-14.332-2.482" fill="#fff"/><path d="M600.947 188.114v-3.787l-2.508-7.484h2.68v-7.403s10.926-2.564 14.16 5.8v15.356s-11.675-.304-14.332-2.482z" fill="none" stroke="#000" stroke-width=".551" stroke-miterlimit="10"/><path d="M622.992 186.704s-1.856-3.568 1.14-7.242l.676-6.363-5.554-2.096-9.588 5.652-1.422 11.701 9.535-.16z" fill="#fff"/></g><g clip-path="url(#i)" transform="matrix(.35278 0 0 -.35278 -203.123 77.28)"><path d="M611.928 189.956c-.211-4.449-2.012-15.938 15.29-17.65 0 0-1.015 4.644-.238 3.353.327-.555-13.731-.912-12.386 12.897 0 0-2.305 8.867-2.666 1.4" fill="#fff"/><path d="M611.928 189.956c-.211-4.449-2.012-15.938 15.29-17.65 0 0-1.015 4.644-.238 3.353.327-.555-13.731-.912-12.386 12.897 0 0-2.305 8.867-2.666 1.4z" fill="none" stroke="#000" stroke-width=".642" stroke-miterlimit="10"/><path d="M614.434 190.726c-.01-5.348-1.516-14.316 13.05-16.22 0 0-.667 4.222.01 2.98.239-.436-11.477-1.537-10.35 11.156 0 0-2.698 9.244-2.71 2.084" fill="#fff"/><path d="M614.434 190.726c-.01-5.348-1.516-14.316 13.05-16.22 0 0-.667 4.222.01 2.98.239-.436-11.477-1.537-10.35 11.156 0 0-2.698 9.244-2.71 2.084z" fill="none" stroke="#000" stroke-width=".642" stroke-miterlimit="10"/><path d="M620.373 188.636s-2.568-9.95 6.785-8.982" fill="#fff" stroke="#000" stroke-width=".642" stroke-miterlimit="10"/></g><g clip-path="url(#j)" transform="matrix(.35278 0 0 -.35278 -203.123 77.28)"><path d="M622.992 186.704s-1.856-3.568 1.14-7.242l.676-6.363-5.554-2.096-9.588 5.652-1.422 11.701 9.535-.16z" fill="none" stroke="#000" stroke-width=".642" stroke-miterlimit="10"/><path d="M604.387 181.78a.739.739 0 0 0-.733-.744.743.743 0 0 0-.738.744c0 .41.332.746.738.746a.74.74 0 0 0 .733-.746M601.072 174.942c1.53.127 3.71-.73 3.71-.73.811-.633.23 1.871-3.29 1.978-.61-.107-.42-1.248-.42-1.248" fill="#171717"/><path d="M600.286 176.843h2.141" fill="none" stroke="#000" stroke-width=".551" stroke-miterlimit="10"/><path d="M581.955 157.138h6.997s1.811-9.191-6.997-13.557z" fill="#fff"/></g><g clip-path="url(#k)" transform="matrix(.35278 0 0 -.35278 -203.123 77.28)"><path d="M580.672 154.214h8.57v-3.506h-8.348l.32-3.724h7.053l-1.107-2.981-6.488-.025" fill="#fff" stroke="#000" stroke-width=".669" stroke-miterlimit="10"/></g><g clip-path="url(#l)" transform="matrix(.35278 0 0 -.35278 -203.123 77.28)"><path d="M581.955 157.138h6.997s1.811-9.191-6.997-13.557z" fill="none" stroke="#000" stroke-width=".551" stroke-linecap="round" stroke-linejoin="round" stroke-miterlimit="10"/><path d="M603.426 173.427l-2.03.049" fill="none" stroke="#000" stroke-width=".54" stroke-miterlimit="10"/><path d="M605.205 191.546s-2.303-17.303 13.557-21.285c1.894-.477 7.67-.82 8.185 4.707.333 3.566-3.48 5.849-6.417 5.246l.14-2.918s3.181.437 3.072-2.352c0 0-.325-2.412-3.8-1.804 0 0-13.046 2.092-11.75 18.543z" fill="#fff"/><path d="M605.205 191.546s-2.303-17.303 13.557-21.285c1.894-.477 7.67-.82 8.185 4.707.333 3.566-3.48 5.849-6.417 5.246l.14-2.918s3.181.437 3.072-2.352c0 0-.325-2.412-3.8-1.804 0 0-13.046 2.092-11.75 18.543z" fill="none" stroke="#000" stroke-width=".642" stroke-miterlimit="10"/><path d="M597.744 194.52l3.068-8.572s10.584 2.752 22.255.263l2.11 7.78s-11.14 5.695-27.433.53" fill="#020202"/><path d="M597.744 194.52l3.068-8.572s10.584 2.752 22.255.263l2.11 7.78s-11.14 5.695-27.433.53z" fill="none" stroke="#000" stroke-width=".536" stroke-miterlimit="10"/><path d="M599.361 145.067h3.182l3.103 2.232h-3.203z" fill="#fff"/><path d="M599.361 145.067h3.182l3.103 2.232h-3.203z" fill="none" stroke="#000" stroke-width=".642" stroke-miterlimit="10"/><path d="M604.273 148.97h3.182l3.103 2.23h-3.203z" fill="#fff"/><path d="M604.273 148.97h3.182l3.103 2.23h-3.203z" fill="none" stroke="#000" stroke-width=".642" stroke-miterlimit="10"/><path d="M609.4 152.661h3.18l3.107 2.23h-3.203z" fill="#fff"/><path d="M609.4 152.661h3.18l3.107 2.23h-3.203z" fill="none" stroke="#000" stroke-width=".642" stroke-miterlimit="10"/><path d="M614.313 156.29h3.182l3.103 2.23h-3.204z" fill="#fff"/><path d="M614.313 156.29h3.182l3.103 2.23h-3.204z" fill="none" stroke="#000" stroke-width=".642" stroke-miterlimit="10"/><path d="M619.362 160.054h2.903l2.826 1.957-.979 1.639z" fill="#fff"/><path d="M619.362 160.054h2.903l2.826 1.957-.979 1.639z" fill="none" stroke="#000" stroke-width=".642" stroke-miterlimit="10"/><path d="M614.656 146.093l11.023 7.984v-7.984z"/><path d="M614.656 146.093l11.023 7.984v-7.984z" fill="none" stroke="#020202" stroke-width=".488" stroke-miterlimit="10"/><path d="M618.371 147.454l5.943 4.1v-4.1z" fill="#f7cc10"/><path d="M618.371 147.454l5.943 4.1v-4.1z" fill="none" stroke="#020202" stroke-width=".471" stroke-miterlimit="10"/><path d="M620.196 167.718a.827.827 0 0 0-.834-.818.827.827 0 0 0-.835.818c0 .453.373.82.835.82.46 0 .834-.367.834-.82" fill="#fff"/><path d="M620.196 167.718a.827.827 0 0 0-.834-.818.827.827 0 0 0-.835.818c0 .453.373.82.835.82.46 0 .834-.367.834-.82z" fill="none" stroke="#000" stroke-width=".372" stroke-miterlimit="10"/><path d="M616.667 165.044a.827.827 0 0 0-.835-.818.825.825 0 0 0-.834.818c0 .453.373.82.834.82.46 0 .835-.367.835-.82" fill="#fff"/><path d="M616.667 165.044a.827.827 0 0 0-.835-.818.825.825 0 0 0-.834.818c0 .453.373.82.834.82.46 0 .835-.367.835-.82z" fill="none" stroke="#000" stroke-width=".372" stroke-miterlimit="10"/><path d="M613.064 162.345a.828.828 0 0 0-.836-.816.826.826 0 0 0-.832.816c0 .455.373.822.832.822a.829.829 0 0 0 .836-.822" fill="#fff"/><path d="M613.064 162.345a.828.828 0 0 0-.836-.816.826.826 0 0 0-.832.816c0 .455.373.822.832.822a.829.829 0 0 0 .836-.822z" fill="none" stroke="#000" stroke-width=".372" stroke-miterlimit="10"/><path d="M608.98 159.126a.825.825 0 0 0-.833-.82.827.827 0 0 0-.834.82c0 .451.375.818.834.818a.825.825 0 0 0 .833-.818" fill="#fff"/><path d="M608.98 159.126a.825.825 0 0 0-.833-.82.827.827 0 0 0-.834.82c0 .451.375.818.834.818a.825.825 0 0 0 .833-.818z" fill="none" stroke="#000" stroke-width=".372" stroke-miterlimit="10"/><path d="M604.692 156.093a.828.828 0 0 0-.835-.818.83.83 0 0 0-.836.818c0 .449.377.82.836.82a.83.83 0 0 0 .835-.82" fill="#fff"/><path d="M604.692 156.093a.828.828 0 0 0-.835-.818.83.83 0 0 0-.836.818c0 .449.377.82.836.82a.83.83 0 0 0 .835-.82z" fill="none" stroke="#000" stroke-width=".372" stroke-miterlimit="10"/><path d="M600.607 152.872a.826.826 0 0 0-.836-.82.828.828 0 0 0-.834.82c0 .451.377.818.834.818a.827.827 0 0 0 .836-.818" fill="#fff"/><path d="M600.607 152.872a.826.826 0 0 0-.836-.82.828.828 0 0 0-.834.82c0 .451.377.818.834.818a.827.827 0 0 0 .836-.818z" fill="none" stroke="#000" stroke-width=".372" stroke-miterlimit="10"/><path d="M587.502 173.95l-1.828 3.998-1.982-3.998s-.192-.57-.192-.898v-15.63h4.176v15.63c0 .328-.174.898-.174.898"/></g><g clip-path="url(#m)" transform="matrix(.35278 0 0 -.35278 -203.123 77.28)"><path d="M589.59 182.407l-1.828 5.947-1.982-5.947s-.192-.65-.192-1.023V161.88h4.176v18.48c0 .373-.174 2.047-.174 2.047" fill="#fff"/><path d="M589.59 182.407l-1.828 5.947-1.982-5.947s-.192-.65-.192-1.023V161.88h4.176v18.48c0 .373-.174 2.047-.174 2.047z" fill="none" stroke="#020202" stroke-width=".61" stroke-miterlimit="10"/></g><path d="M4.135 15.914l-.645-1.41-.7 1.41s-.067.201-.067.317v5.514h1.473v-5.514c0-.116-.061-.317-.061-.317z" fill="none" stroke="#020202" stroke-width=".20143737999999997" stroke-miterlimit="10"/><path d="M10.383 17.672l-.044-1.905-.165-.115.002.937H8.938v.916z" fill="#171717"/><path d="M11.713 15.033s.021.457-.504 1.172c-.56.762-.902.749-.902.749v.6s1.796-.152 2.086-1.702" fill="#171717"/><path d="M18.296 6.884a.649.649 0 1 0-1.125.414l-.53.976c-.302-.074-.66-.15-1.064-.223l-.073-1.026a.647.647 0 0 0-.309-1.237.648.648 0 0 0-.38 1.138l-.39.96a18.729 18.729 0 0 0-1.226-.094l-.226-1.05a.647.647 0 0 0-.48-1.184.65.65 0 0 0-.215 1.18l-.261 1.042c-.363.009-.738.028-1.122.062l-.395-.97a.648.648 0 1 0-.688.1l-.071 1.011c-.407.064-.821.145-1.242.246l-.535-.957a.648.648 0 1 0-.67.185l1.227 3.423s4.558-1.023 8.38-.006l.942-3.4a.648.648 0 0 0 .453-.59" fill="#f7cc10"/><path d="M18.296 6.884a.649.649 0 1 0-1.125.414l-.53.976c-.302-.074-.66-.15-1.064-.223l-.073-1.026a.647.647 0 0 0-.309-1.237.648.648 0 0 0-.38 1.138l-.39.96a18.729 18.729 0 0 0-1.226-.094l-.226-1.05a.647.647 0 0 0-.48-1.184.65.65 0 0 0-.215 1.18l-.261 1.042c-.363.009-.738.028-1.122.062l-.395-.97a.648.648 0 1 0-.688.1l-.071 1.011c-.407.064-.821.145-1.242.246l-.535-.957a.648.648 0 1 0-.67.185l1.227 3.423s4.558-1.023 8.38-.006l.942-3.4a.648.648 0 0 0 .453-.59z" fill="none" stroke="#020202" stroke-width=".1534593" stroke-miterlimit="10"/><path d="M5.072 19.718v.578H2.132v-.578H4.7z"/><path d="M5.072 19.718v.578H2.132v-.578H4.7z" fill="none" stroke="#020202" stroke-width=".13299806" stroke-miterlimit="10"/><path d="M8.403 8.907l.484 1.274s.805-.226 1.812-.308l-.128-1.34M16.66 8.787l-.338 1.255s-1.206-.255-2.026-.323l.03-1.216M11.307 8.508l.115 1.271 2.14-.06-.017-1.237" fill="#f7cc10" stroke="#020202" stroke-width=".17568444" stroke-miterlimit="10"/><path d="M5.196 11.138c-.1 0-.194.02-.285.049a.961.961 0 0 0 .2-.583.964.964 0 0 0-1.926 0c0 .22.076.42.2.581a.97.97 0 0 0-.285-.047.964.964 0 0 0 0 1.927c.275 0 .52-.117.694-.3-.043.35-.14.97-.3 1.09h1.308c-.16-.12-.257-.74-.3-1.09A.96.96 0 0 0 6.16 12.1a.964.964 0 0 0-.964-.963" fill="green"/></svg>