<svg xmlns="http://www.w3.org/2000/svg" width="77.903" height="108.452" viewBox="0 0 20.612 28.695"><defs><clipPath clipPathUnits="userSpaceOnUse" id="a"><path d="M388.904 169.393l-18.189-12.443-3.276-13.404H413.215V162.3l-5.046 8.488-9.962 4.554z"/></clipPath><clipPath clipPathUnits="userSpaceOnUse" id="b"><path d="M388.904 169.393l-3.553-2.43-1.224-9.858 20.529 13.664.425 1.431-6.874 3.142z"/></clipPath><clipPath clipPathUnits="userSpaceOnUse" id="c"><path d="M388.904 169.393l-18.189-12.443-3.276-13.404H413.215V162.3l-5.046 8.488-9.962 4.554z"/></clipPath><clipPath clipPathUnits="userSpaceOnUse" id="d"><path d="M376.209 143.546h15.452l21.554 16.361v2.393l-3.621 6.091z"/></clipPath><clipPath clipPathUnits="userSpaceOnUse" id="e"><path d="M388.904 169.393l-18.189-12.443-3.276-13.404H413.215V162.3l-5.046 8.488-9.962 4.554z"/></clipPath><clipPath clipPathUnits="userSpaceOnUse" id="f"><path d="M377.733 161.751l-2.8-18.205h5.365l3.219 22.162z"/></clipPath><clipPath clipPathUnits="userSpaceOnUse" id="g"><path d="M388.904 169.393l-18.189-12.443-3.276-13.404H413.215V162.3l-5.046 8.488-9.962 4.554z"/></clipPath><clipPath clipPathUnits="userSpaceOnUse" id="h"><path d="M0 842.979h701.352V0H0z"/></clipPath><clipPath clipPathUnits="userSpaceOnUse" id="i"><path d="M394.851 176.656l9.587-5.653 5.556 2.096-.679 6.363c-2.995 3.674-1.137 7.242-1.137 7.242l-5.213 1.492-9.535.16z"/></clipPath><clipPath clipPathUnits="userSpaceOnUse" id="j"><path d="M0 842.979h701.352V0H0z"/></clipPath><clipPath clipPathUnits="userSpaceOnUse" id="k"><path d="M367.141 157.137v-13.556c8.806 4.366 6.995 13.556 6.995 13.556z"/></clipPath><clipPath clipPathUnits="userSpaceOnUse" id="l"><path d="M0 842.979h701.352V0H0z"/></clipPath><clipPath clipPathUnits="userSpaceOnUse" id="m"><path d="M368.877 173.95s-.191-.57-.191-.898v-15.631h4.175v15.631c0 .328-.175.898-.175.898l-1.828 3.998z"/></clipPath></defs><path d="M20.5 26.679a1.91 1.91 0 0 1-1.904 1.904H2.016A1.91 1.91 0 0 1 .111 26.68V2.016A1.91 1.91 0 0 1 2.016.111h16.58a1.91 1.91 0 0 1 1.905 1.905z" fill="#fafafa" fill-rule="evenodd"/><path d="M20.5 26.679a1.91 1.91 0 0 1-1.904 1.904H2.016A1.91 1.91 0 0 1 .111 26.68V2.016A1.91 1.91 0 0 1 2.016.111h16.58a1.91 1.91 0 0 1 1.905 1.905z" fill="none" stroke="#ccc" stroke-width=".2222514" stroke-miterlimit="3.864"/><path d="M3.98 6.269l-.313.587v1.972H2.66v-6.42h1.008v2.796l1.321-2.797h1.01L4.594 5.27l1.404 3.56H4.96z" fill="#00f"/><path d="M15.551 16.515s2.321.512 2.486-1.46c.103-1.233-.896-2.142-2.067-1.885l.05 1.12.88.592.221.499-.361.65z" fill="#fff"/><path d="M15.551 16.515s2.321.512 2.486-1.46c.103-1.233-.896-2.142-2.067-1.885l.05 1.12.88.592.221.499-.361.65z" fill="none" stroke="#000" stroke-width=".23071812" stroke-miterlimit="10"/><path d="M9.856 17.521l-6.416 4.39-1.156 4.729h16.149v-6.616l-1.78-2.995-3.515-1.606z" fill="#00f"/><g clip-path="url(#a)" transform="matrix(.35278 0 0 -.35278 -127.34 77.28)"><path d="M404.656 170.769l-20.529-13.664 2.377 19.143 15.54 2.623 4.464-1.866z" fill="#f7cc10"/></g><g clip-path="url(#b)" transform="matrix(.35278 0 0 -.35278 -127.34 77.28)"><path d="M401.373 172.856l-12.662-8.365 1.367 14.857 9.77-.83z" fill="#b32825"/><path d="M401.373 172.856l-12.662-8.365 1.367 14.857 9.77-.83z" fill="none" stroke="#000" stroke-width=".579" stroke-miterlimit="10"/></g><g clip-path="url(#c)" transform="matrix(.35278 0 0 -.35278 -127.34 77.28)"><path d="M404.656 170.769l-20.529-13.664 2.377 19.143 15.54 2.623 4.464-1.866z" fill="none" stroke="#020202" stroke-width=".435" stroke-miterlimit="10"/><path d="M373.275 141.362l38.67 28.78 4.666-7.657-30.307-23.006z" fill="#f7cc10"/></g><g clip-path="url(#d)" transform="matrix(.35278 0 0 -.35278 -127.34 77.28)"><path d="M386.228 141.313l32.236 24.76-3.24 4.246-39.383-29.184z" fill="#b32825"/><path d="M386.228 141.313l32.236 24.76-3.24 4.246-39.383-29.184z" fill="none" stroke="#000" stroke-width=".579" stroke-miterlimit="10"/></g><g clip-path="url(#e)" transform="matrix(.35278 0 0 -.35278 -127.34 77.28)"><path d="M373.275 141.362l38.67 28.78 4.666-7.657-30.307-23.006z" fill="none" stroke="#020202" stroke-width=".551" stroke-miterlimit="10"/><path d="M378.46 166.48l-3.891-25.297h5.386l3.977 27.379z" fill="#fff"/></g><g clip-path="url(#f)" transform="matrix(.35278 0 0 -.35278 -127.34 77.28)"><path d="M380.512 167.913l-4.246-26.369h5.876l4.34 28.54z" fill="#b32825"/><path d="M380.512 167.913l-4.246-26.369h5.876l4.34 28.54z" fill="none" stroke="#000" stroke-width=".579" stroke-miterlimit="10"/><path d="M382.147 167.913l-4.247-26.369h5.878l4.337 28.54z" fill="#fff"/><path d="M382.147 167.913l-4.247-26.369h5.878l4.337 28.54z" fill="none" stroke="#000" stroke-width=".551" stroke-miterlimit="10"/></g><g clip-path="url(#g)" transform="matrix(.35278 0 0 -.35278 -127.34 77.28)"><path d="M378.46 166.48l-3.891-25.297h5.386l3.977 27.379z" fill="none" stroke="#000" stroke-width=".551" stroke-miterlimit="10"/></g><g clip-path="url(#h)" transform="matrix(.35278 0 0 -.35278 -127.34 77.28)"><path d="M388.904 169.394l-18.188-12.443-3.277-13.405H413.215V162.3l-5.046 8.489-9.962 4.554z" fill="none" stroke="#000" stroke-width=".579" stroke-miterlimit="10"/><path d="M386.133 188.114v-3.787l-2.51-7.484h2.682v-7.403s10.926-2.564 14.16 5.8v15.356s-11.676-.304-14.332-2.482" fill="#fff"/><path d="M386.133 188.114v-3.787l-2.51-7.484h2.682v-7.403s10.926-2.564 14.16 5.8v15.356s-11.676-.304-14.332-2.482z" fill="none" stroke="#000" stroke-width=".551" stroke-miterlimit="10"/><path d="M408.178 186.704s-1.857-3.568 1.138-7.242l.678-6.363-5.555-2.096-9.588 5.652-1.421 11.701 9.535-.16z" fill="#fff"/></g><g clip-path="url(#i)" transform="matrix(.35278 0 0 -.35278 -127.34 77.28)"><path d="M397.112 189.956c-.21-4.449-2.012-15.938 15.29-17.65 0 0-1.014 4.644-.238 3.353.328-.555-13.73-.912-12.386 12.897 0 0-2.304 8.867-2.666 1.4" fill="#fff"/><path d="M397.112 189.956c-.21-4.449-2.012-15.938 15.29-17.65 0 0-1.014 4.644-.238 3.353.328-.555-13.73-.912-12.386 12.897 0 0-2.304 8.867-2.666 1.4z" fill="none" stroke="#000" stroke-width=".642" stroke-miterlimit="10"/><path d="M399.618 190.726c-.009-5.348-1.515-14.316 13.051-16.22 0 0-.667 4.222.01 2.98.24-.436-11.478-1.537-10.35 11.156 0 0-2.699 9.244-2.71 2.084" fill="#fff"/><path d="M399.618 190.726c-.009-5.348-1.515-14.316 13.051-16.22 0 0-.667 4.222.01 2.98.24-.436-11.478-1.537-10.35 11.156 0 0-2.699 9.244-2.71 2.084z" fill="none" stroke="#000" stroke-width=".642" stroke-miterlimit="10"/><path d="M405.559 188.636s-2.568-9.95 6.785-8.982" fill="#fff" stroke="#000" stroke-width=".642" stroke-miterlimit="10"/></g><g clip-path="url(#j)" transform="matrix(.35278 0 0 -.35278 -127.34 77.28)"><path d="M408.178 186.704s-1.857-3.568 1.138-7.242l.678-6.363-5.555-2.096-9.588 5.652-1.421 11.701 9.535-.16z" fill="none" stroke="#000" stroke-width=".642" stroke-miterlimit="10"/><path d="M389.571 181.78a.738.738 0 0 0-.733-.744.742.742 0 0 0-.737.744c0 .41.331.746.737.746a.74.74 0 0 0 .733-.746M386.257 174.942c1.53.127 3.709-.73 3.709-.73.813-.633.23 1.871-3.29 1.978-.61-.107-.42-1.248-.42-1.248" fill="#171717"/><path d="M385.47 176.843h2.142" fill="none" stroke="#000" stroke-width=".551" stroke-miterlimit="10"/><path d="M367.14 157.138h6.997s1.81-9.191-6.996-13.557z" fill="#fff"/></g><g clip-path="url(#k)" transform="matrix(.35278 0 0 -.35278 -127.34 77.28)"><path d="M365.857 154.214h8.57v-3.506h-8.349l.321-3.724h7.052l-1.106-2.981-6.488-.025" fill="#fff" stroke="#000" stroke-width=".669" stroke-miterlimit="10"/></g><g clip-path="url(#l)" transform="matrix(.35278 0 0 -.35278 -127.34 77.28)"><path d="M367.14 157.138h6.997s1.81-9.191-6.996-13.557z" fill="none" stroke="#000" stroke-width=".551" stroke-linecap="round" stroke-linejoin="round" stroke-miterlimit="10"/><path d="M388.611 173.427l-2.029.049" fill="none" stroke="#000" stroke-width=".54" stroke-miterlimit="10"/><path d="M390.39 191.546s-2.302-17.303 13.557-21.285c1.895-.477 7.67-.82 8.185 4.707.333 3.566-3.481 5.849-6.417 5.246l.14-2.918s3.18.437 3.073-2.352c0 0-.326-2.412-3.801-1.804 0 0-13.045 2.092-11.75 18.543z" fill="#fff"/><path d="M390.39 191.546s-2.302-17.303 13.557-21.285c1.895-.477 7.67-.82 8.185 4.707.333 3.566-3.481 5.849-6.417 5.246l.14-2.918s3.18.437 3.073-2.352c0 0-.326-2.412-3.801-1.804 0 0-13.045 2.092-11.75 18.543z" fill="none" stroke="#000" stroke-width=".642" stroke-miterlimit="10"/><path d="M382.93 194.52l3.067-8.572s10.585 2.752 22.255.263l2.11 7.78s-11.14 5.695-27.432.53" fill="#020202"/><path d="M382.93 194.52l3.067-8.572s10.585 2.752 22.255.263l2.11 7.78s-11.14 5.695-27.432.53z" fill="none" stroke="#000" stroke-width=".536" stroke-miterlimit="10"/><path d="M384.547 145.067h3.182l3.103 2.232h-3.204z" fill="#fff"/><path d="M384.547 145.067h3.182l3.103 2.232h-3.204z" fill="none" stroke="#000" stroke-width=".642" stroke-miterlimit="10"/><path d="M389.457 148.97h3.182l3.103 2.23h-3.203z" fill="#fff"/><path d="M389.457 148.97h3.182l3.103 2.23h-3.203z" fill="none" stroke="#000" stroke-width=".642" stroke-miterlimit="10"/><path d="M394.586 152.661h3.18l3.106 2.23h-3.203z" fill="#fff"/><path d="M394.586 152.661h3.18l3.106 2.23h-3.203z" fill="none" stroke="#000" stroke-width=".642" stroke-miterlimit="10"/><path d="M399.498 156.29h3.182l3.103 2.23h-3.203z" fill="#fff"/><path d="M399.498 156.29h3.182l3.103 2.23h-3.203z" fill="none" stroke="#000" stroke-width=".642" stroke-miterlimit="10"/><path d="M404.547 160.054h2.903l2.827 1.957-.98 1.639z" fill="#fff"/><path d="M404.547 160.054h2.903l2.827 1.957-.98 1.639z" fill="none" stroke="#000" stroke-width=".642" stroke-miterlimit="10"/><path d="M399.842 146.093l11.022 7.984v-7.984z"/><path d="M399.842 146.093l11.022 7.984v-7.984z" fill="none" stroke="#020202" stroke-width=".488" stroke-miterlimit="10"/><path d="M403.557 147.454l5.942 4.1v-4.1z" fill="#f7cc10"/><path d="M403.557 147.454l5.942 4.1v-4.1z" fill="none" stroke="#020202" stroke-width=".471" stroke-miterlimit="10"/><path d="M405.38 167.718a.826.826 0 0 0-.833-.818.827.827 0 0 0-.835.818c0 .453.374.82.835.82a.827.827 0 0 0 .834-.82" fill="#fff"/><path d="M405.38 167.718a.826.826 0 0 0-.833-.818.827.827 0 0 0-.835.818c0 .453.374.82.835.82a.827.827 0 0 0 .834-.82z" fill="none" stroke="#000" stroke-width=".372" stroke-miterlimit="10"/><path d="M401.852 165.044a.826.826 0 0 0-.834-.818.825.825 0 0 0-.835.818c0 .453.373.82.835.82a.828.828 0 0 0 .834-.82" fill="#fff"/><path d="M401.852 165.044a.826.826 0 0 0-.834-.818.825.825 0 0 0-.835.818c0 .453.373.82.835.82a.828.828 0 0 0 .834-.82z" fill="none" stroke="#000" stroke-width=".372" stroke-miterlimit="10"/><path d="M398.249 162.345a.827.827 0 0 0-.835-.816.826.826 0 0 0-.832.816c0 .455.373.822.832.822a.828.828 0 0 0 .835-.822" fill="#fff"/><path d="M398.249 162.345a.827.827 0 0 0-.835-.816.826.826 0 0 0-.832.816c0 .455.373.822.832.822a.828.828 0 0 0 .835-.822z" fill="none" stroke="#000" stroke-width=".372" stroke-miterlimit="10"/><path d="M394.164 159.126a.824.824 0 0 0-.832-.82.826.826 0 0 0-.834.82c0 .451.374.818.834.818a.825.825 0 0 0 .832-.818" fill="#fff"/><path d="M394.164 159.126a.824.824 0 0 0-.832-.82.826.826 0 0 0-.834.82c0 .451.374.818.834.818a.825.825 0 0 0 .832-.818z" fill="none" stroke="#000" stroke-width=".372" stroke-miterlimit="10"/><path d="M389.877 156.093a.828.828 0 0 0-.835-.818.83.83 0 0 0-.835.818c0 .449.377.82.835.82a.83.83 0 0 0 .835-.82" fill="#fff"/><path d="M389.877 156.093a.828.828 0 0 0-.835-.818.83.83 0 0 0-.835.818c0 .449.377.82.835.82a.83.83 0 0 0 .835-.82z" fill="none" stroke="#000" stroke-width=".372" stroke-miterlimit="10"/><path d="M385.792 152.872a.825.825 0 0 0-.835-.82.827.827 0 0 0-.834.82c0 .451.376.818.834.818a.826.826 0 0 0 .835-.818" fill="#fff"/><path d="M385.792 152.872a.825.825 0 0 0-.835-.82.827.827 0 0 0-.834.82c0 .451.376.818.834.818a.826.826 0 0 0 .835-.818z" fill="none" stroke="#000" stroke-width=".372" stroke-miterlimit="10"/><path d="M372.687 173.95l-1.828 3.998-1.982-3.998s-.191-.57-.191-.898v-15.63h4.176v15.63c0 .328-.175.898-.175.898"/></g><g clip-path="url(#m)" transform="matrix(.35278 0 0 -.35278 -127.34 77.28)"><path d="M374.775 182.407l-1.829 5.947-1.982-5.947s-.19-.65-.19-1.023V161.88h4.175v18.48c0 .373-.174 2.047-.174 2.047" fill="#fff"/><path d="M374.775 182.407l-1.829 5.947-1.982-5.947s-.19-.65-.19-1.023V161.88h4.175v18.48c0 .373-.174 2.047-.174 2.047z" fill="none" stroke="#020202" stroke-width=".61" stroke-miterlimit="10"/></g><path d="M4.135 15.914l-.645-1.41-.7 1.41s-.067.201-.067.317v5.514h1.473v-5.514c0-.116-.061-.317-.061-.317z" fill="none" stroke="#020202" stroke-width=".20143737999999997" stroke-miterlimit="10"/><path d="M10.384 17.672l-.045-1.905-.165-.115.002.937H8.939v.916z" fill="#171717"/><path d="M11.714 15.033s.02.457-.505 1.172c-.56.762-.902.749-.902.749v.6s1.796-.152 2.086-1.702" fill="#171717"/><path d="M18.296 6.884a.649.649 0 1 0-1.125.414l-.53.976c-.302-.074-.66-.15-1.064-.223l-.073-1.026a.646.646 0 0 0-.309-1.237.648.648 0 0 0-.379 1.138l-.39.96a18.74 18.74 0 0 0-1.226-.094l-.227-1.05a.648.648 0 0 0-.479-1.184.65.65 0 0 0-.216 1.18l-.26 1.042c-.364.009-.739.028-1.123.062l-.395-.97a.648.648 0 1 0-.688.1l-.071 1.011c-.407.064-.82.145-1.241.246l-.536-.957a.649.649 0 1 0-.67.185l1.227 3.423s4.558-1.023 8.38-.006l.942-3.4a.647.647 0 0 0 .453-.59" fill="#f7cc10"/><path d="M18.296 6.884a.649.649 0 1 0-1.125.414l-.53.976c-.302-.074-.66-.15-1.064-.223l-.073-1.026a.646.646 0 0 0-.309-1.237.648.648 0 0 0-.379 1.138l-.39.96a18.74 18.74 0 0 0-1.226-.094l-.227-1.05a.648.648 0 0 0-.479-1.184.65.65 0 0 0-.216 1.18l-.26 1.042c-.364.009-.739.028-1.123.062l-.395-.97a.648.648 0 1 0-.688.1l-.071 1.011c-.407.064-.82.145-1.241.246l-.536-.957a.649.649 0 1 0-.67.185l1.227 3.423s4.558-1.023 8.38-.006l.942-3.4a.647.647 0 0 0 .453-.59z" fill="none" stroke="#020202" stroke-width=".1534593" stroke-miterlimit="10"/><path d="M5.072 19.718v.578H2.133v-.578H4.7z"/><path d="M5.072 19.718v.578H2.133v-.578H4.7z" fill="none" stroke="#020202" stroke-width=".13299806" stroke-miterlimit="10"/><path d="M8.403 8.907l.484 1.274s.805-.226 1.812-.308l-.127-1.34M16.66 8.787l-.338 1.255s-1.206-.255-2.026-.323l.03-1.216M11.307 8.508l.116 1.271 2.14-.06-.018-1.237" fill="#f7cc10" stroke="#020202" stroke-width=".17568444" stroke-miterlimit="10"/><path d="M4.165 9.892L5.72 12.14 4.165 14.31l-1.589-2.17z" fill="#00f"/></svg>