<svg xmlns="http://www.w3.org/2000/svg" width="77.9" height="108.452" viewBox="0 0 20.611 28.695"><defs><clipPath clipPathUnits="userSpaceOnUse" id="a"><path d="M533.275 169.393l-18.187-12.443-3.277-13.404h45.776V162.3l-5.046 8.488-9.961 4.554z"/></clipPath><clipPath clipPathUnits="userSpaceOnUse" id="b"><path d="M533.275 169.393l-3.552-2.43-1.223-9.858 20.528 13.664.425 1.431-6.873 3.142z"/></clipPath><clipPath clipPathUnits="userSpaceOnUse" id="c"><path d="M533.275 169.393l-18.187-12.443-3.277-13.404h45.776V162.3l-5.046 8.488-9.961 4.554z"/></clipPath><clipPath clipPathUnits="userSpaceOnUse" id="d"><path d="M520.58 143.546h15.445l21.562 16.361v2.393l-3.622 6.092z"/></clipPath><clipPath clipPathUnits="userSpaceOnUse" id="e"><path d="M533.275 169.393l-18.187-12.443-3.277-13.404h45.776V162.3l-5.046 8.488-9.961 4.554z"/></clipPath><clipPath clipPathUnits="userSpaceOnUse" id="f"><path d="M522.104 161.751l-2.799-18.205h5.365l3.219 22.162z"/></clipPath><clipPath clipPathUnits="userSpaceOnUse" id="g"><path d="M533.275 169.393l-18.187-12.443-3.277-13.404h45.776V162.3l-5.046 8.488-9.961 4.554z"/></clipPath><clipPath clipPathUnits="userSpaceOnUse" id="h"><path d="M0 842.979h701.352V0H0z"/></clipPath><clipPath clipPathUnits="userSpaceOnUse" id="i"><path d="M539.222 176.656l9.588-5.653 5.555 2.096-.678 6.363c-2.994 3.674-1.137 7.242-1.137 7.242l-5.213 1.492-9.537.16z"/></clipPath><clipPath clipPathUnits="userSpaceOnUse" id="j"><path d="M0 842.979h701.352V0H0z"/></clipPath><clipPath clipPathUnits="userSpaceOnUse" id="k"><path d="M511.512 157.137v-13.556c8.809 4.366 6.998 13.556 6.998 13.556z"/></clipPath><clipPath clipPathUnits="userSpaceOnUse" id="l"><path d="M0 842.979h701.352V0H0z"/></clipPath><clipPath clipPathUnits="userSpaceOnUse" id="m"><path d="M513.25 173.95s-.192-.57-.192-.898v-15.631h4.175v15.631c0 .328-.174.898-.174.898l-1.829 3.998z"/></clipPath></defs><path d="M20.5 26.679a1.91 1.91 0 0 1-1.905 1.904H2.015A1.91 1.91 0 0 1 .112 26.68V2.016A1.91 1.91 0 0 1 2.016.111h16.58A1.91 1.91 0 0 1 20.5 2.016z" fill="#fafafa" fill-rule="evenodd"/><path d="M20.5 26.679a1.91 1.91 0 0 1-1.905 1.904H2.015A1.91 1.91 0 0 1 .112 26.68V2.016A1.91 1.91 0 0 1 2.016.111h16.58A1.91 1.91 0 0 1 20.5 2.016z" fill="none" stroke="#ccc" stroke-width=".2222514" stroke-miterlimit="3.864"/><path d="M3.979 6.269l-.312.587v1.972H2.658v-6.42h1.01v2.796l1.32-2.797h1.009L4.594 5.27l1.403 3.56H4.96z" fill="#171717"/><path d="M15.55 16.515s2.321.512 2.487-1.46c.103-1.233-.897-2.142-2.068-1.885l.05 1.12.88.592.222.499-.362.65z" fill="#fff"/><path d="M15.55 16.515s2.321.512 2.487-1.46c.103-1.233-.897-2.142-2.068-1.885l.05 1.12.88.592.222.499-.362.65z" fill="none" stroke="#000" stroke-width=".23071812" stroke-miterlimit="10"/><path d="M9.855 17.521l-6.416 4.39-1.156 4.729h16.149v-6.616l-1.78-2.995-3.514-1.606z"/><g clip-path="url(#a)" transform="matrix(.35278 0 0 -.35278 -178.272 77.28)"><path d="M549.028 170.769L528.5 157.105l2.376 19.143 15.54 2.623 4.465-1.866z" fill="#f7cc10"/></g><g clip-path="url(#b)" transform="matrix(.35278 0 0 -.35278 -178.272 77.28)"><path d="M545.745 172.856l-12.66-8.365 1.365 14.857 9.77-.83z" fill="#b32825"/><path d="M545.745 172.856l-12.66-8.365 1.365 14.857 9.77-.83z" fill="none" stroke="#000" stroke-width=".579" stroke-miterlimit="10"/></g><g clip-path="url(#c)" transform="matrix(.35278 0 0 -.35278 -178.272 77.28)"><path d="M549.028 170.769L528.5 157.105l2.376 19.143 15.54 2.623 4.465-1.866z" fill="none" stroke="#020202" stroke-width=".435" stroke-miterlimit="10"/><path d="M517.646 141.362l38.67 28.78 4.668-7.657-29-22.006z" fill="#f7cc10"/></g><g clip-path="url(#d)" transform="matrix(.35278 0 0 -.35278 -178.272 77.28)"><path d="M527.996 139.397l34.841 26.677-3.24 4.245-41.986-31.1z" fill="#b32825"/><path d="M527.996 139.397l34.841 26.677-3.24 4.245-41.986-31.1z" fill="none" stroke="#000" stroke-width=".579" stroke-miterlimit="10"/></g><g clip-path="url(#e)" transform="matrix(.35278 0 0 -.35278 -178.272 77.28)"><path d="M517.646 141.362l38.67 28.78 4.668-7.657-29-22.006z" fill="none" stroke="#020202" stroke-width=".551" stroke-miterlimit="10"/><path d="M522.832 166.48l-3.891-25.297h5.386l3.977 27.379z" fill="#fff"/></g><g clip-path="url(#f)" transform="matrix(.35278 0 0 -.35278 -178.272 77.28)"><path d="M524.883 167.913l-4.245-26.369h5.876l4.34 28.54z" fill="#b32825"/><path d="M524.883 167.913l-4.245-26.369h5.876l4.34 28.54z" fill="none" stroke="#000" stroke-width=".579" stroke-miterlimit="10"/><path d="M526.519 167.913l-4.247-26.369h5.878l4.339 28.54z" fill="#fff"/><path d="M526.519 167.913l-4.247-26.369h5.878l4.339 28.54z" fill="none" stroke="#000" stroke-width=".551" stroke-miterlimit="10"/></g><g clip-path="url(#g)" transform="matrix(.35278 0 0 -.35278 -178.272 77.28)"><path d="M522.832 166.48l-3.891-25.297h5.386l3.977 27.379z" fill="none" stroke="#000" stroke-width=".551" stroke-miterlimit="10"/></g><g clip-path="url(#h)" transform="matrix(.35278 0 0 -.35278 -178.272 77.28)"><path d="M533.275 169.394l-18.187-12.443-3.277-13.405H557.587V162.3l-5.046 8.489-9.96 4.554z" fill="none" stroke="#000" stroke-width=".579" stroke-miterlimit="10"/><path d="M530.504 188.114v-3.787l-2.508-7.484h2.68v-7.403s10.926-2.564 14.16 5.8v15.356s-11.674-.304-14.332-2.482" fill="#fff"/><path d="M530.504 188.114v-3.787l-2.508-7.484h2.68v-7.403s10.926-2.564 14.16 5.8v15.356s-11.674-.304-14.332-2.482z" fill="none" stroke="#000" stroke-width=".551" stroke-miterlimit="10"/><path d="M552.55 186.704s-1.856-3.568 1.138-7.242l.677-6.363-5.554-2.096-9.588 5.652-1.422 11.701 9.536-.16z" fill="#fff"/></g><g clip-path="url(#i)" transform="matrix(.35278 0 0 -.35278 -178.272 77.28)"><path d="M541.484 189.956c-.21-4.449-2.012-15.938 15.291-17.65 0 0-1.015 4.644-.238 3.353.326-.555-13.73-.912-12.387 12.897 0 0-2.304 8.867-2.666 1.4" fill="#fff"/><path d="M541.484 189.956c-.21-4.449-2.012-15.938 15.291-17.65 0 0-1.015 4.644-.238 3.353.326-.555-13.73-.912-12.387 12.897 0 0-2.304 8.867-2.666 1.4z" fill="none" stroke="#000" stroke-width=".642" stroke-miterlimit="10"/><path d="M543.99 190.726c-.008-5.348-1.515-14.316 13.051-16.22 0 0-.667 4.222.01 2.98.24-.436-11.477-1.537-10.35 11.156 0 0-2.699 9.244-2.71 2.084" fill="#fff"/><path d="M543.99 190.726c-.008-5.348-1.515-14.316 13.051-16.22 0 0-.667 4.222.01 2.98.24-.436-11.477-1.537-10.35 11.156 0 0-2.699 9.244-2.71 2.084z" fill="none" stroke="#000" stroke-width=".642" stroke-miterlimit="10"/><path d="M549.93 188.636s-2.568-9.95 6.786-8.982" fill="#fff" stroke="#000" stroke-width=".642" stroke-miterlimit="10"/></g><g clip-path="url(#j)" transform="matrix(.35278 0 0 -.35278 -178.272 77.28)"><path d="M552.55 186.704s-1.856-3.568 1.138-7.242l.677-6.363-5.554-2.096-9.588 5.652-1.422 11.701 9.536-.16z" fill="none" stroke="#000" stroke-width=".642" stroke-miterlimit="10"/><path d="M533.943 181.78a.739.739 0 0 0-.732-.744.742.742 0 0 0-.738.744c0 .41.331.746.738.746a.74.74 0 0 0 .732-.746M530.629 174.942c1.53.127 3.709-.73 3.709-.73.813-.633.23 1.871-3.29 1.978-.61-.107-.42-1.248-.42-1.248" fill="#171717"/><path d="M529.844 176.843h2.14" fill="none" stroke="#000" stroke-width=".551" stroke-miterlimit="10"/><path d="M511.513 157.138h6.997s1.81-9.191-6.997-13.557z" fill="#fff"/></g><g clip-path="url(#k)" transform="matrix(.35278 0 0 -.35278 -178.272 77.28)"><path d="M510.228 154.214h8.57v-3.506h-8.347l.32-3.724h7.053l-1.107-2.981-6.488-.025" fill="#fff" stroke="#000" stroke-width=".669" stroke-miterlimit="10"/></g><g clip-path="url(#l)" transform="matrix(.35278 0 0 -.35278 -178.272 77.28)"><path d="M511.513 157.138h6.997s1.81-9.191-6.997-13.557z" fill="none" stroke="#000" stroke-width=".551" stroke-linecap="round" stroke-linejoin="round" stroke-miterlimit="10"/><path d="M532.983 173.427l-2.029.049" fill="none" stroke="#000" stroke-width=".54" stroke-miterlimit="10"/><path d="M534.762 191.546s-2.302-17.303 13.557-21.285c1.895-.477 7.67-.82 8.185 4.707.334 3.566-3.48 5.849-6.416 5.246l.139-2.918s3.18.437 3.072-2.352c0 0-.324-2.412-3.8-1.804 0 0-13.045 2.092-11.751 18.543z" fill="#fff"/><path d="M534.762 191.546s-2.302-17.303 13.557-21.285c1.895-.477 7.67-.82 8.185 4.707.334 3.566-3.48 5.849-6.416 5.246l.139-2.918s3.18.437 3.072-2.352c0 0-.324-2.412-3.8-1.804 0 0-13.045 2.092-11.751 18.543z" fill="none" stroke="#000" stroke-width=".642" stroke-miterlimit="10"/><path d="M527.302 194.52l3.067-8.572s10.584 2.752 22.256.263l2.11 7.78s-11.14 5.695-27.433.53" fill="#020202"/><path d="M527.302 194.52l3.067-8.572s10.584 2.752 22.256.263l2.11 7.78s-11.14 5.695-27.433.53z" fill="none" stroke="#000" stroke-width=".536" stroke-miterlimit="10"/><path d="M528.918 145.067h3.182l3.103 2.232H532z" fill="#fff"/><path d="M528.918 145.067h3.182l3.103 2.232H532z" fill="none" stroke="#000" stroke-width=".642" stroke-miterlimit="10"/><path d="M533.83 148.97h3.182l3.103 2.23h-3.203z" fill="#fff"/><path d="M533.83 148.97h3.182l3.103 2.23h-3.203z" fill="none" stroke="#000" stroke-width=".642" stroke-miterlimit="10"/><path d="M538.958 152.661h3.179l3.107 2.23h-3.203z" fill="#fff"/><path d="M538.958 152.661h3.179l3.107 2.23h-3.203z" fill="none" stroke="#000" stroke-width=".642" stroke-miterlimit="10"/><path d="M543.871 156.29h3.182l3.103 2.23h-3.204z" fill="#fff"/><path d="M543.871 156.29h3.182l3.103 2.23h-3.204z" fill="none" stroke="#000" stroke-width=".642" stroke-miterlimit="10"/><path d="M548.92 160.054h2.902l2.827 1.957-.98 1.639z" fill="#fff"/><path d="M548.92 160.054h2.902l2.827 1.957-.98 1.639z" fill="none" stroke="#000" stroke-width=".642" stroke-miterlimit="10"/><path d="M544.213 146.093l11.023 7.984v-7.984z"/><path d="M544.213 146.093l11.023 7.984v-7.984z" fill="none" stroke="#020202" stroke-width=".488" stroke-miterlimit="10"/><path d="M547.929 147.454l5.942 4.1v-4.1z" fill="#f7cc10"/><path d="M547.929 147.454l5.942 4.1v-4.1z" fill="none" stroke="#020202" stroke-width=".471" stroke-miterlimit="10"/><path d="M549.754 167.718a.828.828 0 0 0-.834-.818.827.827 0 0 0-.836.818c0 .453.374.82.836.82a.828.828 0 0 0 .834-.82" fill="#fff"/><path d="M549.754 167.718a.828.828 0 0 0-.834-.818.827.827 0 0 0-.836.818c0 .453.374.82.836.82a.828.828 0 0 0 .834-.82z" fill="none" stroke="#000" stroke-width=".372" stroke-miterlimit="10"/><path d="M546.225 165.044a.827.827 0 0 0-.836-.818.825.825 0 0 0-.834.818c0 .453.373.82.834.82a.828.828 0 0 0 .836-.82" fill="#fff"/><path d="M546.225 165.044a.827.827 0 0 0-.836-.818.825.825 0 0 0-.834.818c0 .453.373.82.834.82a.828.828 0 0 0 .836-.82z" fill="none" stroke="#000" stroke-width=".372" stroke-miterlimit="10"/><path d="M542.621 162.345a.827.827 0 0 0-.835-.816.826.826 0 0 0-.833.816c0 .455.373.822.833.822.46 0 .835-.367.835-.822" fill="#fff"/><path d="M542.621 162.345a.827.827 0 0 0-.835-.816.826.826 0 0 0-.833.816c0 .455.373.822.833.822.46 0 .835-.367.835-.822z" fill="none" stroke="#000" stroke-width=".372" stroke-miterlimit="10"/><path d="M538.537 159.126a.825.825 0 0 0-.833-.82.826.826 0 0 0-.834.82c0 .451.374.818.834.818.46 0 .833-.367.833-.818" fill="#fff"/><path d="M538.537 159.126a.825.825 0 0 0-.833-.82.826.826 0 0 0-.834.82c0 .451.374.818.834.818.46 0 .833-.367.833-.818z" fill="none" stroke="#000" stroke-width=".372" stroke-miterlimit="10"/><path d="M534.25 156.093a.828.828 0 0 0-.836-.818.829.829 0 0 0-.835.818c0 .449.376.82.835.82a.831.831 0 0 0 .836-.82" fill="#fff"/><path d="M534.25 156.093a.828.828 0 0 0-.836-.818.829.829 0 0 0-.835.818c0 .449.376.82.835.82a.831.831 0 0 0 .836-.82z" fill="none" stroke="#000" stroke-width=".372" stroke-miterlimit="10"/><path d="M530.164 152.872a.826.826 0 0 0-.836-.82.828.828 0 0 0-.834.82c0 .451.377.818.834.818a.827.827 0 0 0 .836-.818" fill="#fff"/><path d="M530.164 152.872a.826.826 0 0 0-.836-.82.828.828 0 0 0-.834.82c0 .451.377.818.834.818a.827.827 0 0 0 .836-.818z" fill="none" stroke="#000" stroke-width=".372" stroke-miterlimit="10"/><path d="M517.059 173.95l-1.828 3.998-1.981-3.998s-.192-.57-.192-.898v-15.63h4.175v15.63c0 .328-.174.898-.174.898"/></g><g clip-path="url(#m)" transform="matrix(.35278 0 0 -.35278 -178.272 77.28)"><path d="M519.146 182.407l-1.828 5.947-1.98-5.947s-.192-.65-.192-1.023V161.88h4.175v18.48c0 .373-.175 2.047-.175 2.047" fill="#fff"/><path d="M519.146 182.407l-1.828 5.947-1.98-5.947s-.192-.65-.192-1.023V161.88h4.175v18.48c0 .373-.175 2.047-.175 2.047z" fill="none" stroke="#020202" stroke-width=".61" stroke-miterlimit="10"/></g><path d="M4.134 15.914l-.645-1.41-.698 1.41s-.068.201-.068.317v5.514h1.473v-5.514c0-.116-.062-.317-.062-.317z" fill="none" stroke="#020202" stroke-width=".20143737999999997" stroke-miterlimit="10"/><path d="M10.383 17.672l-.045-1.905-.164-.115.002.937H8.938v.916z" fill="#171717"/><path d="M11.713 15.033s.02.457-.504 1.172c-.56.762-.902.749-.902.749v.6s1.795-.152 2.085-1.702" fill="#171717"/><path d="M18.296 6.884a.649.649 0 1 0-1.125.414l-.53.976c-.303-.074-.66-.15-1.065-.223l-.072-1.026a.647.647 0 0 0-.309-1.237.648.648 0 0 0-.379 1.138l-.39.96a18.74 18.74 0 0 0-1.227-.094l-.226-1.05a.647.647 0 0 0-.479-1.184.65.65 0 0 0-.216 1.18l-.261 1.042c-.363.009-.738.028-1.123.062l-.394-.97a.648.648 0 1 0-.688.1l-.071 1.011c-.407.064-.821.145-1.242.246l-.536-.957a.649.649 0 1 0-.67.185l1.228 3.423s4.558-1.023 8.38-.006l.941-3.4a.647.647 0 0 0 .454-.59" fill="#f7cc10"/><path d="M18.296 6.884a.649.649 0 1 0-1.125.414l-.53.976c-.303-.074-.66-.15-1.065-.223l-.072-1.026a.647.647 0 0 0-.309-1.237.648.648 0 0 0-.379 1.138l-.39.96a18.74 18.74 0 0 0-1.227-.094l-.226-1.05a.647.647 0 0 0-.479-1.184.65.65 0 0 0-.216 1.18l-.261 1.042c-.363.009-.738.028-1.123.062l-.394-.97a.648.648 0 1 0-.688.1l-.071 1.011c-.407.064-.821.145-1.242.246l-.536-.957a.649.649 0 1 0-.67.185l1.228 3.423s4.558-1.023 8.38-.006l.941-3.4a.647.647 0 0 0 .454-.59z" fill="none" stroke="#020202" stroke-width=".1534593" stroke-miterlimit="10"/><path d="M5.071 19.718v.578H2.132v-.578H4.7z"/><path d="M5.071 19.718v.578H2.132v-.578H4.7z" fill="none" stroke="#020202" stroke-width=".13299806" stroke-miterlimit="10"/><path d="M8.403 8.907l.483 1.274s.806-.226 1.813-.308l-.128-1.34M16.66 8.787l-.338 1.255s-1.206-.255-2.027-.323l.03-1.216M11.306 8.508l.116 1.271 2.14-.06-.018-1.237" fill="#f7cc10" stroke="#020202" stroke-width=".17568444" stroke-miterlimit="10"/><path d="M4.148 9.641s-1.847 1.736-1.887 2.653c0 .509.429.923.958.923a.969.969 0 0 0 .598-.204c-.044.34-.118.747-.226.843h1.115c-.092-.08-.175-.543-.22-.84.162.125.367.2.591.2.529 0 .958-.413.958-.922-.04-.917-1.887-2.653-1.887-2.653" fill="#171717"/></svg>