<svg xmlns="http://www.w3.org/2000/svg" width="77.901" height="108.449" viewBox="0 0 20.611 28.694"><defs><clipPath clipPathUnits="userSpaceOnUse" id="a"><path d="M603.711 262.37l-17.766-13.41-3.664-12.397H627.983v18.725l-2.831 9.221L613 268.312z"/></clipPath><clipPath clipPathUnits="userSpaceOnUse" id="b"><path d="M591.036 236.563h15.411l21.536 16.337v2.388l-2.192 7.139z"/></clipPath><clipPath clipPathUnits="userSpaceOnUse" id="c"><path d="M593.83 236.563h10.04l24.113 18.476v.249l-1.633 5.318z"/></clipPath><clipPath clipPathUnits="userSpaceOnUse" id="d"><path d="M591.036 236.563h15.411l21.536 16.337v2.388l-2.192 7.139z"/></clipPath><clipPath clipPathUnits="userSpaceOnUse" id="e"><path d="M603.711 262.37l-17.766-13.41-3.664-12.397H627.983v18.725l-2.831 9.221L613 268.312z"/></clipPath><clipPath clipPathUnits="userSpaceOnUse" id="f"><path d="M592.395 253.828l-2.726-17.265h5.037l3.504 21.654z"/></clipPath><clipPath clipPathUnits="userSpaceOnUse" id="g"><path d="M603.711 262.37l-17.766-13.41-3.664-12.397H627.983v18.725l-2.831 9.221L613 268.312z"/></clipPath><clipPath clipPathUnits="userSpaceOnUse" id="h"><path d="M611.529 236.563h8.241l8.213 6.366v6.303z"/></clipPath><clipPath clipPathUnits="userSpaceOnUse" id="i"><path d="M603.711 262.37l-17.766-13.41-3.664-12.397H627.983v18.725l-2.831 9.221L613 268.312z"/></clipPath><clipPath clipPathUnits="userSpaceOnUse" id="j"><path d="M0 842.979h701.352V0H0z"/></clipPath><clipPath clipPathUnits="userSpaceOnUse" id="k"><path d="M600.943 279.85s1.213-3.121 1.213-3.78l-2.504-7.475h1.463v-6.18s10.91-2.559 14.138 5.791v12.91s-2.415.188-5.297.188c-3.449 0-7.567-.269-9.013-1.454"/></clipPath><clipPath clipPathUnits="userSpaceOnUse" id="l"><path d="M0 842.979h701.352V0H0z"/></clipPath><clipPath clipPathUnits="userSpaceOnUse" id="m"><path d="M604.69 272.722l11.672-5.268 10.213-5.937-4.278 13.822c-3.643 3.428-2.018 3.752-2.018 3.752l-5.71 1.965-11.608 2.575z"/></clipPath><clipPath clipPathUnits="userSpaceOnUse" id="n"><path d="M0 842.979h701.352V0H0z"/></clipPath><clipPath clipPathUnits="userSpaceOnUse" id="o"><path d="M581.982 248.544v-11.996c6.3 3.011 5.98 11.996 5.98 11.996z"/></clipPath><clipPath clipPathUnits="userSpaceOnUse" id="p"><path d="M0 842.979h701.352V0H0z"/></clipPath><clipPath clipPathUnits="userSpaceOnUse" id="q"><path d="M600.219 282.755s13.239-8.114 22.078-7.416l1.106 4.478s-10.032.317-23.751 8.908z"/></clipPath></defs><path d="M20.5 26.678a1.91 1.91 0 0 1-1.904 1.905H2.016a1.91 1.91 0 0 1-1.905-1.905V2.016A1.91 1.91 0 0 1 2.016.11h16.58A1.91 1.91 0 0 1 20.5 2.016z" fill="#fafafa" fill-rule="evenodd"/><path d="M20.5 26.678a1.91 1.91 0 0 1-1.904 1.905H2.016a1.91 1.91 0 0 1-1.905-1.905V2.016A1.91 1.91 0 0 1 2.016.11h16.58A1.91 1.91 0 0 1 20.5 2.016z" fill="none" stroke="#ccc" stroke-width=".2222514" stroke-miterlimit="3.864"/><path d="M3.484 7.35c0 .46.202.633.523.633.32 0 .523-.173.523-.632V3.884c0-.46-.202-.634-.523-.634s-.523.175-.523.634zM2.475 3.949c0-1.028.541-1.615 1.532-1.615.99 0 1.531.587 1.531 1.615v3.339c0 .357-.063.66-.192.898.046.12.12.138.285.138h.091v.9h-.138c-.449 0-.733-.166-.871-.441-.202.073-.44.12-.706.12-.99 0-1.532-.588-1.532-1.615z" fill="green"/><path d="M9.806 9.562s1.38-1.099 3.673-.55c0 0 2.485.434 2.591 3.613 0 0-.276-.85-1.094-.6-.817.251-3.427-1.145-3.709-1.161-.282-.014-1.461-1.302-1.461-1.302" fill="#b32825"/><path d="M9.806 9.562s1.38-1.099 3.673-.55c0 0 2.485.434 2.591 3.613 0 0-.276-.85-1.094-.6-.817.251-3.427-1.145-3.709-1.161-.282-.014-1.461-1.302-1.461-1.302z" fill="none" stroke="#000" stroke-width=".19826236" stroke-miterlimit="10"/><path d="M8.656 10.674c.696 5.19-1.288 8.184-2.696 9.794l3.825-1.212 2.4-5.468-1.108-1.474z" fill="#b32825"/><path d="M8.656 10.674c.696 5.19-1.288 8.184-2.696 9.794l3.825-1.212 2.4-5.468-1.108-1.474z" fill="none" stroke="#000" stroke-width=".20390683999999998" stroke-miterlimit="10"/><path d="M9.853 17.529l-6.268 4.73-1.292 4.374h16.122v-6.606l-.999-3.253-4.286-1.34z" fill="green"/><g clip-path="url(#a)" transform="matrix(.35278 0 0 -.35278 -203.123 110.087)"><path d="M597.687 264.778c0-.002 1.06-6.97 9.646-5.779 8.588 1.19 12.257 7.845 11.615 11.302-.643 3.46-7.682 4.264-7.682 4.264z" fill="#fff"/><path d="M597.687 264.778c0-.002 1.06-6.97 9.646-5.779 8.588 1.19 12.257 7.845 11.615 11.302-.643 3.46-7.682 4.264-7.682 4.264z" fill="none" stroke="#000" stroke-width=".718" stroke-miterlimit="10"/><path d="M614.637 271.48l1.524-5.653" fill="#b32825" stroke="#000" stroke-width=".578" stroke-miterlimit="10"/><path d="M588.106 234.384l38.61 28.732 4.66-7.642-29.984-22.744z" fill="#f7cc10"/></g><g clip-path="url(#b)" transform="matrix(.35278 0 0 -.35278 -203.123 110.087)"><path d="M601.382 234.657l31.845 24.398-3.237 4.243-38.978-28.819z" fill="#b32825"/></g><g clip-path="url(#c)" transform="matrix(.35278 0 0 -.35278 -203.123 110.087)"><path d="M600.65 237.925c.49-.645.354-1.578-.305-2.076-.66-.502-1.595-.38-2.085.265-.493.649-.354 1.58.306 2.079.66.502 1.594.38 2.084-.268" fill="#fff"/><path d="M600.65 237.925c.49-.645.354-1.578-.305-2.076-.66-.502-1.595-.38-2.085.265-.493.649-.354 1.58.306 2.079.66.502 1.594.38 2.084-.268z" fill="none" stroke="#000" stroke-width=".409" stroke-miterlimit="10"/><path d="M599.953 238.661c.07.81.796 1.408 1.621 1.338a1.486 1.486 0 0 0 1.37-1.594c-.07-.812-.798-1.412-1.623-1.34a1.489 1.489 0 0 0-1.368 1.596" fill="#fff"/><path d="M599.953 238.661c.07.81.796 1.408 1.621 1.338a1.486 1.486 0 0 0 1.37-1.594c-.07-.812-.798-1.412-1.623-1.34a1.489 1.489 0 0 0-1.368 1.596z" fill="none" stroke="#000" stroke-width=".409" stroke-miterlimit="10"/><path d="M604.6 240.919c.49-.645.354-1.576-.305-2.078-.66-.498-1.595-.377-2.085.266a1.487 1.487 0 0 0 .306 2.082c.658.5 1.593.378 2.084-.27" fill="#fff"/><path d="M604.6 240.919c.49-.645.354-1.576-.305-2.078-.66-.498-1.595-.377-2.085.266a1.487 1.487 0 0 0 .306 2.082c.658.5 1.593.378 2.084-.27z" fill="none" stroke="#000" stroke-width=".409" stroke-miterlimit="10"/><path d="M603.902 241.657c.068.805.795 1.408 1.621 1.338.824-.068 1.438-.787 1.37-1.594a1.487 1.487 0 0 0-1.624-1.34 1.487 1.487 0 0 0-1.367 1.596" fill="#fff"/><path d="M603.902 241.657c.068.805.795 1.408 1.621 1.338.824-.068 1.438-.787 1.37-1.594a1.487 1.487 0 0 0-1.624-1.34 1.487 1.487 0 0 0-1.367 1.596z" fill="none" stroke="#000" stroke-width=".409" stroke-miterlimit="10"/><path d="M608.558 243.923c.487-.645.353-1.58-.307-2.08a1.488 1.488 0 0 0-2.085.266c-.491.648-.355 1.582.307 2.084a1.491 1.491 0 0 0 2.085-.27" fill="#fff"/><path d="M608.558 243.923c.487-.645.353-1.58-.307-2.08a1.488 1.488 0 0 0-2.085.266c-.491.648-.355 1.582.307 2.084a1.491 1.491 0 0 0 2.085-.27z" fill="none" stroke="#000" stroke-width=".409" stroke-miterlimit="10"/><path d="M607.86 244.66c.067.806.794 1.403 1.62 1.335.824-.07 1.438-.787 1.368-1.594-.069-.81-.795-1.41-1.62-1.338a1.487 1.487 0 0 0-1.369 1.596" fill="#fff"/><path d="M607.86 244.66c.067.806.794 1.403 1.62 1.335.824-.07 1.438-.787 1.368-1.594-.069-.81-.795-1.41-1.62-1.338a1.487 1.487 0 0 0-1.369 1.596z" fill="none" stroke="#000" stroke-width=".409" stroke-miterlimit="10"/><path d="M612.506 246.917c.489-.646.354-1.578-.305-2.078-.661-.502-1.595-.381-2.086.264a1.49 1.49 0 0 0 .305 2.082c.66.5 1.594.38 2.086-.268" fill="#fff"/><path d="M612.506 246.917c.489-.646.354-1.578-.305-2.078-.661-.502-1.595-.381-2.086.264a1.49 1.49 0 0 0 .305 2.082c.66.5 1.594.38 2.086-.268z" fill="none" stroke="#000" stroke-width=".409" stroke-miterlimit="10"/><path d="M611.81 247.651c.068.811.794 1.41 1.618 1.34.826-.07 1.439-.787 1.37-1.594-.07-.81-.794-1.412-1.621-1.342a1.487 1.487 0 0 0-1.367 1.596" fill="#fff"/><path d="M611.81 247.651c.068.811.794 1.41 1.618 1.34.826-.07 1.439-.787 1.37-1.594-.07-.81-.794-1.412-1.621-1.342a1.487 1.487 0 0 0-1.367 1.596z" fill="none" stroke="#000" stroke-width=".409" stroke-miterlimit="10"/><path d="M616.408 249.878c.49-.646.354-1.578-.305-2.08-.66-.5-1.595-.381-2.085.268-.492.646-.356 1.578.305 2.08.66.498 1.595.378 2.085-.268" fill="#fff"/><path d="M616.408 249.878c.49-.646.354-1.578-.305-2.08-.66-.5-1.595-.381-2.085.268-.492.646-.356 1.578.305 2.08.66.498 1.595.378 2.085-.268z" fill="none" stroke="#000" stroke-width=".409" stroke-miterlimit="10"/><path d="M615.712 250.61c.069.81.794 1.41 1.619 1.34.825-.07 1.439-.787 1.37-1.594-.07-.81-.796-1.412-1.621-1.342-.824.075-1.437.787-1.368 1.596" fill="#fff"/><path d="M615.712 250.61c.069.81.794 1.41 1.619 1.34.825-.07 1.439-.787 1.37-1.594-.07-.81-.796-1.412-1.621-1.342-.824.075-1.437.787-1.368 1.596z" fill="none" stroke="#000" stroke-width=".409" stroke-miterlimit="10"/><path d="M620.357 252.87c.49-.645.354-1.576-.306-2.076a1.487 1.487 0 0 0-2.085.265 1.486 1.486 0 0 0 .307 2.081c.66.5 1.593.38 2.084-.27" fill="#fff"/><path d="M620.357 252.87c.49-.645.354-1.576-.306-2.076a1.487 1.487 0 0 0-2.085.265 1.486 1.486 0 0 0 .307 2.081c.66.5 1.593.38 2.084-.27z" fill="none" stroke="#000" stroke-width=".409" stroke-miterlimit="10"/><path d="M619.66 253.608c.07.807.796 1.408 1.62 1.338.825-.072 1.44-.787 1.37-1.594a1.488 1.488 0 0 0-1.62-1.342 1.49 1.49 0 0 0-1.37 1.598" fill="#fff"/><path d="M619.66 253.608c.07.807.796 1.408 1.62 1.338.825-.072 1.44-.787 1.37-1.594a1.488 1.488 0 0 0-1.62-1.342 1.49 1.49 0 0 0-1.37 1.598z" fill="none" stroke="#000" stroke-width=".409" stroke-miterlimit="10"/><path d="M624.314 255.872c.49-.645.354-1.578-.305-2.078-.66-.5-1.595-.377-2.086.266-.49.648-.354 1.58.305 2.082.66.5 1.594.378 2.086-.27" fill="#fff"/><path d="M624.314 255.872c.49-.645.354-1.578-.305-2.078-.66-.5-1.595-.377-2.086.266-.49.648-.354 1.58.305 2.082.66.5 1.594.378 2.086-.27z" fill="none" stroke="#000" stroke-width=".409" stroke-miterlimit="10"/><path d="M623.617 256.608c.068.807.795 1.41 1.62 1.338.825-.07 1.438-.787 1.368-1.594-.067-.812-.794-1.41-1.619-1.34a1.487 1.487 0 0 0-1.369 1.596" fill="#fff"/><path d="M623.617 256.608c.068.807.795 1.41 1.62 1.338.825-.07 1.438-.787 1.368-1.594-.067-.812-.794-1.41-1.619-1.34a1.487 1.487 0 0 0-1.369 1.596z" fill="none" stroke="#000" stroke-width=".409" stroke-miterlimit="10"/><path d="M628.264 258.868a1.487 1.487 0 0 0-.307-2.078c-.66-.502-1.594-.38-2.083.264a1.49 1.49 0 0 0 .304 2.084 1.492 1.492 0 0 0 2.086-.27" fill="#fff"/><path d="M628.264 258.868a1.487 1.487 0 0 0-.307-2.078c-.66-.502-1.594-.38-2.083.264a1.49 1.49 0 0 0 .304 2.084 1.492 1.492 0 0 0 2.086-.27z" fill="none" stroke="#000" stroke-width=".409" stroke-miterlimit="10"/><path d="M627.566 259.604c.07.807.795 1.406 1.62 1.338.825-.072 1.438-.789 1.368-1.594-.068-.81-.795-1.412-1.62-1.342a1.49 1.49 0 0 0-1.368 1.599" fill="#fff"/><path d="M627.566 259.604c.07.807.795 1.406 1.62 1.338.825-.072 1.438-.789 1.368-1.594-.068-.81-.795-1.412-1.62-1.342a1.49 1.49 0 0 0-1.368 1.599z" fill="none" stroke="#000" stroke-width=".409" stroke-miterlimit="10"/></g><g clip-path="url(#d)" transform="matrix(.35278 0 0 -.35278 -203.123 110.087)"><path d="M601.382 234.657l31.845 24.398-3.237 4.243-38.978-28.819z" fill="none" stroke="#000" stroke-width=".578" stroke-miterlimit="10"/></g><g clip-path="url(#e)" transform="matrix(.35278 0 0 -.35278 -203.123 110.087)"><path d="M588.106 234.384l38.61 28.732 4.66-7.642-29.984-22.744z" fill="none" stroke="#020202" stroke-width=".55" stroke-miterlimit="10"/><path d="M599.677 264.798s1.054-4.965 8.07-3.912c7.017 1.053 10.79 7.553 10.17 10.016-.618 2.459-7.356 1.214-7.356 1.214z" fill="#b32825"/><path d="M599.677 264.798s1.054-4.965 8.07-3.912c7.017 1.053 10.79 7.553 10.17 10.016-.618 2.459-7.356 1.214-7.356 1.214z" fill="none" stroke="#000" stroke-width=".562" stroke-miterlimit="10"/><path d="M593.284 259.462l-4.163-26.367h5.023l4.603 28.445z" fill="#fff"/></g><g clip-path="url(#f)" transform="matrix(.35278 0 0 -.35278 -203.123 110.087)"><path d="M595.332 260.892l-4.238-26.326h5.866l4.333 28.494z" fill="#b32825"/><path d="M595.332 260.892l-4.238-26.326h5.866l4.333 28.494z" fill="none" stroke="#000" stroke-width=".578" stroke-miterlimit="10"/><path d="M596.965 260.892l-4.242-26.326h5.87l4.332 28.494z" fill="#fff"/><path d="M596.965 260.892l-4.242-26.326h5.87l4.332 28.494z" fill="none" stroke="#000" stroke-width=".55" stroke-miterlimit="10"/></g><g clip-path="url(#g)" transform="matrix(.35278 0 0 -.35278 -203.123 110.087)"><path d="M593.284 259.462l-4.163-26.367h5.023l4.603 28.445z" fill="none" stroke="#000" stroke-width=".55" stroke-miterlimit="10"/><path d="M630.266 250.99l-21.152-16.286 6.14-1.642 17.413 13.497z" fill="#fff"/></g><g clip-path="url(#h)" transform="matrix(.35278 0 0 -.35278 -203.123 110.087)"><path d="M632.736 250.618l-21.179-16.2 6.897-1.356 14.63 9z" fill="#b32825"/><path d="M632.736 250.618l-21.179-16.2 6.897-1.356 14.63 9z" fill="none" stroke="#000" stroke-width=".578" stroke-miterlimit="10"/><path d="M631.334 247.515l-18.593-14.221 7.637.269 12.206 10.5z" fill="#fff"/><path d="M631.334 247.515l-18.593-14.221 7.637.269 12.206 10.5z" fill="none" stroke="#000" stroke-width=".55" stroke-miterlimit="10"/></g><g clip-path="url(#i)" transform="matrix(.35278 0 0 -.35278 -203.123 110.087)"><path d="M630.266 250.99l-21.152-16.286 6.14-1.642 17.413 13.497z" fill="none" stroke="#000" stroke-width=".55" stroke-miterlimit="10"/></g><g clip-path="url(#j)" transform="matrix(.35278 0 0 -.35278 -203.123 110.087)"><path d="M603.71 262.37l-17.765-13.41-3.664-12.397H627.983v18.725l-2.832 9.221L613 268.311z" fill="none" stroke="#000" stroke-width=".562" stroke-miterlimit="10"/><path d="M585.555 263.08s1.525-.149-.52-6.56c-2.043-6.41 0-8.44 0-8.44l1.072-.827s-1.906 2.097-.005 8.453c2.285 7.637-.057 7.877-.178 8.301" fill="#fff" stroke="#000" stroke-width=".584" stroke-miterlimit="10"/><path d="M600.943 279.85s1.213-3.12 1.213-3.78l-2.504-7.475h1.463v-6.18s10.91-2.558 14.14 5.79v12.912s-11.658.908-14.312-1.266" fill="#fff"/></g><g clip-path="url(#k)" transform="matrix(.35278 0 0 -.35278 -203.123 110.087)"><path d="M605.705 261.63s3.508 1.236 3.246 6.104c-.262 4.863 5.988-.387 5.988-.387l-3.035-5.717-5.46-.975z" fill="#f7cc10"/><path d="M605.705 261.63s3.508 1.236 3.246 6.104c-.262 4.863 5.988-.387 5.988-.387l-3.035-5.717-5.46-.975z" fill="none" stroke="#020202" stroke-width=".437" stroke-miterlimit="10"/></g><g clip-path="url(#l)" transform="matrix(.35278 0 0 -.35278 -203.123 110.087)"><path d="M600.943 279.85s1.213-3.12 1.213-3.78l-2.504-7.475h1.463v-6.18s10.91-2.558 14.14 5.79v12.912s-11.658.908-14.312-1.266z" fill="none" stroke="#000" stroke-width=".55" stroke-miterlimit="10"/><path d="M620.28 279.09s-1.627-.323 2.017-3.751l4.277-13.822-10.212 5.937-11.672 5.268-1.729 10.91 11.607-2.576z" fill="#b32825"/></g><g clip-path="url(#m)" transform="matrix(.35278 0 0 -.35278 -203.123 110.087)"><path d="M607.443 285.122c-.256-4.145-2.448-14.855 18.613-16.455 0 0-1.234 4.33-.29 3.127.4-.516-16.714-.85-15.077 12.023 0 0-2.805 8.266-3.246 1.305" fill="#b32825"/><path d="M607.443 285.122c-.256-4.145-2.448-14.855 18.613-16.455 0 0-1.234 4.33-.29 3.127.4-.516-16.714-.85-15.077 12.023 0 0-2.805 8.266-3.246 1.305z" fill="none" stroke="#000" stroke-width=".562" stroke-miterlimit="10"/><path d="M610.494 285.839c-.01-4.984-1.844-13.346 15.887-15.123 0 0-.813 3.94.01 2.779.292-.406-13.968-1.433-12.597 10.405 0 0-3.286 8.617-3.3 1.939" fill="#b32825"/><path d="M610.494 285.839c-.01-4.984-1.844-13.346 15.887-15.123 0 0-.813 3.94.01 2.779.292-.406-13.968-1.433-12.597 10.405 0 0-3.286 8.617-3.3 1.939z" fill="none" stroke="#000" stroke-width=".562" stroke-miterlimit="10"/><path d="M617.725 283.894s-3.127-9.28 8.26-8.377" fill="#b32825" stroke="#000" stroke-width=".562" stroke-miterlimit="10"/></g><g clip-path="url(#n)" transform="matrix(.35278 0 0 -.35278 -203.123 110.087)"><path d="M620.28 279.09s-1.627-.323 2.017-3.751l4.277-13.822-10.212 5.937-11.672 5.268-1.729 10.91 11.607-2.576z" fill="none" stroke="#000" stroke-width=".562" stroke-miterlimit="10"/><path d="M603.47 272.284a.632.632 0 0 0-.626-.637.635.635 0 0 0-.631.637c0 .352.282.64.63.64a.633.633 0 0 0 .628-.64" fill="#171717"/><path d="M600.283 268.595h1.638" fill="none" stroke="#000" stroke-width=".55" stroke-miterlimit="10"/><path d="M581.982 248.544h5.98s.32-8.984-5.98-11.996z" fill="#fff"/></g><g clip-path="url(#o)" transform="matrix(.35278 0 0 -.35278 -203.123 110.087)"><path d="M580.063 245.903h8.555v-3.289h-8.335l.32-3.494h7.042l-1.105-2.797-6.477-.025" fill="#fff" stroke="#000" stroke-width=".648" stroke-miterlimit="10"/></g><g clip-path="url(#p)" transform="matrix(.35278 0 0 -.35278 -203.123 110.087)"><path d="M581.982 248.544h5.98s.32-8.984-5.98-11.996z" fill="none" stroke="#000" stroke-width=".518" stroke-linecap="round" stroke-linejoin="round" stroke-miterlimit="10"/><path d="M603.42 266.397l-2.027.05" fill="none" stroke="#000" stroke-width=".539" stroke-miterlimit="10"/><path d="M600.25 284.458s-1.496-15.447 16.565-18.633c7.458-1.316 9.759-5.285 11.168-10.537.105-.391-1.237 7.264-3.393 10.109-2.447 3.229-5.389 2.963-6.438 3.114 0 0-15.986.736-14.519 16.074z" fill="#fff"/><path d="M600.25 284.458s-1.496-15.447 16.565-18.633c7.458-1.316 9.759-5.285 11.168-10.537.105-.391-1.237 7.264-3.393 10.109-2.447 3.229-5.389 2.963-6.438 3.114 0 0-15.986.736-14.519 16.074z" fill="none" stroke="#000" stroke-width=".66" stroke-miterlimit="10"/><path d="M600.219 282.755s13.239-8.113 22.078-7.416l1.107 4.478s-10.033.317-23.751 8.909z" fill="#f7cc10"/></g><g clip-path="url(#q)" transform="matrix(.35278 0 0 -.35278 -203.123 110.087)"><path d="M600.219 283.896s13.72-8.498 24.832-7.561l-.435 4.622s-11.245 1.529-24.963 10.123z" fill="#f7cc10"/><path d="M600.219 283.896s13.72-8.498 24.832-7.561l-.435 4.622s-11.245 1.529-24.963 10.123z" fill="none" stroke="#020202" stroke-width=".435" stroke-miterlimit="10"/></g><path d="M8.62 10.338s4.671 2.862 7.79 2.616l.39-1.58s-3.54-.112-8.379-3.143z" fill="none" stroke="#020202" stroke-width=".1534593" stroke-miterlimit="10"/><path d="M14.916 17.196c.184.033.311.189.283.349-.028.16-.201.263-.385.23-.185-.032-.312-.189-.283-.349.028-.16.201-.262.385-.23" fill="#fff"/><path d="M14.916 17.196c.184.033.311.189.283.349-.028.16-.201.263-.385.23-.185-.032-.312-.189-.283-.349.028-.16.201-.262.385-.23z" fill="none" stroke="#000" stroke-width=".14217034" stroke-miterlimit="10"/><path d="M15.132 17.4c.153-.106.353-.085.446.048.094.132.044.328-.11.436-.153.107-.354.086-.447-.047-.092-.133-.043-.328.111-.436" fill="#fff"/><path d="M15.132 17.4c.153-.106.353-.085.446.048.094.132.044.328-.11.436-.153.107-.354.086-.447-.047-.092-.133-.043-.328.111-.436z" fill="none" stroke="#000" stroke-width=".14217034" stroke-miterlimit="10"/><path d="M15.406 17.784c.186.007.333.145.326.307-.006.163-.164.288-.35.28-.188-.008-.335-.145-.328-.307.006-.163.164-.287.352-.28" fill="#fff"/><path d="M15.406 17.784c.186.007.333.145.326.307-.006.163-.164.288-.35.28-.188-.008-.335-.145-.328-.307.006-.163.164-.287.352-.28z" fill="none" stroke="#000" stroke-width=".14217034" stroke-miterlimit="10"/><path d="M14.692 18.304c.047-.181.213-.296.37-.254.158.042.246.222.198.404-.048.18-.214.295-.37.253-.158-.042-.247-.222-.198-.403" fill="#fff"/><path d="M14.692 18.304c.047-.181.213-.296.37-.254.158.042.246.222.198.404-.048.18-.214.295-.37.253-.158-.042-.247-.222-.198-.403z" fill="none" stroke="#000" stroke-width=".14217034" stroke-miterlimit="10"/><path d="M14.702 18.433c-.164.088-.36.046-.437-.097-.078-.143-.007-.332.157-.42.165-.09.362-.047.44.096.077.143.006.331-.16.421" fill="#fff"/><path d="M14.702 18.433c-.164.088-.36.046-.437-.097-.078-.143-.007-.332.157-.42.165-.09.362-.047.44.096.077.143.006.331-.16.421z" fill="none" stroke="#000" stroke-width=".14217034" stroke-miterlimit="10"/><path d="M14.517 18.074c-.184-.03-.315-.183-.29-.343.025-.16.196-.267.38-.238.186.029.316.181.291.343-.024.16-.195.267-.38.238" fill="#fff"/><path d="M14.517 18.074c-.184-.03-.315-.183-.29-.343.025-.16.196-.267.38-.238.186.029.316.181.291.343-.024.16-.195.267-.38.238z" fill="none" stroke="#000" stroke-width=".14217034" stroke-miterlimit="10"/><path d="M15.25 17.933a.291.291 0 0 1-.293.288.291.291 0 0 1-.294-.288c0-.16.131-.289.294-.289a.29.29 0 0 1 .294.289" fill="#fff"/><path d="M15.25 17.933a.291.291 0 0 1-.293.288.291.291 0 0 1-.294-.288c0-.16.131-.289.294-.289a.29.29 0 0 1 .294.289z" fill="none" stroke="#000" stroke-width=".13123416" stroke-miterlimit="10"/><path d="M12.877 18.552c.184.033.311.188.283.349-.028.159-.201.263-.385.23-.185-.032-.312-.19-.284-.349.028-.16.201-.263.386-.23" fill="#fff"/><path d="M12.877 18.552c.184.033.311.188.283.349-.028.159-.201.263-.385.23-.185-.032-.312-.19-.284-.349.028-.16.201-.263.386-.23z" fill="none" stroke="#000" stroke-width=".14217034" stroke-miterlimit="10"/><path d="M13.093 18.757c.153-.107.353-.086.447.047.092.133.043.327-.11.434-.154.108-.355.088-.447-.046-.094-.133-.044-.328.11-.435" fill="#fff"/><path d="M13.093 18.757c.153-.107.353-.086.447.047.092.133.043.327-.11.434-.154.108-.355.088-.447-.046-.094-.133-.044-.328.11-.435z" fill="none" stroke="#000" stroke-width=".14217034" stroke-miterlimit="10"/><path d="M13.367 19.14c.186.007.333.145.327.306-.007.163-.165.288-.351.281-.188-.007-.335-.145-.328-.308.006-.162.164-.287.352-.28" fill="#fff"/><path d="M13.367 19.14c.186.007.333.145.327.306-.007.163-.165.288-.351.281-.188-.007-.335-.145-.328-.308.006-.162.164-.287.352-.28z" fill="none" stroke="#000" stroke-width=".14217034" stroke-miterlimit="10"/><path d="M12.653 19.659c.048-.18.213-.294.37-.253.157.041.246.222.198.402-.048.182-.214.296-.37.255-.158-.042-.246-.222-.198-.404" fill="#fff"/><path d="M12.653 19.659c.048-.18.213-.294.37-.253.157.041.246.222.198.402-.048.182-.214.296-.37.255-.158-.042-.246-.222-.198-.404z" fill="none" stroke="#000" stroke-width=".14217034" stroke-miterlimit="10"/><path d="M12.663 19.789c-.164.088-.36.045-.437-.098-.078-.143-.007-.331.158-.42.164-.09.361-.046.438.097.078.143.006.33-.159.421" fill="#fff"/><path d="M12.663 19.789c-.164.088-.36.045-.437-.098-.078-.143-.007-.331.158-.42.164-.09.361-.046.438.097.078.143.006.33-.159.421z" fill="none" stroke="#000" stroke-width=".14217034" stroke-miterlimit="10"/><path d="M12.478 19.43c-.184-.03-.315-.183-.29-.343.025-.16.196-.267.381-.238.185.028.315.18.29.342-.024.16-.196.268-.381.238" fill="#fff"/><path d="M12.478 19.43c-.184-.03-.315-.183-.29-.343.025-.16.196-.267.381-.238.185.028.315.18.29.342-.024.16-.196.268-.381.238z" fill="none" stroke="#000" stroke-width=".14217034" stroke-miterlimit="10"/><path d="M13.211 19.288c0 .16-.13.289-.293.289a.29.29 0 0 1-.294-.289c0-.159.131-.289.294-.289.162 0 .293.13.293.29" fill="#fff"/><path d="M13.211 19.288c0 .16-.13.289-.293.289a.29.29 0 0 1-.294-.289c0-.159.131-.289.294-.289.162 0 .293.13.293.29z" fill="none" stroke="#000" stroke-width=".13123416" stroke-miterlimit="10"/><path d="M10.79 20.178c.184.033.311.188.283.348-.028.16-.201.263-.385.231-.185-.033-.312-.19-.284-.35.028-.159.201-.262.386-.23" fill="#fff"/><path d="M10.79 20.178c.184.033.311.188.283.348-.028.16-.201.263-.385.231-.185-.033-.312-.19-.284-.35.028-.159.201-.262.386-.23z" fill="none" stroke="#000" stroke-width=".14217034" stroke-miterlimit="10"/><path d="M11.006 20.383c.153-.107.353-.086.446.046.093.134.044.329-.11.435-.153.107-.354.088-.446-.046-.094-.133-.044-.327.11-.435" fill="#fff"/><path d="M11.006 20.383c.153-.107.353-.086.446.046.093.134.044.329-.11.435-.153.107-.354.088-.446-.046-.094-.133-.044-.327.11-.435z" fill="none" stroke="#000" stroke-width=".14217034" stroke-miterlimit="10"/><path d="M11.28 20.765c.186.008.333.145.326.307-.007.163-.164.288-.35.28-.188-.007-.335-.145-.328-.308.006-.16.164-.286.351-.28" fill="#fff"/><path d="M11.28 20.765c.186.008.333.145.326.307-.007.163-.164.288-.35.28-.188-.007-.335-.145-.328-.308.006-.16.164-.286.351-.28z" fill="none" stroke="#000" stroke-width=".14217034" stroke-miterlimit="10"/><path d="M10.565 21.285c.048-.181.214-.295.371-.253.157.04.246.223.198.402-.048.182-.214.297-.371.255-.157-.042-.246-.222-.198-.404" fill="#fff"/><path d="M10.565 21.285c.048-.181.214-.295.371-.253.157.04.246.223.198.402-.048.182-.214.297-.371.255-.157-.042-.246-.222-.198-.404z" fill="none" stroke="#000" stroke-width=".14217034" stroke-miterlimit="10"/><path d="M10.576 21.414c-.164.09-.36.046-.438-.097-.077-.143-.006-.331.159-.42.164-.089.361-.046.438.097.078.143.007.33-.159.42" fill="#fff"/><path d="M10.576 21.414c-.164.09-.36.046-.438-.097-.077-.143-.006-.331.159-.42.164-.089.361-.046.438.097.078.143.007.33-.159.42z" fill="none" stroke="#000" stroke-width=".14217034" stroke-miterlimit="10"/><path d="M10.391 21.055c-.184-.029-.315-.183-.29-.343.025-.16.196-.267.381-.238.185.03.315.182.29.342-.024.16-.195.268-.381.239" fill="#fff"/><path d="M10.391 21.055c-.184-.029-.315-.183-.29-.343.025-.16.196-.267.381-.238.185.03.315.182.29.342-.024.16-.195.268-.381.239z" fill="none" stroke="#000" stroke-width=".14217034" stroke-miterlimit="10"/><path d="M11.125 20.914a.292.292 0 0 1-.294.289.293.293 0 0 1-.295-.289c0-.16.133-.29.295-.29.162 0 .294.13.294.29" fill="#fff"/><path d="M11.125 20.914a.292.292 0 0 1-.294.289.293.293 0 0 1-.295-.289c0-.16.133-.29.295-.29.162 0 .294.13.294.29z" fill="none" stroke="#000" stroke-width=".13123416" stroke-miterlimit="10"/><path d="M8.745 21.587c.184.033.31.19.282.348-.028.16-.201.263-.385.232-.185-.034-.312-.19-.283-.35.028-.16.201-.263.386-.23" fill="#fff"/><path d="M8.745 21.587c.184.033.31.19.282.348-.028.16-.201.263-.385.232-.185-.034-.312-.19-.283-.35.028-.16.201-.263.386-.23z" fill="none" stroke="#000" stroke-width=".14217034" stroke-miterlimit="10"/><path d="M8.96 21.792c.154-.107.353-.087.447.047.093.132.043.328-.11.435-.154.107-.354.087-.447-.046-.093-.134-.044-.328.11-.436" fill="#fff"/><path d="M8.96 21.792c.154-.107.353-.087.447.047.093.132.043.328-.11.435-.154.107-.354.087-.447-.046-.093-.134-.044-.328.11-.436z" fill="none" stroke="#000" stroke-width=".14217034" stroke-miterlimit="10"/><path d="M9.234 22.175c.186.007.333.145.327.307-.007.163-.164.288-.35.28-.188-.008-.335-.146-.329-.308.006-.162.165-.287.352-.279" fill="#fff"/><path d="M9.234 22.175c.186.007.333.145.327.307-.007.163-.164.288-.35.28-.188-.008-.335-.146-.329-.308.006-.162.165-.287.352-.279z" fill="none" stroke="#000" stroke-width=".14217034" stroke-miterlimit="10"/><path d="M8.52 22.694c.048-.18.214-.294.37-.253.157.041.246.223.198.403-.047.181-.213.295-.37.254-.158-.042-.246-.221-.198-.404" fill="#fff"/><path d="M8.52 22.694c.048-.18.214-.294.37-.253.157.041.246.223.198.403-.047.181-.213.295-.37.254-.158-.042-.246-.221-.198-.404z" fill="none" stroke="#000" stroke-width=".14217034" stroke-miterlimit="10"/><path d="M8.531 22.824c-.164.088-.36.046-.438-.098-.078-.143-.006-.33.158-.42.165-.088.362-.046.44.097.077.143.005.33-.16.421" fill="#fff"/><path d="M8.531 22.824c-.164.088-.36.046-.438-.098-.078-.143-.006-.33.158-.42.165-.088.362-.046.44.097.077.143.005.33-.16.421z" fill="none" stroke="#000" stroke-width=".14217034" stroke-miterlimit="10"/><path d="M8.346 22.464c-.185-.03-.316-.182-.29-.342.025-.16.195-.267.38-.238.186.028.316.181.291.343-.024.16-.196.266-.381.237" fill="#fff"/><path d="M8.346 22.464c-.185-.03-.316-.182-.29-.342.025-.16.195-.267.38-.238.186.028.316.181.291.343-.024.16-.196.266-.381.237z" fill="none" stroke="#000" stroke-width=".14217034" stroke-miterlimit="10"/><path d="M9.08 22.323a.291.291 0 0 1-.294.288.292.292 0 0 1-.295-.288c0-.159.132-.288.295-.288.162 0 .293.13.293.288" fill="#fff"/><path d="M9.08 22.323a.291.291 0 0 1-.294.288.292.292 0 0 1-.295-.288c0-.159.132-.288.295-.288.162 0 .293.13.293.288z" fill="none" stroke="#000" stroke-width=".13123416" stroke-miterlimit="10"/><path d="M9.288 8.231a.486.486 0 1 1-.972 0 .486.486 0 0 1 .972 0" fill="#f7cc10"/><path d="M9.288 8.231a.486.486 0 1 1-.972 0 .486.486 0 0 1 .972 0z" fill="none" stroke="#020202" stroke-width=".16580659999999997" stroke-miterlimit="10"/><path d="M9.68 8.792a.328.328 0 1 1-.656 0 .328.328 0 0 1 .656 0" fill="#f7cc10"/><path d="M9.68 8.792a.328.328 0 1 1-.656 0 .328.328 0 0 1 .656 0z" fill="none" stroke="#020202" stroke-width=".11253682" stroke-miterlimit="10"/><path d="M10.118 9.135a.312.312 0 1 1-.624 0 .312.312 0 0 1 .624 0" fill="#f7cc10"/><path d="M10.118 9.135a.312.312 0 1 1-.624 0 .312.312 0 0 1 .624 0z" fill="none" stroke="#020202" stroke-width=".10724511999999999" stroke-miterlimit="10"/><path d="M10.667 9.478a.313.313 0 1 1-.626 0 .313.313 0 0 1 .626 0" fill="#f7cc10"/><path d="M10.667 9.478a.313.313 0 1 1-.626 0 .313.313 0 0 1 .626 0z" fill="none" stroke="#020202" stroke-width=".10724511999999999" stroke-miterlimit="10"/><path d="M11.24 9.759a.312.312 0 1 1-.624 0 .312.312 0 0 1 .625 0" fill="#f7cc10"/><path d="M11.24 9.759a.312.312 0 1 1-.624 0 .312.312 0 0 1 .625 0z" fill="none" stroke="#020202" stroke-width=".10724511999999999" stroke-miterlimit="10"/><path d="M11.812 10.005a.313.313 0 1 1-.626 0 .313.313 0 0 1 .626 0" fill="#f7cc10"/><path d="M11.812 10.005a.313.313 0 1 1-.626 0 .313.313 0 0 1 .626 0z" fill="none" stroke="#020202" stroke-width=".10724511999999999" stroke-miterlimit="10"/><path d="M3.828 15.388c.301.052.51.308.463.57-.047.262-.33.43-.63.377-.304-.054-.512-.31-.465-.571.046-.261.33-.43.632-.376" fill="#f7cc10"/><path d="M3.828 15.388c.301.052.51.308.463.57-.047.262-.33.43-.63.377-.304-.054-.512-.31-.465-.571.046-.261.33-.43.632-.376z" fill="none" stroke="#020202" stroke-width=".1534593" stroke-miterlimit="10"/><path d="M4.18 15.722c.251-.175.579-.14.731.077.153.217.071.537-.18.712-.25.177-.58.143-.731-.076-.152-.217-.071-.537.18-.713" fill="#f7cc10"/><path d="M4.18 15.722c.251-.175.579-.14.731.077.153.217.071.537-.18.712-.25.177-.58.143-.731-.076-.152-.217-.071-.537.18-.713z" fill="none" stroke="#020202" stroke-width=".1534593" stroke-miterlimit="10"/><path d="M4.63 16.349c.304.012.545.237.534.503-.011.266-.269.471-.574.459-.307-.014-.548-.239-.537-.504.01-.265.268-.471.576-.458" fill="#f7cc10"/><path d="M4.63 16.349c.304.012.545.237.534.503-.011.266-.269.471-.574.459-.307-.014-.548-.239-.537-.504.01-.265.268-.471.576-.458z" fill="none" stroke="#020202" stroke-width=".1534593" stroke-miterlimit="10"/><path d="M3.46 17.199c.078-.295.35-.48.607-.414.256.068.402.364.324.66-.079.297-.35.483-.607.415-.258-.068-.403-.363-.324-.661" fill="#f7cc10"/><path d="M3.46 17.199c.078-.295.35-.48.607-.414.256.068.402.364.324.66-.079.297-.35.483-.607.415-.258-.068-.403-.363-.324-.661z" fill="none" stroke="#020202" stroke-width=".1534593" stroke-miterlimit="10"/><path d="M3.478 17.412c-.27.145-.591.074-.717-.16-.128-.233-.01-.542.258-.687.27-.146.593-.076.72.159.126.232.01.541-.261.688" fill="#f7cc10"/><path d="M3.478 17.412c-.27.145-.591.074-.717-.16-.128-.233-.01-.542.258-.687.27-.146.593-.076.72.159.126.232.01.541-.261.688z" fill="none" stroke="#020202" stroke-width=".1534593" stroke-miterlimit="10"/><path d="M3.175 16.823c-.302-.047-.516-.298-.475-.561.04-.263.32-.436.623-.39.302.047.516.298.476.562-.04.262-.321.437-.624.39" fill="#f7cc10"/><path d="M3.175 16.823c-.302-.047-.516-.298-.475-.561.04-.263.32-.436.623-.39.302.047.516.298.476.562-.04.262-.321.437-.624.39z" fill="none" stroke="#020202" stroke-width=".1534593" stroke-miterlimit="10"/><path d="M4.376 16.592c0 .26-.216.472-.481.472a.477.477 0 0 1-.482-.472c0-.261.215-.474.482-.474.265 0 .48.213.48.474" fill="#fff"/><path d="M4.376 16.592c0 .26-.216.472-.481.472a.477.477 0 0 1-.482-.472c0-.261.215-.474.482-.474.265 0 .48.213.48.474z" fill="none" stroke="#000" stroke-width=".13123416" stroke-miterlimit="10"/><path d="M3.6 20.403s.358-1.03 1.26-1.001c0 0-.107 1.055-1.261 1.009z" fill="#f7cc10"/><path d="M3.6 20.403s.358-1.03 1.26-1.001c0 0-.107 1.055-1.261 1.009z" fill="none" stroke="#020202" stroke-width=".1534593" stroke-miterlimit="10"/><path d="M3.06 19.772s-.081-1.089-.96-1.29c0 0-.168 1.046.96 1.298z" fill="#f7cc10"/><path d="M3.06 19.772s-.081-1.089-.96-1.29c0 0-.168 1.046.96 1.298z" fill="none" stroke="#020202" stroke-width=".1534593" stroke-miterlimit="10"/><path d="M5.196 11.491c-.1 0-.194.02-.285.048a.96.96 0 0 0 .2-.583.964.964 0 0 0-1.926 0c0 .22.076.42.2.582a.97.97 0 0 0-.285-.047.964.964 0 0 0 0 1.927c.275 0 .52-.117.694-.3-.043.35-.14.97-.3 1.09h1.308c-.16-.12-.257-.74-.3-1.09a.96.96 0 0 0 1.658-.664.964.964 0 0 0-.964-.963" fill="green"/></svg>