<svg xmlns="http://www.w3.org/2000/svg" width="77.903" height="108.449" viewBox="0 0 20.612 28.694"><defs><clipPath clipPathUnits="userSpaceOnUse" id="a"><path d="M388.896 262.37l-17.765-13.41-3.666-12.397h45.703v18.725l-2.832 9.221-12.151 3.803z"/></clipPath><clipPath clipPathUnits="userSpaceOnUse" id="b"><path d="M376.22 236.563h15.506l21.442 16.328v2.397l-2.192 7.139z"/></clipPath><clipPath clipPathUnits="userSpaceOnUse" id="c"><path d="M378.923 236.563h9.998l24.247 18.494v.231l-1.635 5.324z"/></clipPath><clipPath clipPathUnits="userSpaceOnUse" id="d"><path d="M376.22 236.563h15.506l21.442 16.328v2.397l-2.192 7.139z"/></clipPath><clipPath clipPathUnits="userSpaceOnUse" id="e"><path d="M388.896 262.37l-17.765-13.41-3.666-12.397h45.703v18.725l-2.832 9.221-12.151 3.803z"/></clipPath><clipPath clipPathUnits="userSpaceOnUse" id="f"><path d="M377.579 253.827l-2.725-17.264h5.037l3.503 21.654z"/></clipPath><clipPath clipPathUnits="userSpaceOnUse" id="g"><path d="M388.896 262.37l-17.765-13.41-3.666-12.397h45.703v18.725l-2.832 9.221-12.151 3.803z"/></clipPath><clipPath clipPathUnits="userSpaceOnUse" id="h"><path d="M396.714 236.563h8.196l8.258 6.313v6.356z"/></clipPath><clipPath clipPathUnits="userSpaceOnUse" id="i"><path d="M388.896 262.37l-17.765-13.41-3.666-12.397h45.703v18.725l-2.832 9.221-12.151 3.803z"/></clipPath><clipPath clipPathUnits="userSpaceOnUse" id="j"><path d="M0 842.979h701.352V0H0z"/></clipPath><clipPath clipPathUnits="userSpaceOnUse" id="k"><path d="M386.129 279.85s1.213-3.121 1.213-3.78l-2.504-7.475h1.463v-6.18s10.909-2.559 14.138 5.791v12.91s-2.416.188-5.298.188c-3.449 0-7.567-.269-9.012-1.454"/></clipPath><clipPath clipPathUnits="userSpaceOnUse" id="l"><path d="M0 842.979h701.352V0H0z"/></clipPath><clipPath clipPathUnits="userSpaceOnUse" id="m"><path d="M389.875 272.722l11.672-5.268 10.212-5.937-4.277 13.822c-3.644 3.428-2.018 3.752-2.018 3.752l-5.711 1.965-11.607 2.575z"/></clipPath><clipPath clipPathUnits="userSpaceOnUse" id="n"><path d="M0 842.979h701.352V0H0z"/></clipPath><clipPath clipPathUnits="userSpaceOnUse" id="o"><path d="M367.167 248.544v-11.996c6.3 3.011 5.979 11.996 5.979 11.996z"/></clipPath><clipPath clipPathUnits="userSpaceOnUse" id="p"><path d="M0 842.979h701.352V0H0z"/></clipPath><clipPath clipPathUnits="userSpaceOnUse" id="q"><path d="M385.404 282.755s13.238-8.114 22.078-7.416l1.106 4.478s-10.031.317-23.75 8.908z"/></clipPath></defs><path d="M20.5 26.678a1.91 1.91 0 0 1-1.904 1.905H2.016a1.91 1.91 0 0 1-1.905-1.905V2.016A1.91 1.91 0 0 1 2.016.111h16.58a1.91 1.91 0 0 1 1.905 1.905z" fill="#fafafa" fill-rule="evenodd"/><path d="M20.5 26.678a1.91 1.91 0 0 1-1.904 1.905H2.016a1.91 1.91 0 0 1-1.905-1.905V2.016A1.91 1.91 0 0 1 2.016.111h16.58a1.91 1.91 0 0 1 1.905 1.905z" fill="none" stroke="#ccc" stroke-width=".2222514" stroke-miterlimit="3.864"/><path d="M3.484 7.35c0 .46.202.633.523.633s.523-.173.523-.632V3.884c0-.46-.202-.634-.523-.634s-.523.175-.523.634zM2.475 3.949c0-1.028.541-1.615 1.532-1.615.99 0 1.532.587 1.532 1.615v3.339c0 .357-.064.66-.193.898.046.12.12.138.284.138h.092v.9h-.138c-.45 0-.733-.166-.871-.441-.202.073-.44.12-.706.12-.99 0-1.532-.588-1.532-1.615z" fill="#00f"/><path d="M9.806 9.562s1.38-1.1 3.674-.55c0 0 2.484.434 2.59 3.613 0 0-.276-.85-1.094-.6-.817.251-3.427-1.145-3.709-1.161-.282-.015-1.46-1.302-1.46-1.302" fill="#b32825"/><path d="M9.806 9.562s1.38-1.1 3.674-.55c0 0 2.484.434 2.59 3.613 0 0-.276-.85-1.094-.6-.817.251-3.427-1.145-3.709-1.161-.282-.015-1.46-1.302-1.46-1.302z" fill="none" stroke="#000" stroke-width=".19826236" stroke-miterlimit="10"/><path d="M8.656 10.674c.696 5.19-1.287 8.184-2.696 9.794l3.825-1.212 2.4-5.468-1.107-1.474z" fill="#b32825"/><path d="M8.656 10.674c.696 5.19-1.287 8.184-2.696 9.794l3.825-1.212 2.4-5.468-1.107-1.474z" fill="none" stroke="#000" stroke-width=".20390683999999998" stroke-miterlimit="10"/><path d="M9.853 17.529l-6.267 4.73-1.293 4.374h16.122v-6.606l-.999-3.253-4.286-1.34z" fill="#00f"/><g clip-path="url(#a)" transform="matrix(.35278 0 0 -.35278 -127.34 110.087)"><path d="M382.871 264.778c0-.002 1.061-6.97 9.646-5.779 8.588 1.19 12.258 7.845 11.616 11.302-.643 3.46-7.683 4.264-7.683 4.264z" fill="#fff"/><path d="M382.871 264.778c0-.002 1.061-6.97 9.646-5.779 8.588 1.19 12.258 7.845 11.616 11.302-.643 3.46-7.683 4.264-7.683 4.264z" fill="none" stroke="#000" stroke-width=".718" stroke-miterlimit="10"/><path d="M399.822 271.48l1.523-5.653" fill="#b32825" stroke="#000" stroke-width=".578" stroke-miterlimit="10"/><path d="M373.291 234.384l38.61 28.732 4.66-7.642-30.417-23.161z" fill="#f7cc10"/></g><g clip-path="url(#b)" transform="matrix(.35278 0 0 -.35278 -127.34 110.087)"><path d="M385.11 233.656l33.301 25.4-3.236 4.242-40.434-29.82z" fill="#b32825"/></g><g clip-path="url(#c)" transform="matrix(.35278 0 0 -.35278 -127.34 110.087)"><path d="M385.836 237.925c.49-.645.354-1.578-.306-2.076a1.488 1.488 0 0 0-2.085.265 1.485 1.485 0 0 0 .306 2.079c.659.502 1.595.38 2.085-.268" fill="#fff"/><path d="M385.836 237.925c.49-.645.354-1.578-.306-2.076a1.488 1.488 0 0 0-2.085.265 1.485 1.485 0 0 0 .306 2.079c.659.502 1.595.38 2.085-.268z" fill="none" stroke="#000" stroke-width=".409" stroke-miterlimit="10"/><path d="M385.138 238.661c.07.81.796 1.408 1.622 1.338.824-.068 1.438-.787 1.368-1.594-.07-.812-.796-1.412-1.622-1.34a1.49 1.49 0 0 0-1.368 1.596" fill="#fff"/><path d="M385.138 238.661c.07.81.796 1.408 1.622 1.338.824-.068 1.438-.787 1.368-1.594-.07-.812-.796-1.412-1.622-1.34a1.49 1.49 0 0 0-1.368 1.596z" fill="none" stroke="#000" stroke-width=".409" stroke-miterlimit="10"/><path d="M389.784 240.919c.491-.645.354-1.576-.305-2.078-.659-.498-1.595-.377-2.085.266a1.488 1.488 0 0 0 .306 2.082c.658.5 1.593.378 2.084-.27" fill="#fff"/><path d="M389.784 240.919c.491-.645.354-1.576-.305-2.078-.659-.498-1.595-.377-2.085.266a1.488 1.488 0 0 0 .306 2.082c.658.5 1.593.378 2.084-.27z" fill="none" stroke="#000" stroke-width=".409" stroke-miterlimit="10"/><path d="M389.088 241.657c.068.805.795 1.408 1.62 1.338.825-.068 1.439-.787 1.37-1.594-.07-.812-.797-1.412-1.623-1.34-.824.071-1.437.784-1.367 1.596" fill="#fff"/><path d="M389.088 241.657c.068.805.795 1.408 1.62 1.338.825-.068 1.439-.787 1.37-1.594-.07-.812-.797-1.412-1.623-1.34-.824.071-1.437.784-1.367 1.596z" fill="none" stroke="#000" stroke-width=".409" stroke-miterlimit="10"/><path d="M393.742 243.923c.488-.645.354-1.58-.307-2.08a1.487 1.487 0 0 0-2.084.266c-.492.648-.355 1.582.306 2.084a1.491 1.491 0 0 0 2.085-.27" fill="#fff"/><path d="M393.742 243.923c.488-.645.354-1.58-.307-2.08a1.487 1.487 0 0 0-2.084.266c-.492.648-.355 1.582.306 2.084a1.491 1.491 0 0 0 2.085-.27z" fill="none" stroke="#000" stroke-width=".409" stroke-miterlimit="10"/><path d="M393.045 244.66c.068.806.795 1.403 1.62 1.335.825-.07 1.438-.787 1.368-1.594-.068-.81-.795-1.41-1.62-1.338a1.486 1.486 0 0 0-1.368 1.596" fill="#fff"/><path d="M393.045 244.66c.068.806.795 1.403 1.62 1.335.825-.07 1.438-.787 1.368-1.594-.068-.81-.795-1.41-1.62-1.338a1.486 1.486 0 0 0-1.368 1.596z" fill="none" stroke="#000" stroke-width=".409" stroke-miterlimit="10"/><path d="M397.691 246.917a1.489 1.489 0 0 0-.305-2.078c-.662-.502-1.595-.381-2.086.264-.492.65-.356 1.58.305 2.082.66.5 1.594.38 2.086-.268" fill="#fff"/><path d="M397.691 246.917a1.489 1.489 0 0 0-.305-2.078c-.662-.502-1.595-.381-2.086.264-.492.65-.356 1.58.305 2.082.66.5 1.594.38 2.086-.268z" fill="none" stroke="#000" stroke-width=".409" stroke-miterlimit="10"/><path d="M396.994 247.651c.068.811.795 1.41 1.62 1.34.825-.07 1.437-.787 1.37-1.594-.07-.81-.796-1.412-1.623-1.342a1.488 1.488 0 0 0-1.367 1.596" fill="#fff"/><path d="M396.994 247.651c.068.811.795 1.41 1.62 1.34.825-.07 1.437-.787 1.37-1.594-.07-.81-.796-1.412-1.623-1.342a1.488 1.488 0 0 0-1.367 1.596z" fill="none" stroke="#000" stroke-width=".409" stroke-miterlimit="10"/><path d="M401.594 249.878c.49-.646.354-1.578-.305-2.08-.66-.5-1.595-.381-2.086.268-.492.646-.355 1.578.305 2.08.66.498 1.596.378 2.086-.268" fill="#fff"/><path d="M401.594 249.878c.49-.646.354-1.578-.305-2.08-.66-.5-1.595-.381-2.086.268-.492.646-.355 1.578.305 2.08.66.498 1.596.378 2.086-.268z" fill="none" stroke="#000" stroke-width=".409" stroke-miterlimit="10"/><path d="M400.897 250.61c.069.81.795 1.41 1.619 1.34.826-.07 1.439-.787 1.37-1.594-.07-.81-.796-1.412-1.62-1.342-.824.075-1.437.787-1.37 1.596" fill="#fff"/><path d="M400.897 250.61c.069.81.795 1.41 1.619 1.34.826-.07 1.439-.787 1.37-1.594-.07-.81-.796-1.412-1.62-1.342-.824.075-1.437.787-1.37 1.596z" fill="none" stroke="#000" stroke-width=".409" stroke-miterlimit="10"/><path d="M405.543 252.87c.49-.645.354-1.576-.307-2.076a1.486 1.486 0 0 0-2.084.265 1.486 1.486 0 0 0 .306 2.081c.659.5 1.593.38 2.085-.27" fill="#fff"/><path d="M405.543 252.87c.49-.645.354-1.576-.307-2.076a1.486 1.486 0 0 0-2.084.265 1.486 1.486 0 0 0 .306 2.081c.659.5 1.593.38 2.085-.27z" fill="none" stroke="#000" stroke-width=".409" stroke-miterlimit="10"/><path d="M404.846 253.608c.069.807.795 1.408 1.619 1.338.826-.072 1.439-.787 1.37-1.594a1.488 1.488 0 0 0-1.621-1.342 1.489 1.489 0 0 0-1.368 1.598" fill="#fff"/><path d="M404.846 253.608c.069.807.795 1.408 1.619 1.338.826-.072 1.439-.787 1.37-1.594a1.488 1.488 0 0 0-1.621-1.342 1.489 1.489 0 0 0-1.368 1.598z" fill="none" stroke="#000" stroke-width=".409" stroke-miterlimit="10"/><path d="M409.5 255.872c.488-.645.354-1.578-.306-2.078-.661-.5-1.594-.377-2.085.266-.491.648-.355 1.58.304 2.082a1.49 1.49 0 0 0 2.087-.27" fill="#fff"/><path d="M409.5 255.872c.488-.645.354-1.578-.306-2.078-.661-.5-1.594-.377-2.085.266-.491.648-.355 1.58.304 2.082a1.49 1.49 0 0 0 2.087-.27z" fill="none" stroke="#000" stroke-width=".409" stroke-miterlimit="10"/><path d="M408.803 256.608c.068.807.794 1.41 1.619 1.338.826-.07 1.438-.787 1.369-1.594-.068-.812-.795-1.41-1.62-1.34a1.486 1.486 0 0 0-1.368 1.596" fill="#fff"/><path d="M408.803 256.608c.068.807.794 1.41 1.619 1.338.826-.07 1.438-.787 1.369-1.594-.068-.812-.795-1.41-1.62-1.34a1.486 1.486 0 0 0-1.368 1.596z" fill="none" stroke="#000" stroke-width=".409" stroke-miterlimit="10"/><path d="M413.45 258.868a1.487 1.487 0 0 0-.308-2.078c-.66-.502-1.595-.38-2.084.264-.492.65-.355 1.582.305 2.084a1.493 1.493 0 0 0 2.086-.27" fill="#fff"/><path d="M413.45 258.868a1.487 1.487 0 0 0-.308-2.078c-.66-.502-1.595-.38-2.084.264-.492.65-.355 1.582.305 2.084a1.493 1.493 0 0 0 2.086-.27z" fill="none" stroke="#000" stroke-width=".409" stroke-miterlimit="10"/><path d="M412.752 259.604c.068.807.795 1.406 1.619 1.338.825-.072 1.438-.789 1.369-1.594-.068-.81-.795-1.412-1.621-1.342a1.49 1.49 0 0 0-1.367 1.599" fill="#fff"/><path d="M412.752 259.604c.068.807.795 1.406 1.619 1.338.825-.072 1.438-.789 1.369-1.594-.068-.81-.795-1.412-1.621-1.342a1.49 1.49 0 0 0-1.367 1.599z" fill="none" stroke="#000" stroke-width=".409" stroke-miterlimit="10"/></g><g clip-path="url(#d)" transform="matrix(.35278 0 0 -.35278 -127.34 110.087)"><path d="M385.11 233.656l33.301 25.4-3.236 4.242-40.434-29.82z" fill="none" stroke="#000" stroke-width=".578" stroke-miterlimit="10"/></g><g clip-path="url(#e)" transform="matrix(.35278 0 0 -.35278 -127.34 110.087)"><path d="M373.291 234.384l38.61 28.732 4.66-7.642-30.417-23.161z" fill="none" stroke="#020202" stroke-width=".55" stroke-miterlimit="10"/><path d="M384.861 264.798s1.055-4.965 8.071-3.912c7.017 1.053 10.79 7.553 10.17 10.016-.619 2.459-7.356 1.214-7.356 1.214z" fill="#b32825"/><path d="M384.861 264.798s1.055-4.965 8.071-3.912c7.017 1.053 10.79 7.553 10.17 10.016-.619 2.459-7.356 1.214-7.356 1.214z" fill="none" stroke="#000" stroke-width=".562" stroke-miterlimit="10"/><path d="M378.469 259.462l-4.162-26.367h5.023l4.602 28.445z" fill="#fff"/></g><g clip-path="url(#f)" transform="matrix(.35278 0 0 -.35278 -127.34 110.087)"><path d="M380.517 260.892l-4.238-26.326h5.866l4.334 28.494z" fill="#b32825"/><path d="M380.517 260.892l-4.238-26.326h5.866l4.334 28.494z" fill="none" stroke="#000" stroke-width=".578" stroke-miterlimit="10"/><path d="M382.15 260.892l-4.242-26.326h5.87l4.331 28.494z" fill="#fff"/><path d="M382.15 260.892l-4.242-26.326h5.87l4.331 28.494z" fill="none" stroke="#000" stroke-width=".55" stroke-miterlimit="10"/></g><g clip-path="url(#g)" transform="matrix(.35278 0 0 -.35278 -127.34 110.087)"><path d="M378.469 259.462l-4.162-26.367h5.023l4.602 28.445z" fill="none" stroke="#000" stroke-width=".55" stroke-miterlimit="10"/><path d="M415.451 250.99L394.3 234.703l7.013-.892 13.02 9.952z" fill="#fff"/></g><g clip-path="url(#h)" transform="matrix(.35278 0 0 -.35278 -127.34 110.087)"><path d="M417.92 250.618l-21.178-16.2 9.778-.856 10.814 10.5z" fill="#b32825"/><path d="M417.92 250.618l-21.178-16.2 9.778-.856 10.814 10.5z" fill="none" stroke="#000" stroke-width=".578" stroke-miterlimit="10"/><path d="M415.25 246.56l-17.324-13.266 9.737.508 8.754 7.26z" fill="#fff"/><path d="M415.25 246.56l-17.324-13.266 9.737.508 8.754 7.26z" fill="none" stroke="#000" stroke-width=".55" stroke-miterlimit="10"/></g><g clip-path="url(#i)" transform="matrix(.35278 0 0 -.35278 -127.34 110.087)"><path d="M415.451 250.99L394.3 234.703l7.013-.892 13.02 9.952z" fill="none" stroke="#000" stroke-width=".55" stroke-miterlimit="10"/></g><g clip-path="url(#j)" transform="matrix(.35278 0 0 -.35278 -127.34 110.087)"><path d="M388.897 262.37l-17.766-13.41-3.665-12.397h45.702v18.725l-2.833 9.221-12.15 3.802z" fill="none" stroke="#000" stroke-width=".562" stroke-miterlimit="10"/><path d="M370.74 263.08s1.524-.149-.52-6.56c-2.043-6.41 0-8.44 0-8.44l1.071-.827s-1.906 2.097-.004 8.453c2.284 7.637-.058 7.877-.178 8.301" fill="#fff" stroke="#000" stroke-width=".584" stroke-miterlimit="10"/><path d="M386.129 279.85s1.213-3.12 1.213-3.78l-2.504-7.475h1.463v-6.18s10.909-2.558 14.138 5.79v12.912s-11.657.908-14.31-1.266" fill="#fff"/></g><g clip-path="url(#k)" transform="matrix(.35278 0 0 -.35278 -127.34 110.087)"><path d="M390.89 261.63s3.509 1.236 3.247 6.104c-.262 4.863 5.988-.387 5.988-.387l-3.035-5.717-5.461-.975z" fill="#f7cc10"/><path d="M390.89 261.63s3.509 1.236 3.247 6.104c-.262 4.863 5.988-.387 5.988-.387l-3.035-5.717-5.461-.975z" fill="none" stroke="#020202" stroke-width=".437" stroke-miterlimit="10"/></g><g clip-path="url(#l)" transform="matrix(.35278 0 0 -.35278 -127.34 110.087)"><path d="M386.129 279.85s1.213-3.12 1.213-3.78l-2.504-7.475h1.463v-6.18s10.909-2.558 14.138 5.79v12.912s-11.657.908-14.31-1.266z" fill="none" stroke="#000" stroke-width=".55" stroke-miterlimit="10"/><path d="M405.465 279.09s-1.627-.323 2.018-3.751l4.276-13.822-10.212 5.937-11.672 5.268-1.73 10.91 11.608-2.576z" fill="#b32825"/></g><g clip-path="url(#m)" transform="matrix(.35278 0 0 -.35278 -127.34 110.087)"><path d="M392.629 285.122c-.256-4.145-2.45-14.855 18.613-16.455 0 0-1.234 4.33-.291 3.127.4-.516-16.714-.85-15.077 12.023 0 0-2.805 8.266-3.245 1.305" fill="#b32825"/><path d="M392.629 285.122c-.256-4.145-2.45-14.855 18.613-16.455 0 0-1.234 4.33-.291 3.127.4-.516-16.714-.85-15.077 12.023 0 0-2.805 8.266-3.245 1.305z" fill="none" stroke="#000" stroke-width=".562" stroke-miterlimit="10"/><path d="M395.679 285.839c-.01-4.984-1.844-13.346 15.887-15.123 0 0-.812 3.94.01 2.779.292-.406-13.968-1.433-12.597 10.405 0 0-3.285 8.617-3.3 1.939" fill="#b32825"/><path d="M395.679 285.839c-.01-4.984-1.844-13.346 15.887-15.123 0 0-.812 3.94.01 2.779.292-.406-13.968-1.433-12.597 10.405 0 0-3.285 8.617-3.3 1.939z" fill="none" stroke="#000" stroke-width=".562" stroke-miterlimit="10"/><path d="M402.91 283.894s-3.127-9.28 8.26-8.377" fill="#b32825" stroke="#000" stroke-width=".562" stroke-miterlimit="10"/></g><g clip-path="url(#n)" transform="matrix(.35278 0 0 -.35278 -127.34 110.087)"><path d="M405.465 279.09s-1.627-.323 2.018-3.751l4.276-13.822-10.212 5.937-11.672 5.268-1.73 10.91 11.608-2.576z" fill="none" stroke="#000" stroke-width=".562" stroke-miterlimit="10"/><path d="M388.656 272.284c0-.35-.28-.637-.628-.637a.635.635 0 0 0-.63.637c0 .352.281.64.63.64a.633.633 0 0 0 .628-.64" fill="#171717"/><path d="M385.469 268.595h1.637" fill="none" stroke="#000" stroke-width=".55" stroke-miterlimit="10"/><path d="M367.167 248.544h5.979s.321-8.984-5.979-11.996z" fill="#fff"/></g><g clip-path="url(#o)" transform="matrix(.35278 0 0 -.35278 -127.34 110.087)"><path d="M365.247 245.903h8.556v-3.289h-8.335l.32-3.494h7.042l-1.105-2.797-6.478-.025" fill="#fff" stroke="#000" stroke-width=".648" stroke-miterlimit="10"/></g><g clip-path="url(#p)" transform="matrix(.35278 0 0 -.35278 -127.34 110.087)"><path d="M367.167 248.544h5.979s.321-8.984-5.979-11.996z" fill="none" stroke="#000" stroke-width=".518" stroke-linecap="round" stroke-linejoin="round" stroke-miterlimit="10"/><path d="M388.606 266.397l-2.027.05" fill="none" stroke="#000" stroke-width=".539" stroke-miterlimit="10"/><path d="M385.435 284.458S383.94 269.011 402 265.825c7.459-1.316 9.759-5.285 11.168-10.537.106-.391-1.236 7.264-3.393 10.109-2.446 3.229-5.39 2.963-6.437 3.114 0 0-15.987.736-14.52 16.074z" fill="#fff"/><path d="M385.435 284.458S383.94 269.011 402 265.825c7.459-1.316 9.759-5.285 11.168-10.537.106-.391-1.236 7.264-3.393 10.109-2.446 3.229-5.39 2.963-6.437 3.114 0 0-15.987.736-14.52 16.074z" fill="none" stroke="#000" stroke-width=".66" stroke-miterlimit="10"/><path d="M385.404 282.755s13.238-8.113 22.078-7.416l1.106 4.478s-10.032.317-23.75 8.909z" fill="#f7cc10"/></g><g clip-path="url(#q)" transform="matrix(.35278 0 0 -.35278 -127.34 110.087)"><path d="M385.404 283.896s13.721-8.498 24.832-7.561l-.436 4.622s-11.244 1.529-24.962 10.123z" fill="#f7cc10"/><path d="M385.404 283.896s13.721-8.498 24.832-7.561l-.436 4.622s-11.244 1.529-24.962 10.123z" fill="none" stroke="#020202" stroke-width=".435" stroke-miterlimit="10"/></g><path d="M8.621 10.338s4.67 2.862 7.789 2.616l.39-1.58s-3.539-.112-8.378-3.143z" fill="none" stroke="#020202" stroke-width=".1534593" stroke-miterlimit="10"/><path d="M14.917 17.196c.184.033.31.189.282.349-.028.16-.201.263-.385.23-.185-.032-.312-.189-.283-.349.028-.16.201-.262.386-.23" fill="#fff"/><path d="M14.917 17.196c.184.033.31.189.282.349-.028.16-.201.263-.385.23-.185-.032-.312-.189-.283-.349.028-.16.201-.262.386-.23z" fill="none" stroke="#000" stroke-width=".14217034" stroke-miterlimit="10"/><path d="M15.132 17.4c.154-.106.353-.085.446.048.094.132.044.328-.11.436-.153.107-.354.086-.446-.047-.093-.133-.044-.328.11-.436" fill="#fff"/><path d="M15.132 17.4c.154-.106.353-.085.446.048.094.132.044.328-.11.436-.153.107-.354.086-.446-.047-.093-.133-.044-.328.11-.436z" fill="none" stroke="#000" stroke-width=".14217034" stroke-miterlimit="10"/><path d="M15.406 17.784c.186.007.333.145.327.307-.007.163-.164.288-.351.28-.188-.008-.335-.145-.327-.307.006-.163.164-.288.351-.28" fill="#fff"/><path d="M15.406 17.784c.186.007.333.145.327.307-.007.163-.164.288-.351.28-.188-.008-.335-.145-.327-.307.006-.163.164-.288.351-.28z" fill="none" stroke="#000" stroke-width=".14217034" stroke-miterlimit="10"/><path d="M14.692 18.304c.047-.181.213-.296.371-.254.157.042.245.222.197.404-.047.18-.214.295-.37.253-.158-.042-.246-.222-.198-.403" fill="#fff"/><path d="M14.692 18.304c.047-.181.213-.296.371-.254.157.042.245.222.197.404-.047.18-.214.295-.37.253-.158-.042-.246-.222-.198-.403z" fill="none" stroke="#000" stroke-width=".14217034" stroke-miterlimit="10"/><path d="M14.703 18.433c-.165.088-.361.046-.438-.097-.078-.143-.007-.332.158-.42.165-.09.361-.047.439.096.078.143.006.331-.16.421" fill="#fff"/><path d="M14.703 18.433c-.165.088-.361.046-.438-.097-.078-.143-.007-.332.158-.42.165-.09.361-.047.439.096.078.143.006.331-.16.421z" fill="none" stroke="#000" stroke-width=".14217034" stroke-miterlimit="10"/><path d="M14.517 18.074c-.184-.03-.315-.183-.29-.343.026-.16.196-.267.381-.238.185.029.315.181.29.342-.024.161-.195.268-.38.239" fill="#fff"/><path d="M14.517 18.074c-.184-.03-.315-.183-.29-.343.026-.16.196-.267.381-.238.185.029.315.181.29.342-.024.161-.195.268-.38.239z" fill="none" stroke="#000" stroke-width=".14217034" stroke-miterlimit="10"/><path d="M15.251 17.933a.291.291 0 0 1-.294.288.291.291 0 0 1-.294-.288.29.29 0 0 1 .294-.289c.162 0 .294.129.294.289" fill="#fff"/><path d="M15.251 17.933a.291.291 0 0 1-.294.288.291.291 0 0 1-.294-.288.29.29 0 0 1 .294-.289c.162 0 .294.129.294.289z" fill="none" stroke="#000" stroke-width=".13123416" stroke-miterlimit="10"/><path d="M12.877 18.552c.184.033.311.188.283.349-.028.159-.201.263-.385.23-.185-.032-.312-.19-.284-.349.029-.16.202-.263.386-.23" fill="#fff"/><path d="M12.877 18.552c.184.033.311.188.283.349-.028.159-.201.263-.385.23-.185-.032-.312-.19-.284-.349.029-.16.202-.263.386-.23z" fill="none" stroke="#000" stroke-width=".14217034" stroke-miterlimit="10"/><path d="M13.094 18.757c.152-.107.352-.086.446.047.092.133.043.327-.11.434-.154.108-.354.088-.447-.046-.093-.133-.044-.328.11-.435" fill="#fff"/><path d="M13.094 18.757c.152-.107.352-.086.446.047.092.133.043.327-.11.434-.154.108-.354.088-.447-.046-.093-.133-.044-.328.11-.435z" fill="none" stroke="#000" stroke-width=".14217034" stroke-miterlimit="10"/><path d="M13.367 19.14c.186.007.333.145.327.306-.007.163-.165.288-.351.28-.187-.006-.335-.144-.328-.307.006-.162.164-.287.352-.28" fill="#fff"/><path d="M13.367 19.14c.186.007.333.145.327.306-.007.163-.165.288-.351.28-.187-.006-.335-.144-.328-.307.006-.162.164-.287.352-.28z" fill="none" stroke="#000" stroke-width=".14217034" stroke-miterlimit="10"/><path d="M12.653 19.659c.048-.18.213-.294.37-.253.157.041.246.222.198.402-.048.182-.213.296-.37.255-.158-.042-.246-.222-.198-.404" fill="#fff"/><path d="M12.653 19.659c.048-.18.213-.294.37-.253.157.041.246.222.198.402-.048.182-.213.296-.37.255-.158-.042-.246-.222-.198-.404z" fill="none" stroke="#000" stroke-width=".14217034" stroke-miterlimit="10"/><path d="M12.664 19.789c-.165.088-.361.045-.438-.098-.078-.143-.007-.331.158-.42.165-.09.362-.046.439.097.077.143.005.33-.16.42" fill="#fff"/><path d="M12.664 19.789c-.165.088-.361.045-.438-.098-.078-.143-.007-.331.158-.42.165-.09.362-.046.439.097.077.143.005.33-.16.42z" fill="none" stroke="#000" stroke-width=".14217034" stroke-miterlimit="10"/><path d="M12.478 19.43c-.184-.03-.315-.183-.289-.343.025-.16.195-.267.38-.238.185.028.315.18.29.342-.024.16-.195.268-.38.238" fill="#fff"/><path d="M12.478 19.43c-.184-.03-.315-.183-.289-.343.025-.16.195-.267.38-.238.185.028.315.18.29.342-.024.16-.195.268-.38.238z" fill="none" stroke="#000" stroke-width=".14217034" stroke-miterlimit="10"/><path d="M13.211 19.288c0 .16-.13.289-.293.289a.291.291 0 0 1-.294-.289c0-.16.131-.289.294-.289.162 0 .293.13.293.289" fill="#fff"/><path d="M13.211 19.288c0 .16-.13.289-.293.289a.291.291 0 0 1-.294-.289c0-.16.131-.289.294-.289.162 0 .293.13.293.289z" fill="none" stroke="#000" stroke-width=".13123416" stroke-miterlimit="10"/><path d="M10.79 20.178c.184.033.311.188.283.348-.028.16-.201.263-.385.231-.185-.033-.312-.19-.284-.35.029-.159.202-.262.386-.23" fill="#fff"/><path d="M10.79 20.178c.184.033.311.188.283.348-.028.16-.201.263-.385.231-.185-.033-.312-.19-.284-.35.029-.159.202-.262.386-.23z" fill="none" stroke="#000" stroke-width=".14217034" stroke-miterlimit="10"/><path d="M11.006 20.383c.153-.107.353-.086.447.046.092.134.043.329-.11.435-.154.107-.354.088-.447-.047-.093-.133-.044-.327.11-.434" fill="#fff"/><path d="M11.006 20.383c.153-.107.353-.086.447.046.092.134.043.329-.11.435-.154.107-.354.088-.447-.047-.093-.133-.044-.327.11-.434z" fill="none" stroke="#000" stroke-width=".14217034" stroke-miterlimit="10"/><path d="M11.28 20.765c.186.008.333.145.326.307-.006.163-.164.288-.35.28-.188-.007-.335-.145-.328-.308.006-.16.164-.286.352-.28" fill="#fff"/><path d="M11.28 20.765c.186.008.333.145.326.307-.006.163-.164.288-.35.28-.188-.007-.335-.145-.328-.308.006-.16.164-.286.352-.28z" fill="none" stroke="#000" stroke-width=".14217034" stroke-miterlimit="10"/><path d="M10.566 21.285c.047-.182.213-.295.37-.253.157.04.246.222.198.402-.047.182-.213.297-.371.255-.157-.042-.246-.222-.197-.404" fill="#fff"/><path d="M10.566 21.285c.047-.182.213-.295.37-.253.157.04.246.222.198.402-.047.182-.213.297-.371.255-.157-.042-.246-.222-.197-.404z" fill="none" stroke="#000" stroke-width=".14217034" stroke-miterlimit="10"/><path d="M10.577 21.414c-.164.09-.361.046-.438-.097-.078-.143-.007-.331.158-.42.165-.09.362-.046.438.096.078.144.007.332-.158.421" fill="#fff"/><path d="M10.577 21.414c-.164.09-.361.046-.438-.097-.078-.143-.007-.331.158-.42.165-.09.362-.046.438.096.078.144.007.332-.158.421z" fill="none" stroke="#000" stroke-width=".14217034" stroke-miterlimit="10"/><path d="M10.391 21.055c-.184-.029-.315-.183-.29-.343.025-.16.196-.267.381-.238.185.03.315.182.29.342-.024.16-.195.268-.38.239" fill="#fff"/><path d="M10.391 21.055c-.184-.029-.315-.183-.29-.343.025-.16.196-.267.381-.238.185.03.315.182.29.342-.024.16-.195.268-.38.239z" fill="none" stroke="#000" stroke-width=".14217034" stroke-miterlimit="10"/><path d="M11.125 20.914a.292.292 0 0 1-.294.289.292.292 0 0 1-.294-.289c0-.16.132-.29.294-.29.162 0 .294.13.294.29" fill="#fff"/><path d="M11.125 20.914a.292.292 0 0 1-.294.289.292.292 0 0 1-.294-.289c0-.16.132-.29.294-.29.162 0 .294.13.294.29z" fill="none" stroke="#000" stroke-width=".13123416" stroke-miterlimit="10"/><path d="M8.745 21.587c.184.033.311.189.283.348-.028.16-.202.263-.385.232-.186-.034-.313-.19-.284-.35.028-.16.201-.263.386-.23" fill="#fff"/><path d="M8.745 21.587c.184.033.311.189.283.348-.028.16-.202.263-.385.232-.186-.034-.313-.19-.284-.35.028-.16.201-.263.386-.23z" fill="none" stroke="#000" stroke-width=".14217034" stroke-miterlimit="10"/><path d="M8.96 21.792c.154-.107.354-.087.447.047.093.132.043.328-.11.434-.153.108-.354.088-.447-.045-.093-.134-.044-.328.11-.436" fill="#fff"/><path d="M8.96 21.792c.154-.107.354-.087.447.047.093.132.043.328-.11.434-.153.108-.354.088-.447-.045-.093-.134-.044-.328.11-.436z" fill="none" stroke="#000" stroke-width=".14217034" stroke-miterlimit="10"/><path d="M9.234 22.175c.186.007.334.145.327.307-.007.163-.164.288-.35.28-.188-.008-.335-.146-.329-.308.007-.162.165-.287.352-.279" fill="#fff"/><path d="M9.234 22.175c.186.007.334.145.327.307-.007.163-.164.288-.35.28-.188-.008-.335-.146-.329-.308.007-.162.165-.287.352-.279z" fill="none" stroke="#000" stroke-width=".14217034" stroke-miterlimit="10"/><path d="M8.52 22.694c.048-.18.214-.294.37-.253.158.041.247.223.198.403-.047.181-.213.295-.37.254-.157-.042-.246-.221-.198-.404" fill="#fff"/><path d="M8.52 22.694c.048-.18.214-.294.37-.253.158.041.247.223.198.403-.047.181-.213.295-.37.254-.157-.042-.246-.221-.198-.404z" fill="none" stroke="#000" stroke-width=".14217034" stroke-miterlimit="10"/><path d="M8.531 22.824c-.164.088-.36.046-.437-.098-.078-.143-.007-.33.157-.42.165-.088.362-.046.44.097.077.143.005.33-.16.421" fill="#fff"/><path d="M8.531 22.824c-.164.088-.36.046-.437-.098-.078-.143-.007-.33.157-.42.165-.088.362-.046.44.097.077.143.005.33-.16.421z" fill="none" stroke="#000" stroke-width=".14217034" stroke-miterlimit="10"/><path d="M8.346 22.464c-.184-.03-.315-.182-.29-.342.025-.16.196-.267.38-.238.186.028.316.181.291.343-.024.16-.196.266-.381.237" fill="#fff"/><path d="M8.346 22.464c-.184-.03-.315-.182-.29-.342.025-.16.196-.267.38-.238.186.028.316.181.291.343-.024.16-.196.266-.381.237z" fill="none" stroke="#000" stroke-width=".14217034" stroke-miterlimit="10"/><path d="M9.08 22.323a.29.29 0 0 1-.294.288.292.292 0 0 1-.295-.288c0-.159.132-.288.295-.288.162 0 .293.13.293.288" fill="#fff"/><path d="M9.08 22.323a.29.29 0 0 1-.294.288.292.292 0 0 1-.295-.288c0-.159.132-.288.295-.288.162 0 .293.13.293.288z" fill="none" stroke="#000" stroke-width=".13123416" stroke-miterlimit="10"/><path d="M9.288 8.231a.486.486 0 1 1-.971 0 .486.486 0 0 1 .97 0" fill="#f7cc10"/><path d="M9.288 8.231a.486.486 0 1 1-.971 0 .486.486 0 0 1 .97 0z" fill="none" stroke="#020202" stroke-width=".16580659999999997" stroke-miterlimit="10"/><path d="M9.68 8.792a.328.328 0 1 1-.656 0 .328.328 0 0 1 .656 0" fill="#f7cc10"/><path d="M9.68 8.792a.328.328 0 1 1-.656 0 .328.328 0 0 1 .656 0z" fill="none" stroke="#020202" stroke-width=".11253682" stroke-miterlimit="10"/><path d="M10.118 9.135a.312.312 0 1 1-.624 0 .312.312 0 0 1 .624 0" fill="#f7cc10"/><path d="M10.118 9.135a.312.312 0 1 1-.624 0 .312.312 0 0 1 .624 0z" fill="none" stroke="#020202" stroke-width=".10724511999999999" stroke-miterlimit="10"/><path d="M10.667 9.478a.313.313 0 1 1-.626 0 .313.313 0 0 1 .626 0" fill="#f7cc10"/><path d="M10.667 9.478a.313.313 0 1 1-.626 0 .313.313 0 0 1 .626 0z" fill="none" stroke="#020202" stroke-width=".10724511999999999" stroke-miterlimit="10"/><path d="M11.24 9.759a.312.312 0 1 1-.624 0 .312.312 0 0 1 .625 0" fill="#f7cc10"/><path d="M11.24 9.759a.312.312 0 1 1-.624 0 .312.312 0 0 1 .625 0z" fill="none" stroke="#020202" stroke-width=".10724511999999999" stroke-miterlimit="10"/><path d="M11.812 10.005a.313.313 0 1 1-.626 0 .313.313 0 0 1 .626 0" fill="#f7cc10"/><path d="M11.812 10.005a.313.313 0 1 1-.626 0 .313.313 0 0 1 .626 0z" fill="none" stroke="#020202" stroke-width=".10724511999999999" stroke-miterlimit="10"/><path d="M3.828 15.388c.301.052.51.308.463.57-.046.262-.33.43-.63.377-.303-.054-.511-.31-.465-.571.047-.261.33-.43.632-.376" fill="#f7cc10"/><path d="M3.828 15.388c.301.052.51.308.463.57-.046.262-.33.43-.63.377-.303-.054-.511-.31-.465-.571.047-.261.33-.43.632-.376z" fill="none" stroke="#020202" stroke-width=".1534593" stroke-miterlimit="10"/><path d="M4.181 15.722c.25-.175.578-.14.73.077.153.217.071.536-.179.712-.25.177-.58.143-.732-.076-.152-.217-.071-.537.181-.713" fill="#f7cc10"/><path d="M4.181 15.722c.25-.175.578-.14.73.077.153.217.071.536-.179.712-.25.177-.58.143-.732-.076-.152-.217-.071-.537.181-.713z" fill="none" stroke="#020202" stroke-width=".1534593" stroke-miterlimit="10"/><path d="M4.63 16.349c.304.012.545.237.534.503-.011.266-.269.471-.574.459-.307-.014-.548-.239-.536-.504.01-.265.268-.471.575-.458" fill="#f7cc10"/><path d="M4.63 16.349c.304.012.545.237.534.503-.011.266-.269.471-.574.459-.307-.014-.548-.239-.536-.504.01-.265.268-.471.575-.458z" fill="none" stroke="#020202" stroke-width=".1534593" stroke-miterlimit="10"/><path d="M3.46 17.199c.078-.295.35-.48.608-.414.256.068.401.364.323.66-.078.297-.35.483-.607.415-.258-.068-.403-.363-.324-.661" fill="#f7cc10"/><path d="M3.46 17.199c.078-.295.35-.48.608-.414.256.068.401.364.323.66-.078.297-.35.483-.607.415-.258-.068-.403-.363-.324-.661z" fill="none" stroke="#020202" stroke-width=".1534593" stroke-miterlimit="10"/><path d="M3.478 17.412c-.27.144-.59.074-.717-.16-.127-.234-.01-.542.258-.688.27-.145.593-.075.72.16.127.232.01.541-.261.688" fill="#f7cc10"/><path d="M3.478 17.412c-.27.144-.59.074-.717-.16-.127-.234-.01-.542.258-.688.27-.145.593-.075.72.16.127.232.01.541-.261.688z" fill="none" stroke="#020202" stroke-width=".1534593" stroke-miterlimit="10"/><path d="M3.175 16.823c-.302-.047-.516-.298-.475-.561.041-.263.32-.436.623-.39.303.047.517.298.476.562-.04.262-.32.437-.624.39" fill="#f7cc10"/><path d="M3.175 16.823c-.302-.047-.516-.298-.475-.561.041-.263.32-.436.623-.39.303.047.517.298.476.562-.04.262-.32.437-.624.39z" fill="none" stroke="#020202" stroke-width=".1534593" stroke-miterlimit="10"/><path d="M4.376 16.592c0 .26-.216.472-.481.472a.477.477 0 0 1-.482-.472c0-.261.216-.474.482-.474.265 0 .48.213.48.474" fill="#fff"/><path d="M4.376 16.592c0 .26-.216.472-.481.472a.477.477 0 0 1-.482-.472c0-.261.216-.474.482-.474.265 0 .48.213.48.474z" fill="none" stroke="#000" stroke-width=".13123416" stroke-miterlimit="10"/><path d="M3.6 20.403s.359-1.03 1.26-1.001c0 0-.107 1.055-1.261 1.009z" fill="#f7cc10"/><path d="M3.6 20.403s.359-1.03 1.26-1.001c0 0-.107 1.055-1.261 1.009z" fill="none" stroke="#020202" stroke-width=".1534593" stroke-miterlimit="10"/><path d="M3.06 19.772s-.08-1.089-.96-1.29c0 0-.168 1.046.96 1.298z" fill="#f7cc10"/><path d="M3.06 19.772s-.08-1.089-.96-1.29c0 0-.168 1.046.96 1.298z" fill="none" stroke="#020202" stroke-width=".1534593" stroke-miterlimit="10"/><path d="M4.165 9.891l1.555 2.25-1.555 2.169-1.589-2.17z" fill="#00f"/></svg>