<svg xmlns="http://www.w3.org/2000/svg" width="77.9" height="108.449" viewBox="0 0 20.611 28.694"><defs><clipPath clipPathUnits="userSpaceOnUse" id="a"><path d="M533.269 262.37l-17.767-13.41-3.664-12.397h45.703v18.725l-2.832 9.221-12.151 3.803z"/></clipPath><clipPath clipPathUnits="userSpaceOnUse" id="b"><path d="M520.593 236.563h15.36l21.588 16.342v2.383l-2.193 7.139z"/></clipPath><clipPath clipPathUnits="userSpaceOnUse" id="c"><path d="M523.41 236.563h10.04l24.091 18.473v.252l-1.634 5.317z"/></clipPath><clipPath clipPathUnits="userSpaceOnUse" id="d"><path d="M520.593 236.563h15.36l21.588 16.342v2.383l-2.193 7.139z"/></clipPath><clipPath clipPathUnits="userSpaceOnUse" id="e"><path d="M533.269 262.37l-17.767-13.41-3.664-12.397h45.703v18.725l-2.832 9.221-12.151 3.803z"/></clipPath><clipPath clipPathUnits="userSpaceOnUse" id="f"><path d="M521.952 253.828l-2.725-17.265h5.035l3.505 21.654z"/></clipPath><clipPath clipPathUnits="userSpaceOnUse" id="g"><path d="M533.269 262.37l-17.767-13.41-3.664-12.397h45.703v18.725l-2.832 9.221-12.151 3.803z"/></clipPath><clipPath clipPathUnits="userSpaceOnUse" id="h"><path d="M541.086 236.563h8.211l8.244 6.309v6.361z"/></clipPath><clipPath clipPathUnits="userSpaceOnUse" id="i"><path d="M533.269 262.37l-17.767-13.41-3.664-12.397h45.703v18.725l-2.832 9.221-12.151 3.803z"/></clipPath><clipPath clipPathUnits="userSpaceOnUse" id="j"><path d="M0 842.979h701.352V0H0z"/></clipPath><clipPath clipPathUnits="userSpaceOnUse" id="k"><path d="M530.501 279.85s1.213-3.121 1.213-3.78l-2.504-7.475h1.462v-6.18s10.91-2.559 14.138 5.791v12.91s-2.415.188-5.297.188c-3.449 0-7.566-.269-9.012-1.454"/></clipPath><clipPath clipPathUnits="userSpaceOnUse" id="l"><path d="M0 842.979h701.352V0H0z"/></clipPath><clipPath clipPathUnits="userSpaceOnUse" id="m"><path d="M534.248 272.722l11.672-5.268 10.211-5.937-4.276 13.822c-3.644 3.428-2.018 3.752-2.018 3.752l-5.712 1.965-11.608 2.575z"/></clipPath><clipPath clipPathUnits="userSpaceOnUse" id="n"><path d="M0 842.979h701.352V0H0z"/></clipPath><clipPath clipPathUnits="userSpaceOnUse" id="o"><path d="M511.539 248.544v-11.996c6.301 3.011 5.981 11.996 5.981 11.996z"/></clipPath><clipPath clipPathUnits="userSpaceOnUse" id="p"><path d="M0 842.979h701.352V0H0z"/></clipPath><clipPath clipPathUnits="userSpaceOnUse" id="q"><path d="M529.776 282.755s13.24-8.114 22.079-7.416l1.106 4.478s-10.032.317-23.751 8.908z"/></clipPath></defs><path d="M20.5 26.678a1.91 1.91 0 0 1-1.905 1.905H2.015a1.91 1.91 0 0 1-1.904-1.905V2.016A1.91 1.91 0 0 1 2.016.111h16.58A1.91 1.91 0 0 1 20.5 2.016z" fill="#fafafa" fill-rule="evenodd"/><path d="M20.5 26.678a1.91 1.91 0 0 1-1.905 1.905H2.015a1.91 1.91 0 0 1-1.904-1.905V2.016A1.91 1.91 0 0 1 2.016.111h16.58A1.91 1.91 0 0 1 20.5 2.016z" fill="none" stroke="#ccc" stroke-width=".2222514" stroke-miterlimit="3.864"/><path d="M3.484 7.35c0 .46.201.633.522.633s.523-.173.523-.632V3.884c0-.46-.202-.634-.523-.634-.32 0-.522.175-.522.634zm-1.01-3.402c0-1.028.542-1.615 1.532-1.615.991 0 1.532.587 1.532 1.615v3.339c0 .357-.064.66-.192.898.045.12.119.138.284.138h.092v.9h-.138c-.45 0-.734-.166-.871-.441-.202.073-.44.12-.707.12-.99 0-1.531-.588-1.531-1.615z" fill="#171717"/><path d="M9.806 9.562s1.38-1.1 3.673-.55c0 0 2.485.434 2.591 3.613 0 0-.276-.85-1.094-.6-.818.251-3.427-1.145-3.709-1.161-.282-.015-1.461-1.302-1.461-1.302" fill="#b32825"/><path d="M9.806 9.562s1.38-1.1 3.673-.55c0 0 2.485.434 2.591 3.613 0 0-.276-.85-1.094-.6-.818.251-3.427-1.145-3.709-1.161-.282-.015-1.461-1.302-1.461-1.302z" fill="none" stroke="#000" stroke-width=".19826236" stroke-miterlimit="10"/><path d="M8.656 10.674c.696 5.19-1.288 8.184-2.696 9.794l3.825-1.212 2.4-5.468-1.108-1.474z" fill="#b32825"/><path d="M8.656 10.674c.696 5.19-1.288 8.184-2.696 9.794l3.825-1.212 2.4-5.468-1.108-1.474z" fill="none" stroke="#000" stroke-width=".20390683999999998" stroke-miterlimit="10"/><path d="M9.853 17.529l-6.268 4.73-1.293 4.374H18.415v-6.606l-.999-3.253-4.286-1.34z"/><g clip-path="url(#a)" transform="matrix(.35278 0 0 -.35278 -178.272 110.087)"><path d="M527.244 264.778c0-.002 1.06-6.97 9.646-5.779 8.588 1.19 12.256 7.845 11.614 11.302-.642 3.46-7.682 4.264-7.682 4.264z" fill="#fff"/><path d="M527.244 264.778c0-.002 1.06-6.97 9.646-5.779 8.588 1.19 12.256 7.845 11.614 11.302-.642 3.46-7.682 4.264-7.682 4.264z" fill="none" stroke="#000" stroke-width=".718" stroke-miterlimit="10"/><path d="M544.193 271.48l1.525-5.653" fill="#b32825" stroke="#000" stroke-width=".578" stroke-miterlimit="10"/><path d="M517.664 234.384l38.61 28.732 4.66-7.642-29.165-22.077z" fill="#f7cc10"/></g><g clip-path="url(#b)" transform="matrix(.35278 0 0 -.35278 -178.272 110.087)"><path d="M530.95 234.647l31.833 24.409-3.236 4.242-38.968-28.83z" fill="#b32825"/></g><g clip-path="url(#c)" transform="matrix(.35278 0 0 -.35278 -178.272 110.087)"><path d="M530.208 237.925c.49-.645.354-1.578-.306-2.076-.66-.502-1.595-.38-2.084.265a1.484 1.484 0 0 0 .305 2.079c.66.502 1.594.38 2.085-.268" fill="#fff"/><path d="M530.208 237.925c.49-.645.354-1.578-.306-2.076-.66-.502-1.595-.38-2.084.265a1.484 1.484 0 0 0 .305 2.079c.66.502 1.594.38 2.085-.268z" fill="none" stroke="#000" stroke-width=".409" stroke-miterlimit="10"/><path d="M529.51 238.661c.07.81.797 1.408 1.62 1.338.827-.068 1.44-.787 1.37-1.594-.068-.812-.796-1.412-1.621-1.34a1.489 1.489 0 0 0-1.37 1.596" fill="#fff"/><path d="M529.51 238.661c.07.81.797 1.408 1.62 1.338.827-.068 1.44-.787 1.37-1.594-.068-.812-.796-1.412-1.621-1.34a1.489 1.489 0 0 0-1.37 1.596z" fill="none" stroke="#000" stroke-width=".409" stroke-miterlimit="10"/><path d="M534.156 240.919c.491-.645.354-1.576-.305-2.078-.66-.498-1.595-.377-2.084.266a1.487 1.487 0 0 0 .305 2.082c.658.5 1.594.378 2.084-.27" fill="#fff"/><path d="M534.156 240.919c.491-.645.354-1.576-.305-2.078-.66-.498-1.595-.377-2.084.266a1.487 1.487 0 0 0 .305 2.082c.658.5 1.594.378 2.084-.27z" fill="none" stroke="#000" stroke-width=".409" stroke-miterlimit="10"/><path d="M533.459 241.657c.069.805.796 1.408 1.621 1.338a1.488 1.488 0 0 0 1.37-1.594c-.07-.812-.796-1.412-1.624-1.34a1.488 1.488 0 0 0-1.367 1.596" fill="#fff"/><path d="M533.459 241.657c.069.805.796 1.408 1.621 1.338a1.488 1.488 0 0 0 1.37-1.594c-.07-.812-.796-1.412-1.624-1.34a1.488 1.488 0 0 0-1.367 1.596z" fill="none" stroke="#000" stroke-width=".409" stroke-miterlimit="10"/><path d="M538.115 243.923c.487-.645.353-1.58-.307-2.08a1.488 1.488 0 0 0-2.085.266c-.49.648-.356 1.582.306 2.084a1.492 1.492 0 0 0 2.086-.27" fill="#fff"/><path d="M538.115 243.923c.487-.645.353-1.58-.307-2.08a1.488 1.488 0 0 0-2.085.266c-.49.648-.356 1.582.306 2.084a1.492 1.492 0 0 0 2.086-.27z" fill="none" stroke="#000" stroke-width=".409" stroke-miterlimit="10"/><path d="M537.416 244.66c.069.806.795 1.403 1.621 1.335.824-.07 1.438-.787 1.369-1.594a1.486 1.486 0 0 0-1.621-1.338 1.488 1.488 0 0 0-1.369 1.596" fill="#fff"/><path d="M537.416 244.66c.069.806.795 1.403 1.621 1.335.824-.07 1.438-.787 1.369-1.594a1.486 1.486 0 0 0-1.621-1.338 1.488 1.488 0 0 0-1.369 1.596z" fill="none" stroke="#000" stroke-width=".409" stroke-miterlimit="10"/><path d="M542.063 246.917c.49-.646.355-1.578-.305-2.078-.66-.502-1.595-.381-2.086.264a1.49 1.49 0 0 0 .306 2.082c.66.5 1.594.38 2.085-.268" fill="#fff"/><path d="M542.063 246.917c.49-.646.355-1.578-.305-2.078-.66-.502-1.595-.381-2.086.264a1.49 1.49 0 0 0 .306 2.082c.66.5 1.594.38 2.085-.268z" fill="none" stroke="#000" stroke-width=".409" stroke-miterlimit="10"/><path d="M541.367 247.651c.068.811.793 1.41 1.618 1.34.825-.07 1.44-.787 1.37-1.594-.069-.81-.795-1.412-1.62-1.342-.825.071-1.438.784-1.368 1.596" fill="#fff"/><path d="M541.367 247.651c.068.811.793 1.41 1.618 1.34.825-.07 1.44-.787 1.37-1.594-.069-.81-.795-1.412-1.62-1.342-.825.071-1.438.784-1.368 1.596z" fill="none" stroke="#000" stroke-width=".409" stroke-miterlimit="10"/><path d="M545.965 249.878c.49-.646.355-1.578-.305-2.08-.66-.5-1.595-.381-2.084.268-.492.646-.357 1.578.305 2.08.659.498 1.594.378 2.084-.268" fill="#fff"/><path d="M545.965 249.878c.49-.646.355-1.578-.305-2.08-.66-.5-1.595-.381-2.084.268-.492.646-.357 1.578.305 2.08.659.498 1.594.378 2.084-.268z" fill="none" stroke="#000" stroke-width=".409" stroke-miterlimit="10"/><path d="M545.27 250.61c.068.81.794 1.41 1.619 1.34.825-.07 1.438-.787 1.369-1.594-.068-.81-.795-1.412-1.621-1.342-.824.075-1.436.787-1.367 1.596" fill="#fff"/><path d="M545.27 250.61c.068.81.794 1.41 1.619 1.34.825-.07 1.438-.787 1.369-1.594-.068-.81-.795-1.412-1.621-1.342-.824.075-1.436.787-1.367 1.596z" fill="none" stroke="#000" stroke-width=".409" stroke-miterlimit="10"/><path d="M549.914 252.87c.491-.645.354-1.576-.305-2.076a1.487 1.487 0 0 0-2.085.265 1.486 1.486 0 0 0 .306 2.081c.66.5 1.594.38 2.084-.27" fill="#fff"/><path d="M549.914 252.87c.491-.645.354-1.576-.305-2.076a1.487 1.487 0 0 0-2.085.265 1.486 1.486 0 0 0 .306 2.081c.66.5 1.594.38 2.084-.27z" fill="none" stroke="#000" stroke-width=".409" stroke-miterlimit="10"/><path d="M549.218 253.608c.069.807.796 1.408 1.619 1.338.826-.072 1.439-.787 1.37-1.594-.068-.81-.795-1.414-1.621-1.342a1.489 1.489 0 0 0-1.368 1.598" fill="#fff"/><path d="M549.218 253.608c.069.807.796 1.408 1.619 1.338.826-.072 1.439-.787 1.37-1.594-.068-.81-.795-1.414-1.621-1.342a1.489 1.489 0 0 0-1.368 1.598z" fill="none" stroke="#000" stroke-width=".409" stroke-miterlimit="10"/><path d="M553.872 255.872c.49-.645.353-1.578-.306-2.078-.66-.5-1.595-.377-2.085.266-.49.648-.354 1.58.304 2.082a1.49 1.49 0 0 0 2.087-.27" fill="#fff"/><path d="M553.872 255.872c.49-.645.353-1.578-.306-2.078-.66-.5-1.595-.377-2.085.266-.49.648-.354 1.58.304 2.082a1.49 1.49 0 0 0 2.087-.27z" fill="none" stroke="#000" stroke-width=".409" stroke-miterlimit="10"/><path d="M553.174 256.608c.069.807.795 1.41 1.62 1.338.826-.07 1.439-.787 1.368-1.594-.066-.812-.793-1.41-1.62-1.34a1.487 1.487 0 0 0-1.368 1.596" fill="#fff"/><path d="M553.174 256.608c.069.807.795 1.41 1.62 1.338.826-.07 1.439-.787 1.368-1.594-.066-.812-.793-1.41-1.62-1.34a1.487 1.487 0 0 0-1.368 1.596z" fill="none" stroke="#000" stroke-width=".409" stroke-miterlimit="10"/><path d="M557.821 258.868a1.487 1.487 0 0 0-.307-2.078c-.66-.502-1.594-.38-2.083.264a1.49 1.49 0 0 0 .304 2.084 1.492 1.492 0 0 0 2.086-.27" fill="#fff"/><path d="M557.821 258.868a1.487 1.487 0 0 0-.307-2.078c-.66-.502-1.594-.38-2.083.264a1.49 1.49 0 0 0 .304 2.084 1.492 1.492 0 0 0 2.086-.27z" fill="none" stroke="#000" stroke-width=".409" stroke-miterlimit="10"/><path d="M557.124 259.604c.069.807.795 1.406 1.618 1.338.826-.072 1.44-.789 1.369-1.594-.068-.81-.794-1.412-1.619-1.342a1.49 1.49 0 0 0-1.368 1.599" fill="#fff"/><path d="M557.124 259.604c.069.807.795 1.406 1.618 1.338.826-.072 1.44-.789 1.369-1.594-.068-.81-.794-1.412-1.619-1.342a1.49 1.49 0 0 0-1.368 1.599z" fill="none" stroke="#000" stroke-width=".409" stroke-miterlimit="10"/></g><g clip-path="url(#d)" transform="matrix(.35278 0 0 -.35278 -178.272 110.087)"><path d="M530.95 234.647l31.833 24.409-3.236 4.242-38.968-28.83z" fill="none" stroke="#000" stroke-width=".578" stroke-miterlimit="10"/></g><g clip-path="url(#e)" transform="matrix(.35278 0 0 -.35278 -178.272 110.087)"><path d="M517.664 234.384l38.61 28.732 4.66-7.642-29.165-22.077z" fill="none" stroke="#020202" stroke-width=".55" stroke-miterlimit="10"/><path d="M529.234 264.798s1.054-4.965 8.07-3.912c7.017 1.053 10.791 7.553 10.17 10.016-.619 2.459-7.357 1.214-7.357 1.214z" fill="#b32825"/><path d="M529.234 264.798s1.054-4.965 8.07-3.912c7.017 1.053 10.791 7.553 10.17 10.016-.619 2.459-7.357 1.214-7.357 1.214z" fill="none" stroke="#000" stroke-width=".562" stroke-miterlimit="10"/><path d="M522.842 259.462l-4.163-26.367h5.022l4.604 28.445z" fill="#fff"/></g><g clip-path="url(#f)" transform="matrix(.35278 0 0 -.35278 -178.272 110.087)"><path d="M524.889 260.892l-4.238-26.326h5.867l4.332 28.494z" fill="#b32825"/><path d="M524.889 260.892l-4.238-26.326h5.867l4.332 28.494z" fill="none" stroke="#000" stroke-width=".578" stroke-miterlimit="10"/><path d="M526.521 260.892l-4.24-26.326h5.87l4.332 28.494z" fill="#fff"/><path d="M526.521 260.892l-4.24-26.326h5.87l4.332 28.494z" fill="none" stroke="#000" stroke-width=".55" stroke-miterlimit="10"/></g><g clip-path="url(#g)" transform="matrix(.35278 0 0 -.35278 -178.272 110.087)"><path d="M522.842 259.462l-4.163-26.367h5.022l4.604 28.445z" fill="none" stroke="#000" stroke-width=".55" stroke-miterlimit="10"/><path d="M559.822 250.99l-21.15-16.286 5.18-2.308 18.134 13.877z" fill="#fff"/></g><g clip-path="url(#h)" transform="matrix(.35278 0 0 -.35278 -178.272 110.087)"><path d="M562.293 250.618l-21.178-16.2 7.32-1.939 13.066 9.667z" fill="#b32825"/><path d="M562.293 250.618l-21.178-16.2 7.32-1.939 13.066 9.667z" fill="none" stroke="#000" stroke-width=".578" stroke-miterlimit="10"/><path d="M560.54 247.253l-18.241-13.96 8.201-.894 11.084 8.83z" fill="#fff"/><path d="M560.54 247.253l-18.241-13.96 8.201-.894 11.084 8.83z" fill="none" stroke="#000" stroke-width=".55" stroke-miterlimit="10"/></g><g clip-path="url(#i)" transform="matrix(.35278 0 0 -.35278 -178.272 110.087)"><path d="M559.822 250.99l-21.15-16.286 5.18-2.308 18.134 13.877z" fill="none" stroke="#000" stroke-width=".55" stroke-miterlimit="10"/></g><g clip-path="url(#j)" transform="matrix(.35278 0 0 -.35278 -178.272 110.087)"><path d="M533.269 262.37l-17.767-13.41-3.664-12.397h45.703v18.725l-2.832 9.221-12.151 3.802z" fill="none" stroke="#000" stroke-width=".562" stroke-miterlimit="10"/><path d="M515.112 263.08s1.524-.149-.52-6.56c-2.043-6.41 0-8.44 0-8.44l1.072-.827s-1.906 2.097-.006 8.453c2.285 7.637-.057 7.877-.177 8.301" fill="#fff" stroke="#000" stroke-width=".584" stroke-miterlimit="10"/><path d="M530.501 279.85s1.213-3.12 1.213-3.78l-2.504-7.475h1.463v-6.18s10.909-2.558 14.138 5.79v12.912s-11.657.908-14.31-1.266" fill="#fff"/></g><g clip-path="url(#k)" transform="matrix(.35278 0 0 -.35278 -178.272 110.087)"><path d="M535.262 261.63s3.508 1.236 3.246 6.104c-.262 4.863 5.989-.387 5.989-.387l-3.036-5.717-5.46-.975z" fill="#f7cc10"/><path d="M535.262 261.63s3.508 1.236 3.246 6.104c-.262 4.863 5.989-.387 5.989-.387l-3.036-5.717-5.46-.975z" fill="none" stroke="#020202" stroke-width=".437" stroke-miterlimit="10"/></g><g clip-path="url(#l)" transform="matrix(.35278 0 0 -.35278 -178.272 110.087)"><path d="M530.501 279.85s1.213-3.12 1.213-3.78l-2.504-7.475h1.463v-6.18s10.909-2.558 14.138 5.79v12.912s-11.657.908-14.31-1.266z" fill="none" stroke="#000" stroke-width=".55" stroke-miterlimit="10"/><path d="M549.837 279.09s-1.626-.323 2.018-3.751l4.276-13.822-10.211 5.937-11.672 5.268-1.73 10.91 11.607-2.576z" fill="#b32825"/></g><g clip-path="url(#m)" transform="matrix(.35278 0 0 -.35278 -178.272 110.087)"><path d="M537.001 285.122c-.257-4.145-2.448-14.855 18.613-16.455 0 0-1.235 4.33-.29 3.127.399-.516-16.715-.85-15.078 12.023 0 0-2.805 8.266-3.245 1.305" fill="#b32825"/><path d="M537.001 285.122c-.257-4.145-2.448-14.855 18.613-16.455 0 0-1.235 4.33-.29 3.127.399-.516-16.715-.85-15.078 12.023 0 0-2.805 8.266-3.245 1.305z" fill="none" stroke="#000" stroke-width=".562" stroke-miterlimit="10"/><path d="M540.05 285.839c-.01-4.984-1.843-13.346 15.888-15.123 0 0-.812 3.94.01 2.779.292-.406-13.967-1.433-12.596 10.405 0 0-3.286 8.617-3.301 1.939" fill="#b32825"/><path d="M540.05 285.839c-.01-4.984-1.843-13.346 15.888-15.123 0 0-.812 3.94.01 2.779.292-.406-13.967-1.433-12.596 10.405 0 0-3.286 8.617-3.301 1.939z" fill="none" stroke="#000" stroke-width=".562" stroke-miterlimit="10"/><path d="M547.281 283.894s-3.127-9.28 8.26-8.377" fill="#b32825" stroke="#000" stroke-width=".562" stroke-miterlimit="10"/></g><g clip-path="url(#n)" transform="matrix(.35278 0 0 -.35278 -178.272 110.087)"><path d="M549.837 279.09s-1.626-.323 2.018-3.751l4.276-13.822-10.211 5.937-11.672 5.268-1.73 10.91 11.607-2.576z" fill="none" stroke="#000" stroke-width=".562" stroke-miterlimit="10"/><path d="M533.028 272.284c0-.35-.28-.637-.628-.637a.635.635 0 0 0-.63.637c0 .352.282.64.63.64a.633.633 0 0 0 .628-.64" fill="#171717"/><path d="M529.84 268.595h1.639" fill="none" stroke="#000" stroke-width=".55" stroke-miterlimit="10"/><path d="M511.54 248.544h5.98s.32-8.984-5.98-11.996z" fill="#fff"/></g><g clip-path="url(#o)" transform="matrix(.35278 0 0 -.35278 -178.272 110.087)"><path d="M509.62 245.903h8.555v-3.289h-8.335l.32-3.494h7.041l-1.104-2.797-6.478-.025" fill="#fff" stroke="#000" stroke-width=".648" stroke-miterlimit="10"/></g><g clip-path="url(#p)" transform="matrix(.35278 0 0 -.35278 -178.272 110.087)"><path d="M511.54 248.544h5.98s.32-8.984-5.98-11.996z" fill="none" stroke="#000" stroke-width=".518" stroke-linecap="round" stroke-linejoin="round" stroke-miterlimit="10"/><path d="M532.977 266.397l-2.026.05" fill="none" stroke="#000" stroke-width=".539" stroke-miterlimit="10"/><path d="M529.807 284.458s-1.496-15.447 16.566-18.633c7.457-1.316 9.758-5.285 11.168-10.537.104-.391-1.237 7.264-3.394 10.109-2.446 3.229-5.39 2.963-6.437 3.114 0 0-15.987.736-14.52 16.074z" fill="#fff"/><path d="M529.807 284.458s-1.496-15.447 16.566-18.633c7.457-1.316 9.758-5.285 11.168-10.537.104-.391-1.237 7.264-3.394 10.109-2.446 3.229-5.39 2.963-6.437 3.114 0 0-15.987.736-14.52 16.074z" fill="none" stroke="#000" stroke-width=".66" stroke-miterlimit="10"/><path d="M529.776 282.755s13.24-8.113 22.078-7.416l1.107 4.478s-10.033.317-23.75 8.909z" fill="#f7cc10"/></g><g clip-path="url(#q)" transform="matrix(.35278 0 0 -.35278 -178.272 110.087)"><path d="M529.776 283.896s13.72-8.498 24.831-7.561l-.434 4.622s-11.245 1.529-24.963 10.123z" fill="#f7cc10"/><path d="M529.776 283.896s13.72-8.498 24.831-7.561l-.434 4.622s-11.245 1.529-24.963 10.123z" fill="none" stroke="#020202" stroke-width=".435" stroke-miterlimit="10"/></g><path d="M8.62 10.338s4.671 2.862 7.79 2.616l.39-1.58s-3.54-.112-8.379-3.143z" fill="none" stroke="#020202" stroke-width=".1534593" stroke-miterlimit="10"/><path d="M14.916 17.196c.184.033.311.189.283.349-.028.16-.201.263-.385.23-.185-.032-.312-.189-.284-.349.028-.16.202-.262.386-.23" fill="#fff"/><path d="M14.916 17.196c.184.033.311.189.283.349-.028.16-.201.263-.385.23-.185-.032-.312-.189-.284-.349.028-.16.202-.262.386-.23z" fill="none" stroke="#000" stroke-width=".14217034" stroke-miterlimit="10"/><path d="M15.132 17.4c.153-.106.353-.085.446.048.093.132.044.328-.11.436-.153.107-.354.086-.447-.047-.092-.133-.043-.328.11-.436" fill="#fff"/><path d="M15.132 17.4c.153-.106.353-.085.446.048.093.132.044.328-.11.436-.153.107-.354.086-.447-.047-.092-.133-.043-.328.11-.436z" fill="none" stroke="#000" stroke-width=".14217034" stroke-miterlimit="10"/><path d="M15.405 17.784c.187.007.334.145.327.307-.006.163-.164.288-.35.28-.188-.008-.335-.145-.328-.307.006-.163.164-.288.351-.28" fill="#fff"/><path d="M15.405 17.784c.187.007.334.145.327.307-.006.163-.164.288-.35.28-.188-.008-.335-.145-.328-.307.006-.163.164-.288.351-.28z" fill="none" stroke="#000" stroke-width=".14217034" stroke-miterlimit="10"/><path d="M14.692 18.304c.047-.181.213-.296.37-.254.157.042.246.222.198.404-.048.18-.214.295-.37.253-.159-.042-.246-.222-.198-.403" fill="#fff"/><path d="M14.692 18.304c.047-.181.213-.296.37-.254.157.042.246.222.198.404-.048.18-.214.295-.37.253-.159-.042-.246-.222-.198-.403z" fill="none" stroke="#000" stroke-width=".14217034" stroke-miterlimit="10"/><path d="M14.702 18.433c-.164.088-.36.046-.438-.097-.077-.143-.006-.332.158-.42.165-.09.362-.047.44.096.077.143.005.331-.16.421" fill="#fff"/><path d="M14.702 18.433c-.164.088-.36.046-.438-.097-.077-.143-.006-.332.158-.42.165-.09.362-.047.44.096.077.143.005.331-.16.421z" fill="none" stroke="#000" stroke-width=".14217034" stroke-miterlimit="10"/><path d="M14.517 18.074c-.184-.03-.315-.183-.29-.343.025-.16.196-.267.38-.238.186.029.316.181.291.342-.024.161-.196.268-.38.239" fill="#fff"/><path d="M14.517 18.074c-.184-.03-.315-.183-.29-.343.025-.16.196-.267.38-.238.186.029.316.181.291.342-.024.161-.196.268-.38.239z" fill="none" stroke="#000" stroke-width=".14217034" stroke-miterlimit="10"/><path d="M15.25 17.933a.291.291 0 0 1-.293.288.291.291 0 0 1-.294-.288c0-.16.131-.289.294-.289a.29.29 0 0 1 .293.289" fill="#fff"/><path d="M15.25 17.933a.291.291 0 0 1-.293.288.291.291 0 0 1-.294-.288c0-.16.131-.289.294-.289a.29.29 0 0 1 .293.289z" fill="none" stroke="#000" stroke-width=".13123416" stroke-miterlimit="10"/><path d="M12.877 18.552c.184.033.311.188.283.349-.028.159-.202.263-.385.23-.185-.032-.312-.19-.284-.349.028-.16.201-.263.386-.23" fill="#fff"/><path d="M12.877 18.552c.184.033.311.188.283.349-.028.159-.202.263-.385.23-.185-.032-.312-.19-.284-.349.028-.16.201-.263.386-.23z" fill="none" stroke="#000" stroke-width=".14217034" stroke-miterlimit="10"/><path d="M13.093 18.757c.153-.107.353-.086.447.047.092.133.043.327-.11.434-.154.108-.355.088-.448-.046-.093-.133-.043-.328.111-.435" fill="#fff"/><path d="M13.093 18.757c.153-.107.353-.086.447.047.092.133.043.327-.11.434-.154.108-.355.088-.448-.046-.093-.133-.043-.328.111-.435z" fill="none" stroke="#000" stroke-width=".14217034" stroke-miterlimit="10"/><path d="M13.367 19.14c.186.007.333.145.326.306-.006.163-.164.288-.35.28-.188-.006-.335-.144-.328-.307.006-.162.164-.287.352-.28" fill="#fff"/><path d="M13.367 19.14c.186.007.333.145.326.306-.006.163-.164.288-.35.28-.188-.006-.335-.144-.328-.307.006-.162.164-.287.352-.28z" fill="none" stroke="#000" stroke-width=".14217034" stroke-miterlimit="10"/><path d="M12.653 19.659c.047-.18.213-.294.37-.253.157.041.246.222.198.402-.048.182-.214.296-.37.255-.158-.042-.247-.222-.198-.404" fill="#fff"/><path d="M12.653 19.659c.047-.18.213-.294.37-.253.157.041.246.222.198.402-.048.182-.214.296-.37.255-.158-.042-.247-.222-.198-.404z" fill="none" stroke="#000" stroke-width=".14217034" stroke-miterlimit="10"/><path d="M12.663 19.789c-.164.088-.36.045-.437-.098-.078-.143-.007-.331.157-.42.165-.09.362-.046.44.097.077.143.005.33-.16.42" fill="#fff"/><path d="M12.663 19.789c-.164.088-.36.045-.437-.098-.078-.143-.007-.331.157-.42.165-.09.362-.046.44.097.077.143.005.33-.16.42z" fill="none" stroke="#000" stroke-width=".14217034" stroke-miterlimit="10"/><path d="M12.478 19.43c-.184-.03-.315-.183-.29-.343.025-.16.196-.267.38-.238.186.028.316.18.291.342-.024.16-.196.268-.381.238" fill="#fff"/><path d="M12.478 19.43c-.184-.03-.315-.183-.29-.343.025-.16.196-.267.38-.238.186.028.316.18.291.342-.024.16-.196.268-.381.238z" fill="none" stroke="#000" stroke-width=".14217034" stroke-miterlimit="10"/><path d="M13.211 19.288c0 .16-.131.289-.293.289a.291.291 0 0 1-.294-.289c0-.16.131-.289.294-.289.162 0 .293.13.293.289" fill="#fff"/><path d="M13.211 19.288c0 .16-.131.289-.293.289a.291.291 0 0 1-.294-.289c0-.16.131-.289.294-.289.162 0 .293.13.293.289z" fill="none" stroke="#000" stroke-width=".13123416" stroke-miterlimit="10"/><path d="M10.79 20.178c.184.033.311.188.283.348-.028.16-.202.263-.385.231-.185-.033-.313-.19-.284-.35.028-.159.201-.262.386-.23" fill="#fff"/><path d="M10.79 20.178c.184.033.311.188.283.348-.028.16-.202.263-.385.231-.185-.033-.313-.19-.284-.35.028-.159.201-.262.386-.23z" fill="none" stroke="#000" stroke-width=".14217034" stroke-miterlimit="10"/><path d="M11.006 20.383c.153-.107.353-.086.446.046.093.134.043.329-.11.435-.153.107-.354.088-.447-.047-.093-.133-.043-.327.11-.434" fill="#fff"/><path d="M11.006 20.383c.153-.107.353-.086.446.046.093.134.043.329-.11.435-.153.107-.354.088-.447-.047-.093-.133-.043-.327.11-.434z" fill="none" stroke="#000" stroke-width=".14217034" stroke-miterlimit="10"/><path d="M11.28 20.765c.185.008.333.145.326.307-.007.163-.164.288-.35.28-.188-.007-.336-.145-.329-.308.007-.16.164-.286.352-.28" fill="#fff"/><path d="M11.28 20.765c.185.008.333.145.326.307-.007.163-.164.288-.35.28-.188-.007-.336-.145-.329-.308.007-.16.164-.286.352-.28z" fill="none" stroke="#000" stroke-width=".14217034" stroke-miterlimit="10"/><path d="M10.565 21.285c.048-.182.214-.295.37-.253.158.04.247.222.199.402-.048.182-.214.297-.371.255-.157-.042-.246-.222-.198-.404" fill="#fff"/><path d="M10.565 21.285c.048-.182.214-.295.37-.253.158.04.247.222.199.402-.048.182-.214.297-.371.255-.157-.042-.246-.222-.198-.404z" fill="none" stroke="#000" stroke-width=".14217034" stroke-miterlimit="10"/><path d="M10.576 21.414c-.164.09-.36.046-.438-.097-.077-.143-.006-.331.158-.42.165-.09.362-.046.44.096.076.144.005.332-.16.421" fill="#fff"/><path d="M10.576 21.414c-.164.09-.36.046-.438-.097-.077-.143-.006-.331.158-.42.165-.09.362-.046.44.096.076.144.005.332-.16.421z" fill="none" stroke="#000" stroke-width=".14217034" stroke-miterlimit="10"/><path d="M10.39 21.055c-.183-.029-.314-.183-.289-.343.025-.16.196-.267.38-.238.186.03.316.182.29.342-.023.16-.194.268-.38.239" fill="#fff"/><path d="M10.39 21.055c-.183-.029-.314-.183-.289-.343.025-.16.196-.267.38-.238.186.03.316.182.29.342-.023.16-.194.268-.38.239z" fill="none" stroke="#000" stroke-width=".14217034" stroke-miterlimit="10"/><path d="M11.124 20.914a.292.292 0 0 1-.293.289.292.292 0 0 1-.295-.289c0-.16.132-.29.295-.29.162 0 .293.13.293.29" fill="#fff"/><path d="M11.124 20.914a.292.292 0 0 1-.293.289.292.292 0 0 1-.295-.289c0-.16.132-.29.295-.29.162 0 .293.13.293.29z" fill="none" stroke="#000" stroke-width=".13123416" stroke-miterlimit="10"/><path d="M8.745 21.587c.183.033.31.189.282.348-.028.16-.201.263-.385.232-.185-.034-.312-.19-.283-.35.028-.16.201-.263.386-.23" fill="#fff"/><path d="M8.745 21.587c.183.033.31.189.282.348-.028.16-.201.263-.385.232-.185-.034-.312-.19-.283-.35.028-.16.201-.263.386-.23z" fill="none" stroke="#000" stroke-width=".14217034" stroke-miterlimit="10"/><path d="M8.96 21.792c.153-.107.353-.087.447.047.093.132.043.328-.11.434-.154.108-.354.088-.447-.045-.093-.134-.044-.328.11-.436" fill="#fff"/><path d="M8.96 21.792c.153-.107.353-.087.447.047.093.132.043.328-.11.434-.154.108-.354.088-.447-.045-.093-.134-.044-.328.11-.436z" fill="none" stroke="#000" stroke-width=".14217034" stroke-miterlimit="10"/><path d="M9.234 22.175c.186.007.333.145.326.307-.006.163-.164.288-.35.28-.187-.008-.335-.146-.328-.308.006-.162.164-.287.352-.279" fill="#fff"/><path d="M9.234 22.175c.186.007.333.145.326.307-.006.163-.164.288-.35.28-.187-.008-.335-.146-.328-.308.006-.162.164-.287.352-.279z" fill="none" stroke="#000" stroke-width=".14217034" stroke-miterlimit="10"/><path d="M8.52 22.694c.048-.18.213-.294.37-.253.157.041.246.223.198.403-.047.181-.213.295-.37.254-.158-.042-.246-.221-.198-.404" fill="#fff"/><path d="M8.52 22.694c.048-.18.213-.294.37-.253.157.041.246.223.198.403-.047.181-.213.295-.37.254-.158-.042-.246-.221-.198-.404z" fill="none" stroke="#000" stroke-width=".14217034" stroke-miterlimit="10"/><path d="M8.531 22.824c-.165.088-.36.046-.438-.098-.078-.143-.007-.33.158-.42.165-.088.362-.046.44.097.076.143.005.33-.16.421" fill="#fff"/><path d="M8.531 22.824c-.165.088-.36.046-.438-.098-.078-.143-.007-.33.158-.42.165-.088.362-.046.44.097.076.143.005.33-.16.421z" fill="none" stroke="#000" stroke-width=".14217034" stroke-miterlimit="10"/><path d="M8.346 22.464c-.185-.03-.316-.182-.29-.342.024-.16.195-.267.38-.238.185.028.315.181.29.343-.023.16-.195.266-.38.237" fill="#fff"/><path d="M8.346 22.464c-.185-.03-.316-.182-.29-.342.024-.16.195-.267.38-.238.185.028.315.181.29.343-.023.16-.195.266-.38.237z" fill="none" stroke="#000" stroke-width=".14217034" stroke-miterlimit="10"/><path d="M9.079 22.323a.291.291 0 0 1-.294.288.292.292 0 0 1-.294-.288c0-.159.132-.288.294-.288.163 0 .294.129.294.288" fill="#fff"/><path d="M9.079 22.323a.291.291 0 0 1-.294.288.292.292 0 0 1-.294-.288c0-.159.132-.288.294-.288.163 0 .294.129.294.288z" fill="none" stroke="#000" stroke-width=".13123416" stroke-miterlimit="10"/><path d="M9.288 8.231a.486.486 0 1 1-.972 0 .486.486 0 0 1 .972 0" fill="#f7cc10"/><path d="M9.288 8.231a.486.486 0 1 1-.972 0 .486.486 0 0 1 .972 0z" fill="none" stroke="#020202" stroke-width=".16580659999999997" stroke-miterlimit="10"/><path d="M9.68 8.792a.329.329 0 1 1-.657-.001.329.329 0 0 1 .657 0" fill="#f7cc10"/><path d="M9.68 8.792a.329.329 0 1 1-.657-.001.329.329 0 0 1 .657 0z" fill="none" stroke="#020202" stroke-width=".11253682" stroke-miterlimit="10"/><path d="M10.118 9.135a.312.312 0 1 1-.624 0 .312.312 0 0 1 .624 0" fill="#f7cc10"/><path d="M10.118 9.135a.312.312 0 1 1-.624 0 .312.312 0 0 1 .624 0z" fill="none" stroke="#020202" stroke-width=".10724511999999999" stroke-miterlimit="10"/><path d="M10.667 9.478a.313.313 0 1 1-.625 0 .313.313 0 0 1 .625 0" fill="#f7cc10"/><path d="M10.667 9.478a.313.313 0 1 1-.625 0 .313.313 0 0 1 .625 0z" fill="none" stroke="#020202" stroke-width=".10724511999999999" stroke-miterlimit="10"/><path d="M11.24 9.759a.312.312 0 1 1-.624 0 .312.312 0 0 1 .624 0" fill="#f7cc10"/><path d="M11.24 9.759a.312.312 0 1 1-.624 0 .312.312 0 0 1 .624 0z" fill="none" stroke="#020202" stroke-width=".10724511999999999" stroke-miterlimit="10"/><path d="M11.812 10.005a.313.313 0 1 1-.627 0 .313.313 0 0 1 .627 0" fill="#f7cc10"/><path d="M11.812 10.005a.313.313 0 1 1-.627 0 .313.313 0 0 1 .627 0z" fill="none" stroke="#020202" stroke-width=".10724511999999999" stroke-miterlimit="10"/><path d="M3.828 15.388c.301.052.509.308.463.57-.047.262-.33.43-.63.377-.304-.054-.512-.31-.465-.571.046-.261.33-.43.632-.376" fill="#f7cc10"/><path d="M3.828 15.388c.301.052.509.308.463.57-.047.262-.33.43-.63.377-.304-.054-.512-.31-.465-.571.046-.261.33-.43.632-.376z" fill="none" stroke="#020202" stroke-width=".1534593" stroke-miterlimit="10"/><path d="M4.18 15.722c.251-.175.579-.14.731.077.153.217.071.536-.18.712-.25.177-.58.143-.731-.076-.152-.217-.072-.537.18-.713" fill="#f7cc10"/><path d="M4.18 15.722c.251-.175.579-.14.731.077.153.217.071.536-.18.712-.25.177-.58.143-.731-.076-.152-.217-.072-.537.18-.713z" fill="none" stroke="#020202" stroke-width=".1534593" stroke-miterlimit="10"/><path d="M4.629 16.349c.305.012.546.237.535.503-.011.266-.269.471-.575.459-.306-.014-.547-.239-.536-.504.01-.265.268-.471.576-.458" fill="#f7cc10"/><path d="M4.629 16.349c.305.012.546.237.535.503-.011.266-.269.471-.575.459-.306-.014-.547-.239-.536-.504.01-.265.268-.471.576-.458z" fill="none" stroke="#020202" stroke-width=".1534593" stroke-miterlimit="10"/><path d="M3.46 17.199c.078-.295.35-.48.607-.414.256.068.402.364.324.66-.079.297-.35.483-.607.415-.258-.068-.403-.363-.324-.661" fill="#f7cc10"/><path d="M3.46 17.199c.078-.295.35-.48.607-.414.256.068.402.364.324.66-.079.297-.35.483-.607.415-.258-.068-.403-.363-.324-.661z" fill="none" stroke="#020202" stroke-width=".1534593" stroke-miterlimit="10"/><path d="M3.478 17.412c-.27.144-.591.074-.717-.16-.127-.234-.01-.542.258-.688.27-.145.593-.075.72.16.126.232.009.541-.261.688" fill="#f7cc10"/><path d="M3.478 17.412c-.27.144-.591.074-.717-.16-.127-.234-.01-.542.258-.688.27-.145.593-.075.72.16.126.232.009.541-.261.688z" fill="none" stroke="#020202" stroke-width=".1534593" stroke-miterlimit="10"/><path d="M3.175 16.823c-.302-.047-.516-.298-.475-.561.04-.263.32-.436.623-.39.302.047.517.298.475.562-.04.262-.32.437-.623.39" fill="#f7cc10"/><path d="M3.175 16.823c-.302-.047-.516-.298-.475-.561.04-.263.32-.436.623-.39.302.047.517.298.475.562-.04.262-.32.437-.623.39z" fill="none" stroke="#020202" stroke-width=".1534593" stroke-miterlimit="10"/><path d="M4.376 16.592c0 .26-.216.472-.481.472a.477.477 0 0 1-.482-.472c0-.261.215-.474.482-.474.265 0 .48.213.48.474" fill="#fff"/><path d="M4.376 16.592c0 .26-.216.472-.481.472a.477.477 0 0 1-.482-.472c0-.261.215-.474.482-.474.265 0 .48.213.48.474z" fill="none" stroke="#000" stroke-width=".13123416" stroke-miterlimit="10"/><path d="M3.6 20.403s.358-1.03 1.26-1.001c0 0-.107 1.055-1.262 1.009z" fill="#f7cc10"/><path d="M3.6 20.403s.358-1.03 1.26-1.001c0 0-.107 1.055-1.262 1.009z" fill="none" stroke="#020202" stroke-width=".1534593" stroke-miterlimit="10"/><path d="M3.06 19.772s-.081-1.089-.96-1.29c0 0-.168 1.046.96 1.298z" fill="#f7cc10"/><path d="M3.06 19.772s-.081-1.089-.96-1.29c0 0-.168 1.046.96 1.298z" fill="none" stroke="#020202" stroke-width=".1534593" stroke-miterlimit="10"/><path d="M4.148 9.993s-1.847 1.737-1.887 2.654c0 .509.429.922.958.922a.97.97 0 0 0 .598-.204c-.044.34-.118.747-.226.843h1.115c-.092-.08-.175-.542-.22-.839.162.125.367.2.591.2.529 0 .958-.413.958-.922-.04-.917-1.887-2.654-1.887-2.654" fill="#171717"/></svg>