<svg xmlns="http://www.w3.org/2000/svg" width="77.901" height="108.451" viewBox="0 0 20.611 28.694"><path d="M20.5 26.678a1.91 1.91 0 0 1-1.904 1.905H2.016a1.91 1.91 0 0 1-1.905-1.905V2.016A1.91 1.91 0 0 1 2.016.11h16.58A1.91 1.91 0 0 1 20.5 2.016z" fill="#fafafa" fill-rule="evenodd"/><path d="M20.5 26.678a1.91 1.91 0 0 1-1.904 1.905H2.016a1.91 1.91 0 0 1-1.905-1.905V2.016A1.91 1.91 0 0 1 2.016.11h16.58A1.91 1.91 0 0 1 20.5 2.016z" fill="none" stroke="#ccc" stroke-width=".222" stroke-miterlimit="3.864"/><path d="M1.561 3.214c.78 0 .954-.376 1.11-.807h.679v6.42H2.34V3.93h-.78zM4.762 7.35c0 .46.202.634.523.634.322 0 .523-.174.523-.633V3.884c0-.46-.201-.633-.523-.633-.32 0-.523.174-.523.633zM3.754 3.949c0-1.028.54-1.615 1.531-1.615.99 0 1.532.587 1.532 1.615v3.338c0 1.028-.541 1.615-1.532 1.615-.99 0-1.531-.587-1.531-1.615zM5.068 11.62c-.1 0-.195.018-.286.047a.96.96 0 0 0 .201-.582.964.964 0 0 0-1.927 0c0 .22.076.42.2.581a.97.97 0 0 0-.285-.047.964.964 0 0 0 0 1.926c.275 0 .52-.117.694-.3-.042.35-.14.97-.3 1.092h1.308c-.16-.122-.257-.742-.3-1.092a.962.962 0 0 0 1.658-.663.964.964 0 0 0-.963-.963M15.53 19.653c-.25 0-.485.049-.713.12.31-.406.5-.907.5-1.455a2.408 2.408 0 0 0-4.815 0c0 .548.19 1.049.499 1.453a2.408 2.408 0 0 0-.712-.118 2.408 2.408 0 0 0 0 4.816c.686 0 1.3-.291 1.737-.75-.107.876-.35 2.425-.75 2.728h3.267c-.4-.303-.641-1.852-.75-2.728a2.4 2.4 0 0 0 1.737.75 2.41 2.41 0 0 0 0-4.816" fill="green"/></svg>