<svg xmlns="http://www.w3.org/2000/svg" width="77.903" height="108.451" viewBox="0 0 20.612 28.694"><path d="M20.5 26.678a1.91 1.91 0 0 1-1.904 1.905H2.016a1.91 1.91 0 0 1-1.905-1.905V2.016A1.91 1.91 0 0 1 2.016.11h16.58a1.91 1.91 0 0 1 1.905 1.905z" fill="#fafafa" fill-rule="evenodd"/><path d="M20.5 26.678a1.91 1.91 0 0 1-1.904 1.905H2.016a1.91 1.91 0 0 1-1.905-1.905V2.016A1.91 1.91 0 0 1 2.016.11h16.58a1.91 1.91 0 0 1 1.905 1.905z" fill="none" stroke="#ccc" stroke-width=".222" stroke-miterlimit="3.864"/><path d="M1.562 3.214c.779 0 .953-.376 1.11-.807h.678v6.42H2.34V3.93h-.778zM4.762 7.35c0 .46.202.634.523.634s.523-.174.523-.633V3.884c0-.46-.202-.633-.523-.633-.32 0-.523.174-.523.633zM3.753 3.949c0-1.028.542-1.615 1.532-1.615s1.532.587 1.532 1.615v3.338c0 1.028-.541 1.615-1.532 1.615-.99 0-1.532-.587-1.532-1.615zM4.163 9.637l1.556 2.25-1.556 2.168-1.588-2.169zM12.95 15.273l3.89 5.623-3.89 5.423-3.97-5.423z" fill="#00f"/></svg>