<svg xmlns="http://www.w3.org/2000/svg" width="77.9" height="108.451" viewBox="0 0 20.611 28.694"><path d="M20.5 26.678a1.91 1.91 0 0 1-1.905 1.905H2.015a1.91 1.91 0 0 1-1.904-1.905V2.016A1.91 1.91 0 0 1 2.016.11h16.58A1.91 1.91 0 0 1 20.5 2.016z" fill="#fafafa" fill-rule="evenodd"/><path d="M20.5 26.678a1.91 1.91 0 0 1-1.905 1.905H2.015a1.91 1.91 0 0 1-1.904-1.905V2.016A1.91 1.91 0 0 1 2.016.11h16.58A1.91 1.91 0 0 1 20.5 2.016z" fill="none" stroke="#ccc" stroke-width=".222" stroke-miterlimit="3.864"/><path d="M5.175 10.122a1.05 1.05 0 0 0-1.028.786 1.051 1.051 0 0 0-1.029-.786c-.585 0-1.06.457-1.06 1.02.045 1.015 2.09 2.938 2.09 2.938s2.044-1.923 2.087-2.938c0-.563-.474-1.02-1.06-1.02M15.407 16.71c-1.217 0-2.23.816-2.497 1.909-.268-1.093-1.281-1.909-2.498-1.909-1.42 0-2.571 1.11-2.571 2.477.106 2.464 5.07 7.131 5.07 7.131s4.963-4.667 5.068-7.131c0-1.367-1.151-2.477-2.572-2.477M1.56 3.214c.78 0 .955-.376 1.11-.807h.68v6.42H2.34V3.93h-.78zM4.762 7.35c0 .46.202.634.523.634s.523-.174.523-.633V3.884c0-.46-.202-.633-.523-.633s-.523.174-.523.633zM3.753 3.949c0-1.028.541-1.615 1.532-1.615.99 0 1.532.587 1.532 1.615v3.338c0 1.028-.542 1.615-1.532 1.615s-1.532-.587-1.532-1.615z" fill="#b50f0d"/></svg>