<svg xmlns="http://www.w3.org/2000/svg" width="77.9" height="108.451" viewBox="0 0 20.611 28.694"><path d="M20.5 26.678a1.91 1.91 0 0 1-1.905 1.905H2.015a1.91 1.91 0 0 1-1.904-1.905V2.016A1.91 1.91 0 0 1 2.016.11h16.58A1.91 1.91 0 0 1 20.5 2.016z" fill="#fafafa" fill-rule="evenodd"/><path d="M20.5 26.678a1.91 1.91 0 0 1-1.905 1.905H2.015a1.91 1.91 0 0 1-1.904-1.905V2.016A1.91 1.91 0 0 1 2.016.11h16.58A1.91 1.91 0 0 1 20.5 2.016z" fill="none" stroke="#ccc" stroke-width=".222" stroke-miterlimit="3.864"/><path d="M1.56 3.214c.78 0 .955-.376 1.11-.807h.68v6.42H2.34V3.93h-.78zM4.762 7.35c0 .46.202.634.523.634s.523-.174.523-.633V3.884c0-.46-.202-.633-.523-.633s-.523.174-.523.633zM3.753 3.949c0-1.028.541-1.615 1.532-1.615.99 0 1.532.587 1.532 1.615v3.338c0 1.028-.542 1.615-1.532 1.615s-1.532-.587-1.532-1.615zM4.147 10.122S2.3 11.858 2.26 12.775c0 .508.428.922.958.922a.969.969 0 0 0 .598-.204c-.044.34-.118.748-.226.843h1.114c-.091-.08-.175-.542-.22-.839a.97.97 0 0 0 .592.2c.528 0 .958-.414.958-.922-.04-.917-1.887-2.653-1.887-2.653M12.91 15.91s-4.617 4.342-4.717 6.635c0 1.272 1.071 2.304 2.394 2.304a2.43 2.43 0 0 0 1.496-.51c-.111.85-.295 1.868-.566 2.108h2.786c-.227-.203-.438-1.357-.55-2.097.406.312.92.499 1.48.499 1.322 0 2.394-1.032 2.394-2.304-.1-2.293-4.717-6.636-4.717-6.636" fill="#171717"/></svg>