<?xml version="1.0" encoding="UTF-8" standalone="no"?>
<!-- Created with Inkscape (http://www.inkscape.org/) -->

<svg
   xmlns:dc="http://purl.org/dc/elements/1.1/"
   xmlns:cc="http://creativecommons.org/ns#"
   xmlns:rdf="http://www.w3.org/1999/02/22-rdf-syntax-ns#"
   xmlns:svg="http://www.w3.org/2000/svg"
   xmlns="http://www.w3.org/2000/svg"
   xmlns:sodipodi="http://sodipodi.sourceforge.net/DTD/sodipodi-0.dtd"
   xmlns:inkscape="http://www.inkscape.org/namespaces/inkscape"
   width="20.61105mm"
   height="28.694237mm"
   viewBox="0 0 20.61105 28.694237"
   version="1.1"
   id="svg17344"
   inkscape:version="0.92.3 (2405546, 2018-03-11)"
   sodipodi:docname="7h.svg">
  <defs
     id="defs17338" />
  <sodipodi:namedview
     id="base"
     pagecolor="#ffffff"
     bordercolor="#666666"
     borderopacity="1.0"
     inkscape:pageopacity="0.0"
     inkscape:pageshadow="2"
     inkscape:zoom="5.6"
     inkscape:cx="37.438778"
     inkscape:cy="48.049348"
     inkscape:document-units="mm"
     inkscape:current-layer="layer1"
     showgrid="false"
     inkscape:window-width="1920"
     inkscape:window-height="1057"
     inkscape:window-x="-8"
     inkscape:window-y="-8"
     inkscape:window-maximized="1"
     fit-margin-top="0"
     fit-margin-left="0"
     fit-margin-right="0"
     fit-margin-bottom="0" />
  <metadata
     id="metadata17341">
    <rdf:RDF>
      <cc:Work
         rdf:about="">
        <dc:format>image/svg+xml</dc:format>
        <dc:type
           rdf:resource="http://purl.org/dc/dcmitype/StillImage" />
        <dc:title></dc:title>
      </cc:Work>
    </rdf:RDF>
  </metadata>
  <g
     inkscape:label="Layer 1"
     inkscape:groupmode="layer"
     id="layer1"
     transform="translate(-176.56834,83.86768)">
    <path
       d="m 197.06826,-57.189213 c 0,1.04775 -0.85725,1.904645 -1.90465,1.904645 h -16.5795 c -1.0474,0 -1.90465,-0.856895 -1.90465,-1.904645 v -24.662695 c 0,-1.047397 0.85725,-1.904647 1.90465,-1.904647 h 16.5795 c 1.0474,0 1.90465,0.85725 1.90465,1.904647 z"
       style="display:inline;fill:#fafafa;fill-opacity:1;fill-rule:evenodd;stroke:none;stroke-width:0.35277775"
       id="path5831"
       inkscape:connector-curvature="0" />
    <path
       d="m 197.06826,-57.189213 c 0,1.04775 -0.85725,1.904645 -1.90465,1.904645 h -16.5795 c -1.0474,0 -1.90465,-0.856895 -1.90465,-1.904645 v -24.662695 c 0,-1.047397 0.85725,-1.904647 1.90465,-1.904647 h 16.5795 c 1.0474,0 1.90465,0.85725 1.90465,1.904647 z"
       style="display:inline;fill:none;stroke:#cccccc;stroke-width:0.22225;stroke-linecap:butt;stroke-linejoin:miter;stroke-miterlimit:3.86400008;stroke-dasharray:none;stroke-opacity:1"
       id="path5835"
       inkscape:connector-curvature="0" />
    <path
       d="m 178.12921,-80.653594 c 0.77999,0 0.95426,-0.376061 1.10984,-0.807508 h 0.67874 v 6.420908 h -1.00859 v -4.898319 h -0.77999 z"
       style="display:inline;fill:#171717;fill-opacity:1;fill-rule:nonzero;stroke:none;stroke-width:0.35277775"
       id="path5839"
       inkscape:connector-curvature="0" />
    <path
       d="m 181.33038,-76.517061 c 0,0.458964 0.20179,0.632883 0.52282,0.632883 0.32138,0 0.52317,-0.173919 0.52317,-0.632883 v -3.4671 c 0,-0.458611 -0.20179,-0.632883 -0.52317,-0.632883 -0.32103,0 -0.52282,0.174272 -0.52282,0.632883 z m -1.00859,-3.402894 c 0,-1.027289 0.54081,-1.614311 1.53141,-1.614311 0.9906,0 1.53176,0.587022 1.53176,1.614311 v 3.338689 c 0,1.027288 -0.54116,1.614663 -1.53176,1.614663 -0.9906,0 -1.53141,-0.587375 -1.53141,-1.614663 z"
       style="display:inline;fill:#171717;fill-opacity:1;fill-rule:nonzero;stroke:none;stroke-width:0.35277775"
       id="path5843"
       inkscape:connector-curvature="0" />
    <path
       d="m 180.71542,-73.74617 c 0,0 -1.84715,1.736373 -1.88736,2.653595 0,0.508353 0.42862,0.921808 0.95779,0.921808 0.22754,0 0.43497,-0.07655 0.59831,-0.203905 -0.0441,0.34043 -0.11783,0.747536 -0.22613,0.843491 h 1.11478 c -0.0917,-0.08079 -0.17498,-0.542925 -0.22049,-0.839258 0.16263,0.12453 0.36795,0.199672 0.59196,0.199672 0.52846,0 0.95779,-0.413455 0.95779,-0.921808 -0.0402,-0.917222 -1.88665,-2.653595 -1.88665,-2.653595"
       style="display:inline;fill:#171717;fill-opacity:1;fill-rule:nonzero;stroke:none;stroke-width:0.35277775"
       id="path5847"
       inkscape:connector-curvature="0" />
    <path
       d="m 189.47803,-67.958251 c 0,0 -4.61715,4.342342 -4.71628,6.635398 0,1.271763 1.07068,2.303991 2.39359,2.303991 0.56762,0 1.08726,-0.192264 1.49578,-0.509764 -0.11077,0.849489 -0.29492,1.868311 -0.56621,2.107495 h 2.78624 c -0.22719,-0.202495 -0.43744,-1.356078 -0.54963,-2.096559 0.4057,0.312209 0.91899,0.498828 1.47991,0.498828 1.32221,0 2.39359,-1.032228 2.39359,-2.303991 -0.0991,-2.293056 -4.71699,-6.635398 -4.71699,-6.635398"
       style="display:inline;fill:#171717;fill-opacity:1;fill-rule:nonzero;stroke:none;stroke-width:0.35277775"
       id="path5851"
       inkscape:connector-curvature="0" />
  </g>
</svg>
