<?xml version="1.0" encoding="UTF-8" standalone="no"?>
<!-- Created with Inkscape (http://www.inkscape.org/) -->

<svg
   xmlns:dc="http://purl.org/dc/elements/1.1/"
   xmlns:cc="http://creativecommons.org/ns#"
   xmlns:rdf="http://www.w3.org/1999/02/22-rdf-syntax-ns#"
   xmlns:svg="http://www.w3.org/2000/svg"
   xmlns="http://www.w3.org/2000/svg"
   xmlns:sodipodi="http://sodipodi.sourceforge.net/DTD/sodipodi-0.dtd"
   xmlns:inkscape="http://www.inkscape.org/namespaces/inkscape"
   width="20.611395mm"
   height="28.694239mm"
   viewBox="0 0 20.611395 28.694239"
   version="1.1"
   id="svg17344"
   inkscape:version="0.92.3 (2405546, 2018-03-11)"
   sodipodi:docname="2c.svg">
  <defs
     id="defs17338" />
  <sodipodi:namedview
     id="base"
     pagecolor="#ffffff"
     bordercolor="#666666"
     borderopacity="1.0"
     inkscape:pageopacity="0.0"
     inkscape:pageshadow="2"
     inkscape:zoom="5.6"
     inkscape:cx="-27.956483"
     inkscape:cy="35.342101"
     inkscape:document-units="mm"
     inkscape:current-layer="layer1"
     showgrid="false"
     inkscape:window-width="1920"
     inkscape:window-height="1057"
     inkscape:window-x="-8"
     inkscape:window-y="-8"
     inkscape:window-maximized="1"
     fit-margin-top="0"
     fit-margin-left="0"
     fit-margin-right="0"
     fit-margin-bottom="0" />
  <metadata
     id="metadata17341">
    <rdf:RDF>
      <cc:Work
         rdf:about="">
        <dc:format>image/svg+xml</dc:format>
        <dc:type
           rdf:resource="http://purl.org/dc/dcmitype/StillImage" />
        <dc:title />
      </cc:Work>
    </rdf:RDF>
  </metadata>
  <g
     inkscape:label="Layer 1"
     inkscape:groupmode="layer"
     id="layer1"
     transform="translate(-178.17859,4.0104161)">
    <g
       style="display:inline"
       id="g7587"
       transform="matrix(0.35277777,0,0,-0.35277777,198.67886,22.66805)">
      <path
         d="m 0,0 c 0,-2.969 -2.43,-5.399 -5.399,-5.399 h -46.998 c -2.969,0 -5.399,2.43 -5.399,5.399 v 69.91 c 0,2.969 2.43,5.399 5.399,5.399 H -5.399 C -2.43,75.309 0,72.879 0,69.91 Z"
         style="fill:#fafafa;fill-opacity:1;fill-rule:evenodd;stroke:none"
         id="path7589"
         inkscape:connector-curvature="0" />
    </g>
    <g
       style="display:inline"
       id="g7591"
       transform="matrix(0.35277777,0,0,-0.35277777,198.67886,22.66805)">
      <path
         d="m 0,0 c 0,-2.969 -2.43,-5.399 -5.399,-5.399 h -46.998 c -2.969,0 -5.399,2.43 -5.399,5.399 v 69.91 c 0,2.969 2.43,5.399 5.399,5.399 H -5.399 C -2.43,75.309 0,72.879 0,69.91 Z"
         style="fill:none;stroke:#cccccc;stroke-width:0.63;stroke-linecap:butt;stroke-linejoin:miter;stroke-miterlimit:3.86400008;stroke-dasharray:none;stroke-opacity:1"
         id="path7593"
         inkscape:connector-curvature="0" />
    </g>
    <g
       style="display:inline;fill:#008000"
       id="g7595"
       transform="matrix(0.35277777,0,0,-0.35277777,182.22541,-0.75981642)">
      <path
         d="m 0,0 c -0.909,0 -1.481,-0.494 -1.481,-1.794 v -1.95 h -2.705 v 1.767 c 0,2.913 1.457,4.577 4.264,4.577 2.809,0 4.265,-1.664 4.265,-4.577 0,-5.979 -6.214,-8.034 -5.668,-11.232 h 5.408 v -2.6 h -8.269 v 2.237 c 0,5.355 5.668,6.24 5.668,11.492 C 1.482,-0.442 0.91,0 0,0"
         style="fill:#008000;fill-opacity:1;fill-rule:nonzero;stroke:none"
         id="path7597"
         inkscape:connector-curvature="0" />
    </g>
    <g
       style="display:inline;fill:#008000"
       id="g7599"
       transform="matrix(0.35277777,0,0,-0.35277777,183.24621,7.6086716)">
      <path
         d="m 0,0 c -0.283,0 -0.551,-0.055 -0.809,-0.136 0.35,0.462 0.569,1.028 0.569,1.651 0,1.506 -1.223,2.73 -2.733,2.73 -1.507,0 -2.728,-1.224 -2.728,-2.73 0,-0.623 0.215,-1.189 0.564,-1.648 C -5.393,-0.055 -5.66,0 -5.943,0 c -1.506,0 -2.731,-1.223 -2.731,-2.729 0,-1.508 1.225,-2.732 2.731,-2.732 0.779,0 1.472,0.332 1.968,0.852 -0.121,-0.993 -0.396,-2.75 -0.849,-3.093 h 3.705 c -0.455,0.343 -0.729,2.1 -0.852,3.093 0.498,-0.52 1.194,-0.852 1.971,-0.852 1.506,0 2.73,1.224 2.73,2.732 C 2.73,-1.223 1.506,0 0,0"
         style="fill:#008000;fill-opacity:1;fill-rule:nonzero;stroke:none"
         id="path7601"
         inkscape:connector-curvature="0" />
    </g>
    <g
       style="display:inline;fill:#008000"
       id="g7603"
       transform="matrix(0.35277777,0,0,-0.35277777,193.70896,15.642303)">
      <path
         d="m 0,0 c -0.709,0 -1.377,-0.14 -2.021,-0.34 0.875,1.151 1.416,2.569 1.416,4.124 0,3.767 -3.053,6.826 -6.825,6.826 -3.769,0 -6.824,-3.059 -6.824,-6.826 0,-1.555 0.539,-2.973 1.414,-4.121 C -13.482,-0.14 -14.148,0 -14.857,0 c -3.768,0 -6.825,-3.058 -6.825,-6.824 0,-3.773 3.057,-6.829 6.825,-6.829 1.945,0 3.683,0.826 4.923,2.126 -0.302,-2.483 -0.992,-6.874 -2.127,-7.731 h 9.262 c -1.133,0.857 -1.818,5.248 -2.125,7.731 1.244,-1.3 2.983,-2.126 4.924,-2.126 3.766,0 6.826,3.056 6.826,6.829 C 6.826,-3.058 3.766,0 0,0"
         style="fill:#008000;fill-opacity:1;fill-rule:nonzero;stroke:none"
         id="path7605"
         inkscape:connector-curvature="0" />
    </g>
  </g>
</svg>
