<?xml version="1.0" encoding="UTF-8" standalone="no"?>
<!-- Created with Inkscape (http://www.inkscape.org/) -->

<svg
   xmlns:dc="http://purl.org/dc/elements/1.1/"
   xmlns:cc="http://creativecommons.org/ns#"
   xmlns:rdf="http://www.w3.org/1999/02/22-rdf-syntax-ns#"
   xmlns:svg="http://www.w3.org/2000/svg"
   xmlns="http://www.w3.org/2000/svg"
   xmlns:sodipodi="http://sodipodi.sourceforge.net/DTD/sodipodi-0.dtd"
   xmlns:inkscape="http://www.inkscape.org/namespaces/inkscape"
   width="20.611746mm"
   height="28.694239mm"
   viewBox="0 0 20.611746 28.694239"
   version="1.1"
   id="svg17344"
   inkscape:version="0.92.3 (2405546, 2018-03-11)">
  <defs
     id="defs17338" />
  <sodipodi:namedview
     id="base"
     pagecolor="#ffffff"
     bordercolor="#666666"
     borderopacity="1.0"
     inkscape:pageopacity="0.0"
     inkscape:pageshadow="2"
     inkscape:zoom="5.6"
     inkscape:cx="21.232175"
     inkscape:cy="46.411172"
     inkscape:document-units="mm"
     inkscape:current-layer="layer1"
     showgrid="false"
     inkscape:window-width="1920"
     inkscape:window-height="1057"
     inkscape:window-x="-8"
     inkscape:window-y="-8"
     inkscape:window-maximized="1"
     fit-margin-top="0"
     fit-margin-left="0"
     fit-margin-right="0"
     fit-margin-bottom="0" />
  <metadata
     id="metadata17341">
    <rdf:RDF>
      <cc:Work
         rdf:about="">
        <dc:format>image/svg+xml</dc:format>
        <dc:type
           rdf:resource="http://purl.org/dc/dcmitype/StillImage" />
        <dc:title></dc:title>
      </cc:Work>
    </rdf:RDF>
  </metadata>
  <g
     inkscape:label="Layer 1"
     inkscape:groupmode="layer"
     id="layer1"
     transform="translate(-95.649908,-71.049809)">
    <g
       style="display:inline"
       id="g3731"
       transform="matrix(0.35277777,0,0,-0.35277777,116.15053,97.728275)">
      <path
         d="m 0,0 c 0,-2.969 -2.43,-5.399 -5.399,-5.399 h -46.999 c -2.969,0 -5.399,2.43 -5.399,5.399 v 69.91 c 0,2.969 2.43,5.399 5.399,5.399 H -5.399 C -2.43,75.309 0,72.879 0,69.91 Z"
         style="fill:#fafafa;fill-opacity:1;fill-rule:evenodd;stroke:none"
         id="path3733"
         inkscape:connector-curvature="0" />
    </g>
    <g
       style="display:inline"
       id="g3735"
       transform="matrix(0.35277777,0,0,-0.35277777,116.15053,97.728275)">
      <path
         d="m 0,0 c 0,-2.969 -2.43,-5.399 -5.399,-5.399 h -46.999 c -2.969,0 -5.399,2.43 -5.399,5.399 v 69.91 c 0,2.969 2.43,5.399 5.399,5.399 H -5.399 C -2.43,75.309 0,72.879 0,69.91 Z"
         style="fill:none;stroke:#cccccc;stroke-width:0.63;stroke-linecap:butt;stroke-linejoin:miter;stroke-miterlimit:3.86400008;stroke-dasharray:none;stroke-opacity:1"
         id="path3737"
         inkscape:connector-curvature="0" />
    </g>
    <g
       style="display:inline"
       id="g3739"
       transform="matrix(0.35277777,0,0,-0.35277777,100.82607,81.171321)">
      <path
         d="M 0,0 C -1.421,0 -2.602,-0.952 -2.915,-2.229 -3.229,-0.952 -4.413,0 -5.834,0 c -1.658,0 -3.002,-1.296 -3.002,-2.893 0.125,-2.878 5.921,-8.328 5.921,-8.328 0,0 5.796,5.45 5.917,8.328 C 3.002,-1.296 1.66,0 0,0"
         style="fill:#b50f0d;fill-opacity:1;fill-rule:nonzero;stroke:none"
         id="path3741"
         inkscape:connector-curvature="0" />
    </g>
    <g
       style="display:inline"
       id="g3743"
       transform="matrix(0.35277777,0,0,-0.35277777,111.0573,87.759726)">
      <path
         d="M 0,0 C -3.449,0 -6.318,-2.314 -7.076,-5.411 -7.838,-2.314 -10.711,0 -14.159,0 c -4.025,0 -7.288,-3.146 -7.288,-7.021 0.301,-6.985 14.371,-20.215 14.371,-20.215 0,0 14.068,13.23 14.367,20.215 C 7.291,-3.146 4.028,0 0,0"
         style="fill:#b50f0d;fill-opacity:1;fill-rule:nonzero;stroke:none"
         id="path3745"
         inkscape:connector-curvature="0" />
    </g>
    <g
       style="display:inline"
       id="g3747"
       transform="matrix(0.35277777,0,0,-0.35277777,99.696755,74.300409)">
      <path
         d="m 0,0 c -0.909,0 -1.481,-0.494 -1.481,-1.794 v -1.95 h -2.705 v 1.767 c 0,2.913 1.457,4.577 4.264,4.577 2.809,0 4.265,-1.664 4.265,-4.577 0,-5.979 -6.214,-8.034 -5.668,-11.232 h 5.408 v -2.6 h -8.269 v 2.237 c 0,5.355 5.668,6.24 5.668,11.492 C 1.482,-0.442 0.91,0 0,0"
         style="fill:#b50f0d;fill-opacity:1;fill-rule:nonzero;stroke:none"
         id="path3749"
         inkscape:connector-curvature="0" />
    </g>
  </g>
</svg>
