<?xml version="1.0" encoding="UTF-8" standalone="no"?>
<!-- Created with Inkscape (http://www.inkscape.org/) -->

<svg
   xmlns:dc="http://purl.org/dc/elements/1.1/"
   xmlns:cc="http://creativecommons.org/ns#"
   xmlns:rdf="http://www.w3.org/1999/02/22-rdf-syntax-ns#"
   xmlns:svg="http://www.w3.org/2000/svg"
   xmlns="http://www.w3.org/2000/svg"
   xmlns:sodipodi="http://sodipodi.sourceforge.net/DTD/sodipodi-0.dtd"
   xmlns:inkscape="http://www.inkscape.org/namespaces/inkscape"
   width="20.61175mm"
   height="28.693886mm"
   viewBox="0 0 20.61175 28.693886"
   version="1.1"
   id="svg17344"
   inkscape:version="0.92.3 (2405546, 2018-03-11)"
   sodipodi:docname="4d.svg">
  <defs
     id="defs17338" />
  <sodipodi:namedview
     id="base"
     pagecolor="#ffffff"
     bordercolor="#666666"
     borderopacity="1.0"
     inkscape:pageopacity="0.0"
     inkscape:pageshadow="2"
     inkscape:zoom="5.6"
     inkscape:cx="44.030595"
     inkscape:cy="27.600639"
     inkscape:document-units="mm"
     inkscape:current-layer="layer1"
     showgrid="false"
     inkscape:window-width="1920"
     inkscape:window-height="1057"
     inkscape:window-x="-8"
     inkscape:window-y="-8"
     inkscape:window-maximized="1"
     fit-margin-top="0"
     fit-margin-left="0"
     fit-margin-right="0"
     fit-margin-bottom="0" />
  <metadata
     id="metadata17341">
    <rdf:RDF>
      <cc:Work
         rdf:about="">
        <dc:format>image/svg+xml</dc:format>
        <dc:type
           rdf:resource="http://purl.org/dc/dcmitype/StillImage" />
        <dc:title></dc:title>
      </cc:Work>
    </rdf:RDF>
  </metadata>
  <g
     inkscape:label="Layer 1"
     inkscape:groupmode="layer"
     id="layer1"
     transform="translate(-174.82417,88.367495)">
    <path
       d="m 195.32479,-61.689383 c 0,1.04775 -0.85725,1.904648 -1.90465,1.904648 h -16.5802 c -1.0474,0 -1.90465,-0.856898 -1.90465,-1.904648 V -86.35137 c 0,-1.04775 0.85725,-1.905 1.90465,-1.905 h 16.5802 c 1.0474,0 1.90465,0.85725 1.90465,1.905 z"
       style="display:inline;fill:#fafafa;fill-opacity:1;fill-rule:evenodd;stroke:none;stroke-width:0.35277775"
       id="path5751"
       inkscape:connector-curvature="0" />
    <path
       d="m 195.32479,-61.689383 c 0,1.04775 -0.85725,1.904648 -1.90465,1.904648 h -16.5802 c -1.0474,0 -1.90465,-0.856898 -1.90465,-1.904648 V -86.35137 c 0,-1.04775 0.85725,-1.905 1.90465,-1.905 h 16.5802 c 1.0474,0 1.90465,0.85725 1.90465,1.905 z"
       style="display:inline;fill:none;stroke:#cccccc;stroke-width:0.22225;stroke-linecap:butt;stroke-linejoin:miter;stroke-miterlimit:3.86400008;stroke-dasharray:none;stroke-opacity:1"
       id="path5755"
       inkscape:connector-curvature="0" />
    <path
       d="m 178.33907,-82.172222 v 1.155347 c 0,0.458964 0.20179,0.623711 0.52282,0.623711 0.32138,0 0.52317,-0.164747 0.52317,-0.623711 v -1.155347 c 0,-0.458964 -0.20179,-0.633236 -0.52317,-0.633236 -0.32103,0 -0.52282,0.174272 -0.52282,0.633236 m -1.00859,-2.192514 c 0,-1.082322 0.4953,-1.669344 1.54058,-1.669344 0.9906,0 1.50424,0.587022 1.50424,1.614311 v 0.165452 h -0.95391 v -0.229658 c 0,-0.458964 -0.20179,-0.633236 -0.52281,-0.633236 -0.35772,0 -0.55951,0.174272 -0.55951,0.789164 v 1.174044 c 0.17427,-0.366536 0.48648,-0.568678 0.93557,-0.568678 0.7433,0 1.11901,0.52317 1.11901,1.467909 v 1.174044 c 0,1.027289 -0.54081,1.614311 -1.53176,1.614311 -0.9906,0 -1.53141,-0.587022 -1.53141,-1.614311 z"
       style="display:inline;fill:#171717;fill-opacity:1;fill-rule:nonzero;stroke:none;stroke-width:0.35277775"
       id="path5759"
       inkscape:connector-curvature="0" />
    <path
       d="m 178.9716,-78.246195 c 0,0 -1.84714,1.736373 -1.88736,2.653948 0,0.508705 0.42863,0.922161 0.95779,0.922161 0.22754,0 0.43498,-0.07726 0.59831,-0.204611 -0.0441,0.340077 -0.11782,0.747536 -0.22613,0.843138 h 1.11478 c -0.0917,-0.08043 -0.17498,-0.542219 -0.22048,-0.838552 0.16263,0.124883 0.36794,0.200025 0.59196,0.200025 0.52846,0 0.95779,-0.413456 0.95779,-0.922161 -0.0402,-0.917575 -1.88666,-2.653948 -1.88666,-2.653948"
       style="display:inline;fill:#171717;fill-opacity:1;fill-rule:nonzero;stroke:none;stroke-width:0.35277775"
       id="path5763"
       inkscape:connector-curvature="0" />
    <path
       d="m 187.73386,-72.457746 c 0,0 -4.61715,4.341636 -4.71628,6.635397 0,1.271764 1.07068,2.303286 2.39359,2.303286 0.56762,0 1.08726,-0.191558 1.49578,-0.509764 -0.11077,0.850195 -0.29492,1.868311 -0.56621,2.107495 h 2.78624 c -0.22719,-0.201789 -0.43744,-1.356078 -0.54963,-2.096559 0.4057,0.312209 0.91899,0.498828 1.47991,0.498828 1.32221,0 2.39359,-1.031522 2.39359,-2.303286 -0.0991,-2.293761 -4.71699,-6.635397 -4.71699,-6.635397"
       style="display:inline;fill:#171717;fill-opacity:1;fill-rule:nonzero;stroke:none;stroke-width:0.35277775"
       id="path5767"
       inkscape:connector-curvature="0" />
  </g>
</svg>
