<?xml version="1.0" encoding="UTF-8" standalone="no"?>
<!-- Created with Inkscape (http://www.inkscape.org/) -->

<svg
   xmlns:dc="http://purl.org/dc/elements/1.1/"
   xmlns:cc="http://creativecommons.org/ns#"
   xmlns:rdf="http://www.w3.org/1999/02/22-rdf-syntax-ns#"
   xmlns:svg="http://www.w3.org/2000/svg"
   xmlns="http://www.w3.org/2000/svg"
   xmlns:sodipodi="http://sodipodi.sourceforge.net/DTD/sodipodi-0.dtd"
   xmlns:inkscape="http://www.inkscape.org/namespaces/inkscape"
   width="20.611401mm"
   height="28.694237mm"
   viewBox="0 0 20.611401 28.694237"
   version="1.1"
   id="svg17344"
   inkscape:version="0.92.3 (2405546, 2018-03-11)"
   sodipodi:docname="8c.svg">
  <defs
     id="defs17338" />
  <sodipodi:namedview
     id="base"
     pagecolor="#ffffff"
     bordercolor="#666666"
     borderopacity="1.0"
     inkscape:pageopacity="0.0"
     inkscape:pageshadow="2"
     inkscape:zoom="5.6"
     inkscape:cx="13.603224"
     inkscape:cy="54.425283"
     inkscape:document-units="mm"
     inkscape:current-layer="layer1"
     showgrid="false"
     inkscape:window-width="1920"
     inkscape:window-height="1057"
     inkscape:window-x="-8"
     inkscape:window-y="-8"
     inkscape:window-maximized="1"
     fit-margin-top="0"
     fit-margin-left="0"
     fit-margin-right="0"
     fit-margin-bottom="0" />
  <metadata
     id="metadata17341">
    <rdf:RDF>
      <cc:Work
         rdf:about="">
        <dc:format>image/svg+xml</dc:format>
        <dc:type
           rdf:resource="http://purl.org/dc/dcmitype/StillImage" />
        <dc:title />
      </cc:Work>
    </rdf:RDF>
  </metadata>
  <g
     inkscape:label="Layer 1"
     inkscape:groupmode="layer"
     id="layer1"
     transform="translate(-175.81136,82.180712)">
    <path
       d="m 196.31163,-55.502245 c 0,1.047395 -0.85725,1.904645 -1.90465,1.904645 h -16.5795 c -1.04775,0 -1.905,-0.85725 -1.905,-1.904645 V -80.16494 c 0,-1.047397 0.85725,-1.904647 1.905,-1.904647 h 16.5795 c 1.0474,0 1.90465,0.85725 1.90465,1.904647 z"
       style="display:inline;fill:#fafafa;fill-opacity:1;fill-rule:evenodd;stroke:none;stroke-width:0.35277775"
       id="path7709"
       inkscape:connector-curvature="0" />
    <path
       d="m 196.31163,-55.502245 c 0,1.047395 -0.85725,1.904645 -1.90465,1.904645 h -16.5795 c -1.04775,0 -1.905,-0.85725 -1.905,-1.904645 V -80.16494 c 0,-1.047397 0.85725,-1.904647 1.905,-1.904647 h 16.5795 c 1.0474,0 1.90465,0.85725 1.90465,1.904647 z"
       style="display:inline;fill:none;stroke:#cccccc;stroke-width:0.22225;stroke-linecap:butt;stroke-linejoin:miter;stroke-miterlimit:3.86400008;stroke-dasharray:none;stroke-opacity:1"
       id="path7713"
       inkscape:connector-curvature="0" />
    <path
       d="m 180.00014,-74.19721 c 0.32103,0 0.55986,-0.155575 0.56868,-0.724605 v -0.596194 c 0,-0.504473 -0.21061,-0.724606 -0.56868,-0.724606 -0.35772,0 -0.56868,0.220133 -0.56868,0.724606 v 0.596194 c 0,0.56903 0.248,0.724605 0.56868,0.724605 m -0.56868,-3.641372 c 0,0.513645 0.23848,0.679098 0.56868,0.679098 0.32103,0 0.56868,-0.165453 0.56868,-0.679098 v -0.357716 c 0,-0.57785 -0.24765,-0.733778 -0.56868,-0.733778 -0.32068,0 -0.56868,0.155928 -0.56868,0.733778 z m 0.56868,4.558947 c -1.01812,0 -1.57762,-0.587022 -1.57762,-1.614663 v -0.50412 c 0,-0.614539 0.18344,-1.091847 0.62371,-1.339497 -0.42157,-0.229306 -0.62371,-0.6604 -0.62371,-1.293283 v -0.201436 c 0,-1.027642 0.5595,-1.614664 1.57762,-1.614664 1.01811,0 1.57797,0.587022 1.57797,1.614664 v 0.201436 c 0,0.632883 -0.21131,1.063977 -0.62406,1.293283 0.44027,0.24765 0.62406,0.724958 0.62406,1.339497 v 0.50412 c 0,1.027641 -0.55986,1.614663 -1.57797,1.614663"
       style="display:inline;fill:#008000;fill-opacity:1;fill-rule:nonzero;stroke:none;stroke-width:0.35277775"
       id="path7717"
       inkscape:connector-curvature="0" />
    <path
       d="m 180.87898,-70.561623 c -0.0998,0 -0.19438,0.0194 -0.2854,0.04798 0.12347,-0.162983 0.20073,-0.362656 0.20073,-0.582436 0,-0.531283 -0.43145,-0.963083 -0.96414,-0.963083 -0.53164,0 -0.96238,0.4318 -0.96238,0.963083 0,0.21978 0.0759,0.419453 0.19897,0.581378 -0.0903,-0.02752 -0.1845,-0.04692 -0.28434,-0.04692 -0.53128,0 -0.96344,0.431447 -0.96344,0.962731 0,0.531989 0.43216,0.963789 0.96344,0.963789 0.27481,0 0.51929,-0.117123 0.69427,-0.300567 -0.0427,0.350308 -0.1397,0.970139 -0.29951,1.091142 h 1.30704 c -0.16051,-0.121003 -0.25718,-0.740834 -0.30057,-1.091142 0.17569,0.183444 0.42122,0.300567 0.69533,0.300567 0.53128,0 0.96308,-0.4318 0.96308,-0.963789 0,-0.531284 -0.4318,-0.962731 -0.96308,-0.962731"
       style="display:inline;fill:#008000;fill-opacity:1;fill-rule:nonzero;stroke:none;stroke-width:0.35277775"
       id="path7721"
       inkscape:connector-curvature="0" />
    <path
       d="m 191.34173,-62.527992 c -0.25012,0 -0.48577,0.04939 -0.71296,0.119945 0.30868,-0.406048 0.49953,-0.906286 0.49953,-1.454856 0,-1.328914 -1.07703,-2.408061 -2.40771,-2.408061 -1.32962,0 -2.40735,1.079147 -2.40735,2.408061 0,0.54857 0.19015,1.048808 0.49883,1.453797 -0.22649,-0.0695 -0.46144,-0.118886 -0.71156,-0.118886 -1.32926,0 -2.4077,1.078795 -2.4077,2.407356 0,1.33103 1.07844,2.409119 2.4077,2.409119 0.68616,0 1.29928,-0.291394 1.73673,-0.750006 -0.10654,0.875948 -0.34996,2.424995 -0.75036,2.727325 h 3.26743 c -0.3997,-0.30233 -0.64135,-1.851377 -0.74966,-2.727325 0.43886,0.458612 1.05234,0.750006 1.73708,0.750006 1.32856,0 2.40806,-1.078089 2.40806,-2.409119 0,-1.328561 -1.0795,-2.407356 -2.40806,-2.407356"
       style="display:inline;fill:#008000;fill-opacity:1;fill-rule:nonzero;stroke:none;stroke-width:0.35277775"
       id="path7725"
       inkscape:connector-curvature="0" />
  </g>
</svg>
