<?xml version="1.0" encoding="UTF-8" standalone="no"?>
<!-- Created with Inkscape (http://www.inkscape.org/) -->

<svg
   xmlns:dc="http://purl.org/dc/elements/1.1/"
   xmlns:cc="http://creativecommons.org/ns#"
   xmlns:rdf="http://www.w3.org/1999/02/22-rdf-syntax-ns#"
   xmlns:svg="http://www.w3.org/2000/svg"
   xmlns="http://www.w3.org/2000/svg"
   xmlns:sodipodi="http://sodipodi.sourceforge.net/DTD/sodipodi-0.dtd"
   xmlns:inkscape="http://www.inkscape.org/namespaces/inkscape"
   width="20.611395mm"
   height="28.694239mm"
   viewBox="0 0 20.611395 28.694239"
   version="1.1"
   id="svg17344"
   inkscape:version="0.92.3 (2405546, 2018-03-11)">
  <defs
     id="defs17338" />
  <sodipodi:namedview
     id="base"
     pagecolor="#ffffff"
     bordercolor="#666666"
     borderopacity="1.0"
     inkscape:pageopacity="0.0"
     inkscape:pageshadow="2"
     inkscape:zoom="5.6"
     inkscape:cx="-32.019378"
     inkscape:cy="8.0934761"
     inkscape:document-units="mm"
     inkscape:current-layer="layer1"
     showgrid="false"
     inkscape:window-width="1920"
     inkscape:window-height="1057"
     inkscape:window-x="-8"
     inkscape:window-y="-8"
     inkscape:window-maximized="1"
     fit-margin-top="0"
     fit-margin-left="0"
     fit-margin-right="0"
     fit-margin-bottom="0" />
  <metadata
     id="metadata17341">
    <rdf:RDF>
      <cc:Work
         rdf:about="">
        <dc:format>image/svg+xml</dc:format>
        <dc:type
           rdf:resource="http://purl.org/dc/dcmitype/StillImage" />
        <dc:title></dc:title>
      </cc:Work>
    </rdf:RDF>
  </metadata>
  <g
     inkscape:label="Layer 1"
     inkscape:groupmode="layer"
     id="layer1"
     transform="translate(-91.314871,-84.358174)">
    <g
       style="display:inline"
       id="g7567"
       transform="matrix(0.35277777,0,0,-0.35277777,111.81514,111.03664)">
      <path
         d="m 0,0 c 0,-2.969 -2.43,-5.399 -5.399,-5.399 h -46.998 c -2.969,0 -5.399,2.43 -5.399,5.399 v 69.91 c 0,2.969 2.43,5.399 5.399,5.399 H -5.399 C -2.43,75.309 0,72.879 0,69.91 Z"
         style="fill:#fafafa;fill-opacity:1;fill-rule:evenodd;stroke:none"
         id="path7569"
         inkscape:connector-curvature="0" />
    </g>
    <g
       style="display:inline"
       id="g7571"
       transform="matrix(0.35277777,0,0,-0.35277777,111.81514,111.03664)">
      <path
         d="m 0,0 c 0,-2.969 -2.43,-5.399 -5.399,-5.399 h -46.998 c -2.969,0 -5.399,2.43 -5.399,5.399 v 69.91 c 0,2.969 2.43,5.399 5.399,5.399 H -5.399 C -2.43,75.309 0,72.879 0,69.91 Z"
         style="fill:none;stroke:#cccccc;stroke-width:0.63;stroke-linecap:butt;stroke-linejoin:miter;stroke-miterlimit:3.86400008;stroke-dasharray:none;stroke-opacity:1"
         id="path7573"
         inkscape:connector-curvature="0" />
    </g>
    <g
       style="display:inline"
       id="g7575"
       transform="matrix(0.35277777,0,0,-0.35277777,94.797745,91.149323)">
      <path
         d="M 0,0 H 2.757 L 1.378,9.204 Z M 6.526,-5.772 H 3.64 l -0.494,3.301 h -3.51 l -0.494,-3.301 h -2.625 l 2.912,18.201 h 4.185 z"
         style="fill:#171717;fill-opacity:1;fill-rule:nonzero;stroke:none"
         id="path7577"
         inkscape:connector-curvature="0" />
    </g>
    <g
       style="display:inline"
       id="g7579"
       transform="matrix(0.35277777,0,0,-0.35277777,96.382494,95.849103)">
      <path
         d="m 0,0 c -0.283,0 -0.551,-0.055 -0.809,-0.136 0.35,0.462 0.569,1.028 0.569,1.651 0,1.506 -1.223,2.73 -2.733,2.73 -1.507,0 -2.728,-1.224 -2.728,-2.73 0,-0.623 0.215,-1.189 0.564,-1.648 C -5.393,-0.055 -5.66,0 -5.943,0 c -1.506,0 -2.731,-1.223 -2.731,-2.729 0,-1.508 1.225,-2.732 2.731,-2.732 0.779,0 1.472,0.332 1.968,0.852 -0.121,-0.993 -0.396,-2.75 -0.849,-3.093 h 3.705 c -0.455,0.343 -0.729,2.1 -0.852,3.093 0.498,-0.52 1.194,-0.852 1.971,-0.852 1.506,0 2.73,1.224 2.73,2.732 C 2.73,-1.223 1.506,0 0,0"
         style="fill:#171717;fill-opacity:1;fill-rule:nonzero;stroke:none"
         id="path7581"
         inkscape:connector-curvature="0" />
    </g>
    <g
       style="display:inline"
       id="g7583"
       transform="matrix(0.35277777,0,0,-0.35277777,106.84525,103.88273)">
      <path
         d="m 0,0 c -0.709,0 -1.377,-0.14 -2.021,-0.34 0.875,1.151 1.416,2.569 1.416,4.124 0,3.767 -3.053,6.826 -6.825,6.826 -3.769,0 -6.824,-3.059 -6.824,-6.826 0,-1.555 0.539,-2.973 1.414,-4.121 C -13.482,-0.14 -14.148,0 -14.857,0 c -3.768,0 -6.825,-3.058 -6.825,-6.824 0,-3.773 3.057,-6.829 6.825,-6.829 1.945,0 3.683,0.826 4.923,2.126 -0.302,-2.483 -0.992,-6.874 -2.127,-7.731 h 9.262 c -1.133,0.857 -1.818,5.248 -2.125,7.731 1.244,-1.3 2.983,-2.126 4.924,-2.126 3.766,0 6.826,3.056 6.826,6.829 C 6.826,-3.058 3.766,0 0,0"
         style="fill:#171717;fill-opacity:1;fill-rule:nonzero;stroke:none"
         id="path7585"
         inkscape:connector-curvature="0" />
    </g>
  </g>
</svg>
