<?xml version="1.0" encoding="UTF-8" standalone="no"?>
<!-- Created with Inkscape (http://www.inkscape.org/) -->

<svg
   xmlns:dc="http://purl.org/dc/elements/1.1/"
   xmlns:cc="http://creativecommons.org/ns#"
   xmlns:rdf="http://www.w3.org/1999/02/22-rdf-syntax-ns#"
   xmlns:svg="http://www.w3.org/2000/svg"
   xmlns="http://www.w3.org/2000/svg"
   xmlns:sodipodi="http://sodipodi.sourceforge.net/DTD/sodipodi-0.dtd"
   xmlns:inkscape="http://www.inkscape.org/namespaces/inkscape"
   width="20.611746mm"
   height="28.694239mm"
   viewBox="0 0 20.611746 28.694239"
   version="1.1"
   id="svg17344"
   inkscape:version="0.92.3 (2405546, 2018-03-11)">
  <defs
     id="defs17338" />
  <sodipodi:namedview
     id="base"
     pagecolor="#ffffff"
     bordercolor="#666666"
     borderopacity="1.0"
     inkscape:pageopacity="0.0"
     inkscape:pageshadow="2"
     inkscape:zoom="5.6"
     inkscape:cx="43.471463"
     inkscape:cy="15.714244"
     inkscape:document-units="mm"
     inkscape:current-layer="layer1"
     showgrid="false"
     inkscape:window-width="1920"
     inkscape:window-height="1057"
     inkscape:window-x="-8"
     inkscape:window-y="-8"
     inkscape:window-maximized="1"
     fit-margin-top="0"
     fit-margin-left="0"
     fit-margin-right="0"
     fit-margin-bottom="0" />
  <metadata
     id="metadata17341">
    <rdf:RDF>
      <cc:Work
         rdf:about="">
        <dc:format>image/svg+xml</dc:format>
        <dc:type
           rdf:resource="http://purl.org/dc/dcmitype/StillImage" />
        <dc:title></dc:title>
      </cc:Work>
    </rdf:RDF>
  </metadata>
  <g
     inkscape:label="Layer 1"
     inkscape:groupmode="layer"
     id="layer1"
     transform="translate(-71.341253,-92.044144)">
    <g
       style="display:inline"
       id="g3751"
       transform="matrix(0.35277777,0,0,-0.35277777,91.841875,118.72261)">
      <path
         d="m 0,0 c 0,-2.969 -2.43,-5.399 -5.399,-5.399 h -46.999 c -2.969,0 -5.399,2.43 -5.399,5.399 v 69.91 c 0,2.969 2.43,5.399 5.399,5.399 H -5.399 C -2.43,75.309 0,72.879 0,69.91 Z"
         style="fill:#fafafa;fill-opacity:1;fill-rule:evenodd;stroke:none"
         id="path3753"
         inkscape:connector-curvature="0" />
    </g>
    <g
       style="display:inline"
       id="g3755"
       transform="matrix(0.35277777,0,0,-0.35277777,91.841875,118.72261)">
      <path
         d="m 0,0 c 0,-2.969 -2.43,-5.399 -5.399,-5.399 h -46.999 c -2.969,0 -5.399,2.43 -5.399,5.399 v 69.91 c 0,2.969 2.43,5.399 5.399,5.399 H -5.399 C -2.43,75.309 0,72.879 0,69.91 Z"
         style="fill:none;stroke:#cccccc;stroke-width:0.63;stroke-linecap:butt;stroke-linejoin:miter;stroke-miterlimit:3.86400008;stroke-dasharray:none;stroke-opacity:1"
         id="path3757"
         inkscape:connector-curvature="0" />
    </g>
    <g
       style="display:inline"
       id="g3759"
       transform="matrix(0.35277777,0,0,-0.35277777,76.51742,102.16566)">
      <path
         d="M 0,0 C -1.421,0 -2.602,-0.952 -2.915,-2.229 -3.229,-0.952 -4.413,0 -5.834,0 c -1.658,0 -3.002,-1.296 -3.002,-2.893 0.125,-2.878 5.921,-8.328 5.921,-8.328 0,0 5.796,5.45 5.917,8.328 C 3.002,-1.296 1.66,0 0,0"
         style="fill:#b50f0d;fill-opacity:1;fill-rule:nonzero;stroke:none"
         id="path3761"
         inkscape:connector-curvature="0" />
    </g>
    <path
       d="m 86.748646,108.75406 c -1.216731,0 -2.22885,0.81633 -2.496256,1.90888 -0.268817,-1.09255 -1.282347,-1.90888 -2.498725,-1.90888 -1.41993,0 -2.571044,1.10984 -2.571044,2.47686 0.106186,2.46415 5.069769,7.1314 5.069769,7.1314 0,0 4.962878,-4.66725 5.068358,-7.1314 0,-1.36702 -1.151114,-2.47686 -2.572102,-2.47686"
       style="display:inline;fill:#b50f0d;fill-opacity:1;fill-rule:nonzero;stroke:none;stroke-width:0.35277775"
       id="path3765"
       inkscape:connector-curvature="0" />
    <g
       style="display:inline"
       id="g3767"
       transform="matrix(0.35277777,0,0,-0.35277777,74.824155,98.835293)">
      <path
         d="M 0,0 H 2.757 L 1.378,9.204 Z M 6.526,-5.772 H 3.64 l -0.494,3.301 h -3.51 l -0.494,-3.301 h -2.625 l 2.912,18.201 h 4.185 z"
         style="fill:#b50f0d;fill-opacity:1;fill-rule:nonzero;stroke:none"
         id="path3769"
         inkscape:connector-curvature="0" />
    </g>
  </g>
</svg>
