<?xml version="1.0" encoding="UTF-8" standalone="no"?>
<!-- Created with Inkscape (http://www.inkscape.org/) -->

<svg
   xmlns:dc="http://purl.org/dc/elements/1.1/"
   xmlns:cc="http://creativecommons.org/ns#"
   xmlns:rdf="http://www.w3.org/1999/02/22-rdf-syntax-ns#"
   xmlns:svg="http://www.w3.org/2000/svg"
   xmlns="http://www.w3.org/2000/svg"
   xmlns:sodipodi="http://sodipodi.sourceforge.net/DTD/sodipodi-0.dtd"
   xmlns:inkscape="http://www.inkscape.org/namespaces/inkscape"
   width="20.611746mm"
   height="28.693886mm"
   viewBox="0 0 20.611746 28.693886"
   version="1.1"
   id="svg13707"
   inkscape:version="0.92.3 (2405546, 2018-03-11)"
   sodipodi:docname="Jd.svg">
  <defs
     id="defs13701">
    <clipPath
       clipPathUnits="userSpaceOnUse"
       id="clipPath6016">
      <path
         d="m 388.898,357.294 -18.192,-12.446 -3.277,-13.408 h 3.429 42.357 v 18.76 l -5.045,8.49 -9.966,4.557 z"
         id="path6014"
         inkscape:connector-curvature="0" />
    </clipPath>
    <clipPath
       clipPathUnits="userSpaceOnUse"
       id="clipPath6028">
      <path
         d="m 388.898,357.294 -3.553,-2.431 -1.224,-9.86 20.533,13.668 0.426,1.432 -6.876,3.144 z"
         id="path6026"
         inkscape:connector-curvature="0" />
    </clipPath>
    <clipPath
       clipPathUnits="userSpaceOnUse"
       id="clipPath6040">
      <path
         d="m 388.898,357.294 -1.536,-1.052 -0.767,-7.235 15.447,10.006 -1.489,3.16 -2.349,1.074 z"
         id="path6038"
         inkscape:connector-curvature="0" />
    </clipPath>
    <clipPath
       clipPathUnits="userSpaceOnUse"
       id="clipPath6056">
      <path
         d="m 388.898,357.294 -3.553,-2.431 -1.224,-9.86 20.533,13.668 0.426,1.432 -6.876,3.144 z"
         id="path6054"
         inkscape:connector-curvature="0" />
    </clipPath>
    <clipPath
       clipPathUnits="userSpaceOnUse"
       id="clipPath6068">
      <path
         d="m 388.898,357.294 -18.192,-12.446 -3.277,-13.408 h 3.429 42.357 v 18.76 l -5.045,8.49 -9.966,4.557 z"
         id="path6066"
         inkscape:connector-curvature="0" />
    </clipPath>
    <clipPath
       clipPathUnits="userSpaceOnUse"
       id="clipPath6084">
      <path
         d="m 376.2,331.44 h 15.536 l 21.479,16.357 v 2.403 l -3.621,6.094 z"
         id="path6082"
         inkscape:connector-curvature="0" />
    </clipPath>
    <clipPath
       clipPathUnits="userSpaceOnUse"
       id="clipPath6100">
      <path
         d="m 388.898,357.294 -18.192,-12.446 -3.277,-13.408 h 3.429 42.357 v 18.76 l -5.045,8.49 -9.966,4.557 z"
         id="path6098"
         inkscape:connector-curvature="0" />
    </clipPath>
    <clipPath
       clipPathUnits="userSpaceOnUse"
       id="clipPath6116">
      <path
         d="m 377.725,349.65 -2.801,-18.21 h 5.367 l 3.22,22.168 z"
         id="path6114"
         inkscape:connector-curvature="0" />
    </clipPath>
    <clipPath
       clipPathUnits="userSpaceOnUse"
       id="clipPath6140">
      <path
         d="m 388.898,357.294 -18.192,-12.446 -3.277,-13.408 h 3.429 42.357 v 18.76 l -5.045,8.49 -9.966,4.557 z"
         id="path6138"
         inkscape:connector-curvature="0" />
    </clipPath>
    <clipPath
       clipPathUnits="userSpaceOnUse"
       id="clipPath6152">
      <path
         d="M 0,842.979 H 701.352 V 0 H 0 Z"
         id="path6150"
         inkscape:connector-curvature="0" />
    </clipPath>
    <clipPath
       clipPathUnits="userSpaceOnUse"
       id="clipPath6176">
      <path
         d="m 394.845,364.558 9.592,-5.652 5.557,2.095 -0.678,6.365 c -2.996,3.676 -1.139,7.243 -1.139,7.243 v 0 l -5.214,1.492 -9.538,0.162 z"
         id="path6174"
         inkscape:connector-curvature="0" />
    </clipPath>
    <clipPath
       clipPathUnits="userSpaceOnUse"
       id="clipPath6204">
      <path
         d="M 0,842.979 H 701.352 V 0 H 0 Z"
         id="path6202"
         inkscape:connector-curvature="0" />
    </clipPath>
    <clipPath
       clipPathUnits="userSpaceOnUse"
       id="clipPath6232">
      <path
         d="m 367.13,345.036 v -13.559 c 8.809,4.366 6.999,13.559 6.999,13.559 v 0 z"
         id="path6230"
         inkscape:connector-curvature="0" />
    </clipPath>
  </defs>
  <sodipodi:namedview
     id="base"
     pagecolor="#ffffff"
     bordercolor="#666666"
     borderopacity="1.0"
     inkscape:pageopacity="0.0"
     inkscape:pageshadow="2"
     inkscape:zoom="7.919596"
     inkscape:cx="42.781338"
     inkscape:cy="48.903313"
     inkscape:document-units="mm"
     inkscape:current-layer="layer1"
     showgrid="false"
     fit-margin-top="0"
     fit-margin-left="0"
     fit-margin-right="0"
     fit-margin-bottom="0"
     inkscape:window-width="1920"
     inkscape:window-height="1057"
     inkscape:window-x="-8"
     inkscape:window-y="-8"
     inkscape:window-maximized="1" />
  <metadata
     id="metadata13704">
    <rdf:RDF>
      <cc:Work
         rdf:about="">
        <dc:format>image/svg+xml</dc:format>
        <dc:type
           rdf:resource="http://purl.org/dc/dcmitype/StillImage" />
        <dc:title />
      </cc:Work>
    </rdf:RDF>
  </metadata>
  <g
     inkscape:label="Layer 1"
     inkscape:groupmode="layer"
     id="layer1"
     transform="translate(-84.188178,-84.593537)">
    <g
       style="display:inline"
       id="g5986"
       transform="matrix(0.35277777,0,0,-0.35277777,104.6888,111.27165)">
      <path
         d="m 0,0 c 0,-2.97 -2.43,-5.399 -5.399,-5.399 h -46.998 c -2.97,0 -5.4,2.429 -5.4,5.399 v 69.908 c 0,2.97 2.43,5.4 5.4,5.4 h 46.998 c 2.969,0 5.399,-2.43 5.399,-5.4 z"
         style="fill:#fafafa;fill-opacity:1;fill-rule:evenodd;stroke:none"
         id="path5988"
         inkscape:connector-curvature="0" />
    </g>
    <g
       style="display:inline"
       id="g5990"
       transform="matrix(0.35277777,0,0,-0.35277777,104.6888,111.27165)">
      <path
         d="m 0,0 c 0,-2.97 -2.43,-5.399 -5.399,-5.399 h -46.998 c -2.97,0 -5.4,2.429 -5.4,5.399 v 69.908 c 0,2.97 2.43,5.4 5.4,5.4 h 46.998 c 2.969,0 5.399,-2.43 5.399,-5.4 z"
         style="fill:none;stroke:#cccccc;stroke-width:0.63;stroke-linecap:butt;stroke-linejoin:miter;stroke-miterlimit:3.86400008;stroke-dasharray:none;stroke-opacity:1"
         id="path5992"
         inkscape:connector-curvature="0" />
    </g>
    <g
       style="display:inline;fill:#0000ff"
       id="g5994"
       transform="matrix(0.35277777,0,0,-0.35277777,87.295897,92.5038)">
      <path
         d="m 0,0 c 0.312,-0.025 0.676,-0.025 0.988,-0.025 0.91,0 1.639,0.337 1.639,1.742 V 15.602 H 5.486 V 1.924 c 0,-3.641 -1.95,-4.576 -4.107,-4.576 -0.521,0 -0.91,0 -1.379,0.052 z"
         style="fill:#0000ff;fill-opacity:1;fill-rule:nonzero;stroke:none"
         id="path5996"
         inkscape:connector-curvature="0" />
    </g>
    <g
       style="display:inline"
       id="g5998"
       transform="matrix(0.35277777,0,0,-0.35277777,100.04412,100.76307)">
      <path
         d="M 0,0 C 0,0 6.562,-1.666 7.283,3.658 7.734,6.982 4.996,9.568 1.621,9.014 V 5.971 L 4.059,4.26 4.629,2.883 3.513,1.164 Z"
         style="fill:#f5cc00;fill-opacity:1;fill-rule:nonzero;stroke:none"
         id="path6000"
         inkscape:connector-curvature="0" />
    </g>
    <g
       style="display:inline"
       id="g6002"
       transform="matrix(0.35277777,0,0,-0.35277777,100.04412,100.76307)">
      <path
         d="M 0,0 C 0,0 6.562,-1.666 7.283,3.658 7.734,6.982 4.996,9.568 1.621,9.014 V 5.971 L 4.059,4.26 4.629,2.883 3.513,1.164 Z"
         style="fill:none;stroke:#020202;stroke-width:0.43599999;stroke-linecap:butt;stroke-linejoin:miter;stroke-miterlimit:10;stroke-dasharray:none;stroke-opacity:1"
         id="path6004"
         inkscape:connector-curvature="0" />
    </g>
    <g
       style="display:inline;fill:#0000ff"
       id="g6006"
       transform="matrix(0.35277777,0,0,-0.35277777,94.042068,102.11287)">
      <path
         d="m 0,0 -18.192,-12.445 -3.278,-13.409 h 3.429 42.357 v 18.76 l -5.045,8.49 -9.965,4.557 z"
         style="fill:#0000ff;fill-opacity:1;fill-rule:nonzero;stroke:none"
         id="path6008"
         inkscape:connector-curvature="0" />
    </g>
    <g
       transform="matrix(0.35277777,0,0,-0.35277777,-43.152646,228.15821)"
       id="g6010">
      <g
         id="g6012"
         clip-path="url(#clipPath6016)">
        <g
           id="g6018"
           transform="translate(404.6543,358.6709)">
          <path
             d="M 0,0 -20.533,-13.668 -18.156,5.479 -2.612,8.105 1.854,6.24 Z"
             style="fill:#ffffff;fill-opacity:1;fill-rule:nonzero;stroke:none"
             id="path6020"
             inkscape:connector-curvature="0" />
        </g>
      </g>
    </g>
    <g
       transform="matrix(0.35277777,0,0,-0.35277777,-43.152646,228.15821)"
       id="g6022">
      <g
         id="g6024"
         clip-path="url(#clipPath6028)">
        <g
           id="g6030"
           transform="translate(402.042,359.0127)">
          <path
             d="m 0,0 -15.447,-10.006 0.849,8.02 c 0,0 -1.186,1.771 -0.282,4.468 l 12.502,2.567 z"
             style="fill:#f5cc00;fill-opacity:1;fill-rule:nonzero;stroke:none"
             id="path6032"
             inkscape:connector-curvature="0" />
        </g>
      </g>
    </g>
    <g
       transform="matrix(0.35277777,0,0,-0.35277777,-43.152646,228.15821)"
       id="g6034">
      <g
         id="g6036"
         clip-path="url(#clipPath6040)">
        <g
           id="g6042"
           transform="translate(401.3711,360.7607)">
          <path
             d="m 0,0 -12.664,-8.369 1.367,14.861 9.77,-0.832 z"
             style="fill:#000000;fill-opacity:1;fill-rule:nonzero;stroke:none"
             id="path6044"
             inkscape:connector-curvature="0" />
        </g>
        <g
           id="g6046"
           transform="translate(401.3711,360.7607)">
          <path
             d="m 0,0 -12.664,-8.369 1.367,14.861 9.77,-0.832 z"
             style="fill:none;stroke:#020202;stroke-width:0.551;stroke-linecap:butt;stroke-linejoin:miter;stroke-miterlimit:10;stroke-dasharray:none;stroke-opacity:1"
             id="path6048"
             inkscape:connector-curvature="0" />
        </g>
      </g>
    </g>
    <g
       transform="matrix(0.35277777,0,0,-0.35277777,-43.152646,228.15821)"
       id="g6050">
      <g
         id="g6052"
         clip-path="url(#clipPath6056)">
        <g
           id="g6058"
           transform="translate(402.042,359.0127)">
          <path
             d="m 0,0 -15.447,-10.006 0.849,8.02 c 0,0 -1.186,1.771 -0.282,4.468 l 12.502,2.567 z"
             style="fill:none;stroke:#020202;stroke-width:0.551;stroke-linecap:butt;stroke-linejoin:miter;stroke-miterlimit:10;stroke-dasharray:none;stroke-opacity:1"
             id="path6060"
             inkscape:connector-curvature="0" />
        </g>
      </g>
    </g>
    <g
       transform="matrix(0.35277777,0,0,-0.35277777,-43.152646,228.15821)"
       id="g6062">
      <g
         id="g6064"
         clip-path="url(#clipPath6068)">
        <g
           id="g6070"
           transform="translate(404.6543,358.6709)">
          <path
             d="M 0,0 -20.533,-13.668 -18.156,5.479 -2.612,8.105 1.854,6.24 Z"
             style="fill:none;stroke:#000000;stroke-width:0.551;stroke-linecap:butt;stroke-linejoin:miter;stroke-miterlimit:10;stroke-dasharray:none;stroke-opacity:1"
             id="path6072"
             inkscape:connector-curvature="0" />
        </g>
        <g
           id="g6074"
           transform="translate(373.2666,329.2568)">
          <path
             d="M 0,0 38.679,28.787 43.347,21.129 13.269,-1.777 Z"
             style="fill:#f5cc00;fill-opacity:1;fill-rule:nonzero;stroke:none"
             id="path6076"
             inkscape:connector-curvature="0" />
        </g>
      </g>
    </g>
    <g
       transform="matrix(0.35277777,0,0,-0.35277777,-43.152646,228.15821)"
       id="g6078">
      <g
         id="g6080"
         clip-path="url(#clipPath6084)">
        <g
           id="g6086"
           transform="translate(384.6689,328.2822)">
          <path
             d="M 0,0 33.798,25.691 30.556,29.939 -10.387,-0.178 Z"
             style="fill:#ae2a20;fill-opacity:1;fill-rule:nonzero;stroke:none"
             id="path6088"
             inkscape:connector-curvature="0" />
        </g>
        <g
           id="g6090"
           transform="translate(384.6689,328.2822)">
          <path
             d="M 0,0 33.798,25.691 30.556,29.939 -10.387,-0.178 Z"
             style="fill:none;stroke:#000000;stroke-width:0.579;stroke-linecap:butt;stroke-linejoin:miter;stroke-miterlimit:10;stroke-dasharray:none;stroke-opacity:1"
             id="path6092"
             inkscape:connector-curvature="0" />
        </g>
      </g>
    </g>
    <g
       transform="matrix(0.35277777,0,0,-0.35277777,-43.152646,228.15821)"
       id="g6094">
      <g
         id="g6096"
         clip-path="url(#clipPath6100)">
        <g
           id="g6102"
           transform="translate(373.2666,329.2568)">
          <path
             d="M 0,0 38.679,28.787 43.347,21.129 13.269,-1.777 Z"
             style="fill:none;stroke:#020202;stroke-width:0.551;stroke-linecap:butt;stroke-linejoin:miter;stroke-miterlimit:10;stroke-dasharray:none;stroke-opacity:1"
             id="path6104"
             inkscape:connector-curvature="0" />
        </g>
        <g
           id="g6106"
           transform="translate(378.4531,354.3799)">
          <path
             d="M 0,0 -3.893,-25.303 H 1.494 L 5.473,2.084 Z"
             style="fill:#ffffff;fill-opacity:1;fill-rule:nonzero;stroke:none"
             id="path6108"
             inkscape:connector-curvature="0" />
        </g>
      </g>
    </g>
    <g
       transform="matrix(0.35277777,0,0,-0.35277777,-43.152646,228.15821)"
       id="g6110">
      <g
         id="g6112"
         clip-path="url(#clipPath6116)">
        <g
           id="g6118"
           transform="translate(380.5049,355.8135)">
          <path
             d="M 0,0 -4.248,-26.377 H 1.63 L 5.972,2.172 Z"
             style="fill:#f5cc00;fill-opacity:1;fill-rule:nonzero;stroke:none"
             id="path6120"
             inkscape:connector-curvature="0" />
        </g>
        <g
           id="g6122"
           transform="translate(380.5049,355.8135)">
          <path
             d="M 0,0 -4.248,-26.377 H 1.63 L 5.972,2.172 Z"
             style="fill:none;stroke:#020202;stroke-width:0.551;stroke-linecap:butt;stroke-linejoin:miter;stroke-miterlimit:10;stroke-dasharray:none;stroke-opacity:1"
             id="path6124"
             inkscape:connector-curvature="0" />
        </g>
        <g
           id="g6126"
           transform="translate(382.1406,355.8135)">
          <path
             d="M 0,0 -4.248,-26.377 H 1.631 L 5.971,2.172 Z"
             style="fill:#ffffff;fill-opacity:1;fill-rule:nonzero;stroke:none"
             id="path6128"
             inkscape:connector-curvature="0" />
        </g>
        <g
           id="g6130"
           transform="translate(382.1406,355.8135)">
          <path
             d="M 0,0 -4.248,-26.377 H 1.631 L 5.971,2.172 Z"
             style="fill:none;stroke:#000000;stroke-width:0.551;stroke-linecap:butt;stroke-linejoin:miter;stroke-miterlimit:10;stroke-dasharray:none;stroke-opacity:1"
             id="path6132"
             inkscape:connector-curvature="0" />
        </g>
      </g>
    </g>
    <g
       transform="matrix(0.35277777,0,0,-0.35277777,-43.152646,228.15821)"
       id="g6134">
      <g
         id="g6136"
         clip-path="url(#clipPath6140)">
        <g
           id="g6142"
           transform="translate(378.4531,354.3799)">
          <path
             d="M 0,0 -3.893,-25.303 H 1.494 L 5.473,2.084 Z"
             style="fill:none;stroke:#000000;stroke-width:0.551;stroke-linecap:butt;stroke-linejoin:miter;stroke-miterlimit:10;stroke-dasharray:none;stroke-opacity:1"
             id="path6144"
             inkscape:connector-curvature="0" />
        </g>
      </g>
    </g>
    <g
       transform="matrix(0.35277777,0,0,-0.35277777,-43.152646,228.15821)"
       id="g6146">
      <g
         id="g6148"
         clip-path="url(#clipPath6152)">
        <g
           id="g6154"
           transform="translate(388.8984,357.2939)">
          <path
             d="m 0,0 -18.192,-12.445 -3.278,-13.409 h 3.429 42.357 v 18.76 l -5.045,8.49 -9.965,4.557 z"
             style="fill:none;stroke:#000000;stroke-width:0.579;stroke-linecap:butt;stroke-linejoin:miter;stroke-miterlimit:10;stroke-dasharray:none;stroke-opacity:1"
             id="path6156"
             inkscape:connector-curvature="0" />
        </g>
        <g
           id="g6158"
           transform="translate(386.127,376.0205)">
          <path
             d="m 0,0 v -5.002 l -2.508,-6.271 h 2.68 v -7.407 c 0,0 10.928,-2.564 14.162,5.801 V 2.482 C 14.334,2.482 2.658,2.18 0,0"
             style="fill:#ffffff;fill-opacity:1;fill-rule:nonzero;stroke:none"
             id="path6160"
             inkscape:connector-curvature="0" />
        </g>
        <g
           id="g6162"
           transform="translate(386.127,376.0205)">
          <path
             d="m 0,0 v -5.002 l -2.508,-6.271 h 2.68 v -7.407 c 0,0 10.928,-2.564 14.162,5.801 V 2.482 C 14.334,2.482 2.658,2.18 0,0 Z"
             style="fill:none;stroke:#000000;stroke-width:0.551;stroke-linecap:butt;stroke-linejoin:miter;stroke-miterlimit:10;stroke-dasharray:none;stroke-opacity:1"
             id="path6164"
             inkscape:connector-curvature="0" />
        </g>
        <g
           id="g6166"
           transform="translate(408.1768,374.6084)">
          <path
             d="m 0,0 c 0,0 -1.856,-3.566 1.14,-7.242 l 0.677,-6.365 -5.557,-2.096 -9.591,5.652 -1.421,11.705 9.538,-0.162 z"
             style="fill:#f5cc00;fill-opacity:1;fill-rule:nonzero;stroke:none"
             id="path6168"
             inkscape:connector-curvature="0" />
        </g>
      </g>
    </g>
    <g
       transform="matrix(0.35277777,0,0,-0.35277777,-43.152646,228.15821)"
       id="g6170">
      <g
         id="g6172"
         clip-path="url(#clipPath6176)">
        <g
           id="g6178"
           transform="translate(397.1104,377.8623)">
          <path
             d="m 0,0 c -0.212,-4.449 -2.013,-15.939 15.293,-17.652 0,0 -1.013,4.642 -0.237,3.351 C 15.384,-14.854 1.321,-15.211 2.665,-1.4 2.665,-1.4 0.36,7.469 0,0"
             style="fill:#f5cc00;fill-opacity:1;fill-rule:nonzero;stroke:none"
             id="path6180"
             inkscape:connector-curvature="0" />
        </g>
        <g
           id="g6182"
           transform="translate(397.1104,377.8623)">
          <path
             d="m 0,0 c -0.212,-4.449 -2.013,-15.939 15.293,-17.652 0,0 -1.013,4.642 -0.237,3.351 C 15.384,-14.854 1.321,-15.211 2.665,-1.4 2.665,-1.4 0.36,7.469 0,0 Z"
             style="fill:none;stroke:#020202;stroke-width:0.54299998;stroke-linecap:butt;stroke-linejoin:miter;stroke-miterlimit:10;stroke-dasharray:none;stroke-opacity:1"
             id="path6184"
             inkscape:connector-curvature="0" />
        </g>
        <g
           id="g6186"
           transform="translate(399.6172,378.6318)">
          <path
             d="m 0,0 c -0.01,-5.35 -1.518,-14.32 13.052,-16.223 0,0 -0.667,4.223 0.01,2.981 0.239,-0.438 -11.48,-1.537 -10.353,11.158 0,0 -2.697,9.246 -2.709,2.084"
             style="fill:#f5cc00;fill-opacity:1;fill-rule:nonzero;stroke:none"
             id="path6188"
             inkscape:connector-curvature="0" />
        </g>
        <g
           id="g6190"
           transform="translate(399.6172,378.6318)">
          <path
             d="m 0,0 c -0.01,-5.35 -1.518,-14.32 13.052,-16.223 0,0 -0.667,4.223 0.01,2.981 0.239,-0.438 -11.48,-1.537 -10.353,11.158 0,0 -2.697,9.246 -2.709,2.084 z"
             style="fill:none;stroke:#020202;stroke-width:0.498;stroke-linecap:butt;stroke-linejoin:miter;stroke-miterlimit:10;stroke-dasharray:none;stroke-opacity:1"
             id="path6192"
             inkscape:connector-curvature="0" />
        </g>
        <g
           id="g6194"
           transform="translate(405.5566,376.5439)">
          <path
             d="M 0,0 C 0,0 -2.568,-9.953 6.787,-8.986"
             style="fill:#f5cc00;fill-opacity:1;fill-rule:nonzero;stroke:#020202;stroke-width:0.498;stroke-linecap:butt;stroke-linejoin:miter;stroke-miterlimit:10;stroke-dasharray:none;stroke-opacity:1"
             id="path6196"
             inkscape:connector-curvature="0" />
        </g>
      </g>
    </g>
    <g
       transform="matrix(0.35277777,0,0,-0.35277777,-43.152646,228.15821)"
       id="g6198">
      <g
         id="g6200"
         clip-path="url(#clipPath6204)">
        <g
           id="g6206"
           transform="translate(408.1768,374.6084)">
          <path
             d="m 0,0 c 0,0 -1.856,-3.566 1.14,-7.242 l 0.677,-6.365 -5.557,-2.096 -9.591,5.652 -1.421,11.705 9.538,-0.162 z"
             style="fill:none;stroke:#020202;stroke-width:0.498;stroke-linecap:butt;stroke-linejoin:miter;stroke-miterlimit:10;stroke-dasharray:none;stroke-opacity:1"
             id="path6208"
             inkscape:connector-curvature="0" />
        </g>
        <g
           id="g6210"
           transform="translate(389.5664,369.6846)">
          <path
             d="m 0,0 c 0,-0.41 -0.328,-0.744 -0.734,-0.744 -0.406,0 -0.735,0.334 -0.735,0.744 0,0.412 0.329,0.746 0.735,0.746 C -0.328,0.746 0,0.412 0,0"
             style="fill:#171717;fill-opacity:1;fill-rule:nonzero;stroke:none"
             id="path6212"
             inkscape:connector-curvature="0" />
        </g>
        <g
           id="g6214"
           transform="translate(386.2988,362.3271)">
          <path
             d="m 0,0 c 1.504,0.314 3.507,0 3.507,0 2.444,-0.266 3.168,0.855 3.168,0.855 0,0 -0.605,-0.511 -3.168,0.034 C 0.946,1.434 0,1.297 0,1.297 Z"
             style="fill:#171717;fill-opacity:1;fill-rule:nonzero;stroke:none"
             id="path6216"
             inkscape:connector-curvature="0" />
        </g>
        <g
           id="g6218"
           transform="translate(385.4648,364.7471)">
          <path
             d="M 0,0 H 2.141"
             style="fill:none;stroke:#000000;stroke-width:0.551;stroke-linecap:butt;stroke-linejoin:miter;stroke-miterlimit:10;stroke-dasharray:none;stroke-opacity:1"
             id="path6220"
             inkscape:connector-curvature="0" />
        </g>
        <g
           id="g6222"
           transform="translate(367.1299,345.0361)">
          <path
             d="M 0,0 H 6.999 C 6.999,0 8.81,-9.193 0,-13.559 Z"
             style="fill:#ffffff;fill-opacity:1;fill-rule:nonzero;stroke:none"
             id="path6224"
             inkscape:connector-curvature="0" />
        </g>
      </g>
    </g>
    <g
       transform="matrix(0.35277777,0,0,-0.35277777,-43.152646,228.15821)"
       id="g6226">
      <g
         id="g6228"
         clip-path="url(#clipPath6232)">
        <g
           id="g6234"
           transform="translate(365.8457,342.1104)">
          <path
             d="M 0,0 H 8.572 V -3.504 H 0.223 L 0.544,-7.23 H 7.598 L 6.49,-10.211 0,-10.238"
             style="fill:#ffffff;fill-opacity:1;fill-rule:nonzero;stroke:#000000;stroke-width:0.66900003;stroke-linecap:butt;stroke-linejoin:miter;stroke-miterlimit:10;stroke-dasharray:none;stroke-opacity:1"
             id="path6236"
             inkscape:connector-curvature="0" />
        </g>
      </g>
    </g>
    <g
       id="g6246"
       transform="matrix(0.35277777,0,0,-0.35277777,86.362624,106.43715)">
      <path
         d="M 0,0 H 6.999 C 6.999,0 8.81,-9.193 0,-13.559 Z"
         style="fill:none;stroke:#000000;stroke-width:0.551;stroke-linecap:round;stroke-linejoin:round;stroke-miterlimit:10;stroke-dasharray:none;stroke-opacity:1"
         id="path6248"
         inkscape:connector-curvature="0" />
    </g>
    <g
       id="g6250"
       transform="matrix(0.35277777,0,0,-0.35277777,93.93941,100.68934)">
      <path
         d="M 0,0 -2.031,0.049"
         style="fill:none;stroke:#000000;stroke-width:0.54000002;stroke-linecap:butt;stroke-linejoin:miter;stroke-miterlimit:10;stroke-dasharray:none;stroke-opacity:1"
         id="path6252"
         inkscape:connector-curvature="0" />
    </g>
    <g
       id="g6254"
       transform="matrix(0.35277777,0,0,-0.35277777,99.576268,101.45966)">
      <path
         d="M 0,0 C 0,0 6.84,-1.666 7.561,3.658 8.012,6.986 5.273,9.568 1.898,9.01 V 5.971 L 4.336,4.258 4.9,2.883 3.787,1.164 Z"
         style="fill:#f5cc00;fill-opacity:1;fill-rule:nonzero;stroke:none"
         id="path6256"
         inkscape:connector-curvature="0" />
    </g>
    <g
       id="g6258"
       transform="matrix(0.35277777,0,0,-0.35277777,99.576268,101.45966)">
      <path
         d="M 0,0 C 0,0 6.84,-1.666 7.561,3.658 8.012,6.986 5.273,9.568 1.898,9.01 V 5.971 L 4.336,4.258 4.9,2.883 3.787,1.164 Z"
         style="fill:none;stroke:#020202;stroke-width:0.43599999;stroke-linecap:butt;stroke-linejoin:miter;stroke-miterlimit:10;stroke-dasharray:none;stroke-opacity:1"
         id="path6260"
         inkscape:connector-curvature="0" />
    </g>
    <g
       id="g6262"
       transform="matrix(0.35277777,0,0,-0.35277777,95.019122,95.426599)">
      <path
         d="m 0,0 c 0,0 -1.974,-14.85 11.637,-18.27 1.625,-0.408 6.58,-0.699 7.024,4.043 0.285,3.059 -2.987,5.018 -5.509,4.5 l 0.121,-2.502 c 0,0 2.731,0.375 2.637,-2.021 0,0 -0.279,-2.068 -3.26,-1.547 0,0 -11.197,1.795 -10.087,15.912 z"
         style="fill:#f5cc00;fill-opacity:1;fill-rule:nonzero;stroke:none"
         id="path6264"
         inkscape:connector-curvature="0" />
    </g>
    <g
       id="g6266"
       transform="matrix(0.35277777,0,0,-0.35277777,95.019122,95.426599)">
      <path
         d="m 0,0 c 0,0 -1.974,-14.85 11.637,-18.27 1.625,-0.408 6.58,-0.699 7.024,4.043 0.285,3.059 -2.987,5.018 -5.509,4.5 l 0.121,-2.502 c 0,0 2.731,0.375 2.637,-2.021 0,0 -0.279,-2.068 -3.26,-1.547 0,0 -11.197,1.795 -10.087,15.912 z"
         style="fill:none;stroke:#020202;stroke-width:0.551;stroke-linecap:butt;stroke-linejoin:miter;stroke-miterlimit:10;stroke-dasharray:none;stroke-opacity:1"
         id="path6268"
         inkscape:connector-curvature="0" />
    </g>
    <g
       id="g6270"
       transform="matrix(0.35277777,0,0,-0.35277777,91.312203,93.056392)">
      <path
         d="m 0,0 4.656,-8.742 c 0,0 13.231,3.568 22.299,0.072 L 30.23,0.123 C 30.23,0.123 16.567,5.373 0,0"
         style="fill:#020202;fill-opacity:1;fill-rule:nonzero;stroke:none"
         id="path6272"
         inkscape:connector-curvature="0" />
    </g>
    <g
       id="g6274"
       transform="matrix(0.35277777,0,0,-0.35277777,91.312203,93.056392)">
      <path
         d="m 0,0 4.656,-8.742 c 0,0 13.231,3.568 22.299,0.072 L 30.23,0.123 C 30.23,0.123 16.567,5.373 0,0 Z"
         style="fill:none;stroke:#000000;stroke-width:0.551;stroke-linecap:butt;stroke-linejoin:miter;stroke-miterlimit:10;stroke-dasharray:none;stroke-opacity:1"
         id="path6276"
         inkscape:connector-curvature="0" />
    </g>
    <g
       id="g6278"
       transform="matrix(0.35277777,0,0,-0.35277777,91.463085,93.146631)">
      <path
         d="m 0,0 3.208,-6.584 c 0,0 13.155,2.902 23.993,0.02 l 2.43,6.441 C 29.631,-0.123 15.824,5.07 0,0"
         style="fill:#ae2a20;fill-opacity:1;fill-rule:nonzero;stroke:none"
         id="path6280"
         inkscape:connector-curvature="0" />
    </g>
    <g
       id="g6282"
       transform="matrix(0.35277777,0,0,-0.35277777,91.463085,93.146631)">
      <path
         d="m 0,0 3.208,-6.584 c 0,0 13.155,2.902 23.993,0.02 l 2.43,6.441 C 29.631,-0.123 15.824,5.07 0,0 Z"
         style="fill:none;stroke:#000000;stroke-width:0.551;stroke-linecap:butt;stroke-linejoin:miter;stroke-miterlimit:10;stroke-dasharray:none;stroke-opacity:1"
         id="path6284"
         inkscape:connector-curvature="0" />
    </g>
    <g
       id="g6286"
       transform="matrix(0.35277777,0,0,-0.35277777,92.375334,93.503573)">
      <path
         d="m 0,0 1.85,-3.59 c 0,0 2.41,0.641 5.267,0.873 L 6.754,1.084"
         style="fill:#ae2a20;fill-opacity:1;fill-rule:nonzero;stroke:#000000;stroke-width:0.551;stroke-linecap:butt;stroke-linejoin:miter;stroke-miterlimit:10;stroke-dasharray:none;stroke-opacity:1"
         id="path6288"
         inkscape:connector-curvature="0" />
    </g>
    <g
       id="g6290"
       transform="matrix(0.35277777,0,0,-0.35277777,101.09145,93.393329)">
      <path
         d="m 0,0 -1.293,-3.545 c 0,0 -3.244,0.367 -6.102,0.602 l 0.086,3.798"
         style="fill:#ae2a20;fill-opacity:1;fill-rule:nonzero;stroke:#000000;stroke-width:0.551;stroke-linecap:butt;stroke-linejoin:miter;stroke-miterlimit:10;stroke-dasharray:none;stroke-opacity:1"
         id="path6292"
         inkscape:connector-curvature="0" />
    </g>
    <g
       id="g6294"
       transform="matrix(0.35277777,0,0,-0.35277777,95.542748,93.121162)">
      <path
         d="m 0,0 0.279,-3.607 h 5.926 v 3.75"
         style="fill:#ae2a20;fill-opacity:1;fill-rule:nonzero;stroke:#000000;stroke-width:0.551;stroke-linecap:butt;stroke-linejoin:miter;stroke-miterlimit:10;stroke-dasharray:none;stroke-opacity:1"
         id="path6296"
         inkscape:connector-curvature="0" />
    </g>
    <g
       id="g6298"
       transform="matrix(0.35277777,0,0,-0.35277777,92.504204,110.69595)">
      <path
         d="M 0,0 H 3.184 L 6.287,2.23 H 3.084 Z"
         style="fill:#000000;fill-opacity:1;fill-rule:nonzero;stroke:none"
         id="path6300"
         inkscape:connector-curvature="0" />
    </g>
    <g
       id="g6302"
       transform="matrix(0.35277777,0,0,-0.35277777,92.504204,110.69595)">
      <path
         d="M 0,0 H 3.184 L 6.287,2.23 H 3.084 Z"
         style="fill:none;stroke:#020202;stroke-width:0.551;stroke-linecap:butt;stroke-linejoin:miter;stroke-miterlimit:10;stroke-dasharray:none;stroke-opacity:1"
         id="path6304"
         inkscape:connector-curvature="0" />
    </g>
    <g
       id="g6306"
       transform="matrix(0.35277777,0,0,-0.35277777,94.2374,109.31931)">
      <path
         d="M 0,0 H 3.183 L 6.286,2.232 H 3.083 Z"
         style="fill:#000000;fill-opacity:1;fill-rule:nonzero;stroke:none"
         id="path6308"
         inkscape:connector-curvature="0" />
    </g>
    <g
       id="g6310"
       transform="matrix(0.35277777,0,0,-0.35277777,94.2374,109.31931)">
      <path
         d="M 0,0 H 3.183 L 6.286,2.232 H 3.083 Z"
         style="fill:none;stroke:#020202;stroke-width:0.551;stroke-linecap:butt;stroke-linejoin:miter;stroke-miterlimit:10;stroke-dasharray:none;stroke-opacity:1"
         id="path6312"
         inkscape:connector-curvature="0" />
    </g>
    <g
       id="g6314"
       transform="matrix(0.35277777,0,0,-0.35277777,96.047467,108.01706)">
      <path
         d="M 0,0 H 3.181 L 6.286,2.232 H 3.083 Z"
         style="fill:#000000;fill-opacity:1;fill-rule:nonzero;stroke:none"
         id="path6316"
         inkscape:connector-curvature="0" />
    </g>
    <g
       id="g6318"
       transform="matrix(0.35277777,0,0,-0.35277777,96.047467,108.01706)">
      <path
         d="M 0,0 H 3.181 L 6.286,2.232 H 3.083 Z"
         style="fill:none;stroke:#020202;stroke-width:0.551;stroke-linecap:butt;stroke-linejoin:miter;stroke-miterlimit:10;stroke-dasharray:none;stroke-opacity:1"
         id="path6320"
         inkscape:connector-curvature="0" />
    </g>
    <g
       id="g6322"
       transform="matrix(0.35277777,0,0,-0.35277777,97.7807,106.73549)">
      <path
         d="M 0,0 H 3.182 L 6.286,2.23 H 3.082 Z"
         style="fill:#000000;fill-opacity:1;fill-rule:nonzero;stroke:none"
         id="path6324"
         inkscape:connector-curvature="0" />
    </g>
    <g
       id="g6326"
       transform="matrix(0.35277777,0,0,-0.35277777,97.7807,106.73549)">
      <path
         d="M 0,0 H 3.182 L 6.286,2.23 H 3.082 Z"
         style="fill:none;stroke:#020202;stroke-width:0.551;stroke-linecap:butt;stroke-linejoin:miter;stroke-miterlimit:10;stroke-dasharray:none;stroke-opacity:1"
         id="path6328"
         inkscape:connector-curvature="0" />
    </g>
    <g
       id="g6330"
       transform="matrix(0.35277777,0,0,-0.35277777,99.561806,105.40845)">
      <path
         d="M 0,0 H 2.906 L 5.732,1.959 4.752,3.598 Z"
         style="fill:#000000;fill-opacity:1;fill-rule:nonzero;stroke:none"
         id="path6332"
         inkscape:connector-curvature="0" />
    </g>
    <g
       id="g6334"
       transform="matrix(0.35277777,0,0,-0.35277777,99.561806,105.40845)">
      <path
         d="M 0,0 H 2.906 L 5.732,1.959 4.752,3.598 Z"
         style="fill:none;stroke:#020202;stroke-width:0.551;stroke-linecap:butt;stroke-linejoin:miter;stroke-miterlimit:10;stroke-dasharray:none;stroke-opacity:1"
         id="path6336"
         inkscape:connector-curvature="0" />
    </g>
    <g
       id="g6338"
       transform="matrix(0.35277777,0,0,-0.35277777,97.90195,110.33421)">
      <path
         d="M 0,0 11.025,7.986 V 0 Z"
         style="fill:#000000;fill-opacity:1;fill-rule:nonzero;stroke:none"
         id="path6340"
         inkscape:connector-curvature="0" />
    </g>
    <g
       id="g6342"
       transform="matrix(0.35277777,0,0,-0.35277777,97.90195,110.33421)">
      <path
         d="M 0,0 11.025,7.986 V 0 Z"
         style="fill:none;stroke:#020202;stroke-width:0.48800001;stroke-linecap:butt;stroke-linejoin:miter;stroke-miterlimit:10;stroke-dasharray:none;stroke-opacity:1"
         id="path6344"
         inkscape:connector-curvature="0" />
    </g>
    <g
       id="g6346"
       transform="matrix(0.35277777,0,0,-0.35277777,99.213154,109.85398)">
      <path
         d="M 0,0 5.941,4.1 V 0 Z"
         style="fill:#f5cc00;fill-opacity:1;fill-rule:nonzero;stroke:none"
         id="path6348"
         inkscape:connector-curvature="0" />
    </g>
    <g
       id="g6350"
       transform="matrix(0.35277777,0,0,-0.35277777,99.213154,109.85398)">
      <path
         d="M 0,0 5.941,4.1 V 0 Z"
         style="fill:none;stroke:#020202;stroke-width:0.47099999;stroke-linecap:butt;stroke-linejoin:miter;stroke-miterlimit:10;stroke-dasharray:none;stroke-opacity:1"
         id="path6352"
         inkscape:connector-curvature="0" />
    </g>
    <g
       id="g6354"
       transform="matrix(0.35277777,0,0,-0.35277777,99.856726,102.70335)">
      <path
         d="m 0,0 c 0,-0.453 -0.375,-0.82 -0.836,-0.82 -0.459,0 -0.834,0.367 -0.834,0.82 0,0.453 0.375,0.82 0.834,0.82 C -0.375,0.82 0,0.453 0,0"
         style="fill:#ffffff;fill-opacity:1;fill-rule:nonzero;stroke:none"
         id="path6356"
         inkscape:connector-curvature="0" />
    </g>
    <g
       id="g6358"
       transform="matrix(0.35277777,0,0,-0.35277777,99.856726,102.70335)">
      <path
         d="m 0,0 c 0,-0.453 -0.375,-0.82 -0.836,-0.82 -0.459,0 -0.834,0.367 -0.834,0.82 0,0.453 0.375,0.82 0.834,0.82 C -0.375,0.82 0,0.453 0,0 Z"
         style="fill:none;stroke:#000000;stroke-width:0.373;stroke-linecap:butt;stroke-linejoin:miter;stroke-miterlimit:10;stroke-dasharray:none;stroke-opacity:1"
         id="path6360"
         inkscape:connector-curvature="0" />
    </g>
    <g
       id="g6362"
       transform="matrix(0.35277777,0,0,-0.35277777,98.610962,103.64731)">
      <path
         d="m 0,0 c 0,-0.453 -0.375,-0.818 -0.835,-0.818 -0.461,0 -0.833,0.365 -0.833,0.818 0,0.453 0.372,0.82 0.833,0.82 C -0.375,0.82 0,0.453 0,0"
         style="fill:#ffffff;fill-opacity:1;fill-rule:nonzero;stroke:none"
         id="path6364"
         inkscape:connector-curvature="0" />
    </g>
    <g
       id="g6366"
       transform="matrix(0.35277777,0,0,-0.35277777,98.610962,103.64731)">
      <path
         d="m 0,0 c 0,-0.453 -0.375,-0.818 -0.835,-0.818 -0.461,0 -0.833,0.365 -0.833,0.818 0,0.453 0.372,0.82 0.833,0.82 C -0.375,0.82 0,0.453 0,0 Z"
         style="fill:none;stroke:#000000;stroke-width:0.373;stroke-linecap:butt;stroke-linejoin:miter;stroke-miterlimit:10;stroke-dasharray:none;stroke-opacity:1"
         id="path6368"
         inkscape:connector-curvature="0" />
    </g>
    <g
       id="g6370"
       transform="matrix(0.35277777,0,0,-0.35277777,97.340081,104.59882)">
      <path
         d="m 0,0 c 0,-0.451 -0.375,-0.82 -0.835,-0.82 -0.461,0 -0.833,0.369 -0.833,0.82 0,0.453 0.372,0.82 0.833,0.82 C -0.375,0.82 0,0.453 0,0"
         style="fill:#ffffff;fill-opacity:1;fill-rule:nonzero;stroke:none"
         id="path6372"
         inkscape:connector-curvature="0" />
    </g>
    <g
       id="g6374"
       transform="matrix(0.35277777,0,0,-0.35277777,97.340081,104.59882)">
      <path
         d="m 0,0 c 0,-0.451 -0.375,-0.82 -0.835,-0.82 -0.461,0 -0.833,0.369 -0.833,0.82 0,0.453 0.372,0.82 0.833,0.82 C -0.375,0.82 0,0.453 0,0 Z"
         style="fill:none;stroke:#000000;stroke-width:0.373;stroke-linecap:butt;stroke-linejoin:miter;stroke-miterlimit:10;stroke-dasharray:none;stroke-opacity:1"
         id="path6376"
         inkscape:connector-curvature="0" />
    </g>
    <g
       id="g6378"
       transform="matrix(0.35277777,0,0,-0.35277777,95.898314,105.73501)">
      <path
         d="m 0,0 c 0,-0.457 -0.372,-0.822 -0.832,-0.822 -0.461,0 -0.834,0.365 -0.834,0.822 0,0.451 0.373,0.818 0.834,0.818 C -0.372,0.818 0,0.451 0,0"
         style="fill:#ffffff;fill-opacity:1;fill-rule:nonzero;stroke:none"
         id="path6380"
         inkscape:connector-curvature="0" />
    </g>
    <g
       id="g6382"
       transform="matrix(0.35277777,0,0,-0.35277777,95.898314,105.73501)">
      <path
         d="m 0,0 c 0,-0.457 -0.372,-0.822 -0.832,-0.822 -0.461,0 -0.834,0.365 -0.834,0.822 0,0.451 0.373,0.818 0.834,0.818 C -0.372,0.818 0,0.451 0,0 Z"
         style="fill:none;stroke:#000000;stroke-width:0.373;stroke-linecap:butt;stroke-linejoin:miter;stroke-miterlimit:10;stroke-dasharray:none;stroke-opacity:1"
         id="path6384"
         inkscape:connector-curvature="0" />
    </g>
    <g
       id="g6386"
       transform="matrix(0.35277777,0,0,-0.35277777,94.385566,106.80576)">
      <path
         d="m 0,0 c 0,-0.451 -0.375,-0.816 -0.835,-0.816 -0.458,0 -0.836,0.365 -0.836,0.816 0,0.449 0.378,0.82 0.836,0.82 C -0.375,0.82 0,0.449 0,0"
         style="fill:#ffffff;fill-opacity:1;fill-rule:nonzero;stroke:none"
         id="path6388"
         inkscape:connector-curvature="0" />
    </g>
    <g
       id="g6390"
       transform="matrix(0.35277777,0,0,-0.35277777,94.385566,106.80576)">
      <path
         d="m 0,0 c 0,-0.451 -0.375,-0.816 -0.835,-0.816 -0.458,0 -0.836,0.365 -0.836,0.816 0,0.449 0.378,0.82 0.836,0.82 C -0.375,0.82 0,0.449 0,0 Z"
         style="fill:none;stroke:#000000;stroke-width:0.373;stroke-linecap:butt;stroke-linejoin:miter;stroke-miterlimit:10;stroke-dasharray:none;stroke-opacity:1"
         id="path6392"
         inkscape:connector-curvature="0" />
    </g>
    <g
       id="g6394"
       transform="matrix(0.35277777,0,0,-0.35277777,92.943799,107.94195)">
      <path
         d="m 0,0 c 0,-0.455 -0.372,-0.822 -0.835,-0.822 -0.458,0 -0.833,0.367 -0.833,0.822 0,0.451 0.375,0.818 0.833,0.818 C -0.372,0.818 0,0.451 0,0"
         style="fill:#ffffff;fill-opacity:1;fill-rule:nonzero;stroke:none"
         id="path6396"
         inkscape:connector-curvature="0" />
    </g>
    <g
       id="g6398"
       transform="matrix(0.35277777,0,0,-0.35277777,92.943799,107.94195)">
      <path
         d="m 0,0 c 0,-0.455 -0.372,-0.822 -0.835,-0.822 -0.458,0 -0.833,0.367 -0.833,0.822 0,0.451 0.375,0.818 0.833,0.818 C -0.372,0.818 0,0.451 0,0 Z"
         style="fill:none;stroke:#000000;stroke-width:0.373;stroke-linecap:butt;stroke-linejoin:miter;stroke-miterlimit:10;stroke-dasharray:none;stroke-opacity:1"
         id="path6400"
         inkscape:connector-curvature="0" />
    </g>
    <g
       id="g6402"
       transform="matrix(0.35277777,0,0,-0.35277777,88.381112,101.91443)">
      <path
         d="M 0,0 C 0,0.797 -0.911,1.443 -2.086,1.443 -3.261,1.443 -4.177,0.797 -4.177,0 V -12.609 H 0 Z"
         style="fill:#000000;fill-opacity:1;fill-rule:nonzero;stroke:none"
         id="path6404"
         inkscape:connector-curvature="0" />
    </g>
    <g
       id="g6406"
       transform="matrix(0.35277777,0,0,-0.35277777,88.381112,101.91443)">
      <path
         d="M 0,0 C 0,0.797 -0.911,1.443 -2.086,1.443 -3.261,1.443 -4.177,0.797 -4.177,0 V -12.609 H 0 Z"
         style="fill:none;stroke:#020202;stroke-width:0.43799999;stroke-linecap:butt;stroke-linejoin:miter;stroke-miterlimit:10;stroke-dasharray:none;stroke-opacity:1"
         id="path6408"
         inkscape:connector-curvature="0" />
    </g>
    <g
       id="g6410"
       transform="matrix(0.35277777,0,0,-0.35277777,87.834695,101.85308)">
      <path
         d="M 0,0 C 0,0.201 -0.235,0.367 -0.537,0.367 -0.836,0.367 -1.07,0.201 -1.07,0 V -11.883 H 0 Z"
         style="fill:#ffffff;fill-opacity:1;fill-rule:nonzero;stroke:none"
         id="path6412"
         inkscape:connector-curvature="0" />
    </g>
    <path
       d="m 87.44851,100.17608 h 0.393347 v 1.16311 H 87.44851 Z"
       style="fill:#000000;fill-opacity:1;fill-rule:nonzero;stroke:#020202;stroke-width:0.18485555;stroke-linecap:butt;stroke-linejoin:miter;stroke-miterlimit:10;stroke-dasharray:none;stroke-opacity:1"
       id="path6414"
       inkscape:connector-curvature="0" />
    <g
       id="g6416"
       transform="matrix(0.35277777,0,0,-0.35277777,87.6745,99.379511)">
      <path
         d="M 0,0 1.83,-4.057 H -1.981 Z"
         style="fill:#000000;fill-opacity:1;fill-rule:nonzero;stroke:none"
         id="path6418"
         inkscape:connector-curvature="0" />
    </g>
    <g
       id="g6420"
       transform="matrix(0.35277777,0,0,-0.35277777,87.6745,99.379511)">
      <path
         d="M 0,0 1.83,-4.057 H -1.981 Z"
         style="fill:none;stroke:#020202;stroke-width:0.50400001;stroke-linecap:butt;stroke-linejoin:miter;stroke-miterlimit:10;stroke-dasharray:none;stroke-opacity:1"
         id="path6422"
         inkscape:connector-curvature="0" />
    </g>
    <g
       id="g6424"
       transform="matrix(0.35277777,0,0,-0.35277777,88.352855,94.652148)"
       inkscape:label="g6424"
       style="fill:#0000ff">
      <path
         d="M 0,0 4.41,-6.375 0,-12.523 -4.502,-6.375 Z"
         style="fill:#0000ff;fill-opacity:1;fill-rule:nonzero;stroke:none"
         id="path6426"
         inkscape:connector-curvature="0" />
    </g>
  </g>
</svg>
