<?xml version="1.0" encoding="UTF-8" standalone="no"?>
<!-- Created with Inkscape (http://www.inkscape.org/) -->

<svg
   xmlns:dc="http://purl.org/dc/elements/1.1/"
   xmlns:cc="http://creativecommons.org/ns#"
   xmlns:rdf="http://www.w3.org/1999/02/22-rdf-syntax-ns#"
   xmlns:svg="http://www.w3.org/2000/svg"
   xmlns="http://www.w3.org/2000/svg"
   xmlns:sodipodi="http://sodipodi.sourceforge.net/DTD/sodipodi-0.dtd"
   xmlns:inkscape="http://www.inkscape.org/namespaces/inkscape"
   width="20.611401mm"
   height="28.694237mm"
   viewBox="0 0 20.611401 28.694237"
   version="1.1"
   id="svg17344"
   inkscape:version="0.92.3 (2405546, 2018-03-11)"
   sodipodi:docname="Tc.svg">
  <defs
     id="defs17338" />
  <sodipodi:namedview
     id="base"
     pagecolor="#ffffff"
     bordercolor="#666666"
     borderopacity="1.0"
     inkscape:pageopacity="0.0"
     inkscape:pageshadow="2"
     inkscape:zoom="5.6"
     inkscape:cx="9.3358924"
     inkscape:cy="44.238962"
     inkscape:document-units="mm"
     inkscape:current-layer="layer1"
     showgrid="false"
     inkscape:window-width="1920"
     inkscape:window-height="1057"
     inkscape:window-x="-8"
     inkscape:window-y="-8"
     inkscape:window-maximized="1"
     fit-margin-top="0"
     fit-margin-left="0"
     fit-margin-right="0"
     fit-margin-bottom="0" />
  <metadata
     id="metadata17341">
    <rdf:RDF>
      <cc:Work
         rdf:about="">
        <dc:format>image/svg+xml</dc:format>
        <dc:type
           rdf:resource="http://purl.org/dc/dcmitype/StillImage" />
        <dc:title />
      </cc:Work>
    </rdf:RDF>
  </metadata>
  <g
     inkscape:label="Layer 1"
     inkscape:groupmode="layer"
     id="layer1"
     transform="translate(-176.94047,84.875845)">
    <path
       d="m 197.44074,-58.197378 c 0,1.04775 -0.85725,1.904645 -1.90465,1.904645 h -16.5795 c -1.04775,0 -1.905,-0.856895 -1.905,-1.904645 v -24.662695 c 0,-1.047397 0.85725,-1.904647 1.905,-1.904647 h 16.5795 c 1.0474,0 1.90465,0.85725 1.90465,1.904647 z"
       style="display:inline;fill:#fafafa;fill-opacity:1;fill-rule:evenodd;stroke:none;stroke-width:0.35277775"
       id="path7749"
       inkscape:connector-curvature="0" />
    <path
       d="m 197.44074,-58.197378 c 0,1.04775 -0.85725,1.904645 -1.90465,1.904645 h -16.5795 c -1.04775,0 -1.905,-0.856895 -1.905,-1.904645 v -24.662695 c 0,-1.047397 0.85725,-1.904647 1.905,-1.904647 h 16.5795 c 1.0474,0 1.90465,0.85725 1.90465,1.904647 z"
       style="display:inline;fill:none;stroke:#cccccc;stroke-width:0.22225;stroke-linecap:butt;stroke-linejoin:miter;stroke-miterlimit:3.86400008;stroke-dasharray:none;stroke-opacity:1"
       id="path7753"
       inkscape:connector-curvature="0" />
    <path
       d="m 178.50165,-81.661759 c 0.77999,0 0.95427,-0.376061 1.10984,-0.807508 h 0.67875 v 6.420908 h -1.0086 v -4.898319 h -0.77999 z"
       style="display:inline;fill:#008000;fill-opacity:1;fill-rule:nonzero;stroke:none;stroke-width:0.35277775"
       id="path7757"
       inkscape:connector-curvature="0" />
    <path
       d="m 181.70286,-77.525226 c 0,0.458964 0.20179,0.632883 0.52282,0.632883 0.32138,0 0.52317,-0.173919 0.52317,-0.632883 v -3.4671 c 0,-0.458611 -0.20179,-0.632883 -0.52317,-0.632883 -0.32103,0 -0.52282,0.174272 -0.52282,0.632883 z m -1.00859,-3.402894 c 0,-1.027289 0.54081,-1.614311 1.53141,-1.614311 0.9906,0 1.53176,0.587022 1.53176,1.614311 v 3.338689 c 0,1.027288 -0.54116,1.614663 -1.53176,1.614663 -0.9906,0 -1.53141,-0.587375 -1.53141,-1.614663 z"
       style="display:inline;fill:#008000;fill-opacity:1;fill-rule:nonzero;stroke:none;stroke-width:0.35277775"
       id="path7761"
       inkscape:connector-curvature="0" />
    <path
       d="m 182.00809,-73.256756 c -0.0998,0 -0.19438,0.0194 -0.2854,0.04798 0.12347,-0.162983 0.20073,-0.362656 0.20073,-0.582436 0,-0.531283 -0.43145,-0.963083 -0.96414,-0.963083 -0.53164,0 -0.96238,0.4318 -0.96238,0.963083 0,0.21978 0.0758,0.419453 0.19897,0.581378 -0.0903,-0.02752 -0.1845,-0.04692 -0.28434,-0.04692 -0.53128,0 -0.96344,0.431447 -0.96344,0.962731 0,0.532341 0.43216,0.963436 0.96344,0.963436 0.27481,0 0.51929,-0.117122 0.69427,-0.300214 -0.0427,0.349955 -0.1397,0.970139 -0.29951,1.091494 h 1.30704 c -0.16051,-0.121355 -0.25718,-0.741539 -0.30057,-1.091494 0.17569,0.183092 0.42122,0.300214 0.69533,0.300214 0.53128,0 0.96308,-0.431095 0.96308,-0.963436 0,-0.531284 -0.4318,-0.962731 -0.96308,-0.962731"
       style="display:inline;fill:#008000;fill-opacity:1;fill-rule:nonzero;stroke:none;stroke-width:0.35277775"
       id="path7765"
       inkscape:connector-curvature="0" />
    <path
       d="m 192.47084,-65.222985 c -0.25012,0 -0.48577,0.04904 -0.71296,0.119945 0.30868,-0.406047 0.49953,-0.906639 0.49953,-1.455208 0,-1.328561 -1.07703,-2.408061 -2.40771,-2.408061 -1.32962,0 -2.40735,1.0795 -2.40735,2.408061 0,0.548569 0.19015,1.049161 0.49883,1.453797 -0.22649,-0.0695 -0.46144,-0.118534 -0.71156,-0.118534 -1.32926,0 -2.4077,1.078442 -2.4077,2.407356 0,1.330678 1.07844,2.408767 2.4077,2.408767 0.68616,0 1.29928,-0.291395 1.73673,-0.749653 -0.10654,0.875947 -0.34996,2.424641 -0.75036,2.727325 h 3.26743 c -0.3997,-0.302684 -0.64135,-1.851378 -0.74966,-2.727325 0.43886,0.458258 1.05234,0.749653 1.73708,0.749653 1.32856,0 2.40806,-1.078089 2.40806,-2.408767 0,-1.328914 -1.0795,-2.407356 -2.40806,-2.407356"
       style="display:inline;fill:#008000;fill-opacity:1;fill-rule:nonzero;stroke:none;stroke-width:0.35277775"
       id="path7769"
       inkscape:connector-curvature="0" />
  </g>
</svg>
